%TF.GenerationSoftware,KiCad,Pcbnew,8.0.6*%
%TF.CreationDate,2024-11-08T15:32:17+11:00*%
%TF.ProjectId,aqua-pi-shield,61717561-2d70-4692-9d73-6869656c642e,rev?*%
%TF.SameCoordinates,Original*%
%TF.FileFunction,Drillmap*%
%TF.FilePolarity,Positive*%
%FSLAX45Y45*%
G04 Gerber Fmt 4.5, Leading zero omitted, Abs format (unit mm)*
G04 Created by KiCad (PCBNEW 8.0.6) date 2024-11-08 15:32:17*
%MOMM*%
%LPD*%
G01*
G04 APERTURE LIST*
%ADD10C,0.050000*%
%ADD11C,0.200000*%
%ADD12C,0.100000*%
G04 APERTURE END LIST*
D10*
X8400000Y-6750000D02*
X14900000Y-6750000D01*
X14900000Y-12750000D01*
X8400000Y-12750000D01*
X8400000Y-6750000D01*
D11*
D12*
X8855000Y-9871000D02*
X8925000Y-9941000D01*
X8925000Y-9871000D02*
X8855000Y-9941000D01*
X8855000Y-10379000D02*
X8925000Y-10449000D01*
X8925000Y-10379000D02*
X8855000Y-10449000D01*
X9363000Y-9363000D02*
X9433000Y-9433000D01*
X9433000Y-9363000D02*
X9363000Y-9433000D01*
X9363000Y-9871000D02*
X9433000Y-9941000D01*
X9433000Y-9871000D02*
X9363000Y-9941000D01*
X11395000Y-8601000D02*
X11465000Y-8671000D01*
X11465000Y-8601000D02*
X11395000Y-8671000D01*
X11395000Y-9109000D02*
X11465000Y-9179000D01*
X11465000Y-9109000D02*
X11395000Y-9179000D01*
X11395000Y-9617000D02*
X11465000Y-9687000D01*
X11465000Y-9617000D02*
X11395000Y-9687000D01*
X11395000Y-10125000D02*
X11465000Y-10195000D01*
X11465000Y-10125000D02*
X11395000Y-10195000D01*
X8927500Y-10922000D02*
G75*
G02*
X8852500Y-10922000I-37500J0D01*
G01*
X8852500Y-10922000D02*
G75*
G02*
X8927500Y-10922000I37500J0D01*
G01*
X8927500Y-11049000D02*
G75*
G02*
X8852500Y-11049000I-37500J0D01*
G01*
X8852500Y-11049000D02*
G75*
G02*
X8927500Y-11049000I37500J0D01*
G01*
X8927500Y-11176000D02*
G75*
G02*
X8852500Y-11176000I-37500J0D01*
G01*
X8852500Y-11176000D02*
G75*
G02*
X8927500Y-11176000I37500J0D01*
G01*
X9435500Y-10414000D02*
G75*
G02*
X9360500Y-10414000I-37500J0D01*
G01*
X9360500Y-10414000D02*
G75*
G02*
X9435500Y-10414000I37500J0D01*
G01*
X9435500Y-10541000D02*
G75*
G02*
X9360500Y-10541000I-37500J0D01*
G01*
X9360500Y-10541000D02*
G75*
G02*
X9435500Y-10541000I37500J0D01*
G01*
X9435500Y-10668000D02*
G75*
G02*
X9360500Y-10668000I-37500J0D01*
G01*
X9360500Y-10668000D02*
G75*
G02*
X9435500Y-10668000I37500J0D01*
G01*
X10418000Y-10120000D02*
X10418000Y-10200000D01*
X10378000Y-10160000D02*
X10458000Y-10160000D01*
X10418000Y-10374000D02*
X10418000Y-10454000D01*
X10378000Y-10414000D02*
X10458000Y-10414000D01*
X10668000Y-10120000D02*
X10668000Y-10200000D01*
X10628000Y-10160000D02*
X10708000Y-10160000D01*
X10668000Y-10374000D02*
X10668000Y-10454000D01*
X10628000Y-10414000D02*
X10708000Y-10414000D01*
X10442737Y-10696737D02*
X10442737Y-10639263D01*
X10385263Y-10639263D01*
X10385263Y-10696737D01*
X10442737Y-10696737D01*
X10442737Y-11458737D02*
X10442737Y-11401263D01*
X10385263Y-11401263D01*
X10385263Y-11458737D01*
X10442737Y-11458737D01*
X10696737Y-10696737D02*
X10696737Y-10639263D01*
X10639263Y-10639263D01*
X10639263Y-10696737D01*
X10696737Y-10696737D01*
X10696737Y-11458737D02*
X10696737Y-11401263D01*
X10639263Y-11401263D01*
X10639263Y-11458737D01*
X10696737Y-11458737D01*
X10950737Y-10696737D02*
X10950737Y-10639263D01*
X10893263Y-10639263D01*
X10893263Y-10696737D01*
X10950737Y-10696737D01*
X10950737Y-11458737D02*
X10950737Y-11401263D01*
X10893263Y-11401263D01*
X10893263Y-11458737D01*
X10950737Y-11458737D01*
X11204737Y-10696737D02*
X11204737Y-10639263D01*
X11147263Y-10639263D01*
X11147263Y-10696737D01*
X11204737Y-10696737D01*
X11204737Y-11458737D02*
X11204737Y-11401263D01*
X11147263Y-11401263D01*
X11147263Y-11458737D01*
X11204737Y-11458737D01*
X11458737Y-10696737D02*
X11458737Y-10639263D01*
X11401263Y-10639263D01*
X11401263Y-10696737D01*
X11458737Y-10696737D01*
X11458737Y-11458737D02*
X11458737Y-11401263D01*
X11401263Y-11401263D01*
X11401263Y-11458737D01*
X11458737Y-11458737D01*
X11712737Y-10696737D02*
X11712737Y-10639263D01*
X11655263Y-10639263D01*
X11655263Y-10696737D01*
X11712737Y-10696737D01*
X11712737Y-11458737D02*
X11712737Y-11401263D01*
X11655263Y-11401263D01*
X11655263Y-11458737D01*
X11712737Y-11458737D01*
X11966737Y-10696737D02*
X11966737Y-10639263D01*
X11909263Y-10639263D01*
X11909263Y-10696737D01*
X11966737Y-10696737D01*
X11966737Y-11458737D02*
X11966737Y-11401263D01*
X11909263Y-11401263D01*
X11909263Y-11458737D01*
X11966737Y-11458737D01*
X12220737Y-10696737D02*
X12220737Y-10639263D01*
X12163263Y-10639263D01*
X12163263Y-10696737D01*
X12220737Y-10696737D01*
X12220737Y-11458737D02*
X12220737Y-11401263D01*
X12163263Y-11401263D01*
X12163263Y-11458737D01*
X12220737Y-11458737D01*
X9144000Y-11802000D02*
X9194000Y-11752000D01*
X9144000Y-11702000D01*
X9094000Y-11752000D01*
X9144000Y-11802000D01*
X9330000Y-8302000D02*
X9380000Y-8252000D01*
X9330000Y-8202000D01*
X9280000Y-8252000D01*
X9330000Y-8302000D01*
X9330000Y-8556000D02*
X9380000Y-8506000D01*
X9330000Y-8456000D01*
X9280000Y-8506000D01*
X9330000Y-8556000D01*
X9398000Y-11802000D02*
X9448000Y-11752000D01*
X9398000Y-11702000D01*
X9348000Y-11752000D01*
X9398000Y-11802000D01*
X9652000Y-7416000D02*
X9702000Y-7366000D01*
X9652000Y-7316000D01*
X9602000Y-7366000D01*
X9652000Y-7416000D01*
X9652000Y-7670000D02*
X9702000Y-7620000D01*
X9652000Y-7570000D01*
X9602000Y-7620000D01*
X9652000Y-7670000D01*
X9906000Y-7416000D02*
X9956000Y-7366000D01*
X9906000Y-7316000D01*
X9856000Y-7366000D01*
X9906000Y-7416000D01*
X9906000Y-7670000D02*
X9956000Y-7620000D01*
X9906000Y-7570000D01*
X9856000Y-7620000D01*
X9906000Y-7670000D01*
X10160000Y-7416000D02*
X10210000Y-7366000D01*
X10160000Y-7316000D01*
X10110000Y-7366000D01*
X10160000Y-7416000D01*
X10160000Y-7670000D02*
X10210000Y-7620000D01*
X10160000Y-7570000D01*
X10110000Y-7620000D01*
X10160000Y-7670000D01*
X10414000Y-7416000D02*
X10464000Y-7366000D01*
X10414000Y-7316000D01*
X10364000Y-7366000D01*
X10414000Y-7416000D01*
X10414000Y-7670000D02*
X10464000Y-7620000D01*
X10414000Y-7570000D01*
X10364000Y-7620000D01*
X10414000Y-7670000D01*
X10414000Y-11802000D02*
X10464000Y-11752000D01*
X10414000Y-11702000D01*
X10364000Y-11752000D01*
X10414000Y-11802000D01*
X10668000Y-7416000D02*
X10718000Y-7366000D01*
X10668000Y-7316000D01*
X10618000Y-7366000D01*
X10668000Y-7416000D01*
X10668000Y-7670000D02*
X10718000Y-7620000D01*
X10668000Y-7570000D01*
X10618000Y-7620000D01*
X10668000Y-7670000D01*
X10668000Y-11802000D02*
X10718000Y-11752000D01*
X10668000Y-11702000D01*
X10618000Y-11752000D01*
X10668000Y-11802000D01*
X10922000Y-7416000D02*
X10972000Y-7366000D01*
X10922000Y-7316000D01*
X10872000Y-7366000D01*
X10922000Y-7416000D01*
X10922000Y-7670000D02*
X10972000Y-7620000D01*
X10922000Y-7570000D01*
X10872000Y-7620000D01*
X10922000Y-7670000D01*
X10922000Y-11802000D02*
X10972000Y-11752000D01*
X10922000Y-11702000D01*
X10872000Y-11752000D01*
X10922000Y-11802000D01*
X11176000Y-7416000D02*
X11226000Y-7366000D01*
X11176000Y-7316000D01*
X11126000Y-7366000D01*
X11176000Y-7416000D01*
X11176000Y-7670000D02*
X11226000Y-7620000D01*
X11176000Y-7570000D01*
X11126000Y-7620000D01*
X11176000Y-7670000D01*
X11176000Y-11802000D02*
X11226000Y-11752000D01*
X11176000Y-11702000D01*
X11126000Y-11752000D01*
X11176000Y-11802000D01*
X11430000Y-7416000D02*
X11480000Y-7366000D01*
X11430000Y-7316000D01*
X11380000Y-7366000D01*
X11430000Y-7416000D01*
X11430000Y-7670000D02*
X11480000Y-7620000D01*
X11430000Y-7570000D01*
X11380000Y-7620000D01*
X11430000Y-7670000D01*
X11430000Y-11802000D02*
X11480000Y-11752000D01*
X11430000Y-11702000D01*
X11380000Y-11752000D01*
X11430000Y-11802000D01*
X11684000Y-7416000D02*
X11734000Y-7366000D01*
X11684000Y-7316000D01*
X11634000Y-7366000D01*
X11684000Y-7416000D01*
X11684000Y-7670000D02*
X11734000Y-7620000D01*
X11684000Y-7570000D01*
X11634000Y-7620000D01*
X11684000Y-7670000D01*
X11684000Y-11802000D02*
X11734000Y-11752000D01*
X11684000Y-11702000D01*
X11634000Y-11752000D01*
X11684000Y-11802000D01*
X11938000Y-7416000D02*
X11988000Y-7366000D01*
X11938000Y-7316000D01*
X11888000Y-7366000D01*
X11938000Y-7416000D01*
X11938000Y-7670000D02*
X11988000Y-7620000D01*
X11938000Y-7570000D01*
X11888000Y-7620000D01*
X11938000Y-7670000D01*
X11938000Y-11802000D02*
X11988000Y-11752000D01*
X11938000Y-11702000D01*
X11888000Y-11752000D01*
X11938000Y-11802000D01*
X12192000Y-7416000D02*
X12242000Y-7366000D01*
X12192000Y-7316000D01*
X12142000Y-7366000D01*
X12192000Y-7416000D01*
X12192000Y-7670000D02*
X12242000Y-7620000D01*
X12192000Y-7570000D01*
X12142000Y-7620000D01*
X12192000Y-7670000D01*
X12192000Y-11802000D02*
X12242000Y-11752000D01*
X12192000Y-11702000D01*
X12142000Y-11752000D01*
X12192000Y-11802000D01*
X12446000Y-7416000D02*
X12496000Y-7366000D01*
X12446000Y-7316000D01*
X12396000Y-7366000D01*
X12446000Y-7416000D01*
X12446000Y-7670000D02*
X12496000Y-7620000D01*
X12446000Y-7570000D01*
X12396000Y-7620000D01*
X12446000Y-7670000D01*
X12700000Y-7416000D02*
X12750000Y-7366000D01*
X12700000Y-7316000D01*
X12650000Y-7366000D01*
X12700000Y-7416000D01*
X12700000Y-7670000D02*
X12750000Y-7620000D01*
X12700000Y-7570000D01*
X12650000Y-7620000D01*
X12700000Y-7670000D01*
X12954000Y-7416000D02*
X13004000Y-7366000D01*
X12954000Y-7316000D01*
X12904000Y-7366000D01*
X12954000Y-7416000D01*
X12954000Y-7670000D02*
X13004000Y-7620000D01*
X12954000Y-7570000D01*
X12904000Y-7620000D01*
X12954000Y-7670000D01*
X13208000Y-7416000D02*
X13258000Y-7366000D01*
X13208000Y-7316000D01*
X13158000Y-7366000D01*
X13208000Y-7416000D01*
X13208000Y-7670000D02*
X13258000Y-7620000D01*
X13208000Y-7570000D01*
X13158000Y-7620000D01*
X13208000Y-7670000D01*
X13460000Y-11802000D02*
X13510000Y-11752000D01*
X13460000Y-11702000D01*
X13410000Y-11752000D01*
X13460000Y-11802000D01*
X13462000Y-7416000D02*
X13512000Y-7366000D01*
X13462000Y-7316000D01*
X13412000Y-7366000D01*
X13462000Y-7416000D01*
X13462000Y-7670000D02*
X13512000Y-7620000D01*
X13462000Y-7570000D01*
X13412000Y-7620000D01*
X13462000Y-7670000D01*
X13714000Y-11802000D02*
X13764000Y-11752000D01*
X13714000Y-11702000D01*
X13664000Y-11752000D01*
X13714000Y-11802000D01*
X13716000Y-7416000D02*
X13766000Y-7366000D01*
X13716000Y-7316000D01*
X13666000Y-7366000D01*
X13716000Y-7416000D01*
X13716000Y-7670000D02*
X13766000Y-7620000D01*
X13716000Y-7570000D01*
X13666000Y-7620000D01*
X13716000Y-7670000D01*
X13968000Y-11802000D02*
X14018000Y-11752000D01*
X13968000Y-11702000D01*
X13918000Y-11752000D01*
X13968000Y-11802000D01*
X13970000Y-7416000D02*
X14020000Y-7366000D01*
X13970000Y-7316000D01*
X13920000Y-7366000D01*
X13970000Y-7416000D01*
X13970000Y-7670000D02*
X14020000Y-7620000D01*
X13970000Y-7570000D01*
X13920000Y-7620000D01*
X13970000Y-7670000D01*
X14222000Y-11802000D02*
X14272000Y-11752000D01*
X14222000Y-11702000D01*
X14172000Y-11752000D01*
X14222000Y-11802000D01*
X14224000Y-7416000D02*
X14274000Y-7366000D01*
X14224000Y-7316000D01*
X14174000Y-7366000D01*
X14224000Y-7416000D01*
X14224000Y-7670000D02*
X14274000Y-7620000D01*
X14224000Y-7570000D01*
X14174000Y-7620000D01*
X14224000Y-7670000D01*
X14476000Y-11802000D02*
X14526000Y-11752000D01*
X14476000Y-11702000D01*
X14426000Y-11752000D01*
X14476000Y-11802000D01*
X14478000Y-7416000D02*
X14528000Y-7366000D01*
X14478000Y-7316000D01*
X14428000Y-7366000D01*
X14478000Y-7416000D01*
X14478000Y-7670000D02*
X14528000Y-7620000D01*
X14478000Y-7570000D01*
X14428000Y-7620000D01*
X14478000Y-7670000D01*
D11*
X8658277Y-13063984D02*
X8658277Y-12863984D01*
X8658277Y-12863984D02*
X8705896Y-12863984D01*
X8705896Y-12863984D02*
X8734467Y-12873508D01*
X8734467Y-12873508D02*
X8753515Y-12892555D01*
X8753515Y-12892555D02*
X8763039Y-12911603D01*
X8763039Y-12911603D02*
X8772563Y-12949698D01*
X8772563Y-12949698D02*
X8772563Y-12978269D01*
X8772563Y-12978269D02*
X8763039Y-13016365D01*
X8763039Y-13016365D02*
X8753515Y-13035412D01*
X8753515Y-13035412D02*
X8734467Y-13054460D01*
X8734467Y-13054460D02*
X8705896Y-13063984D01*
X8705896Y-13063984D02*
X8658277Y-13063984D01*
X8858277Y-13063984D02*
X8858277Y-12930650D01*
X8858277Y-12968746D02*
X8867801Y-12949698D01*
X8867801Y-12949698D02*
X8877324Y-12940174D01*
X8877324Y-12940174D02*
X8896372Y-12930650D01*
X8896372Y-12930650D02*
X8915420Y-12930650D01*
X8982086Y-13063984D02*
X8982086Y-12930650D01*
X8982086Y-12863984D02*
X8972563Y-12873508D01*
X8972563Y-12873508D02*
X8982086Y-12883031D01*
X8982086Y-12883031D02*
X8991610Y-12873508D01*
X8991610Y-12873508D02*
X8982086Y-12863984D01*
X8982086Y-12863984D02*
X8982086Y-12883031D01*
X9105896Y-13063984D02*
X9086848Y-13054460D01*
X9086848Y-13054460D02*
X9077324Y-13035412D01*
X9077324Y-13035412D02*
X9077324Y-12863984D01*
X9210658Y-13063984D02*
X9191610Y-13054460D01*
X9191610Y-13054460D02*
X9182086Y-13035412D01*
X9182086Y-13035412D02*
X9182086Y-12863984D01*
X9439229Y-13063984D02*
X9439229Y-12863984D01*
X9439229Y-12863984D02*
X9505896Y-13006841D01*
X9505896Y-13006841D02*
X9572563Y-12863984D01*
X9572563Y-12863984D02*
X9572563Y-13063984D01*
X9753515Y-13063984D02*
X9753515Y-12959222D01*
X9753515Y-12959222D02*
X9743991Y-12940174D01*
X9743991Y-12940174D02*
X9724944Y-12930650D01*
X9724944Y-12930650D02*
X9686848Y-12930650D01*
X9686848Y-12930650D02*
X9667801Y-12940174D01*
X9753515Y-13054460D02*
X9734467Y-13063984D01*
X9734467Y-13063984D02*
X9686848Y-13063984D01*
X9686848Y-13063984D02*
X9667801Y-13054460D01*
X9667801Y-13054460D02*
X9658277Y-13035412D01*
X9658277Y-13035412D02*
X9658277Y-13016365D01*
X9658277Y-13016365D02*
X9667801Y-12997317D01*
X9667801Y-12997317D02*
X9686848Y-12987793D01*
X9686848Y-12987793D02*
X9734467Y-12987793D01*
X9734467Y-12987793D02*
X9753515Y-12978269D01*
X9848753Y-12930650D02*
X9848753Y-13130650D01*
X9848753Y-12940174D02*
X9867801Y-12930650D01*
X9867801Y-12930650D02*
X9905896Y-12930650D01*
X9905896Y-12930650D02*
X9924944Y-12940174D01*
X9924944Y-12940174D02*
X9934467Y-12949698D01*
X9934467Y-12949698D02*
X9943991Y-12968746D01*
X9943991Y-12968746D02*
X9943991Y-13025888D01*
X9943991Y-13025888D02*
X9934467Y-13044936D01*
X9934467Y-13044936D02*
X9924944Y-13054460D01*
X9924944Y-13054460D02*
X9905896Y-13063984D01*
X9905896Y-13063984D02*
X9867801Y-13063984D01*
X9867801Y-13063984D02*
X9848753Y-13054460D01*
X10029705Y-13044936D02*
X10039229Y-13054460D01*
X10039229Y-13054460D02*
X10029705Y-13063984D01*
X10029705Y-13063984D02*
X10020182Y-13054460D01*
X10020182Y-13054460D02*
X10029705Y-13044936D01*
X10029705Y-13044936D02*
X10029705Y-13063984D01*
X10029705Y-12940174D02*
X10039229Y-12949698D01*
X10039229Y-12949698D02*
X10029705Y-12959222D01*
X10029705Y-12959222D02*
X10020182Y-12949698D01*
X10020182Y-12949698D02*
X10029705Y-12940174D01*
X10029705Y-12940174D02*
X10029705Y-12959222D01*
D12*
X8327500Y-13357500D02*
X8397500Y-13427500D01*
X8397500Y-13357500D02*
X8327500Y-13427500D01*
D11*
X8696372Y-13283984D02*
X8715420Y-13283984D01*
X8715420Y-13283984D02*
X8734467Y-13293508D01*
X8734467Y-13293508D02*
X8743991Y-13303031D01*
X8743991Y-13303031D02*
X8753515Y-13322079D01*
X8753515Y-13322079D02*
X8763039Y-13360174D01*
X8763039Y-13360174D02*
X8763039Y-13407793D01*
X8763039Y-13407793D02*
X8753515Y-13445888D01*
X8753515Y-13445888D02*
X8743991Y-13464936D01*
X8743991Y-13464936D02*
X8734467Y-13474460D01*
X8734467Y-13474460D02*
X8715420Y-13483984D01*
X8715420Y-13483984D02*
X8696372Y-13483984D01*
X8696372Y-13483984D02*
X8677324Y-13474460D01*
X8677324Y-13474460D02*
X8667801Y-13464936D01*
X8667801Y-13464936D02*
X8658277Y-13445888D01*
X8658277Y-13445888D02*
X8648753Y-13407793D01*
X8648753Y-13407793D02*
X8648753Y-13360174D01*
X8648753Y-13360174D02*
X8658277Y-13322079D01*
X8658277Y-13322079D02*
X8667801Y-13303031D01*
X8667801Y-13303031D02*
X8677324Y-13293508D01*
X8677324Y-13293508D02*
X8696372Y-13283984D01*
X8848753Y-13464936D02*
X8858277Y-13474460D01*
X8858277Y-13474460D02*
X8848753Y-13483984D01*
X8848753Y-13483984D02*
X8839229Y-13474460D01*
X8839229Y-13474460D02*
X8848753Y-13464936D01*
X8848753Y-13464936D02*
X8848753Y-13483984D01*
X8924944Y-13283984D02*
X9058277Y-13283984D01*
X9058277Y-13283984D02*
X8972563Y-13483984D01*
X9172563Y-13283984D02*
X9191610Y-13283984D01*
X9191610Y-13283984D02*
X9210658Y-13293508D01*
X9210658Y-13293508D02*
X9220182Y-13303031D01*
X9220182Y-13303031D02*
X9229705Y-13322079D01*
X9229705Y-13322079D02*
X9239229Y-13360174D01*
X9239229Y-13360174D02*
X9239229Y-13407793D01*
X9239229Y-13407793D02*
X9229705Y-13445888D01*
X9229705Y-13445888D02*
X9220182Y-13464936D01*
X9220182Y-13464936D02*
X9210658Y-13474460D01*
X9210658Y-13474460D02*
X9191610Y-13483984D01*
X9191610Y-13483984D02*
X9172563Y-13483984D01*
X9172563Y-13483984D02*
X9153515Y-13474460D01*
X9153515Y-13474460D02*
X9143991Y-13464936D01*
X9143991Y-13464936D02*
X9134467Y-13445888D01*
X9134467Y-13445888D02*
X9124944Y-13407793D01*
X9124944Y-13407793D02*
X9124944Y-13360174D01*
X9124944Y-13360174D02*
X9134467Y-13322079D01*
X9134467Y-13322079D02*
X9143991Y-13303031D01*
X9143991Y-13303031D02*
X9153515Y-13293508D01*
X9153515Y-13293508D02*
X9172563Y-13283984D01*
X9363039Y-13283984D02*
X9382086Y-13283984D01*
X9382086Y-13283984D02*
X9401134Y-13293508D01*
X9401134Y-13293508D02*
X9410658Y-13303031D01*
X9410658Y-13303031D02*
X9420182Y-13322079D01*
X9420182Y-13322079D02*
X9429705Y-13360174D01*
X9429705Y-13360174D02*
X9429705Y-13407793D01*
X9429705Y-13407793D02*
X9420182Y-13445888D01*
X9420182Y-13445888D02*
X9410658Y-13464936D01*
X9410658Y-13464936D02*
X9401134Y-13474460D01*
X9401134Y-13474460D02*
X9382086Y-13483984D01*
X9382086Y-13483984D02*
X9363039Y-13483984D01*
X9363039Y-13483984D02*
X9343991Y-13474460D01*
X9343991Y-13474460D02*
X9334467Y-13464936D01*
X9334467Y-13464936D02*
X9324944Y-13445888D01*
X9324944Y-13445888D02*
X9315420Y-13407793D01*
X9315420Y-13407793D02*
X9315420Y-13360174D01*
X9315420Y-13360174D02*
X9324944Y-13322079D01*
X9324944Y-13322079D02*
X9334467Y-13303031D01*
X9334467Y-13303031D02*
X9343991Y-13293508D01*
X9343991Y-13293508D02*
X9363039Y-13283984D01*
X9515420Y-13483984D02*
X9515420Y-13350650D01*
X9515420Y-13369698D02*
X9524944Y-13360174D01*
X9524944Y-13360174D02*
X9543991Y-13350650D01*
X9543991Y-13350650D02*
X9572563Y-13350650D01*
X9572563Y-13350650D02*
X9591610Y-13360174D01*
X9591610Y-13360174D02*
X9601134Y-13379222D01*
X9601134Y-13379222D02*
X9601134Y-13483984D01*
X9601134Y-13379222D02*
X9610658Y-13360174D01*
X9610658Y-13360174D02*
X9629705Y-13350650D01*
X9629705Y-13350650D02*
X9658277Y-13350650D01*
X9658277Y-13350650D02*
X9677325Y-13360174D01*
X9677325Y-13360174D02*
X9686848Y-13379222D01*
X9686848Y-13379222D02*
X9686848Y-13483984D01*
X9782086Y-13483984D02*
X9782086Y-13350650D01*
X9782086Y-13369698D02*
X9791610Y-13360174D01*
X9791610Y-13360174D02*
X9810658Y-13350650D01*
X9810658Y-13350650D02*
X9839229Y-13350650D01*
X9839229Y-13350650D02*
X9858277Y-13360174D01*
X9858277Y-13360174D02*
X9867801Y-13379222D01*
X9867801Y-13379222D02*
X9867801Y-13483984D01*
X9867801Y-13379222D02*
X9877325Y-13360174D01*
X9877325Y-13360174D02*
X9896372Y-13350650D01*
X9896372Y-13350650D02*
X9924944Y-13350650D01*
X9924944Y-13350650D02*
X9943991Y-13360174D01*
X9943991Y-13360174D02*
X9953515Y-13379222D01*
X9953515Y-13379222D02*
X9953515Y-13483984D01*
X10343991Y-13274460D02*
X10172563Y-13531603D01*
X10601134Y-13283984D02*
X10620182Y-13283984D01*
X10620182Y-13283984D02*
X10639229Y-13293508D01*
X10639229Y-13293508D02*
X10648753Y-13303031D01*
X10648753Y-13303031D02*
X10658277Y-13322079D01*
X10658277Y-13322079D02*
X10667801Y-13360174D01*
X10667801Y-13360174D02*
X10667801Y-13407793D01*
X10667801Y-13407793D02*
X10658277Y-13445888D01*
X10658277Y-13445888D02*
X10648753Y-13464936D01*
X10648753Y-13464936D02*
X10639229Y-13474460D01*
X10639229Y-13474460D02*
X10620182Y-13483984D01*
X10620182Y-13483984D02*
X10601134Y-13483984D01*
X10601134Y-13483984D02*
X10582087Y-13474460D01*
X10582087Y-13474460D02*
X10572563Y-13464936D01*
X10572563Y-13464936D02*
X10563039Y-13445888D01*
X10563039Y-13445888D02*
X10553515Y-13407793D01*
X10553515Y-13407793D02*
X10553515Y-13360174D01*
X10553515Y-13360174D02*
X10563039Y-13322079D01*
X10563039Y-13322079D02*
X10572563Y-13303031D01*
X10572563Y-13303031D02*
X10582087Y-13293508D01*
X10582087Y-13293508D02*
X10601134Y-13283984D01*
X10753515Y-13464936D02*
X10763039Y-13474460D01*
X10763039Y-13474460D02*
X10753515Y-13483984D01*
X10753515Y-13483984D02*
X10743991Y-13474460D01*
X10743991Y-13474460D02*
X10753515Y-13464936D01*
X10753515Y-13464936D02*
X10753515Y-13483984D01*
X10886848Y-13283984D02*
X10905896Y-13283984D01*
X10905896Y-13283984D02*
X10924944Y-13293508D01*
X10924944Y-13293508D02*
X10934468Y-13303031D01*
X10934468Y-13303031D02*
X10943991Y-13322079D01*
X10943991Y-13322079D02*
X10953515Y-13360174D01*
X10953515Y-13360174D02*
X10953515Y-13407793D01*
X10953515Y-13407793D02*
X10943991Y-13445888D01*
X10943991Y-13445888D02*
X10934468Y-13464936D01*
X10934468Y-13464936D02*
X10924944Y-13474460D01*
X10924944Y-13474460D02*
X10905896Y-13483984D01*
X10905896Y-13483984D02*
X10886848Y-13483984D01*
X10886848Y-13483984D02*
X10867801Y-13474460D01*
X10867801Y-13474460D02*
X10858277Y-13464936D01*
X10858277Y-13464936D02*
X10848753Y-13445888D01*
X10848753Y-13445888D02*
X10839229Y-13407793D01*
X10839229Y-13407793D02*
X10839229Y-13360174D01*
X10839229Y-13360174D02*
X10848753Y-13322079D01*
X10848753Y-13322079D02*
X10858277Y-13303031D01*
X10858277Y-13303031D02*
X10867801Y-13293508D01*
X10867801Y-13293508D02*
X10886848Y-13283984D01*
X11029706Y-13303031D02*
X11039229Y-13293508D01*
X11039229Y-13293508D02*
X11058277Y-13283984D01*
X11058277Y-13283984D02*
X11105896Y-13283984D01*
X11105896Y-13283984D02*
X11124944Y-13293508D01*
X11124944Y-13293508D02*
X11134468Y-13303031D01*
X11134468Y-13303031D02*
X11143991Y-13322079D01*
X11143991Y-13322079D02*
X11143991Y-13341127D01*
X11143991Y-13341127D02*
X11134468Y-13369698D01*
X11134468Y-13369698D02*
X11020182Y-13483984D01*
X11020182Y-13483984D02*
X11143991Y-13483984D01*
X11210658Y-13283984D02*
X11343991Y-13283984D01*
X11343991Y-13283984D02*
X11258277Y-13483984D01*
X11505896Y-13283984D02*
X11467801Y-13283984D01*
X11467801Y-13283984D02*
X11448753Y-13293508D01*
X11448753Y-13293508D02*
X11439229Y-13303031D01*
X11439229Y-13303031D02*
X11420182Y-13331603D01*
X11420182Y-13331603D02*
X11410658Y-13369698D01*
X11410658Y-13369698D02*
X11410658Y-13445888D01*
X11410658Y-13445888D02*
X11420182Y-13464936D01*
X11420182Y-13464936D02*
X11429706Y-13474460D01*
X11429706Y-13474460D02*
X11448753Y-13483984D01*
X11448753Y-13483984D02*
X11486848Y-13483984D01*
X11486848Y-13483984D02*
X11505896Y-13474460D01*
X11505896Y-13474460D02*
X11515420Y-13464936D01*
X11515420Y-13464936D02*
X11524944Y-13445888D01*
X11524944Y-13445888D02*
X11524944Y-13398269D01*
X11524944Y-13398269D02*
X11515420Y-13379222D01*
X11515420Y-13379222D02*
X11505896Y-13369698D01*
X11505896Y-13369698D02*
X11486848Y-13360174D01*
X11486848Y-13360174D02*
X11448753Y-13360174D01*
X11448753Y-13360174D02*
X11429706Y-13369698D01*
X11429706Y-13369698D02*
X11420182Y-13379222D01*
X11420182Y-13379222D02*
X11410658Y-13398269D01*
X11601134Y-13283984D02*
X11601134Y-13322079D01*
X11677325Y-13283984D02*
X11677325Y-13322079D01*
X11972563Y-13560174D02*
X11963039Y-13550650D01*
X11963039Y-13550650D02*
X11943991Y-13522079D01*
X11943991Y-13522079D02*
X11934468Y-13503031D01*
X11934468Y-13503031D02*
X11924944Y-13474460D01*
X11924944Y-13474460D02*
X11915420Y-13426841D01*
X11915420Y-13426841D02*
X11915420Y-13388746D01*
X11915420Y-13388746D02*
X11924944Y-13341127D01*
X11924944Y-13341127D02*
X11934468Y-13312555D01*
X11934468Y-13312555D02*
X11943991Y-13293508D01*
X11943991Y-13293508D02*
X11963039Y-13264936D01*
X11963039Y-13264936D02*
X11972563Y-13255412D01*
X12077325Y-13369698D02*
X12058277Y-13360174D01*
X12058277Y-13360174D02*
X12048753Y-13350650D01*
X12048753Y-13350650D02*
X12039229Y-13331603D01*
X12039229Y-13331603D02*
X12039229Y-13322079D01*
X12039229Y-13322079D02*
X12048753Y-13303031D01*
X12048753Y-13303031D02*
X12058277Y-13293508D01*
X12058277Y-13293508D02*
X12077325Y-13283984D01*
X12077325Y-13283984D02*
X12115420Y-13283984D01*
X12115420Y-13283984D02*
X12134468Y-13293508D01*
X12134468Y-13293508D02*
X12143991Y-13303031D01*
X12143991Y-13303031D02*
X12153515Y-13322079D01*
X12153515Y-13322079D02*
X12153515Y-13331603D01*
X12153515Y-13331603D02*
X12143991Y-13350650D01*
X12143991Y-13350650D02*
X12134468Y-13360174D01*
X12134468Y-13360174D02*
X12115420Y-13369698D01*
X12115420Y-13369698D02*
X12077325Y-13369698D01*
X12077325Y-13369698D02*
X12058277Y-13379222D01*
X12058277Y-13379222D02*
X12048753Y-13388746D01*
X12048753Y-13388746D02*
X12039229Y-13407793D01*
X12039229Y-13407793D02*
X12039229Y-13445888D01*
X12039229Y-13445888D02*
X12048753Y-13464936D01*
X12048753Y-13464936D02*
X12058277Y-13474460D01*
X12058277Y-13474460D02*
X12077325Y-13483984D01*
X12077325Y-13483984D02*
X12115420Y-13483984D01*
X12115420Y-13483984D02*
X12134468Y-13474460D01*
X12134468Y-13474460D02*
X12143991Y-13464936D01*
X12143991Y-13464936D02*
X12153515Y-13445888D01*
X12153515Y-13445888D02*
X12153515Y-13407793D01*
X12153515Y-13407793D02*
X12143991Y-13388746D01*
X12143991Y-13388746D02*
X12134468Y-13379222D01*
X12134468Y-13379222D02*
X12115420Y-13369698D01*
X12391610Y-13483984D02*
X12391610Y-13283984D01*
X12477325Y-13483984D02*
X12477325Y-13379222D01*
X12477325Y-13379222D02*
X12467801Y-13360174D01*
X12467801Y-13360174D02*
X12448753Y-13350650D01*
X12448753Y-13350650D02*
X12420182Y-13350650D01*
X12420182Y-13350650D02*
X12401134Y-13360174D01*
X12401134Y-13360174D02*
X12391610Y-13369698D01*
X12601134Y-13483984D02*
X12582087Y-13474460D01*
X12582087Y-13474460D02*
X12572563Y-13464936D01*
X12572563Y-13464936D02*
X12563039Y-13445888D01*
X12563039Y-13445888D02*
X12563039Y-13388746D01*
X12563039Y-13388746D02*
X12572563Y-13369698D01*
X12572563Y-13369698D02*
X12582087Y-13360174D01*
X12582087Y-13360174D02*
X12601134Y-13350650D01*
X12601134Y-13350650D02*
X12629706Y-13350650D01*
X12629706Y-13350650D02*
X12648753Y-13360174D01*
X12648753Y-13360174D02*
X12658277Y-13369698D01*
X12658277Y-13369698D02*
X12667801Y-13388746D01*
X12667801Y-13388746D02*
X12667801Y-13445888D01*
X12667801Y-13445888D02*
X12658277Y-13464936D01*
X12658277Y-13464936D02*
X12648753Y-13474460D01*
X12648753Y-13474460D02*
X12629706Y-13483984D01*
X12629706Y-13483984D02*
X12601134Y-13483984D01*
X12782087Y-13483984D02*
X12763039Y-13474460D01*
X12763039Y-13474460D02*
X12753515Y-13455412D01*
X12753515Y-13455412D02*
X12753515Y-13283984D01*
X12934468Y-13474460D02*
X12915420Y-13483984D01*
X12915420Y-13483984D02*
X12877325Y-13483984D01*
X12877325Y-13483984D02*
X12858277Y-13474460D01*
X12858277Y-13474460D02*
X12848753Y-13455412D01*
X12848753Y-13455412D02*
X12848753Y-13379222D01*
X12848753Y-13379222D02*
X12858277Y-13360174D01*
X12858277Y-13360174D02*
X12877325Y-13350650D01*
X12877325Y-13350650D02*
X12915420Y-13350650D01*
X12915420Y-13350650D02*
X12934468Y-13360174D01*
X12934468Y-13360174D02*
X12943991Y-13379222D01*
X12943991Y-13379222D02*
X12943991Y-13398269D01*
X12943991Y-13398269D02*
X12848753Y-13417317D01*
X13020182Y-13474460D02*
X13039230Y-13483984D01*
X13039230Y-13483984D02*
X13077325Y-13483984D01*
X13077325Y-13483984D02*
X13096372Y-13474460D01*
X13096372Y-13474460D02*
X13105896Y-13455412D01*
X13105896Y-13455412D02*
X13105896Y-13445888D01*
X13105896Y-13445888D02*
X13096372Y-13426841D01*
X13096372Y-13426841D02*
X13077325Y-13417317D01*
X13077325Y-13417317D02*
X13048753Y-13417317D01*
X13048753Y-13417317D02*
X13029706Y-13407793D01*
X13029706Y-13407793D02*
X13020182Y-13388746D01*
X13020182Y-13388746D02*
X13020182Y-13379222D01*
X13020182Y-13379222D02*
X13029706Y-13360174D01*
X13029706Y-13360174D02*
X13048753Y-13350650D01*
X13048753Y-13350650D02*
X13077325Y-13350650D01*
X13077325Y-13350650D02*
X13096372Y-13360174D01*
X13172563Y-13560174D02*
X13182087Y-13550650D01*
X13182087Y-13550650D02*
X13201134Y-13522079D01*
X13201134Y-13522079D02*
X13210658Y-13503031D01*
X13210658Y-13503031D02*
X13220182Y-13474460D01*
X13220182Y-13474460D02*
X13229706Y-13426841D01*
X13229706Y-13426841D02*
X13229706Y-13388746D01*
X13229706Y-13388746D02*
X13220182Y-13341127D01*
X13220182Y-13341127D02*
X13210658Y-13312555D01*
X13210658Y-13312555D02*
X13201134Y-13293508D01*
X13201134Y-13293508D02*
X13182087Y-13264936D01*
X13182087Y-13264936D02*
X13172563Y-13255412D01*
D12*
X8397500Y-13656500D02*
G75*
G02*
X8322500Y-13656500I-37500J0D01*
G01*
X8322500Y-13656500D02*
G75*
G02*
X8397500Y-13656500I37500J0D01*
G01*
D11*
X8696372Y-13547984D02*
X8715420Y-13547984D01*
X8715420Y-13547984D02*
X8734467Y-13557508D01*
X8734467Y-13557508D02*
X8743991Y-13567031D01*
X8743991Y-13567031D02*
X8753515Y-13586079D01*
X8753515Y-13586079D02*
X8763039Y-13624174D01*
X8763039Y-13624174D02*
X8763039Y-13671793D01*
X8763039Y-13671793D02*
X8753515Y-13709888D01*
X8753515Y-13709888D02*
X8743991Y-13728936D01*
X8743991Y-13728936D02*
X8734467Y-13738460D01*
X8734467Y-13738460D02*
X8715420Y-13747984D01*
X8715420Y-13747984D02*
X8696372Y-13747984D01*
X8696372Y-13747984D02*
X8677324Y-13738460D01*
X8677324Y-13738460D02*
X8667801Y-13728936D01*
X8667801Y-13728936D02*
X8658277Y-13709888D01*
X8658277Y-13709888D02*
X8648753Y-13671793D01*
X8648753Y-13671793D02*
X8648753Y-13624174D01*
X8648753Y-13624174D02*
X8658277Y-13586079D01*
X8658277Y-13586079D02*
X8667801Y-13567031D01*
X8667801Y-13567031D02*
X8677324Y-13557508D01*
X8677324Y-13557508D02*
X8696372Y-13547984D01*
X8848753Y-13728936D02*
X8858277Y-13738460D01*
X8858277Y-13738460D02*
X8848753Y-13747984D01*
X8848753Y-13747984D02*
X8839229Y-13738460D01*
X8839229Y-13738460D02*
X8848753Y-13728936D01*
X8848753Y-13728936D02*
X8848753Y-13747984D01*
X8924944Y-13547984D02*
X9058277Y-13547984D01*
X9058277Y-13547984D02*
X8972563Y-13747984D01*
X9229705Y-13547984D02*
X9134467Y-13547984D01*
X9134467Y-13547984D02*
X9124944Y-13643222D01*
X9124944Y-13643222D02*
X9134467Y-13633698D01*
X9134467Y-13633698D02*
X9153515Y-13624174D01*
X9153515Y-13624174D02*
X9201134Y-13624174D01*
X9201134Y-13624174D02*
X9220182Y-13633698D01*
X9220182Y-13633698D02*
X9229705Y-13643222D01*
X9229705Y-13643222D02*
X9239229Y-13662269D01*
X9239229Y-13662269D02*
X9239229Y-13709888D01*
X9239229Y-13709888D02*
X9229705Y-13728936D01*
X9229705Y-13728936D02*
X9220182Y-13738460D01*
X9220182Y-13738460D02*
X9201134Y-13747984D01*
X9201134Y-13747984D02*
X9153515Y-13747984D01*
X9153515Y-13747984D02*
X9134467Y-13738460D01*
X9134467Y-13738460D02*
X9124944Y-13728936D01*
X9363039Y-13547984D02*
X9382086Y-13547984D01*
X9382086Y-13547984D02*
X9401134Y-13557508D01*
X9401134Y-13557508D02*
X9410658Y-13567031D01*
X9410658Y-13567031D02*
X9420182Y-13586079D01*
X9420182Y-13586079D02*
X9429705Y-13624174D01*
X9429705Y-13624174D02*
X9429705Y-13671793D01*
X9429705Y-13671793D02*
X9420182Y-13709888D01*
X9420182Y-13709888D02*
X9410658Y-13728936D01*
X9410658Y-13728936D02*
X9401134Y-13738460D01*
X9401134Y-13738460D02*
X9382086Y-13747984D01*
X9382086Y-13747984D02*
X9363039Y-13747984D01*
X9363039Y-13747984D02*
X9343991Y-13738460D01*
X9343991Y-13738460D02*
X9334467Y-13728936D01*
X9334467Y-13728936D02*
X9324944Y-13709888D01*
X9324944Y-13709888D02*
X9315420Y-13671793D01*
X9315420Y-13671793D02*
X9315420Y-13624174D01*
X9315420Y-13624174D02*
X9324944Y-13586079D01*
X9324944Y-13586079D02*
X9334467Y-13567031D01*
X9334467Y-13567031D02*
X9343991Y-13557508D01*
X9343991Y-13557508D02*
X9363039Y-13547984D01*
X9515420Y-13747984D02*
X9515420Y-13614650D01*
X9515420Y-13633698D02*
X9524944Y-13624174D01*
X9524944Y-13624174D02*
X9543991Y-13614650D01*
X9543991Y-13614650D02*
X9572563Y-13614650D01*
X9572563Y-13614650D02*
X9591610Y-13624174D01*
X9591610Y-13624174D02*
X9601134Y-13643222D01*
X9601134Y-13643222D02*
X9601134Y-13747984D01*
X9601134Y-13643222D02*
X9610658Y-13624174D01*
X9610658Y-13624174D02*
X9629705Y-13614650D01*
X9629705Y-13614650D02*
X9658277Y-13614650D01*
X9658277Y-13614650D02*
X9677325Y-13624174D01*
X9677325Y-13624174D02*
X9686848Y-13643222D01*
X9686848Y-13643222D02*
X9686848Y-13747984D01*
X9782086Y-13747984D02*
X9782086Y-13614650D01*
X9782086Y-13633698D02*
X9791610Y-13624174D01*
X9791610Y-13624174D02*
X9810658Y-13614650D01*
X9810658Y-13614650D02*
X9839229Y-13614650D01*
X9839229Y-13614650D02*
X9858277Y-13624174D01*
X9858277Y-13624174D02*
X9867801Y-13643222D01*
X9867801Y-13643222D02*
X9867801Y-13747984D01*
X9867801Y-13643222D02*
X9877325Y-13624174D01*
X9877325Y-13624174D02*
X9896372Y-13614650D01*
X9896372Y-13614650D02*
X9924944Y-13614650D01*
X9924944Y-13614650D02*
X9943991Y-13624174D01*
X9943991Y-13624174D02*
X9953515Y-13643222D01*
X9953515Y-13643222D02*
X9953515Y-13747984D01*
X10343991Y-13538460D02*
X10172563Y-13795603D01*
X10601134Y-13547984D02*
X10620182Y-13547984D01*
X10620182Y-13547984D02*
X10639229Y-13557508D01*
X10639229Y-13557508D02*
X10648753Y-13567031D01*
X10648753Y-13567031D02*
X10658277Y-13586079D01*
X10658277Y-13586079D02*
X10667801Y-13624174D01*
X10667801Y-13624174D02*
X10667801Y-13671793D01*
X10667801Y-13671793D02*
X10658277Y-13709888D01*
X10658277Y-13709888D02*
X10648753Y-13728936D01*
X10648753Y-13728936D02*
X10639229Y-13738460D01*
X10639229Y-13738460D02*
X10620182Y-13747984D01*
X10620182Y-13747984D02*
X10601134Y-13747984D01*
X10601134Y-13747984D02*
X10582087Y-13738460D01*
X10582087Y-13738460D02*
X10572563Y-13728936D01*
X10572563Y-13728936D02*
X10563039Y-13709888D01*
X10563039Y-13709888D02*
X10553515Y-13671793D01*
X10553515Y-13671793D02*
X10553515Y-13624174D01*
X10553515Y-13624174D02*
X10563039Y-13586079D01*
X10563039Y-13586079D02*
X10572563Y-13567031D01*
X10572563Y-13567031D02*
X10582087Y-13557508D01*
X10582087Y-13557508D02*
X10601134Y-13547984D01*
X10753515Y-13728936D02*
X10763039Y-13738460D01*
X10763039Y-13738460D02*
X10753515Y-13747984D01*
X10753515Y-13747984D02*
X10743991Y-13738460D01*
X10743991Y-13738460D02*
X10753515Y-13728936D01*
X10753515Y-13728936D02*
X10753515Y-13747984D01*
X10886848Y-13547984D02*
X10905896Y-13547984D01*
X10905896Y-13547984D02*
X10924944Y-13557508D01*
X10924944Y-13557508D02*
X10934468Y-13567031D01*
X10934468Y-13567031D02*
X10943991Y-13586079D01*
X10943991Y-13586079D02*
X10953515Y-13624174D01*
X10953515Y-13624174D02*
X10953515Y-13671793D01*
X10953515Y-13671793D02*
X10943991Y-13709888D01*
X10943991Y-13709888D02*
X10934468Y-13728936D01*
X10934468Y-13728936D02*
X10924944Y-13738460D01*
X10924944Y-13738460D02*
X10905896Y-13747984D01*
X10905896Y-13747984D02*
X10886848Y-13747984D01*
X10886848Y-13747984D02*
X10867801Y-13738460D01*
X10867801Y-13738460D02*
X10858277Y-13728936D01*
X10858277Y-13728936D02*
X10848753Y-13709888D01*
X10848753Y-13709888D02*
X10839229Y-13671793D01*
X10839229Y-13671793D02*
X10839229Y-13624174D01*
X10839229Y-13624174D02*
X10848753Y-13586079D01*
X10848753Y-13586079D02*
X10858277Y-13567031D01*
X10858277Y-13567031D02*
X10867801Y-13557508D01*
X10867801Y-13557508D02*
X10886848Y-13547984D01*
X11029706Y-13567031D02*
X11039229Y-13557508D01*
X11039229Y-13557508D02*
X11058277Y-13547984D01*
X11058277Y-13547984D02*
X11105896Y-13547984D01*
X11105896Y-13547984D02*
X11124944Y-13557508D01*
X11124944Y-13557508D02*
X11134468Y-13567031D01*
X11134468Y-13567031D02*
X11143991Y-13586079D01*
X11143991Y-13586079D02*
X11143991Y-13605127D01*
X11143991Y-13605127D02*
X11134468Y-13633698D01*
X11134468Y-13633698D02*
X11020182Y-13747984D01*
X11020182Y-13747984D02*
X11143991Y-13747984D01*
X11239229Y-13747984D02*
X11277325Y-13747984D01*
X11277325Y-13747984D02*
X11296372Y-13738460D01*
X11296372Y-13738460D02*
X11305896Y-13728936D01*
X11305896Y-13728936D02*
X11324944Y-13700365D01*
X11324944Y-13700365D02*
X11334467Y-13662269D01*
X11334467Y-13662269D02*
X11334467Y-13586079D01*
X11334467Y-13586079D02*
X11324944Y-13567031D01*
X11324944Y-13567031D02*
X11315420Y-13557508D01*
X11315420Y-13557508D02*
X11296372Y-13547984D01*
X11296372Y-13547984D02*
X11258277Y-13547984D01*
X11258277Y-13547984D02*
X11239229Y-13557508D01*
X11239229Y-13557508D02*
X11229706Y-13567031D01*
X11229706Y-13567031D02*
X11220182Y-13586079D01*
X11220182Y-13586079D02*
X11220182Y-13633698D01*
X11220182Y-13633698D02*
X11229706Y-13652746D01*
X11229706Y-13652746D02*
X11239229Y-13662269D01*
X11239229Y-13662269D02*
X11258277Y-13671793D01*
X11258277Y-13671793D02*
X11296372Y-13671793D01*
X11296372Y-13671793D02*
X11315420Y-13662269D01*
X11315420Y-13662269D02*
X11324944Y-13652746D01*
X11324944Y-13652746D02*
X11334467Y-13633698D01*
X11515420Y-13547984D02*
X11420182Y-13547984D01*
X11420182Y-13547984D02*
X11410658Y-13643222D01*
X11410658Y-13643222D02*
X11420182Y-13633698D01*
X11420182Y-13633698D02*
X11439229Y-13624174D01*
X11439229Y-13624174D02*
X11486848Y-13624174D01*
X11486848Y-13624174D02*
X11505896Y-13633698D01*
X11505896Y-13633698D02*
X11515420Y-13643222D01*
X11515420Y-13643222D02*
X11524944Y-13662269D01*
X11524944Y-13662269D02*
X11524944Y-13709888D01*
X11524944Y-13709888D02*
X11515420Y-13728936D01*
X11515420Y-13728936D02*
X11505896Y-13738460D01*
X11505896Y-13738460D02*
X11486848Y-13747984D01*
X11486848Y-13747984D02*
X11439229Y-13747984D01*
X11439229Y-13747984D02*
X11420182Y-13738460D01*
X11420182Y-13738460D02*
X11410658Y-13728936D01*
X11601134Y-13547984D02*
X11601134Y-13586079D01*
X11677325Y-13547984D02*
X11677325Y-13586079D01*
X11972563Y-13824174D02*
X11963039Y-13814650D01*
X11963039Y-13814650D02*
X11943991Y-13786079D01*
X11943991Y-13786079D02*
X11934468Y-13767031D01*
X11934468Y-13767031D02*
X11924944Y-13738460D01*
X11924944Y-13738460D02*
X11915420Y-13690841D01*
X11915420Y-13690841D02*
X11915420Y-13652746D01*
X11915420Y-13652746D02*
X11924944Y-13605127D01*
X11924944Y-13605127D02*
X11934468Y-13576555D01*
X11934468Y-13576555D02*
X11943991Y-13557508D01*
X11943991Y-13557508D02*
X11963039Y-13528936D01*
X11963039Y-13528936D02*
X11972563Y-13519412D01*
X12134468Y-13547984D02*
X12096372Y-13547984D01*
X12096372Y-13547984D02*
X12077325Y-13557508D01*
X12077325Y-13557508D02*
X12067801Y-13567031D01*
X12067801Y-13567031D02*
X12048753Y-13595603D01*
X12048753Y-13595603D02*
X12039229Y-13633698D01*
X12039229Y-13633698D02*
X12039229Y-13709888D01*
X12039229Y-13709888D02*
X12048753Y-13728936D01*
X12048753Y-13728936D02*
X12058277Y-13738460D01*
X12058277Y-13738460D02*
X12077325Y-13747984D01*
X12077325Y-13747984D02*
X12115420Y-13747984D01*
X12115420Y-13747984D02*
X12134468Y-13738460D01*
X12134468Y-13738460D02*
X12143991Y-13728936D01*
X12143991Y-13728936D02*
X12153515Y-13709888D01*
X12153515Y-13709888D02*
X12153515Y-13662269D01*
X12153515Y-13662269D02*
X12143991Y-13643222D01*
X12143991Y-13643222D02*
X12134468Y-13633698D01*
X12134468Y-13633698D02*
X12115420Y-13624174D01*
X12115420Y-13624174D02*
X12077325Y-13624174D01*
X12077325Y-13624174D02*
X12058277Y-13633698D01*
X12058277Y-13633698D02*
X12048753Y-13643222D01*
X12048753Y-13643222D02*
X12039229Y-13662269D01*
X12391610Y-13747984D02*
X12391610Y-13547984D01*
X12477325Y-13747984D02*
X12477325Y-13643222D01*
X12477325Y-13643222D02*
X12467801Y-13624174D01*
X12467801Y-13624174D02*
X12448753Y-13614650D01*
X12448753Y-13614650D02*
X12420182Y-13614650D01*
X12420182Y-13614650D02*
X12401134Y-13624174D01*
X12401134Y-13624174D02*
X12391610Y-13633698D01*
X12601134Y-13747984D02*
X12582087Y-13738460D01*
X12582087Y-13738460D02*
X12572563Y-13728936D01*
X12572563Y-13728936D02*
X12563039Y-13709888D01*
X12563039Y-13709888D02*
X12563039Y-13652746D01*
X12563039Y-13652746D02*
X12572563Y-13633698D01*
X12572563Y-13633698D02*
X12582087Y-13624174D01*
X12582087Y-13624174D02*
X12601134Y-13614650D01*
X12601134Y-13614650D02*
X12629706Y-13614650D01*
X12629706Y-13614650D02*
X12648753Y-13624174D01*
X12648753Y-13624174D02*
X12658277Y-13633698D01*
X12658277Y-13633698D02*
X12667801Y-13652746D01*
X12667801Y-13652746D02*
X12667801Y-13709888D01*
X12667801Y-13709888D02*
X12658277Y-13728936D01*
X12658277Y-13728936D02*
X12648753Y-13738460D01*
X12648753Y-13738460D02*
X12629706Y-13747984D01*
X12629706Y-13747984D02*
X12601134Y-13747984D01*
X12782087Y-13747984D02*
X12763039Y-13738460D01*
X12763039Y-13738460D02*
X12753515Y-13719412D01*
X12753515Y-13719412D02*
X12753515Y-13547984D01*
X12934468Y-13738460D02*
X12915420Y-13747984D01*
X12915420Y-13747984D02*
X12877325Y-13747984D01*
X12877325Y-13747984D02*
X12858277Y-13738460D01*
X12858277Y-13738460D02*
X12848753Y-13719412D01*
X12848753Y-13719412D02*
X12848753Y-13643222D01*
X12848753Y-13643222D02*
X12858277Y-13624174D01*
X12858277Y-13624174D02*
X12877325Y-13614650D01*
X12877325Y-13614650D02*
X12915420Y-13614650D01*
X12915420Y-13614650D02*
X12934468Y-13624174D01*
X12934468Y-13624174D02*
X12943991Y-13643222D01*
X12943991Y-13643222D02*
X12943991Y-13662269D01*
X12943991Y-13662269D02*
X12848753Y-13681317D01*
X13020182Y-13738460D02*
X13039230Y-13747984D01*
X13039230Y-13747984D02*
X13077325Y-13747984D01*
X13077325Y-13747984D02*
X13096372Y-13738460D01*
X13096372Y-13738460D02*
X13105896Y-13719412D01*
X13105896Y-13719412D02*
X13105896Y-13709888D01*
X13105896Y-13709888D02*
X13096372Y-13690841D01*
X13096372Y-13690841D02*
X13077325Y-13681317D01*
X13077325Y-13681317D02*
X13048753Y-13681317D01*
X13048753Y-13681317D02*
X13029706Y-13671793D01*
X13029706Y-13671793D02*
X13020182Y-13652746D01*
X13020182Y-13652746D02*
X13020182Y-13643222D01*
X13020182Y-13643222D02*
X13029706Y-13624174D01*
X13029706Y-13624174D02*
X13048753Y-13614650D01*
X13048753Y-13614650D02*
X13077325Y-13614650D01*
X13077325Y-13614650D02*
X13096372Y-13624174D01*
X13172563Y-13824174D02*
X13182087Y-13814650D01*
X13182087Y-13814650D02*
X13201134Y-13786079D01*
X13201134Y-13786079D02*
X13210658Y-13767031D01*
X13210658Y-13767031D02*
X13220182Y-13738460D01*
X13220182Y-13738460D02*
X13229706Y-13690841D01*
X13229706Y-13690841D02*
X13229706Y-13652746D01*
X13229706Y-13652746D02*
X13220182Y-13605127D01*
X13220182Y-13605127D02*
X13210658Y-13576555D01*
X13210658Y-13576555D02*
X13201134Y-13557508D01*
X13201134Y-13557508D02*
X13182087Y-13528936D01*
X13182087Y-13528936D02*
X13172563Y-13519412D01*
D12*
X8357500Y-13880500D02*
X8357500Y-13960500D01*
X8317500Y-13920500D02*
X8397500Y-13920500D01*
D11*
X8696372Y-13811984D02*
X8715420Y-13811984D01*
X8715420Y-13811984D02*
X8734467Y-13821508D01*
X8734467Y-13821508D02*
X8743991Y-13831031D01*
X8743991Y-13831031D02*
X8753515Y-13850079D01*
X8753515Y-13850079D02*
X8763039Y-13888174D01*
X8763039Y-13888174D02*
X8763039Y-13935793D01*
X8763039Y-13935793D02*
X8753515Y-13973888D01*
X8753515Y-13973888D02*
X8743991Y-13992936D01*
X8743991Y-13992936D02*
X8734467Y-14002460D01*
X8734467Y-14002460D02*
X8715420Y-14011984D01*
X8715420Y-14011984D02*
X8696372Y-14011984D01*
X8696372Y-14011984D02*
X8677324Y-14002460D01*
X8677324Y-14002460D02*
X8667801Y-13992936D01*
X8667801Y-13992936D02*
X8658277Y-13973888D01*
X8658277Y-13973888D02*
X8648753Y-13935793D01*
X8648753Y-13935793D02*
X8648753Y-13888174D01*
X8648753Y-13888174D02*
X8658277Y-13850079D01*
X8658277Y-13850079D02*
X8667801Y-13831031D01*
X8667801Y-13831031D02*
X8677324Y-13821508D01*
X8677324Y-13821508D02*
X8696372Y-13811984D01*
X8848753Y-13992936D02*
X8858277Y-14002460D01*
X8858277Y-14002460D02*
X8848753Y-14011984D01*
X8848753Y-14011984D02*
X8839229Y-14002460D01*
X8839229Y-14002460D02*
X8848753Y-13992936D01*
X8848753Y-13992936D02*
X8848753Y-14011984D01*
X8972563Y-13897698D02*
X8953515Y-13888174D01*
X8953515Y-13888174D02*
X8943991Y-13878650D01*
X8943991Y-13878650D02*
X8934467Y-13859603D01*
X8934467Y-13859603D02*
X8934467Y-13850079D01*
X8934467Y-13850079D02*
X8943991Y-13831031D01*
X8943991Y-13831031D02*
X8953515Y-13821508D01*
X8953515Y-13821508D02*
X8972563Y-13811984D01*
X8972563Y-13811984D02*
X9010658Y-13811984D01*
X9010658Y-13811984D02*
X9029705Y-13821508D01*
X9029705Y-13821508D02*
X9039229Y-13831031D01*
X9039229Y-13831031D02*
X9048753Y-13850079D01*
X9048753Y-13850079D02*
X9048753Y-13859603D01*
X9048753Y-13859603D02*
X9039229Y-13878650D01*
X9039229Y-13878650D02*
X9029705Y-13888174D01*
X9029705Y-13888174D02*
X9010658Y-13897698D01*
X9010658Y-13897698D02*
X8972563Y-13897698D01*
X8972563Y-13897698D02*
X8953515Y-13907222D01*
X8953515Y-13907222D02*
X8943991Y-13916746D01*
X8943991Y-13916746D02*
X8934467Y-13935793D01*
X8934467Y-13935793D02*
X8934467Y-13973888D01*
X8934467Y-13973888D02*
X8943991Y-13992936D01*
X8943991Y-13992936D02*
X8953515Y-14002460D01*
X8953515Y-14002460D02*
X8972563Y-14011984D01*
X8972563Y-14011984D02*
X9010658Y-14011984D01*
X9010658Y-14011984D02*
X9029705Y-14002460D01*
X9029705Y-14002460D02*
X9039229Y-13992936D01*
X9039229Y-13992936D02*
X9048753Y-13973888D01*
X9048753Y-13973888D02*
X9048753Y-13935793D01*
X9048753Y-13935793D02*
X9039229Y-13916746D01*
X9039229Y-13916746D02*
X9029705Y-13907222D01*
X9029705Y-13907222D02*
X9010658Y-13897698D01*
X9172563Y-13811984D02*
X9191610Y-13811984D01*
X9191610Y-13811984D02*
X9210658Y-13821508D01*
X9210658Y-13821508D02*
X9220182Y-13831031D01*
X9220182Y-13831031D02*
X9229705Y-13850079D01*
X9229705Y-13850079D02*
X9239229Y-13888174D01*
X9239229Y-13888174D02*
X9239229Y-13935793D01*
X9239229Y-13935793D02*
X9229705Y-13973888D01*
X9229705Y-13973888D02*
X9220182Y-13992936D01*
X9220182Y-13992936D02*
X9210658Y-14002460D01*
X9210658Y-14002460D02*
X9191610Y-14011984D01*
X9191610Y-14011984D02*
X9172563Y-14011984D01*
X9172563Y-14011984D02*
X9153515Y-14002460D01*
X9153515Y-14002460D02*
X9143991Y-13992936D01*
X9143991Y-13992936D02*
X9134467Y-13973888D01*
X9134467Y-13973888D02*
X9124944Y-13935793D01*
X9124944Y-13935793D02*
X9124944Y-13888174D01*
X9124944Y-13888174D02*
X9134467Y-13850079D01*
X9134467Y-13850079D02*
X9143991Y-13831031D01*
X9143991Y-13831031D02*
X9153515Y-13821508D01*
X9153515Y-13821508D02*
X9172563Y-13811984D01*
X9363039Y-13811984D02*
X9382086Y-13811984D01*
X9382086Y-13811984D02*
X9401134Y-13821508D01*
X9401134Y-13821508D02*
X9410658Y-13831031D01*
X9410658Y-13831031D02*
X9420182Y-13850079D01*
X9420182Y-13850079D02*
X9429705Y-13888174D01*
X9429705Y-13888174D02*
X9429705Y-13935793D01*
X9429705Y-13935793D02*
X9420182Y-13973888D01*
X9420182Y-13973888D02*
X9410658Y-13992936D01*
X9410658Y-13992936D02*
X9401134Y-14002460D01*
X9401134Y-14002460D02*
X9382086Y-14011984D01*
X9382086Y-14011984D02*
X9363039Y-14011984D01*
X9363039Y-14011984D02*
X9343991Y-14002460D01*
X9343991Y-14002460D02*
X9334467Y-13992936D01*
X9334467Y-13992936D02*
X9324944Y-13973888D01*
X9324944Y-13973888D02*
X9315420Y-13935793D01*
X9315420Y-13935793D02*
X9315420Y-13888174D01*
X9315420Y-13888174D02*
X9324944Y-13850079D01*
X9324944Y-13850079D02*
X9334467Y-13831031D01*
X9334467Y-13831031D02*
X9343991Y-13821508D01*
X9343991Y-13821508D02*
X9363039Y-13811984D01*
X9515420Y-14011984D02*
X9515420Y-13878650D01*
X9515420Y-13897698D02*
X9524944Y-13888174D01*
X9524944Y-13888174D02*
X9543991Y-13878650D01*
X9543991Y-13878650D02*
X9572563Y-13878650D01*
X9572563Y-13878650D02*
X9591610Y-13888174D01*
X9591610Y-13888174D02*
X9601134Y-13907222D01*
X9601134Y-13907222D02*
X9601134Y-14011984D01*
X9601134Y-13907222D02*
X9610658Y-13888174D01*
X9610658Y-13888174D02*
X9629705Y-13878650D01*
X9629705Y-13878650D02*
X9658277Y-13878650D01*
X9658277Y-13878650D02*
X9677325Y-13888174D01*
X9677325Y-13888174D02*
X9686848Y-13907222D01*
X9686848Y-13907222D02*
X9686848Y-14011984D01*
X9782086Y-14011984D02*
X9782086Y-13878650D01*
X9782086Y-13897698D02*
X9791610Y-13888174D01*
X9791610Y-13888174D02*
X9810658Y-13878650D01*
X9810658Y-13878650D02*
X9839229Y-13878650D01*
X9839229Y-13878650D02*
X9858277Y-13888174D01*
X9858277Y-13888174D02*
X9867801Y-13907222D01*
X9867801Y-13907222D02*
X9867801Y-14011984D01*
X9867801Y-13907222D02*
X9877325Y-13888174D01*
X9877325Y-13888174D02*
X9896372Y-13878650D01*
X9896372Y-13878650D02*
X9924944Y-13878650D01*
X9924944Y-13878650D02*
X9943991Y-13888174D01*
X9943991Y-13888174D02*
X9953515Y-13907222D01*
X9953515Y-13907222D02*
X9953515Y-14011984D01*
X10343991Y-13802460D02*
X10172563Y-14059603D01*
X10601134Y-13811984D02*
X10620182Y-13811984D01*
X10620182Y-13811984D02*
X10639229Y-13821508D01*
X10639229Y-13821508D02*
X10648753Y-13831031D01*
X10648753Y-13831031D02*
X10658277Y-13850079D01*
X10658277Y-13850079D02*
X10667801Y-13888174D01*
X10667801Y-13888174D02*
X10667801Y-13935793D01*
X10667801Y-13935793D02*
X10658277Y-13973888D01*
X10658277Y-13973888D02*
X10648753Y-13992936D01*
X10648753Y-13992936D02*
X10639229Y-14002460D01*
X10639229Y-14002460D02*
X10620182Y-14011984D01*
X10620182Y-14011984D02*
X10601134Y-14011984D01*
X10601134Y-14011984D02*
X10582087Y-14002460D01*
X10582087Y-14002460D02*
X10572563Y-13992936D01*
X10572563Y-13992936D02*
X10563039Y-13973888D01*
X10563039Y-13973888D02*
X10553515Y-13935793D01*
X10553515Y-13935793D02*
X10553515Y-13888174D01*
X10553515Y-13888174D02*
X10563039Y-13850079D01*
X10563039Y-13850079D02*
X10572563Y-13831031D01*
X10572563Y-13831031D02*
X10582087Y-13821508D01*
X10582087Y-13821508D02*
X10601134Y-13811984D01*
X10753515Y-13992936D02*
X10763039Y-14002460D01*
X10763039Y-14002460D02*
X10753515Y-14011984D01*
X10753515Y-14011984D02*
X10743991Y-14002460D01*
X10743991Y-14002460D02*
X10753515Y-13992936D01*
X10753515Y-13992936D02*
X10753515Y-14011984D01*
X10886848Y-13811984D02*
X10905896Y-13811984D01*
X10905896Y-13811984D02*
X10924944Y-13821508D01*
X10924944Y-13821508D02*
X10934468Y-13831031D01*
X10934468Y-13831031D02*
X10943991Y-13850079D01*
X10943991Y-13850079D02*
X10953515Y-13888174D01*
X10953515Y-13888174D02*
X10953515Y-13935793D01*
X10953515Y-13935793D02*
X10943991Y-13973888D01*
X10943991Y-13973888D02*
X10934468Y-13992936D01*
X10934468Y-13992936D02*
X10924944Y-14002460D01*
X10924944Y-14002460D02*
X10905896Y-14011984D01*
X10905896Y-14011984D02*
X10886848Y-14011984D01*
X10886848Y-14011984D02*
X10867801Y-14002460D01*
X10867801Y-14002460D02*
X10858277Y-13992936D01*
X10858277Y-13992936D02*
X10848753Y-13973888D01*
X10848753Y-13973888D02*
X10839229Y-13935793D01*
X10839229Y-13935793D02*
X10839229Y-13888174D01*
X10839229Y-13888174D02*
X10848753Y-13850079D01*
X10848753Y-13850079D02*
X10858277Y-13831031D01*
X10858277Y-13831031D02*
X10867801Y-13821508D01*
X10867801Y-13821508D02*
X10886848Y-13811984D01*
X11020182Y-13811984D02*
X11143991Y-13811984D01*
X11143991Y-13811984D02*
X11077325Y-13888174D01*
X11077325Y-13888174D02*
X11105896Y-13888174D01*
X11105896Y-13888174D02*
X11124944Y-13897698D01*
X11124944Y-13897698D02*
X11134468Y-13907222D01*
X11134468Y-13907222D02*
X11143991Y-13926269D01*
X11143991Y-13926269D02*
X11143991Y-13973888D01*
X11143991Y-13973888D02*
X11134468Y-13992936D01*
X11134468Y-13992936D02*
X11124944Y-14002460D01*
X11124944Y-14002460D02*
X11105896Y-14011984D01*
X11105896Y-14011984D02*
X11048753Y-14011984D01*
X11048753Y-14011984D02*
X11029706Y-14002460D01*
X11029706Y-14002460D02*
X11020182Y-13992936D01*
X11334467Y-14011984D02*
X11220182Y-14011984D01*
X11277325Y-14011984D02*
X11277325Y-13811984D01*
X11277325Y-13811984D02*
X11258277Y-13840555D01*
X11258277Y-13840555D02*
X11239229Y-13859603D01*
X11239229Y-13859603D02*
X11220182Y-13869127D01*
X11515420Y-13811984D02*
X11420182Y-13811984D01*
X11420182Y-13811984D02*
X11410658Y-13907222D01*
X11410658Y-13907222D02*
X11420182Y-13897698D01*
X11420182Y-13897698D02*
X11439229Y-13888174D01*
X11439229Y-13888174D02*
X11486848Y-13888174D01*
X11486848Y-13888174D02*
X11505896Y-13897698D01*
X11505896Y-13897698D02*
X11515420Y-13907222D01*
X11515420Y-13907222D02*
X11524944Y-13926269D01*
X11524944Y-13926269D02*
X11524944Y-13973888D01*
X11524944Y-13973888D02*
X11515420Y-13992936D01*
X11515420Y-13992936D02*
X11505896Y-14002460D01*
X11505896Y-14002460D02*
X11486848Y-14011984D01*
X11486848Y-14011984D02*
X11439229Y-14011984D01*
X11439229Y-14011984D02*
X11420182Y-14002460D01*
X11420182Y-14002460D02*
X11410658Y-13992936D01*
X11601134Y-13811984D02*
X11601134Y-13850079D01*
X11677325Y-13811984D02*
X11677325Y-13850079D01*
X11972563Y-14088174D02*
X11963039Y-14078650D01*
X11963039Y-14078650D02*
X11943991Y-14050079D01*
X11943991Y-14050079D02*
X11934468Y-14031031D01*
X11934468Y-14031031D02*
X11924944Y-14002460D01*
X11924944Y-14002460D02*
X11915420Y-13954841D01*
X11915420Y-13954841D02*
X11915420Y-13916746D01*
X11915420Y-13916746D02*
X11924944Y-13869127D01*
X11924944Y-13869127D02*
X11934468Y-13840555D01*
X11934468Y-13840555D02*
X11943991Y-13821508D01*
X11943991Y-13821508D02*
X11963039Y-13792936D01*
X11963039Y-13792936D02*
X11972563Y-13783412D01*
X12134468Y-13878650D02*
X12134468Y-14011984D01*
X12086848Y-13802460D02*
X12039229Y-13945317D01*
X12039229Y-13945317D02*
X12163039Y-13945317D01*
X12391610Y-14011984D02*
X12391610Y-13811984D01*
X12477325Y-14011984D02*
X12477325Y-13907222D01*
X12477325Y-13907222D02*
X12467801Y-13888174D01*
X12467801Y-13888174D02*
X12448753Y-13878650D01*
X12448753Y-13878650D02*
X12420182Y-13878650D01*
X12420182Y-13878650D02*
X12401134Y-13888174D01*
X12401134Y-13888174D02*
X12391610Y-13897698D01*
X12601134Y-14011984D02*
X12582087Y-14002460D01*
X12582087Y-14002460D02*
X12572563Y-13992936D01*
X12572563Y-13992936D02*
X12563039Y-13973888D01*
X12563039Y-13973888D02*
X12563039Y-13916746D01*
X12563039Y-13916746D02*
X12572563Y-13897698D01*
X12572563Y-13897698D02*
X12582087Y-13888174D01*
X12582087Y-13888174D02*
X12601134Y-13878650D01*
X12601134Y-13878650D02*
X12629706Y-13878650D01*
X12629706Y-13878650D02*
X12648753Y-13888174D01*
X12648753Y-13888174D02*
X12658277Y-13897698D01*
X12658277Y-13897698D02*
X12667801Y-13916746D01*
X12667801Y-13916746D02*
X12667801Y-13973888D01*
X12667801Y-13973888D02*
X12658277Y-13992936D01*
X12658277Y-13992936D02*
X12648753Y-14002460D01*
X12648753Y-14002460D02*
X12629706Y-14011984D01*
X12629706Y-14011984D02*
X12601134Y-14011984D01*
X12782087Y-14011984D02*
X12763039Y-14002460D01*
X12763039Y-14002460D02*
X12753515Y-13983412D01*
X12753515Y-13983412D02*
X12753515Y-13811984D01*
X12934468Y-14002460D02*
X12915420Y-14011984D01*
X12915420Y-14011984D02*
X12877325Y-14011984D01*
X12877325Y-14011984D02*
X12858277Y-14002460D01*
X12858277Y-14002460D02*
X12848753Y-13983412D01*
X12848753Y-13983412D02*
X12848753Y-13907222D01*
X12848753Y-13907222D02*
X12858277Y-13888174D01*
X12858277Y-13888174D02*
X12877325Y-13878650D01*
X12877325Y-13878650D02*
X12915420Y-13878650D01*
X12915420Y-13878650D02*
X12934468Y-13888174D01*
X12934468Y-13888174D02*
X12943991Y-13907222D01*
X12943991Y-13907222D02*
X12943991Y-13926269D01*
X12943991Y-13926269D02*
X12848753Y-13945317D01*
X13020182Y-14002460D02*
X13039230Y-14011984D01*
X13039230Y-14011984D02*
X13077325Y-14011984D01*
X13077325Y-14011984D02*
X13096372Y-14002460D01*
X13096372Y-14002460D02*
X13105896Y-13983412D01*
X13105896Y-13983412D02*
X13105896Y-13973888D01*
X13105896Y-13973888D02*
X13096372Y-13954841D01*
X13096372Y-13954841D02*
X13077325Y-13945317D01*
X13077325Y-13945317D02*
X13048753Y-13945317D01*
X13048753Y-13945317D02*
X13029706Y-13935793D01*
X13029706Y-13935793D02*
X13020182Y-13916746D01*
X13020182Y-13916746D02*
X13020182Y-13907222D01*
X13020182Y-13907222D02*
X13029706Y-13888174D01*
X13029706Y-13888174D02*
X13048753Y-13878650D01*
X13048753Y-13878650D02*
X13077325Y-13878650D01*
X13077325Y-13878650D02*
X13096372Y-13888174D01*
X13172563Y-14088174D02*
X13182087Y-14078650D01*
X13182087Y-14078650D02*
X13201134Y-14050079D01*
X13201134Y-14050079D02*
X13210658Y-14031031D01*
X13210658Y-14031031D02*
X13220182Y-14002460D01*
X13220182Y-14002460D02*
X13229706Y-13954841D01*
X13229706Y-13954841D02*
X13229706Y-13916746D01*
X13229706Y-13916746D02*
X13220182Y-13869127D01*
X13220182Y-13869127D02*
X13210658Y-13840555D01*
X13210658Y-13840555D02*
X13201134Y-13821508D01*
X13201134Y-13821508D02*
X13182087Y-13792936D01*
X13182087Y-13792936D02*
X13172563Y-13783412D01*
D12*
X8385597Y-14213237D02*
X8385597Y-14155763D01*
X8328123Y-14155763D01*
X8328123Y-14213237D01*
X8385597Y-14213237D01*
D11*
X8696372Y-14075984D02*
X8715420Y-14075984D01*
X8715420Y-14075984D02*
X8734467Y-14085508D01*
X8734467Y-14085508D02*
X8743991Y-14095031D01*
X8743991Y-14095031D02*
X8753515Y-14114079D01*
X8753515Y-14114079D02*
X8763039Y-14152174D01*
X8763039Y-14152174D02*
X8763039Y-14199793D01*
X8763039Y-14199793D02*
X8753515Y-14237888D01*
X8753515Y-14237888D02*
X8743991Y-14256936D01*
X8743991Y-14256936D02*
X8734467Y-14266460D01*
X8734467Y-14266460D02*
X8715420Y-14275984D01*
X8715420Y-14275984D02*
X8696372Y-14275984D01*
X8696372Y-14275984D02*
X8677324Y-14266460D01*
X8677324Y-14266460D02*
X8667801Y-14256936D01*
X8667801Y-14256936D02*
X8658277Y-14237888D01*
X8658277Y-14237888D02*
X8648753Y-14199793D01*
X8648753Y-14199793D02*
X8648753Y-14152174D01*
X8648753Y-14152174D02*
X8658277Y-14114079D01*
X8658277Y-14114079D02*
X8667801Y-14095031D01*
X8667801Y-14095031D02*
X8677324Y-14085508D01*
X8677324Y-14085508D02*
X8696372Y-14075984D01*
X8848753Y-14256936D02*
X8858277Y-14266460D01*
X8858277Y-14266460D02*
X8848753Y-14275984D01*
X8848753Y-14275984D02*
X8839229Y-14266460D01*
X8839229Y-14266460D02*
X8848753Y-14256936D01*
X8848753Y-14256936D02*
X8848753Y-14275984D01*
X8972563Y-14161698D02*
X8953515Y-14152174D01*
X8953515Y-14152174D02*
X8943991Y-14142650D01*
X8943991Y-14142650D02*
X8934467Y-14123603D01*
X8934467Y-14123603D02*
X8934467Y-14114079D01*
X8934467Y-14114079D02*
X8943991Y-14095031D01*
X8943991Y-14095031D02*
X8953515Y-14085508D01*
X8953515Y-14085508D02*
X8972563Y-14075984D01*
X8972563Y-14075984D02*
X9010658Y-14075984D01*
X9010658Y-14075984D02*
X9029705Y-14085508D01*
X9029705Y-14085508D02*
X9039229Y-14095031D01*
X9039229Y-14095031D02*
X9048753Y-14114079D01*
X9048753Y-14114079D02*
X9048753Y-14123603D01*
X9048753Y-14123603D02*
X9039229Y-14142650D01*
X9039229Y-14142650D02*
X9029705Y-14152174D01*
X9029705Y-14152174D02*
X9010658Y-14161698D01*
X9010658Y-14161698D02*
X8972563Y-14161698D01*
X8972563Y-14161698D02*
X8953515Y-14171222D01*
X8953515Y-14171222D02*
X8943991Y-14180746D01*
X8943991Y-14180746D02*
X8934467Y-14199793D01*
X8934467Y-14199793D02*
X8934467Y-14237888D01*
X8934467Y-14237888D02*
X8943991Y-14256936D01*
X8943991Y-14256936D02*
X8953515Y-14266460D01*
X8953515Y-14266460D02*
X8972563Y-14275984D01*
X8972563Y-14275984D02*
X9010658Y-14275984D01*
X9010658Y-14275984D02*
X9029705Y-14266460D01*
X9029705Y-14266460D02*
X9039229Y-14256936D01*
X9039229Y-14256936D02*
X9048753Y-14237888D01*
X9048753Y-14237888D02*
X9048753Y-14199793D01*
X9048753Y-14199793D02*
X9039229Y-14180746D01*
X9039229Y-14180746D02*
X9029705Y-14171222D01*
X9029705Y-14171222D02*
X9010658Y-14161698D01*
X9239229Y-14275984D02*
X9124944Y-14275984D01*
X9182086Y-14275984D02*
X9182086Y-14075984D01*
X9182086Y-14075984D02*
X9163039Y-14104555D01*
X9163039Y-14104555D02*
X9143991Y-14123603D01*
X9143991Y-14123603D02*
X9124944Y-14133127D01*
X9305896Y-14075984D02*
X9429705Y-14075984D01*
X9429705Y-14075984D02*
X9363039Y-14152174D01*
X9363039Y-14152174D02*
X9391610Y-14152174D01*
X9391610Y-14152174D02*
X9410658Y-14161698D01*
X9410658Y-14161698D02*
X9420182Y-14171222D01*
X9420182Y-14171222D02*
X9429705Y-14190269D01*
X9429705Y-14190269D02*
X9429705Y-14237888D01*
X9429705Y-14237888D02*
X9420182Y-14256936D01*
X9420182Y-14256936D02*
X9410658Y-14266460D01*
X9410658Y-14266460D02*
X9391610Y-14275984D01*
X9391610Y-14275984D02*
X9334467Y-14275984D01*
X9334467Y-14275984D02*
X9315420Y-14266460D01*
X9315420Y-14266460D02*
X9305896Y-14256936D01*
X9515420Y-14275984D02*
X9515420Y-14142650D01*
X9515420Y-14161698D02*
X9524944Y-14152174D01*
X9524944Y-14152174D02*
X9543991Y-14142650D01*
X9543991Y-14142650D02*
X9572563Y-14142650D01*
X9572563Y-14142650D02*
X9591610Y-14152174D01*
X9591610Y-14152174D02*
X9601134Y-14171222D01*
X9601134Y-14171222D02*
X9601134Y-14275984D01*
X9601134Y-14171222D02*
X9610658Y-14152174D01*
X9610658Y-14152174D02*
X9629705Y-14142650D01*
X9629705Y-14142650D02*
X9658277Y-14142650D01*
X9658277Y-14142650D02*
X9677325Y-14152174D01*
X9677325Y-14152174D02*
X9686848Y-14171222D01*
X9686848Y-14171222D02*
X9686848Y-14275984D01*
X9782086Y-14275984D02*
X9782086Y-14142650D01*
X9782086Y-14161698D02*
X9791610Y-14152174D01*
X9791610Y-14152174D02*
X9810658Y-14142650D01*
X9810658Y-14142650D02*
X9839229Y-14142650D01*
X9839229Y-14142650D02*
X9858277Y-14152174D01*
X9858277Y-14152174D02*
X9867801Y-14171222D01*
X9867801Y-14171222D02*
X9867801Y-14275984D01*
X9867801Y-14171222D02*
X9877325Y-14152174D01*
X9877325Y-14152174D02*
X9896372Y-14142650D01*
X9896372Y-14142650D02*
X9924944Y-14142650D01*
X9924944Y-14142650D02*
X9943991Y-14152174D01*
X9943991Y-14152174D02*
X9953515Y-14171222D01*
X9953515Y-14171222D02*
X9953515Y-14275984D01*
X10343991Y-14066460D02*
X10172563Y-14323603D01*
X10601134Y-14075984D02*
X10620182Y-14075984D01*
X10620182Y-14075984D02*
X10639229Y-14085508D01*
X10639229Y-14085508D02*
X10648753Y-14095031D01*
X10648753Y-14095031D02*
X10658277Y-14114079D01*
X10658277Y-14114079D02*
X10667801Y-14152174D01*
X10667801Y-14152174D02*
X10667801Y-14199793D01*
X10667801Y-14199793D02*
X10658277Y-14237888D01*
X10658277Y-14237888D02*
X10648753Y-14256936D01*
X10648753Y-14256936D02*
X10639229Y-14266460D01*
X10639229Y-14266460D02*
X10620182Y-14275984D01*
X10620182Y-14275984D02*
X10601134Y-14275984D01*
X10601134Y-14275984D02*
X10582087Y-14266460D01*
X10582087Y-14266460D02*
X10572563Y-14256936D01*
X10572563Y-14256936D02*
X10563039Y-14237888D01*
X10563039Y-14237888D02*
X10553515Y-14199793D01*
X10553515Y-14199793D02*
X10553515Y-14152174D01*
X10553515Y-14152174D02*
X10563039Y-14114079D01*
X10563039Y-14114079D02*
X10572563Y-14095031D01*
X10572563Y-14095031D02*
X10582087Y-14085508D01*
X10582087Y-14085508D02*
X10601134Y-14075984D01*
X10753515Y-14256936D02*
X10763039Y-14266460D01*
X10763039Y-14266460D02*
X10753515Y-14275984D01*
X10753515Y-14275984D02*
X10743991Y-14266460D01*
X10743991Y-14266460D02*
X10753515Y-14256936D01*
X10753515Y-14256936D02*
X10753515Y-14275984D01*
X10886848Y-14075984D02*
X10905896Y-14075984D01*
X10905896Y-14075984D02*
X10924944Y-14085508D01*
X10924944Y-14085508D02*
X10934468Y-14095031D01*
X10934468Y-14095031D02*
X10943991Y-14114079D01*
X10943991Y-14114079D02*
X10953515Y-14152174D01*
X10953515Y-14152174D02*
X10953515Y-14199793D01*
X10953515Y-14199793D02*
X10943991Y-14237888D01*
X10943991Y-14237888D02*
X10934468Y-14256936D01*
X10934468Y-14256936D02*
X10924944Y-14266460D01*
X10924944Y-14266460D02*
X10905896Y-14275984D01*
X10905896Y-14275984D02*
X10886848Y-14275984D01*
X10886848Y-14275984D02*
X10867801Y-14266460D01*
X10867801Y-14266460D02*
X10858277Y-14256936D01*
X10858277Y-14256936D02*
X10848753Y-14237888D01*
X10848753Y-14237888D02*
X10839229Y-14199793D01*
X10839229Y-14199793D02*
X10839229Y-14152174D01*
X10839229Y-14152174D02*
X10848753Y-14114079D01*
X10848753Y-14114079D02*
X10858277Y-14095031D01*
X10858277Y-14095031D02*
X10867801Y-14085508D01*
X10867801Y-14085508D02*
X10886848Y-14075984D01*
X11020182Y-14075984D02*
X11143991Y-14075984D01*
X11143991Y-14075984D02*
X11077325Y-14152174D01*
X11077325Y-14152174D02*
X11105896Y-14152174D01*
X11105896Y-14152174D02*
X11124944Y-14161698D01*
X11124944Y-14161698D02*
X11134468Y-14171222D01*
X11134468Y-14171222D02*
X11143991Y-14190269D01*
X11143991Y-14190269D02*
X11143991Y-14237888D01*
X11143991Y-14237888D02*
X11134468Y-14256936D01*
X11134468Y-14256936D02*
X11124944Y-14266460D01*
X11124944Y-14266460D02*
X11105896Y-14275984D01*
X11105896Y-14275984D02*
X11048753Y-14275984D01*
X11048753Y-14275984D02*
X11029706Y-14266460D01*
X11029706Y-14266460D02*
X11020182Y-14256936D01*
X11220182Y-14095031D02*
X11229706Y-14085508D01*
X11229706Y-14085508D02*
X11248753Y-14075984D01*
X11248753Y-14075984D02*
X11296372Y-14075984D01*
X11296372Y-14075984D02*
X11315420Y-14085508D01*
X11315420Y-14085508D02*
X11324944Y-14095031D01*
X11324944Y-14095031D02*
X11334467Y-14114079D01*
X11334467Y-14114079D02*
X11334467Y-14133127D01*
X11334467Y-14133127D02*
X11324944Y-14161698D01*
X11324944Y-14161698D02*
X11210658Y-14275984D01*
X11210658Y-14275984D02*
X11334467Y-14275984D01*
X11458277Y-14075984D02*
X11477325Y-14075984D01*
X11477325Y-14075984D02*
X11496372Y-14085508D01*
X11496372Y-14085508D02*
X11505896Y-14095031D01*
X11505896Y-14095031D02*
X11515420Y-14114079D01*
X11515420Y-14114079D02*
X11524944Y-14152174D01*
X11524944Y-14152174D02*
X11524944Y-14199793D01*
X11524944Y-14199793D02*
X11515420Y-14237888D01*
X11515420Y-14237888D02*
X11505896Y-14256936D01*
X11505896Y-14256936D02*
X11496372Y-14266460D01*
X11496372Y-14266460D02*
X11477325Y-14275984D01*
X11477325Y-14275984D02*
X11458277Y-14275984D01*
X11458277Y-14275984D02*
X11439229Y-14266460D01*
X11439229Y-14266460D02*
X11429706Y-14256936D01*
X11429706Y-14256936D02*
X11420182Y-14237888D01*
X11420182Y-14237888D02*
X11410658Y-14199793D01*
X11410658Y-14199793D02*
X11410658Y-14152174D01*
X11410658Y-14152174D02*
X11420182Y-14114079D01*
X11420182Y-14114079D02*
X11429706Y-14095031D01*
X11429706Y-14095031D02*
X11439229Y-14085508D01*
X11439229Y-14085508D02*
X11458277Y-14075984D01*
X11601134Y-14075984D02*
X11601134Y-14114079D01*
X11677325Y-14075984D02*
X11677325Y-14114079D01*
X11972563Y-14352174D02*
X11963039Y-14342650D01*
X11963039Y-14342650D02*
X11943991Y-14314079D01*
X11943991Y-14314079D02*
X11934468Y-14295031D01*
X11934468Y-14295031D02*
X11924944Y-14266460D01*
X11924944Y-14266460D02*
X11915420Y-14218841D01*
X11915420Y-14218841D02*
X11915420Y-14180746D01*
X11915420Y-14180746D02*
X11924944Y-14133127D01*
X11924944Y-14133127D02*
X11934468Y-14104555D01*
X11934468Y-14104555D02*
X11943991Y-14085508D01*
X11943991Y-14085508D02*
X11963039Y-14056936D01*
X11963039Y-14056936D02*
X11972563Y-14047412D01*
X12153515Y-14275984D02*
X12039229Y-14275984D01*
X12096372Y-14275984D02*
X12096372Y-14075984D01*
X12096372Y-14075984D02*
X12077325Y-14104555D01*
X12077325Y-14104555D02*
X12058277Y-14123603D01*
X12058277Y-14123603D02*
X12039229Y-14133127D01*
X12324944Y-14075984D02*
X12286848Y-14075984D01*
X12286848Y-14075984D02*
X12267801Y-14085508D01*
X12267801Y-14085508D02*
X12258277Y-14095031D01*
X12258277Y-14095031D02*
X12239229Y-14123603D01*
X12239229Y-14123603D02*
X12229706Y-14161698D01*
X12229706Y-14161698D02*
X12229706Y-14237888D01*
X12229706Y-14237888D02*
X12239229Y-14256936D01*
X12239229Y-14256936D02*
X12248753Y-14266460D01*
X12248753Y-14266460D02*
X12267801Y-14275984D01*
X12267801Y-14275984D02*
X12305896Y-14275984D01*
X12305896Y-14275984D02*
X12324944Y-14266460D01*
X12324944Y-14266460D02*
X12334468Y-14256936D01*
X12334468Y-14256936D02*
X12343991Y-14237888D01*
X12343991Y-14237888D02*
X12343991Y-14190269D01*
X12343991Y-14190269D02*
X12334468Y-14171222D01*
X12334468Y-14171222D02*
X12324944Y-14161698D01*
X12324944Y-14161698D02*
X12305896Y-14152174D01*
X12305896Y-14152174D02*
X12267801Y-14152174D01*
X12267801Y-14152174D02*
X12248753Y-14161698D01*
X12248753Y-14161698D02*
X12239229Y-14171222D01*
X12239229Y-14171222D02*
X12229706Y-14190269D01*
X12582087Y-14275984D02*
X12582087Y-14075984D01*
X12667801Y-14275984D02*
X12667801Y-14171222D01*
X12667801Y-14171222D02*
X12658277Y-14152174D01*
X12658277Y-14152174D02*
X12639230Y-14142650D01*
X12639230Y-14142650D02*
X12610658Y-14142650D01*
X12610658Y-14142650D02*
X12591610Y-14152174D01*
X12591610Y-14152174D02*
X12582087Y-14161698D01*
X12791610Y-14275984D02*
X12772563Y-14266460D01*
X12772563Y-14266460D02*
X12763039Y-14256936D01*
X12763039Y-14256936D02*
X12753515Y-14237888D01*
X12753515Y-14237888D02*
X12753515Y-14180746D01*
X12753515Y-14180746D02*
X12763039Y-14161698D01*
X12763039Y-14161698D02*
X12772563Y-14152174D01*
X12772563Y-14152174D02*
X12791610Y-14142650D01*
X12791610Y-14142650D02*
X12820182Y-14142650D01*
X12820182Y-14142650D02*
X12839230Y-14152174D01*
X12839230Y-14152174D02*
X12848753Y-14161698D01*
X12848753Y-14161698D02*
X12858277Y-14180746D01*
X12858277Y-14180746D02*
X12858277Y-14237888D01*
X12858277Y-14237888D02*
X12848753Y-14256936D01*
X12848753Y-14256936D02*
X12839230Y-14266460D01*
X12839230Y-14266460D02*
X12820182Y-14275984D01*
X12820182Y-14275984D02*
X12791610Y-14275984D01*
X12972563Y-14275984D02*
X12953515Y-14266460D01*
X12953515Y-14266460D02*
X12943991Y-14247412D01*
X12943991Y-14247412D02*
X12943991Y-14075984D01*
X13124944Y-14266460D02*
X13105896Y-14275984D01*
X13105896Y-14275984D02*
X13067801Y-14275984D01*
X13067801Y-14275984D02*
X13048753Y-14266460D01*
X13048753Y-14266460D02*
X13039230Y-14247412D01*
X13039230Y-14247412D02*
X13039230Y-14171222D01*
X13039230Y-14171222D02*
X13048753Y-14152174D01*
X13048753Y-14152174D02*
X13067801Y-14142650D01*
X13067801Y-14142650D02*
X13105896Y-14142650D01*
X13105896Y-14142650D02*
X13124944Y-14152174D01*
X13124944Y-14152174D02*
X13134468Y-14171222D01*
X13134468Y-14171222D02*
X13134468Y-14190269D01*
X13134468Y-14190269D02*
X13039230Y-14209317D01*
X13210658Y-14266460D02*
X13229706Y-14275984D01*
X13229706Y-14275984D02*
X13267801Y-14275984D01*
X13267801Y-14275984D02*
X13286849Y-14266460D01*
X13286849Y-14266460D02*
X13296372Y-14247412D01*
X13296372Y-14247412D02*
X13296372Y-14237888D01*
X13296372Y-14237888D02*
X13286849Y-14218841D01*
X13286849Y-14218841D02*
X13267801Y-14209317D01*
X13267801Y-14209317D02*
X13239230Y-14209317D01*
X13239230Y-14209317D02*
X13220182Y-14199793D01*
X13220182Y-14199793D02*
X13210658Y-14180746D01*
X13210658Y-14180746D02*
X13210658Y-14171222D01*
X13210658Y-14171222D02*
X13220182Y-14152174D01*
X13220182Y-14152174D02*
X13239230Y-14142650D01*
X13239230Y-14142650D02*
X13267801Y-14142650D01*
X13267801Y-14142650D02*
X13286849Y-14152174D01*
X13363039Y-14352174D02*
X13372563Y-14342650D01*
X13372563Y-14342650D02*
X13391611Y-14314079D01*
X13391611Y-14314079D02*
X13401134Y-14295031D01*
X13401134Y-14295031D02*
X13410658Y-14266460D01*
X13410658Y-14266460D02*
X13420182Y-14218841D01*
X13420182Y-14218841D02*
X13420182Y-14180746D01*
X13420182Y-14180746D02*
X13410658Y-14133127D01*
X13410658Y-14133127D02*
X13401134Y-14104555D01*
X13401134Y-14104555D02*
X13391611Y-14085508D01*
X13391611Y-14085508D02*
X13372563Y-14056936D01*
X13372563Y-14056936D02*
X13363039Y-14047412D01*
D12*
X8347500Y-14498500D02*
X8397500Y-14448500D01*
X8347500Y-14398500D01*
X8297500Y-14448500D01*
X8347500Y-14498500D01*
D11*
X8763039Y-14539984D02*
X8648753Y-14539984D01*
X8705896Y-14539984D02*
X8705896Y-14339984D01*
X8705896Y-14339984D02*
X8686848Y-14368555D01*
X8686848Y-14368555D02*
X8667801Y-14387603D01*
X8667801Y-14387603D02*
X8648753Y-14397127D01*
X8848753Y-14520936D02*
X8858277Y-14530460D01*
X8858277Y-14530460D02*
X8848753Y-14539984D01*
X8848753Y-14539984D02*
X8839229Y-14530460D01*
X8839229Y-14530460D02*
X8848753Y-14520936D01*
X8848753Y-14520936D02*
X8848753Y-14539984D01*
X8982086Y-14339984D02*
X9001134Y-14339984D01*
X9001134Y-14339984D02*
X9020182Y-14349508D01*
X9020182Y-14349508D02*
X9029705Y-14359031D01*
X9029705Y-14359031D02*
X9039229Y-14378079D01*
X9039229Y-14378079D02*
X9048753Y-14416174D01*
X9048753Y-14416174D02*
X9048753Y-14463793D01*
X9048753Y-14463793D02*
X9039229Y-14501888D01*
X9039229Y-14501888D02*
X9029705Y-14520936D01*
X9029705Y-14520936D02*
X9020182Y-14530460D01*
X9020182Y-14530460D02*
X9001134Y-14539984D01*
X9001134Y-14539984D02*
X8982086Y-14539984D01*
X8982086Y-14539984D02*
X8963039Y-14530460D01*
X8963039Y-14530460D02*
X8953515Y-14520936D01*
X8953515Y-14520936D02*
X8943991Y-14501888D01*
X8943991Y-14501888D02*
X8934467Y-14463793D01*
X8934467Y-14463793D02*
X8934467Y-14416174D01*
X8934467Y-14416174D02*
X8943991Y-14378079D01*
X8943991Y-14378079D02*
X8953515Y-14359031D01*
X8953515Y-14359031D02*
X8963039Y-14349508D01*
X8963039Y-14349508D02*
X8982086Y-14339984D01*
X9172563Y-14339984D02*
X9191610Y-14339984D01*
X9191610Y-14339984D02*
X9210658Y-14349508D01*
X9210658Y-14349508D02*
X9220182Y-14359031D01*
X9220182Y-14359031D02*
X9229705Y-14378079D01*
X9229705Y-14378079D02*
X9239229Y-14416174D01*
X9239229Y-14416174D02*
X9239229Y-14463793D01*
X9239229Y-14463793D02*
X9229705Y-14501888D01*
X9229705Y-14501888D02*
X9220182Y-14520936D01*
X9220182Y-14520936D02*
X9210658Y-14530460D01*
X9210658Y-14530460D02*
X9191610Y-14539984D01*
X9191610Y-14539984D02*
X9172563Y-14539984D01*
X9172563Y-14539984D02*
X9153515Y-14530460D01*
X9153515Y-14530460D02*
X9143991Y-14520936D01*
X9143991Y-14520936D02*
X9134467Y-14501888D01*
X9134467Y-14501888D02*
X9124944Y-14463793D01*
X9124944Y-14463793D02*
X9124944Y-14416174D01*
X9124944Y-14416174D02*
X9134467Y-14378079D01*
X9134467Y-14378079D02*
X9143991Y-14359031D01*
X9143991Y-14359031D02*
X9153515Y-14349508D01*
X9153515Y-14349508D02*
X9172563Y-14339984D01*
X9363039Y-14339984D02*
X9382086Y-14339984D01*
X9382086Y-14339984D02*
X9401134Y-14349508D01*
X9401134Y-14349508D02*
X9410658Y-14359031D01*
X9410658Y-14359031D02*
X9420182Y-14378079D01*
X9420182Y-14378079D02*
X9429705Y-14416174D01*
X9429705Y-14416174D02*
X9429705Y-14463793D01*
X9429705Y-14463793D02*
X9420182Y-14501888D01*
X9420182Y-14501888D02*
X9410658Y-14520936D01*
X9410658Y-14520936D02*
X9401134Y-14530460D01*
X9401134Y-14530460D02*
X9382086Y-14539984D01*
X9382086Y-14539984D02*
X9363039Y-14539984D01*
X9363039Y-14539984D02*
X9343991Y-14530460D01*
X9343991Y-14530460D02*
X9334467Y-14520936D01*
X9334467Y-14520936D02*
X9324944Y-14501888D01*
X9324944Y-14501888D02*
X9315420Y-14463793D01*
X9315420Y-14463793D02*
X9315420Y-14416174D01*
X9315420Y-14416174D02*
X9324944Y-14378079D01*
X9324944Y-14378079D02*
X9334467Y-14359031D01*
X9334467Y-14359031D02*
X9343991Y-14349508D01*
X9343991Y-14349508D02*
X9363039Y-14339984D01*
X9515420Y-14539984D02*
X9515420Y-14406650D01*
X9515420Y-14425698D02*
X9524944Y-14416174D01*
X9524944Y-14416174D02*
X9543991Y-14406650D01*
X9543991Y-14406650D02*
X9572563Y-14406650D01*
X9572563Y-14406650D02*
X9591610Y-14416174D01*
X9591610Y-14416174D02*
X9601134Y-14435222D01*
X9601134Y-14435222D02*
X9601134Y-14539984D01*
X9601134Y-14435222D02*
X9610658Y-14416174D01*
X9610658Y-14416174D02*
X9629705Y-14406650D01*
X9629705Y-14406650D02*
X9658277Y-14406650D01*
X9658277Y-14406650D02*
X9677325Y-14416174D01*
X9677325Y-14416174D02*
X9686848Y-14435222D01*
X9686848Y-14435222D02*
X9686848Y-14539984D01*
X9782086Y-14539984D02*
X9782086Y-14406650D01*
X9782086Y-14425698D02*
X9791610Y-14416174D01*
X9791610Y-14416174D02*
X9810658Y-14406650D01*
X9810658Y-14406650D02*
X9839229Y-14406650D01*
X9839229Y-14406650D02*
X9858277Y-14416174D01*
X9858277Y-14416174D02*
X9867801Y-14435222D01*
X9867801Y-14435222D02*
X9867801Y-14539984D01*
X9867801Y-14435222D02*
X9877325Y-14416174D01*
X9877325Y-14416174D02*
X9896372Y-14406650D01*
X9896372Y-14406650D02*
X9924944Y-14406650D01*
X9924944Y-14406650D02*
X9943991Y-14416174D01*
X9943991Y-14416174D02*
X9953515Y-14435222D01*
X9953515Y-14435222D02*
X9953515Y-14539984D01*
X10343991Y-14330460D02*
X10172563Y-14587603D01*
X10601134Y-14339984D02*
X10620182Y-14339984D01*
X10620182Y-14339984D02*
X10639229Y-14349508D01*
X10639229Y-14349508D02*
X10648753Y-14359031D01*
X10648753Y-14359031D02*
X10658277Y-14378079D01*
X10658277Y-14378079D02*
X10667801Y-14416174D01*
X10667801Y-14416174D02*
X10667801Y-14463793D01*
X10667801Y-14463793D02*
X10658277Y-14501888D01*
X10658277Y-14501888D02*
X10648753Y-14520936D01*
X10648753Y-14520936D02*
X10639229Y-14530460D01*
X10639229Y-14530460D02*
X10620182Y-14539984D01*
X10620182Y-14539984D02*
X10601134Y-14539984D01*
X10601134Y-14539984D02*
X10582087Y-14530460D01*
X10582087Y-14530460D02*
X10572563Y-14520936D01*
X10572563Y-14520936D02*
X10563039Y-14501888D01*
X10563039Y-14501888D02*
X10553515Y-14463793D01*
X10553515Y-14463793D02*
X10553515Y-14416174D01*
X10553515Y-14416174D02*
X10563039Y-14378079D01*
X10563039Y-14378079D02*
X10572563Y-14359031D01*
X10572563Y-14359031D02*
X10582087Y-14349508D01*
X10582087Y-14349508D02*
X10601134Y-14339984D01*
X10753515Y-14520936D02*
X10763039Y-14530460D01*
X10763039Y-14530460D02*
X10753515Y-14539984D01*
X10753515Y-14539984D02*
X10743991Y-14530460D01*
X10743991Y-14530460D02*
X10753515Y-14520936D01*
X10753515Y-14520936D02*
X10753515Y-14539984D01*
X10886848Y-14339984D02*
X10905896Y-14339984D01*
X10905896Y-14339984D02*
X10924944Y-14349508D01*
X10924944Y-14349508D02*
X10934468Y-14359031D01*
X10934468Y-14359031D02*
X10943991Y-14378079D01*
X10943991Y-14378079D02*
X10953515Y-14416174D01*
X10953515Y-14416174D02*
X10953515Y-14463793D01*
X10953515Y-14463793D02*
X10943991Y-14501888D01*
X10943991Y-14501888D02*
X10934468Y-14520936D01*
X10934468Y-14520936D02*
X10924944Y-14530460D01*
X10924944Y-14530460D02*
X10905896Y-14539984D01*
X10905896Y-14539984D02*
X10886848Y-14539984D01*
X10886848Y-14539984D02*
X10867801Y-14530460D01*
X10867801Y-14530460D02*
X10858277Y-14520936D01*
X10858277Y-14520936D02*
X10848753Y-14501888D01*
X10848753Y-14501888D02*
X10839229Y-14463793D01*
X10839229Y-14463793D02*
X10839229Y-14416174D01*
X10839229Y-14416174D02*
X10848753Y-14378079D01*
X10848753Y-14378079D02*
X10858277Y-14359031D01*
X10858277Y-14359031D02*
X10867801Y-14349508D01*
X10867801Y-14349508D02*
X10886848Y-14339984D01*
X11020182Y-14339984D02*
X11143991Y-14339984D01*
X11143991Y-14339984D02*
X11077325Y-14416174D01*
X11077325Y-14416174D02*
X11105896Y-14416174D01*
X11105896Y-14416174D02*
X11124944Y-14425698D01*
X11124944Y-14425698D02*
X11134468Y-14435222D01*
X11134468Y-14435222D02*
X11143991Y-14454269D01*
X11143991Y-14454269D02*
X11143991Y-14501888D01*
X11143991Y-14501888D02*
X11134468Y-14520936D01*
X11134468Y-14520936D02*
X11124944Y-14530460D01*
X11124944Y-14530460D02*
X11105896Y-14539984D01*
X11105896Y-14539984D02*
X11048753Y-14539984D01*
X11048753Y-14539984D02*
X11029706Y-14530460D01*
X11029706Y-14530460D02*
X11020182Y-14520936D01*
X11239229Y-14539984D02*
X11277325Y-14539984D01*
X11277325Y-14539984D02*
X11296372Y-14530460D01*
X11296372Y-14530460D02*
X11305896Y-14520936D01*
X11305896Y-14520936D02*
X11324944Y-14492365D01*
X11324944Y-14492365D02*
X11334467Y-14454269D01*
X11334467Y-14454269D02*
X11334467Y-14378079D01*
X11334467Y-14378079D02*
X11324944Y-14359031D01*
X11324944Y-14359031D02*
X11315420Y-14349508D01*
X11315420Y-14349508D02*
X11296372Y-14339984D01*
X11296372Y-14339984D02*
X11258277Y-14339984D01*
X11258277Y-14339984D02*
X11239229Y-14349508D01*
X11239229Y-14349508D02*
X11229706Y-14359031D01*
X11229706Y-14359031D02*
X11220182Y-14378079D01*
X11220182Y-14378079D02*
X11220182Y-14425698D01*
X11220182Y-14425698D02*
X11229706Y-14444746D01*
X11229706Y-14444746D02*
X11239229Y-14454269D01*
X11239229Y-14454269D02*
X11258277Y-14463793D01*
X11258277Y-14463793D02*
X11296372Y-14463793D01*
X11296372Y-14463793D02*
X11315420Y-14454269D01*
X11315420Y-14454269D02*
X11324944Y-14444746D01*
X11324944Y-14444746D02*
X11334467Y-14425698D01*
X11505896Y-14406650D02*
X11505896Y-14539984D01*
X11458277Y-14330460D02*
X11410658Y-14473317D01*
X11410658Y-14473317D02*
X11534467Y-14473317D01*
X11601134Y-14339984D02*
X11601134Y-14378079D01*
X11677325Y-14339984D02*
X11677325Y-14378079D01*
X11972563Y-14616174D02*
X11963039Y-14606650D01*
X11963039Y-14606650D02*
X11943991Y-14578079D01*
X11943991Y-14578079D02*
X11934468Y-14559031D01*
X11934468Y-14559031D02*
X11924944Y-14530460D01*
X11924944Y-14530460D02*
X11915420Y-14482841D01*
X11915420Y-14482841D02*
X11915420Y-14444746D01*
X11915420Y-14444746D02*
X11924944Y-14397127D01*
X11924944Y-14397127D02*
X11934468Y-14368555D01*
X11934468Y-14368555D02*
X11943991Y-14349508D01*
X11943991Y-14349508D02*
X11963039Y-14320936D01*
X11963039Y-14320936D02*
X11972563Y-14311412D01*
X12143991Y-14339984D02*
X12048753Y-14339984D01*
X12048753Y-14339984D02*
X12039229Y-14435222D01*
X12039229Y-14435222D02*
X12048753Y-14425698D01*
X12048753Y-14425698D02*
X12067801Y-14416174D01*
X12067801Y-14416174D02*
X12115420Y-14416174D01*
X12115420Y-14416174D02*
X12134468Y-14425698D01*
X12134468Y-14425698D02*
X12143991Y-14435222D01*
X12143991Y-14435222D02*
X12153515Y-14454269D01*
X12153515Y-14454269D02*
X12153515Y-14501888D01*
X12153515Y-14501888D02*
X12143991Y-14520936D01*
X12143991Y-14520936D02*
X12134468Y-14530460D01*
X12134468Y-14530460D02*
X12115420Y-14539984D01*
X12115420Y-14539984D02*
X12067801Y-14539984D01*
X12067801Y-14539984D02*
X12048753Y-14530460D01*
X12048753Y-14530460D02*
X12039229Y-14520936D01*
X12220182Y-14339984D02*
X12353515Y-14339984D01*
X12353515Y-14339984D02*
X12267801Y-14539984D01*
X12582087Y-14539984D02*
X12582087Y-14339984D01*
X12667801Y-14539984D02*
X12667801Y-14435222D01*
X12667801Y-14435222D02*
X12658277Y-14416174D01*
X12658277Y-14416174D02*
X12639230Y-14406650D01*
X12639230Y-14406650D02*
X12610658Y-14406650D01*
X12610658Y-14406650D02*
X12591610Y-14416174D01*
X12591610Y-14416174D02*
X12582087Y-14425698D01*
X12791610Y-14539984D02*
X12772563Y-14530460D01*
X12772563Y-14530460D02*
X12763039Y-14520936D01*
X12763039Y-14520936D02*
X12753515Y-14501888D01*
X12753515Y-14501888D02*
X12753515Y-14444746D01*
X12753515Y-14444746D02*
X12763039Y-14425698D01*
X12763039Y-14425698D02*
X12772563Y-14416174D01*
X12772563Y-14416174D02*
X12791610Y-14406650D01*
X12791610Y-14406650D02*
X12820182Y-14406650D01*
X12820182Y-14406650D02*
X12839230Y-14416174D01*
X12839230Y-14416174D02*
X12848753Y-14425698D01*
X12848753Y-14425698D02*
X12858277Y-14444746D01*
X12858277Y-14444746D02*
X12858277Y-14501888D01*
X12858277Y-14501888D02*
X12848753Y-14520936D01*
X12848753Y-14520936D02*
X12839230Y-14530460D01*
X12839230Y-14530460D02*
X12820182Y-14539984D01*
X12820182Y-14539984D02*
X12791610Y-14539984D01*
X12972563Y-14539984D02*
X12953515Y-14530460D01*
X12953515Y-14530460D02*
X12943991Y-14511412D01*
X12943991Y-14511412D02*
X12943991Y-14339984D01*
X13124944Y-14530460D02*
X13105896Y-14539984D01*
X13105896Y-14539984D02*
X13067801Y-14539984D01*
X13067801Y-14539984D02*
X13048753Y-14530460D01*
X13048753Y-14530460D02*
X13039230Y-14511412D01*
X13039230Y-14511412D02*
X13039230Y-14435222D01*
X13039230Y-14435222D02*
X13048753Y-14416174D01*
X13048753Y-14416174D02*
X13067801Y-14406650D01*
X13067801Y-14406650D02*
X13105896Y-14406650D01*
X13105896Y-14406650D02*
X13124944Y-14416174D01*
X13124944Y-14416174D02*
X13134468Y-14435222D01*
X13134468Y-14435222D02*
X13134468Y-14454269D01*
X13134468Y-14454269D02*
X13039230Y-14473317D01*
X13210658Y-14530460D02*
X13229706Y-14539984D01*
X13229706Y-14539984D02*
X13267801Y-14539984D01*
X13267801Y-14539984D02*
X13286849Y-14530460D01*
X13286849Y-14530460D02*
X13296372Y-14511412D01*
X13296372Y-14511412D02*
X13296372Y-14501888D01*
X13296372Y-14501888D02*
X13286849Y-14482841D01*
X13286849Y-14482841D02*
X13267801Y-14473317D01*
X13267801Y-14473317D02*
X13239230Y-14473317D01*
X13239230Y-14473317D02*
X13220182Y-14463793D01*
X13220182Y-14463793D02*
X13210658Y-14444746D01*
X13210658Y-14444746D02*
X13210658Y-14435222D01*
X13210658Y-14435222D02*
X13220182Y-14416174D01*
X13220182Y-14416174D02*
X13239230Y-14406650D01*
X13239230Y-14406650D02*
X13267801Y-14406650D01*
X13267801Y-14406650D02*
X13286849Y-14416174D01*
X13363039Y-14616174D02*
X13372563Y-14606650D01*
X13372563Y-14606650D02*
X13391611Y-14578079D01*
X13391611Y-14578079D02*
X13401134Y-14559031D01*
X13401134Y-14559031D02*
X13410658Y-14530460D01*
X13410658Y-14530460D02*
X13420182Y-14482841D01*
X13420182Y-14482841D02*
X13420182Y-14444746D01*
X13420182Y-14444746D02*
X13410658Y-14397127D01*
X13410658Y-14397127D02*
X13401134Y-14368555D01*
X13401134Y-14368555D02*
X13391611Y-14349508D01*
X13391611Y-14349508D02*
X13372563Y-14320936D01*
X13372563Y-14320936D02*
X13363039Y-14311412D01*
M02*
