%TF.GenerationSoftware,KiCad,Pcbnew,8.0.6*%
%TF.CreationDate,2024-11-09T21:25:44+11:00*%
%TF.ProjectId,aqua-pi-shield,61717561-2d70-4692-9d73-6869656c642e,rev?*%
%TF.SameCoordinates,Original*%
%TF.FileFunction,Legend,Top*%
%TF.FilePolarity,Positive*%
%FSLAX46Y46*%
G04 Gerber Fmt 4.6, Leading zero omitted, Abs format (unit mm)*
G04 Created by KiCad (PCBNEW 8.0.6) date 2024-11-09 21:25:44*
%MOMM*%
%LPD*%
G01*
G04 APERTURE LIST*
%ADD10C,0.300000*%
%ADD11C,0.150000*%
%ADD12C,0.120000*%
%ADD13C,0.000000*%
%ADD14C,0.152400*%
G04 APERTURE END LIST*
D10*
G36*
X85103255Y-68477107D02*
G01*
X85180252Y-68478524D01*
X85259567Y-68479477D01*
X85341200Y-68479966D01*
X85387554Y-68480038D01*
X85466556Y-68479806D01*
X85543646Y-68479111D01*
X85618824Y-68477951D01*
X85659762Y-68477107D01*
X85665990Y-68524002D01*
X85555715Y-68554043D01*
X85581269Y-68625334D01*
X85608471Y-68699072D01*
X85637322Y-68775257D01*
X85667822Y-68853890D01*
X85699971Y-68934969D01*
X85711053Y-68962540D01*
X85738075Y-69032426D01*
X85759413Y-69092233D01*
X85786948Y-69021326D01*
X85811071Y-68962540D01*
X85841880Y-68887007D01*
X85872482Y-68810985D01*
X85902879Y-68734474D01*
X85933070Y-68657473D01*
X85963055Y-68579982D01*
X85973004Y-68554043D01*
X85865659Y-68524002D01*
X85860530Y-68477107D01*
X85939151Y-68479211D01*
X86013873Y-68479966D01*
X86048108Y-68480038D01*
X86123238Y-68479554D01*
X86198004Y-68478103D01*
X86232390Y-68477107D01*
X86237519Y-68524002D01*
X86126510Y-68552944D01*
X86086210Y-68591779D01*
X86055118Y-68662460D01*
X86022016Y-68738216D01*
X85986905Y-68819046D01*
X85956112Y-68890282D01*
X85923922Y-68965041D01*
X85897166Y-69027386D01*
X85864487Y-69103793D01*
X85834455Y-69174333D01*
X85801912Y-69251235D01*
X85773181Y-69319688D01*
X85744480Y-69388870D01*
X85733768Y-69415000D01*
X85601877Y-69429654D01*
X85574596Y-69360136D01*
X85542441Y-69280449D01*
X85511001Y-69204054D01*
X85482066Y-69134684D01*
X85450644Y-69060127D01*
X85437379Y-69028852D01*
X85404612Y-68951459D01*
X85373401Y-68877733D01*
X85343747Y-68807675D01*
X85310216Y-68728446D01*
X85278926Y-68654498D01*
X85254563Y-68596908D01*
X85209501Y-68551845D01*
X85106186Y-68524002D01*
X85103255Y-68477107D01*
G37*
G36*
X87108733Y-69064023D02*
G01*
X87168450Y-69055963D01*
X87147934Y-69410969D01*
X87140607Y-69417930D01*
X87063631Y-69416934D01*
X86984106Y-69416144D01*
X86902030Y-69415560D01*
X86817405Y-69415183D01*
X86730229Y-69415011D01*
X86700603Y-69415000D01*
X86618785Y-69415103D01*
X86537096Y-69415412D01*
X86455535Y-69415927D01*
X86374104Y-69416648D01*
X86292801Y-69417575D01*
X86265729Y-69417930D01*
X86258768Y-69302526D01*
X86323408Y-69259335D01*
X86385988Y-69217689D01*
X86426563Y-69190785D01*
X86488367Y-69149376D01*
X86551264Y-69105954D01*
X86566514Y-69095163D01*
X86628431Y-69049717D01*
X86672759Y-69012365D01*
X86724239Y-68957865D01*
X86739438Y-68937260D01*
X86772556Y-68871760D01*
X86774609Y-68865087D01*
X86785233Y-68790348D01*
X86772260Y-68718210D01*
X86729568Y-68657261D01*
X86717456Y-68647100D01*
X86651880Y-68611036D01*
X86579183Y-68595632D01*
X86548196Y-68594344D01*
X86474845Y-68602006D01*
X86397857Y-68624994D01*
X86324713Y-68659190D01*
X86285512Y-68577857D01*
X86358164Y-68535649D01*
X86431589Y-68502174D01*
X86505786Y-68477432D01*
X86580756Y-68461422D01*
X86656499Y-68454145D01*
X86681919Y-68453660D01*
X86763320Y-68458857D01*
X86837165Y-68474451D01*
X86911209Y-68504419D01*
X86962187Y-68536824D01*
X87020340Y-68592666D01*
X87056955Y-68656236D01*
X87072355Y-68735089D01*
X87072463Y-68742721D01*
X87063054Y-68816571D01*
X87039124Y-68873147D01*
X86993981Y-68931773D01*
X86938007Y-68981957D01*
X86877492Y-69025249D01*
X86811434Y-69066500D01*
X86768381Y-69091133D01*
X86701290Y-69128342D01*
X86635035Y-69164767D01*
X86563217Y-69203974D01*
X86529511Y-69222292D01*
X86530610Y-69227421D01*
X87032529Y-69227421D01*
X87108733Y-69064023D01*
G37*
G36*
X87542508Y-69110184D02*
G01*
X87617080Y-69125942D01*
X87658279Y-69154881D01*
X87696823Y-69218161D01*
X87704441Y-69273217D01*
X87689835Y-69346594D01*
X87658279Y-69392285D01*
X87595373Y-69430828D01*
X87542508Y-69438447D01*
X87468886Y-69423841D01*
X87423806Y-69392285D01*
X87386181Y-69327862D01*
X87378743Y-69273217D01*
X87393002Y-69199530D01*
X87423806Y-69154881D01*
X87487569Y-69117561D01*
X87542508Y-69110184D01*
G37*
G36*
X87877732Y-68570896D02*
G01*
X87872602Y-68524002D01*
X87954875Y-68513300D01*
X88035914Y-68502492D01*
X88115718Y-68491576D01*
X88194287Y-68480553D01*
X88271623Y-68469423D01*
X88347724Y-68458185D01*
X88377819Y-68453660D01*
X88386978Y-68461720D01*
X88382124Y-68539913D01*
X88378463Y-68619019D01*
X88375993Y-68699036D01*
X88374716Y-68779964D01*
X88374521Y-68826618D01*
X88374521Y-69075013D01*
X88374651Y-69149673D01*
X88374888Y-69195547D01*
X88376193Y-69268980D01*
X88376720Y-69290436D01*
X88405662Y-69326706D01*
X88569427Y-69368105D01*
X88572358Y-69415000D01*
X88491149Y-69413857D01*
X88414218Y-69412996D01*
X88331534Y-69412355D01*
X88254437Y-69412080D01*
X88236036Y-69412069D01*
X88159901Y-69412252D01*
X88078408Y-69412801D01*
X88002706Y-69413583D01*
X87922902Y-69414645D01*
X87899347Y-69415000D01*
X87895317Y-69368105D01*
X88063478Y-69326706D01*
X88091322Y-69294466D01*
X88092324Y-69219212D01*
X88092421Y-69208004D01*
X88093119Y-69134239D01*
X88093154Y-69112383D01*
X88093154Y-68950816D01*
X88092999Y-68875957D01*
X88092483Y-68798930D01*
X88092055Y-68759207D01*
X88091133Y-68683022D01*
X88089523Y-68605909D01*
X88089124Y-68591046D01*
X87877732Y-68570896D01*
G37*
G36*
X104248436Y-69251683D02*
G01*
X104302512Y-69258135D01*
X104361438Y-69266550D01*
X104411249Y-69269859D01*
X104476791Y-69269712D01*
X104539183Y-69269272D01*
X104598424Y-69268540D01*
X104654515Y-69267514D01*
X104659204Y-69308840D01*
X104468695Y-69358079D01*
X104503069Y-69408823D01*
X104523175Y-69463930D01*
X104529071Y-69517814D01*
X104523136Y-69581506D01*
X104505331Y-69638348D01*
X104471111Y-69694105D01*
X104434110Y-69731478D01*
X104382892Y-69766227D01*
X104324200Y-69791048D01*
X104266714Y-69804622D01*
X104203506Y-69810595D01*
X104184396Y-69810905D01*
X104120838Y-69807615D01*
X104062753Y-69797745D01*
X104014696Y-69783062D01*
X103988864Y-69838322D01*
X103982749Y-69872454D01*
X104004731Y-69898247D01*
X104064247Y-69904292D01*
X104095882Y-69904695D01*
X104155191Y-69904364D01*
X104218101Y-69903522D01*
X104278921Y-69902721D01*
X104338483Y-69902360D01*
X104349699Y-69902350D01*
X104415846Y-69905574D01*
X104473897Y-69915246D01*
X104529526Y-69933834D01*
X104565708Y-69953934D01*
X104608926Y-69995465D01*
X104634205Y-70049533D01*
X104641618Y-70109565D01*
X104634297Y-70173954D01*
X104612335Y-70232480D01*
X104575730Y-70285143D01*
X104532700Y-70325617D01*
X104488625Y-70356055D01*
X104429840Y-70387531D01*
X104368233Y-70412494D01*
X104303802Y-70430945D01*
X104236548Y-70442884D01*
X104166470Y-70448310D01*
X104142484Y-70448672D01*
X104075912Y-70446428D01*
X104015707Y-70439696D01*
X103954698Y-70426507D01*
X103896004Y-70404663D01*
X103890132Y-70401778D01*
X103837402Y-70366518D01*
X103803304Y-70316543D01*
X103797515Y-70281317D01*
X103807142Y-70232957D01*
X103966336Y-70232957D01*
X103981210Y-70291575D01*
X104022173Y-70333753D01*
X104025833Y-70336125D01*
X104081286Y-70360415D01*
X104139315Y-70371296D01*
X104187913Y-70373641D01*
X104247411Y-70370563D01*
X104309441Y-70359744D01*
X104366277Y-70341135D01*
X104401284Y-70324401D01*
X104452679Y-70286497D01*
X104484415Y-70235905D01*
X104491556Y-70191631D01*
X104471872Y-70135866D01*
X104453454Y-70119237D01*
X104397980Y-70099883D01*
X104338743Y-70093563D01*
X104286685Y-70092273D01*
X104227045Y-70092304D01*
X104177069Y-70093739D01*
X104116791Y-70095797D01*
X104067452Y-70096376D01*
X104006847Y-70094828D01*
X103992421Y-70094032D01*
X103975532Y-70153156D01*
X103966973Y-70212718D01*
X103966336Y-70232957D01*
X103807142Y-70232957D01*
X103809565Y-70220787D01*
X103841016Y-70165233D01*
X103885359Y-70114995D01*
X103920907Y-70083187D01*
X103869112Y-70052632D01*
X103837985Y-70001456D01*
X103835910Y-69981191D01*
X103848075Y-69923684D01*
X103875323Y-69868198D01*
X103911938Y-69812735D01*
X103952810Y-69760061D01*
X103960474Y-69750822D01*
X103911595Y-69715343D01*
X103870434Y-69666415D01*
X103844954Y-69608547D01*
X103835521Y-69550581D01*
X103835031Y-69532762D01*
X103836032Y-69522503D01*
X104060125Y-69522503D01*
X104062873Y-69581728D01*
X104073424Y-69640860D01*
X104088262Y-69680187D01*
X104129636Y-69723638D01*
X104184689Y-69735874D01*
X104242428Y-69722831D01*
X104278478Y-69683704D01*
X104296781Y-69624168D01*
X104303355Y-69561238D01*
X104303977Y-69531003D01*
X104300722Y-69469523D01*
X104288480Y-69409278D01*
X104276427Y-69378889D01*
X104235223Y-69335437D01*
X104178534Y-69323201D01*
X104120868Y-69335951D01*
X104085038Y-69374199D01*
X104067156Y-69432185D01*
X104060733Y-69493226D01*
X104060125Y-69522503D01*
X103836032Y-69522503D01*
X103840984Y-69471725D01*
X103861914Y-69410592D01*
X103897914Y-69357433D01*
X103930286Y-69326425D01*
X103982071Y-69292188D01*
X104042173Y-69267734D01*
X104101585Y-69254360D01*
X104167363Y-69248475D01*
X104187327Y-69248170D01*
X104248436Y-69251683D01*
G37*
G36*
X105088290Y-68971785D02*
G01*
X105075064Y-69031170D01*
X105050774Y-69063229D01*
X104998165Y-69092351D01*
X104952882Y-69098107D01*
X104893779Y-69086534D01*
X104861437Y-69065281D01*
X104829905Y-69013228D01*
X104825680Y-68979112D01*
X104837643Y-68921616D01*
X104863489Y-68887667D01*
X104916446Y-68859769D01*
X104961967Y-68854255D01*
X105020863Y-68865104D01*
X105052826Y-68885030D01*
X105084099Y-68936144D01*
X105088290Y-68971785D01*
G37*
G36*
X104718115Y-69304443D02*
G01*
X104779300Y-69295960D01*
X104837922Y-69287362D01*
X104904888Y-69276893D01*
X104968165Y-69266259D01*
X105027753Y-69255460D01*
X105065429Y-69248170D01*
X105074515Y-69254618D01*
X105072106Y-69319579D01*
X105070627Y-69379269D01*
X105069770Y-69440791D01*
X105069532Y-69496125D01*
X105069532Y-69805630D01*
X105069740Y-69865768D01*
X105070693Y-69925338D01*
X105071290Y-69941917D01*
X105091807Y-69969761D01*
X105194975Y-69998484D01*
X105197320Y-70036000D01*
X105136723Y-70034974D01*
X105076859Y-70034241D01*
X105017728Y-70033801D01*
X104959330Y-70033655D01*
X104900052Y-70033801D01*
X104840628Y-70034241D01*
X104781057Y-70034974D01*
X104721339Y-70036000D01*
X104717236Y-69998484D01*
X104822163Y-69969761D01*
X104842679Y-69944848D01*
X104844230Y-69883726D01*
X104844438Y-69836697D01*
X104844438Y-69571157D01*
X104844160Y-69511831D01*
X104843198Y-69449068D01*
X104841549Y-69389626D01*
X104840921Y-69372441D01*
X104723098Y-69341959D01*
X104718115Y-69304443D01*
G37*
G36*
X105593872Y-69360717D02*
G01*
X105592705Y-69423677D01*
X105591693Y-69484182D01*
X105590646Y-69556361D01*
X105589844Y-69624705D01*
X105589284Y-69689214D01*
X105588968Y-69749887D01*
X105588890Y-69795665D01*
X105593098Y-69854782D01*
X105614389Y-69910556D01*
X105668311Y-69938470D01*
X105712575Y-69942210D01*
X105774866Y-69940390D01*
X105834501Y-69935762D01*
X105841242Y-69987346D01*
X105784751Y-70013613D01*
X105722218Y-70035732D01*
X105661845Y-70049425D01*
X105596510Y-70054757D01*
X105537873Y-70050932D01*
X105477098Y-70035867D01*
X105424466Y-70006397D01*
X105385184Y-69958740D01*
X105366699Y-69900323D01*
X105363796Y-69859852D01*
X105363961Y-69789650D01*
X105364350Y-69722633D01*
X105364826Y-69663445D01*
X105365449Y-69599301D01*
X105366218Y-69530202D01*
X105367134Y-69456149D01*
X105367917Y-69397357D01*
X105368485Y-69356614D01*
X105257697Y-69332873D01*
X105250076Y-69295944D01*
X105386657Y-69285685D01*
X105461981Y-69085211D01*
X105522539Y-69073524D01*
X105581313Y-69061343D01*
X105584787Y-69060591D01*
X105596510Y-69066453D01*
X105595235Y-69125505D01*
X105594377Y-69186598D01*
X105593937Y-69249730D01*
X105593872Y-69285685D01*
X105824829Y-69285685D01*
X105824829Y-69360717D01*
X105593872Y-69360717D01*
G37*
G36*
X106552281Y-69248170D02*
G01*
X106614994Y-69253363D01*
X106675158Y-69271315D01*
X106725304Y-69302089D01*
X106738394Y-69313822D01*
X106776774Y-69365268D01*
X106797840Y-69423337D01*
X106805542Y-69484800D01*
X106805806Y-69499642D01*
X106805806Y-69788923D01*
X106805977Y-69848166D01*
X106806714Y-69909519D01*
X106807564Y-69941624D01*
X106828960Y-69969761D01*
X106928611Y-69998484D01*
X106931249Y-70036000D01*
X106872374Y-70034974D01*
X106806578Y-70034170D01*
X106741245Y-70033737D01*
X106697948Y-70033655D01*
X106632731Y-70033840D01*
X106570621Y-70034397D01*
X106511618Y-70035324D01*
X106480181Y-70036000D01*
X106476957Y-69998484D01*
X106559316Y-69973571D01*
X106580125Y-69948951D01*
X106580711Y-69896781D01*
X106580711Y-69550640D01*
X106576001Y-69487674D01*
X106558290Y-69430674D01*
X106540851Y-69404974D01*
X106491318Y-69371781D01*
X106432109Y-69360890D01*
X106422442Y-69360717D01*
X106361390Y-69366888D01*
X106303292Y-69383669D01*
X106280586Y-69392957D01*
X106280586Y-69755804D01*
X106280757Y-69818596D01*
X106281273Y-69878009D01*
X106282236Y-69939464D01*
X106282344Y-69944848D01*
X106301395Y-69972106D01*
X106386978Y-69998484D01*
X106388736Y-70036000D01*
X106330109Y-70034866D01*
X106269303Y-70034104D01*
X106206317Y-70033712D01*
X106170383Y-70033655D01*
X106111289Y-70033801D01*
X106052121Y-70034241D01*
X105992880Y-70034974D01*
X105933565Y-70036000D01*
X105929462Y-69998484D01*
X106035854Y-69969761D01*
X106054905Y-69944848D01*
X106055395Y-69883891D01*
X106055491Y-69843732D01*
X106055491Y-69123020D01*
X106055236Y-69063718D01*
X106054355Y-69001035D01*
X106052844Y-68941730D01*
X106052267Y-68924597D01*
X105931221Y-68891771D01*
X105926238Y-68854255D01*
X105988267Y-68845771D01*
X106047591Y-68837173D01*
X106115209Y-68826704D01*
X106178932Y-68816071D01*
X106238761Y-68805272D01*
X106276482Y-68797981D01*
X106285568Y-68804429D01*
X106283160Y-68869038D01*
X106281680Y-68928375D01*
X106280824Y-68989508D01*
X106280586Y-69044471D01*
X106280586Y-69331115D01*
X106332020Y-69302926D01*
X106391740Y-69277411D01*
X106451151Y-69259834D01*
X106510254Y-69250195D01*
X106552281Y-69248170D01*
G37*
G36*
X107615910Y-69965658D02*
G01*
X107562327Y-70000375D01*
X107506724Y-70026566D01*
X107449102Y-70044229D01*
X107389460Y-70053365D01*
X107354473Y-70054757D01*
X107292447Y-70050654D01*
X107232390Y-70036228D01*
X107177733Y-70008018D01*
X107155170Y-69989105D01*
X107117125Y-69937666D01*
X107096242Y-69879963D01*
X107088607Y-69819123D01*
X107088346Y-69804457D01*
X107088346Y-69630654D01*
X107088232Y-69568085D01*
X107087814Y-69503344D01*
X107086957Y-69440242D01*
X107085320Y-69377697D01*
X107085122Y-69372441D01*
X106967299Y-69341959D01*
X106962316Y-69304443D01*
X107023262Y-69295960D01*
X107081717Y-69287362D01*
X107148576Y-69276893D01*
X107211849Y-69266259D01*
X107271537Y-69255460D01*
X107309337Y-69248170D01*
X107318422Y-69254618D01*
X107316014Y-69315793D01*
X107314535Y-69376554D01*
X107313678Y-69443324D01*
X107313440Y-69506676D01*
X107313440Y-69757856D01*
X107318115Y-69818249D01*
X107337590Y-69876881D01*
X107353007Y-69898540D01*
X107404541Y-69932615D01*
X107465261Y-69942210D01*
X107524035Y-69937512D01*
X107583428Y-69921817D01*
X107613565Y-69908798D01*
X107613565Y-69559726D01*
X107613310Y-69498440D01*
X107612429Y-69437796D01*
X107610540Y-69375374D01*
X107610341Y-69370682D01*
X107498967Y-69341959D01*
X107493984Y-69304443D01*
X107553149Y-69295960D01*
X107621238Y-69285628D01*
X107686153Y-69275132D01*
X107747895Y-69264471D01*
X107806463Y-69253645D01*
X107834556Y-69248170D01*
X107844521Y-69248170D01*
X107841688Y-69311534D01*
X107839948Y-69374320D01*
X107839026Y-69434246D01*
X107838665Y-69498829D01*
X107838660Y-69508435D01*
X107838673Y-69579812D01*
X107838715Y-69643880D01*
X107838805Y-69713687D01*
X107838970Y-69782380D01*
X107839240Y-69841737D01*
X107839539Y-69874799D01*
X107844228Y-69928142D01*
X107860055Y-69959210D01*
X107894054Y-69974450D01*
X107953663Y-69979602D01*
X107958827Y-69979726D01*
X107963224Y-70014897D01*
X107905979Y-70032336D01*
X107846615Y-70045999D01*
X107786909Y-70053784D01*
X107759525Y-70054757D01*
X107698525Y-70046056D01*
X107644670Y-70012644D01*
X107615910Y-69965658D01*
G37*
G36*
X108389965Y-68804429D02*
G01*
X108388023Y-68863464D01*
X108386739Y-68923330D01*
X108385804Y-68991749D01*
X108385293Y-69055297D01*
X108385026Y-69124785D01*
X108384982Y-69169328D01*
X108384982Y-69325253D01*
X108437774Y-69295218D01*
X108497386Y-69269925D01*
X108556228Y-69254267D01*
X108621507Y-69248170D01*
X108684515Y-69253149D01*
X108741464Y-69268085D01*
X108799129Y-69297348D01*
X108848882Y-69339618D01*
X108860083Y-69352217D01*
X108894230Y-69400667D01*
X108919990Y-69455232D01*
X108937362Y-69515912D01*
X108946348Y-69582706D01*
X108947718Y-69623620D01*
X108944669Y-69685325D01*
X108932964Y-69753496D01*
X108912480Y-69815258D01*
X108883216Y-69870612D01*
X108845174Y-69919555D01*
X108822861Y-69941624D01*
X108772759Y-69980072D01*
X108715878Y-70010565D01*
X108652216Y-70033103D01*
X108593986Y-70045808D01*
X108531047Y-70052990D01*
X108477306Y-70054757D01*
X108414833Y-70052205D01*
X108348461Y-70044547D01*
X108288468Y-70033920D01*
X108225610Y-70019543D01*
X108159888Y-70001415D01*
X108160596Y-69941111D01*
X108161031Y-69878710D01*
X108161262Y-69817317D01*
X108161352Y-69749584D01*
X108161353Y-69739391D01*
X108161353Y-69387095D01*
X108384982Y-69387095D01*
X108384982Y-69964778D01*
X108443756Y-69976442D01*
X108495478Y-69979726D01*
X108555066Y-69973142D01*
X108610616Y-69950381D01*
X108654946Y-69911364D01*
X108666057Y-69896488D01*
X108693401Y-69844056D01*
X108711796Y-69780403D01*
X108720635Y-69714403D01*
X108722623Y-69659084D01*
X108720099Y-69600394D01*
X108711031Y-69540635D01*
X108692948Y-69482734D01*
X108669867Y-69439558D01*
X108627640Y-69394671D01*
X108573499Y-69368416D01*
X108513942Y-69360717D01*
X108453054Y-69366513D01*
X108392939Y-69383901D01*
X108384982Y-69387095D01*
X108161353Y-69387095D01*
X108161353Y-69252273D01*
X108161240Y-69185476D01*
X108160900Y-69121151D01*
X108160333Y-69059300D01*
X108159540Y-68999921D01*
X108158328Y-68933772D01*
X108158129Y-68924597D01*
X108037083Y-68891771D01*
X108032100Y-68854255D01*
X108093791Y-68845771D01*
X108152834Y-68837173D01*
X108220191Y-68826704D01*
X108283736Y-68816071D01*
X108343468Y-68805272D01*
X108381172Y-68797981D01*
X108389965Y-68804429D01*
G37*
G36*
X109221172Y-69792147D02*
G01*
X109280829Y-69804753D01*
X109313789Y-69827905D01*
X109344623Y-69878529D01*
X109350718Y-69922573D01*
X109339034Y-69981275D01*
X109313789Y-70017828D01*
X109263463Y-70048663D01*
X109221172Y-70054757D01*
X109162274Y-70043073D01*
X109126210Y-70017828D01*
X109096110Y-69966290D01*
X109090160Y-69922573D01*
X109101567Y-69863624D01*
X109126210Y-69827905D01*
X109177221Y-69798049D01*
X109221172Y-69792147D01*
G37*
G36*
X110215924Y-69974743D02*
G01*
X110155607Y-70005921D01*
X110094421Y-70029440D01*
X110032364Y-70045303D01*
X109969439Y-70053507D01*
X109933091Y-70054757D01*
X109867310Y-70051099D01*
X109805816Y-70040126D01*
X109748608Y-70021836D01*
X109695687Y-69996231D01*
X109647052Y-69963309D01*
X109631793Y-69950710D01*
X109584970Y-69901723D01*
X109549647Y-69846060D01*
X109525825Y-69783722D01*
X109514559Y-69724975D01*
X109511625Y-69672273D01*
X109516221Y-69603806D01*
X109530008Y-69540409D01*
X109552986Y-69482082D01*
X109585155Y-69428824D01*
X109626515Y-69380636D01*
X109642344Y-69365699D01*
X109693761Y-69325758D01*
X109749753Y-69294080D01*
X109810320Y-69270666D01*
X109875462Y-69255515D01*
X109945179Y-69248629D01*
X109969434Y-69248170D01*
X110031148Y-69251101D01*
X110091727Y-69259893D01*
X110151169Y-69274548D01*
X110209476Y-69295064D01*
X110195005Y-69353536D01*
X110181486Y-69413473D01*
X110168920Y-69474876D01*
X110157306Y-69537744D01*
X110112170Y-69545071D01*
X110048569Y-69331701D01*
X109988485Y-69323201D01*
X109927821Y-69332968D01*
X109875192Y-69362267D01*
X109834319Y-69405853D01*
X109802634Y-69462823D01*
X109784152Y-69523493D01*
X109775702Y-69584895D01*
X109774235Y-69626844D01*
X109777882Y-69693558D01*
X109788821Y-69752138D01*
X109810254Y-69809126D01*
X109845751Y-69860538D01*
X109850439Y-69865420D01*
X109898427Y-69902540D01*
X109956663Y-69927512D01*
X110017031Y-69939511D01*
X110067620Y-69942210D01*
X110128095Y-69938620D01*
X110186461Y-69928856D01*
X110209476Y-69923452D01*
X110215924Y-69974743D01*
G37*
G36*
X110814722Y-69250767D02*
G01*
X110882509Y-69260742D01*
X110944422Y-69278196D01*
X111000462Y-69303132D01*
X111050629Y-69335549D01*
X111073510Y-69354562D01*
X111119533Y-69404262D01*
X111154253Y-69460526D01*
X111177668Y-69523353D01*
X111188742Y-69582430D01*
X111191625Y-69635344D01*
X111187112Y-69703072D01*
X111173573Y-69765792D01*
X111151007Y-69823505D01*
X111119415Y-69876210D01*
X111078797Y-69923907D01*
X111063251Y-69938693D01*
X111012480Y-69978137D01*
X110956227Y-70009420D01*
X110894493Y-70032542D01*
X110827276Y-70047503D01*
X110767075Y-70053737D01*
X110729127Y-70054757D01*
X110668637Y-70052088D01*
X110601263Y-70041839D01*
X110539576Y-70023903D01*
X110483577Y-69998281D01*
X110433266Y-69964971D01*
X110410244Y-69945434D01*
X110369804Y-69901948D01*
X110333199Y-69845197D01*
X110307982Y-69781967D01*
X110295432Y-69722613D01*
X110291249Y-69658498D01*
X110292355Y-69642085D01*
X110553859Y-69642085D01*
X110556046Y-69705044D01*
X110563905Y-69770404D01*
X110577479Y-69828729D01*
X110599581Y-69885937D01*
X110633693Y-69935396D01*
X110683580Y-69968643D01*
X110746420Y-69979726D01*
X110805346Y-69969959D01*
X110856042Y-69937028D01*
X110884759Y-69897074D01*
X110908097Y-69837603D01*
X110920545Y-69778774D01*
X110926898Y-69719094D01*
X110929016Y-69651757D01*
X110926772Y-69588050D01*
X110918712Y-69522832D01*
X110904790Y-69465711D01*
X110882121Y-69411129D01*
X110843883Y-69361068D01*
X110788029Y-69330156D01*
X110736454Y-69323201D01*
X110678391Y-69332587D01*
X110627846Y-69364234D01*
X110598702Y-69402629D01*
X110575054Y-69460016D01*
X110562442Y-69517343D01*
X110556004Y-69575829D01*
X110553859Y-69642085D01*
X110292355Y-69642085D01*
X110295638Y-69593390D01*
X110308807Y-69532816D01*
X110330754Y-69476776D01*
X110361481Y-69425270D01*
X110400986Y-69378298D01*
X110416106Y-69363648D01*
X110466018Y-69324403D01*
X110522113Y-69293278D01*
X110584390Y-69270273D01*
X110652850Y-69255387D01*
X110714623Y-69249185D01*
X110753747Y-69248170D01*
X110814722Y-69250767D01*
G37*
G36*
X112665289Y-69788923D02*
G01*
X112665461Y-69848166D01*
X112666198Y-69909519D01*
X112667048Y-69941624D01*
X112688443Y-69969761D01*
X112788094Y-69998484D01*
X112790732Y-70036000D01*
X112731967Y-70034974D01*
X112666207Y-70034170D01*
X112600818Y-70033737D01*
X112557431Y-70033655D01*
X112492467Y-70033840D01*
X112431445Y-70034397D01*
X112368264Y-70035450D01*
X112344354Y-70036000D01*
X112340251Y-69998484D01*
X112418506Y-69973571D01*
X112439316Y-69948951D01*
X112440195Y-69896781D01*
X112440195Y-69550640D01*
X112435485Y-69487674D01*
X112417773Y-69430674D01*
X112400334Y-69404974D01*
X112350436Y-69371781D01*
X112290305Y-69360890D01*
X112280460Y-69360717D01*
X112220714Y-69368747D01*
X112163073Y-69390412D01*
X112128346Y-69409370D01*
X112138924Y-69469279D01*
X112140069Y-69499349D01*
X112140069Y-69788923D01*
X112140212Y-69848481D01*
X112140826Y-69911185D01*
X112141535Y-69944848D01*
X112160586Y-69972106D01*
X112242944Y-69998484D01*
X112244703Y-70036000D01*
X112182140Y-70034763D01*
X112122849Y-70034042D01*
X112060729Y-70033691D01*
X112032212Y-70033655D01*
X111967271Y-70033840D01*
X111906317Y-70034397D01*
X111843268Y-70035450D01*
X111819427Y-70036000D01*
X111815910Y-69998484D01*
X111893579Y-69973571D01*
X111914096Y-69948951D01*
X111914975Y-69896781D01*
X111914975Y-69550640D01*
X111910542Y-69487674D01*
X111893872Y-69430674D01*
X111877459Y-69404974D01*
X111827571Y-69370441D01*
X111766378Y-69360717D01*
X111705382Y-69369604D01*
X111650749Y-69391684D01*
X111633607Y-69401163D01*
X111633607Y-69755804D01*
X111633779Y-69818596D01*
X111634294Y-69878009D01*
X111635258Y-69939464D01*
X111635366Y-69944848D01*
X111654417Y-69972106D01*
X111736775Y-69998484D01*
X111738241Y-70036000D01*
X111674820Y-70034763D01*
X111614853Y-70034042D01*
X111552151Y-70033691D01*
X111523405Y-70033655D01*
X111464182Y-70033801D01*
X111404923Y-70034241D01*
X111345627Y-70034974D01*
X111286294Y-70036000D01*
X111282191Y-69998484D01*
X111388583Y-69969761D01*
X111407634Y-69944848D01*
X111408368Y-69883646D01*
X111408513Y-69843438D01*
X111408513Y-69572036D01*
X111408235Y-69512522D01*
X111407273Y-69449496D01*
X111405625Y-69389733D01*
X111404996Y-69372441D01*
X111287173Y-69341959D01*
X111282191Y-69304443D01*
X111340796Y-69296423D01*
X111408912Y-69286422D01*
X111474618Y-69276008D01*
X111537912Y-69265182D01*
X111598794Y-69253943D01*
X111628332Y-69248170D01*
X111640642Y-69254618D01*
X111640642Y-69340200D01*
X111690856Y-69308924D01*
X111749128Y-69280614D01*
X111807062Y-69261112D01*
X111872862Y-69249608D01*
X111905596Y-69248170D01*
X111966781Y-69253359D01*
X112027020Y-69271998D01*
X112076928Y-69304192D01*
X112116505Y-69349942D01*
X112120725Y-69356614D01*
X112177511Y-69319760D01*
X112233781Y-69290531D01*
X112289536Y-69268927D01*
X112353932Y-69253359D01*
X112417627Y-69248170D01*
X112478547Y-69253363D01*
X112537153Y-69271315D01*
X112590579Y-69305872D01*
X112599050Y-69313822D01*
X112636762Y-69365268D01*
X112657462Y-69423337D01*
X112665030Y-69484800D01*
X112665289Y-69499642D01*
X112665289Y-69788923D01*
G37*
G36*
X112894193Y-70223578D02*
G01*
X113310676Y-68854255D01*
X113425861Y-68854255D01*
X113009672Y-70223578D01*
X112894193Y-70223578D01*
G37*
G36*
X113530788Y-69304443D02*
G01*
X113600052Y-69294785D01*
X113666718Y-69284715D01*
X113730789Y-69274232D01*
X113792262Y-69263337D01*
X113851139Y-69252030D01*
X113870188Y-69248170D01*
X113882205Y-69254618D01*
X113882205Y-69340200D01*
X113933639Y-69308924D01*
X113993359Y-69280614D01*
X114052770Y-69261112D01*
X114111873Y-69250417D01*
X114153900Y-69248170D01*
X114216613Y-69253363D01*
X114276777Y-69271315D01*
X114326923Y-69302089D01*
X114340013Y-69313822D01*
X114378393Y-69365268D01*
X114399459Y-69423337D01*
X114407161Y-69484800D01*
X114407424Y-69499642D01*
X114407424Y-69788923D01*
X114407596Y-69848166D01*
X114408333Y-69909519D01*
X114409183Y-69941624D01*
X114430579Y-69969761D01*
X114530230Y-69998484D01*
X114532868Y-70036000D01*
X114473993Y-70034974D01*
X114408197Y-70034170D01*
X114342864Y-70033737D01*
X114299567Y-70033655D01*
X114234350Y-70033840D01*
X114172240Y-70034397D01*
X114113237Y-70035324D01*
X114081800Y-70036000D01*
X114078576Y-69998484D01*
X114160935Y-69973571D01*
X114181744Y-69948951D01*
X114182330Y-69896781D01*
X114182330Y-69550640D01*
X114177620Y-69487674D01*
X114159909Y-69430674D01*
X114142470Y-69404974D01*
X114092937Y-69371781D01*
X114033728Y-69360890D01*
X114024061Y-69360717D01*
X113963009Y-69368459D01*
X113904911Y-69389511D01*
X113882205Y-69401163D01*
X113882205Y-69755804D01*
X113882376Y-69818596D01*
X113882892Y-69878009D01*
X113883855Y-69939464D01*
X113883963Y-69944848D01*
X113903014Y-69972106D01*
X113988597Y-69998484D01*
X113990355Y-70036000D01*
X113931728Y-70034866D01*
X113870922Y-70034104D01*
X113807936Y-70033712D01*
X113772002Y-70033655D01*
X113712780Y-70033801D01*
X113653520Y-70034241D01*
X113594224Y-70034974D01*
X113534891Y-70036000D01*
X113530788Y-69998484D01*
X113637180Y-69969761D01*
X113656231Y-69944848D01*
X113656965Y-69883646D01*
X113657110Y-69843438D01*
X113657110Y-69572036D01*
X113656832Y-69512522D01*
X113655871Y-69449496D01*
X113654222Y-69389733D01*
X113653593Y-69372441D01*
X113535771Y-69341959D01*
X113530788Y-69304443D01*
G37*
G36*
X115050613Y-69251683D02*
G01*
X115104689Y-69258135D01*
X115163615Y-69266550D01*
X115213426Y-69269859D01*
X115278968Y-69269712D01*
X115341360Y-69269272D01*
X115400601Y-69268540D01*
X115456692Y-69267514D01*
X115461381Y-69308840D01*
X115270872Y-69358079D01*
X115305246Y-69408823D01*
X115325352Y-69463930D01*
X115331249Y-69517814D01*
X115325314Y-69581506D01*
X115307508Y-69638348D01*
X115273289Y-69694105D01*
X115236287Y-69731478D01*
X115185069Y-69766227D01*
X115126378Y-69791048D01*
X115068892Y-69804622D01*
X115005684Y-69810595D01*
X114986573Y-69810905D01*
X114923016Y-69807615D01*
X114864930Y-69797745D01*
X114816873Y-69783062D01*
X114791041Y-69838322D01*
X114784926Y-69872454D01*
X114806908Y-69898247D01*
X114866424Y-69904292D01*
X114898060Y-69904695D01*
X114957368Y-69904364D01*
X115020279Y-69903522D01*
X115081099Y-69902721D01*
X115140660Y-69902360D01*
X115151877Y-69902350D01*
X115218024Y-69905574D01*
X115276074Y-69915246D01*
X115331703Y-69933834D01*
X115367885Y-69953934D01*
X115411104Y-69995465D01*
X115436383Y-70049533D01*
X115443796Y-70109565D01*
X115436475Y-70173954D01*
X115414512Y-70232480D01*
X115377907Y-70285143D01*
X115334877Y-70325617D01*
X115290802Y-70356055D01*
X115232018Y-70387531D01*
X115170410Y-70412494D01*
X115105979Y-70430945D01*
X115038725Y-70442884D01*
X114968648Y-70448310D01*
X114944661Y-70448672D01*
X114878089Y-70446428D01*
X114817884Y-70439696D01*
X114756875Y-70426507D01*
X114698181Y-70404663D01*
X114692309Y-70401778D01*
X114639579Y-70366518D01*
X114605481Y-70316543D01*
X114599692Y-70281317D01*
X114609319Y-70232957D01*
X114768513Y-70232957D01*
X114783387Y-70291575D01*
X114824350Y-70333753D01*
X114828011Y-70336125D01*
X114883463Y-70360415D01*
X114941492Y-70371296D01*
X114990090Y-70373641D01*
X115049588Y-70370563D01*
X115111618Y-70359744D01*
X115168455Y-70341135D01*
X115203461Y-70324401D01*
X115254856Y-70286497D01*
X115286592Y-70235905D01*
X115293733Y-70191631D01*
X115274049Y-70135866D01*
X115255631Y-70119237D01*
X115200157Y-70099883D01*
X115140920Y-70093563D01*
X115088862Y-70092273D01*
X115029223Y-70092304D01*
X114979246Y-70093739D01*
X114918969Y-70095797D01*
X114869630Y-70096376D01*
X114809024Y-70094828D01*
X114794598Y-70094032D01*
X114777709Y-70153156D01*
X114769150Y-70212718D01*
X114768513Y-70232957D01*
X114609319Y-70232957D01*
X114611742Y-70220787D01*
X114643193Y-70165233D01*
X114687537Y-70114995D01*
X114723084Y-70083187D01*
X114671289Y-70052632D01*
X114640163Y-70001456D01*
X114638087Y-69981191D01*
X114650252Y-69923684D01*
X114677500Y-69868198D01*
X114714115Y-69812735D01*
X114754988Y-69760061D01*
X114762651Y-69750822D01*
X114713773Y-69715343D01*
X114672612Y-69666415D01*
X114647131Y-69608547D01*
X114637698Y-69550581D01*
X114637208Y-69532762D01*
X114638209Y-69522503D01*
X114862302Y-69522503D01*
X114865050Y-69581728D01*
X114875601Y-69640860D01*
X114890439Y-69680187D01*
X114931813Y-69723638D01*
X114986866Y-69735874D01*
X115044605Y-69722831D01*
X115080655Y-69683704D01*
X115098958Y-69624168D01*
X115105532Y-69561238D01*
X115106154Y-69531003D01*
X115102899Y-69469523D01*
X115090657Y-69409278D01*
X115078604Y-69378889D01*
X115037400Y-69335437D01*
X114980711Y-69323201D01*
X114923046Y-69335951D01*
X114887215Y-69374199D01*
X114869333Y-69432185D01*
X114862911Y-69493226D01*
X114862302Y-69522503D01*
X114638209Y-69522503D01*
X114643162Y-69471725D01*
X114664092Y-69410592D01*
X114700091Y-69357433D01*
X114732463Y-69326425D01*
X114784248Y-69292188D01*
X114844351Y-69267734D01*
X114903762Y-69254360D01*
X114969541Y-69248475D01*
X114989504Y-69248170D01*
X115050613Y-69251683D01*
G37*
G36*
X116325415Y-68804429D02*
G01*
X116323423Y-68871182D01*
X116321843Y-68939769D01*
X116320675Y-69010190D01*
X116320017Y-69070275D01*
X116319644Y-69131634D01*
X116319553Y-69181638D01*
X116319553Y-69628016D01*
X116319622Y-69688890D01*
X116319831Y-69750830D01*
X116320179Y-69813836D01*
X116320432Y-69849300D01*
X116322727Y-69908342D01*
X116323656Y-69916711D01*
X116338311Y-69955692D01*
X116372309Y-69974157D01*
X116431848Y-69979528D01*
X116440013Y-69979726D01*
X116444996Y-70014897D01*
X116387165Y-70032336D01*
X116327843Y-70045999D01*
X116269053Y-70053784D01*
X116242470Y-70054757D01*
X116183256Y-70045999D01*
X116130939Y-70012367D01*
X116102958Y-69965071D01*
X116053224Y-70000017D01*
X115993603Y-70029446D01*
X115931014Y-70047663D01*
X115865458Y-70054670D01*
X115857055Y-70054757D01*
X115796550Y-70050986D01*
X115732211Y-70037053D01*
X115674605Y-70012854D01*
X115623731Y-69978389D01*
X115591514Y-69947486D01*
X115553599Y-69897860D01*
X115524996Y-69843101D01*
X115505706Y-69783208D01*
X115495728Y-69718183D01*
X115494207Y-69678721D01*
X115496151Y-69639447D01*
X115719302Y-69639447D01*
X115723039Y-69704751D01*
X115734249Y-69763205D01*
X115755795Y-69820776D01*
X115779092Y-69859558D01*
X115821184Y-69903144D01*
X115878394Y-69932444D01*
X115940321Y-69942130D01*
X115947034Y-69942210D01*
X116010106Y-69937276D01*
X116068826Y-69922475D01*
X116094459Y-69912315D01*
X116094459Y-69339028D01*
X116033943Y-69326231D01*
X115981618Y-69323201D01*
X115921498Y-69328129D01*
X115862884Y-69345452D01*
X115808960Y-69379330D01*
X115786420Y-69402043D01*
X115753975Y-69452697D01*
X115734049Y-69508311D01*
X115722513Y-69573891D01*
X115719302Y-69639447D01*
X115496151Y-69639447D01*
X115497277Y-69616707D01*
X115509065Y-69548316D01*
X115529694Y-69486499D01*
X115559163Y-69431255D01*
X115597473Y-69382586D01*
X115619944Y-69360717D01*
X115670729Y-69322468D01*
X115728562Y-69292133D01*
X115793442Y-69269712D01*
X115852894Y-69257072D01*
X115917239Y-69249928D01*
X115972240Y-69248170D01*
X116034614Y-69250734D01*
X116094459Y-69257256D01*
X116094345Y-69193041D01*
X116094005Y-69129651D01*
X116093439Y-69067085D01*
X116092645Y-69005344D01*
X116091625Y-68944426D01*
X116091235Y-68924304D01*
X115970188Y-68891771D01*
X115964326Y-68854255D01*
X116025217Y-68845771D01*
X116083875Y-68837173D01*
X116151318Y-68826704D01*
X116215547Y-68816071D01*
X116276560Y-68805272D01*
X116315450Y-68797981D01*
X116325415Y-68804429D01*
G37*
G36*
X117000327Y-69251339D02*
G01*
X117061487Y-69262724D01*
X117119125Y-69285429D01*
X117160432Y-69314408D01*
X117199169Y-69361475D01*
X117223424Y-69419876D01*
X117232870Y-69482127D01*
X117233412Y-69504918D01*
X117229309Y-69847249D01*
X117229888Y-69906291D01*
X117230774Y-69914660D01*
X117246015Y-69953934D01*
X117281479Y-69973278D01*
X117341308Y-69979520D01*
X117349476Y-69979726D01*
X117354459Y-70016362D01*
X117292006Y-70034922D01*
X117234561Y-70047408D01*
X117171152Y-70054420D01*
X117155157Y-70054757D01*
X117092004Y-70046142D01*
X117039992Y-70016764D01*
X117006266Y-69966537D01*
X116952575Y-70005133D01*
X116897309Y-70032702D01*
X116840468Y-70049244D01*
X116782051Y-70054757D01*
X116720152Y-70050213D01*
X116658935Y-70034505D01*
X116605675Y-70007578D01*
X116591249Y-69997311D01*
X116548697Y-69952345D01*
X116523809Y-69896435D01*
X116516510Y-69836111D01*
X116520125Y-69807388D01*
X116741605Y-69807388D01*
X116751007Y-69866387D01*
X116784396Y-69911143D01*
X116837781Y-69936264D01*
X116886099Y-69942210D01*
X116944801Y-69935899D01*
X117002456Y-69913487D01*
X117004214Y-69660842D01*
X116938489Y-69662912D01*
X116876634Y-69670190D01*
X116818413Y-69686199D01*
X116801981Y-69693962D01*
X116758644Y-69735380D01*
X116742135Y-69792745D01*
X116741605Y-69807388D01*
X116520125Y-69807388D01*
X116524131Y-69775551D01*
X116550921Y-69717844D01*
X116597001Y-69671172D01*
X116638436Y-69646188D01*
X116697613Y-69622662D01*
X116757624Y-69607096D01*
X116826207Y-69595776D01*
X116889909Y-69589585D01*
X116959564Y-69586342D01*
X117004214Y-69585811D01*
X117005094Y-69526020D01*
X116998504Y-69464362D01*
X116972748Y-69411609D01*
X116962595Y-69400870D01*
X116911367Y-69372049D01*
X116849883Y-69361344D01*
X116827773Y-69360717D01*
X116765356Y-69362933D01*
X116701700Y-69368795D01*
X116638781Y-69377203D01*
X116624075Y-69379475D01*
X116601214Y-69320270D01*
X116666586Y-69295767D01*
X116731030Y-69276334D01*
X116794548Y-69261970D01*
X116857137Y-69252676D01*
X116918800Y-69248451D01*
X116939148Y-69248170D01*
X117000327Y-69251339D01*
G37*
G36*
X117420697Y-69304443D02*
G01*
X117489961Y-69294785D01*
X117556628Y-69284715D01*
X117620698Y-69274232D01*
X117682172Y-69263337D01*
X117741049Y-69252030D01*
X117760097Y-69248170D01*
X117772114Y-69254618D01*
X117772114Y-69340200D01*
X117823548Y-69308924D01*
X117883268Y-69280614D01*
X117942679Y-69261112D01*
X118001782Y-69250417D01*
X118043810Y-69248170D01*
X118106522Y-69253363D01*
X118166686Y-69271315D01*
X118216832Y-69302089D01*
X118229923Y-69313822D01*
X118268302Y-69365268D01*
X118289368Y-69423337D01*
X118297070Y-69484800D01*
X118297334Y-69499642D01*
X118297334Y-69788923D01*
X118297505Y-69848166D01*
X118298242Y-69909519D01*
X118299092Y-69941624D01*
X118320488Y-69969761D01*
X118420139Y-69998484D01*
X118422777Y-70036000D01*
X118363902Y-70034974D01*
X118298106Y-70034170D01*
X118232774Y-70033737D01*
X118189476Y-70033655D01*
X118124260Y-70033840D01*
X118062150Y-70034397D01*
X118003146Y-70035324D01*
X117971709Y-70036000D01*
X117968485Y-69998484D01*
X118050844Y-69973571D01*
X118071653Y-69948951D01*
X118072240Y-69896781D01*
X118072240Y-69550640D01*
X118067529Y-69487674D01*
X118049818Y-69430674D01*
X118032379Y-69404974D01*
X117982847Y-69371781D01*
X117923638Y-69360890D01*
X117913970Y-69360717D01*
X117852918Y-69368459D01*
X117794820Y-69389511D01*
X117772114Y-69401163D01*
X117772114Y-69755804D01*
X117772286Y-69818596D01*
X117772801Y-69878009D01*
X117773764Y-69939464D01*
X117773872Y-69944848D01*
X117792923Y-69972106D01*
X117878506Y-69998484D01*
X117880265Y-70036000D01*
X117821638Y-70034866D01*
X117760831Y-70034104D01*
X117697845Y-70033712D01*
X117661912Y-70033655D01*
X117602689Y-70033801D01*
X117543429Y-70034241D01*
X117484133Y-70034974D01*
X117424801Y-70036000D01*
X117420697Y-69998484D01*
X117527090Y-69969761D01*
X117546140Y-69944848D01*
X117546875Y-69883646D01*
X117547020Y-69843438D01*
X117547020Y-69572036D01*
X117546742Y-69512522D01*
X117545780Y-69449496D01*
X117544131Y-69389733D01*
X117543503Y-69372441D01*
X117425680Y-69341959D01*
X117420697Y-69304443D01*
G37*
G36*
X118864759Y-68971785D02*
G01*
X118851533Y-69031170D01*
X118827243Y-69063229D01*
X118774634Y-69092351D01*
X118729351Y-69098107D01*
X118670248Y-69086534D01*
X118637906Y-69065281D01*
X118606374Y-69013228D01*
X118602149Y-68979112D01*
X118614112Y-68921616D01*
X118639958Y-68887667D01*
X118692915Y-68859769D01*
X118738436Y-68854255D01*
X118797332Y-68865104D01*
X118829295Y-68885030D01*
X118860568Y-68936144D01*
X118864759Y-68971785D01*
G37*
G36*
X118494584Y-69304443D02*
G01*
X118555769Y-69295960D01*
X118614391Y-69287362D01*
X118681357Y-69276893D01*
X118744634Y-69266259D01*
X118804222Y-69255460D01*
X118841898Y-69248170D01*
X118850983Y-69254618D01*
X118848575Y-69319579D01*
X118847096Y-69379269D01*
X118846239Y-69440791D01*
X118846001Y-69496125D01*
X118846001Y-69805630D01*
X118846209Y-69865768D01*
X118847162Y-69925338D01*
X118847759Y-69941917D01*
X118868276Y-69969761D01*
X118971444Y-69998484D01*
X118973789Y-70036000D01*
X118913192Y-70034974D01*
X118853328Y-70034241D01*
X118794197Y-70033801D01*
X118735799Y-70033655D01*
X118676521Y-70033801D01*
X118617096Y-70034241D01*
X118557526Y-70034974D01*
X118497808Y-70036000D01*
X118493705Y-69998484D01*
X118598632Y-69969761D01*
X118619148Y-69944848D01*
X118620699Y-69883726D01*
X118620907Y-69836697D01*
X118620907Y-69571157D01*
X118620628Y-69511831D01*
X118619667Y-69449068D01*
X118618018Y-69389626D01*
X118617390Y-69372441D01*
X118499567Y-69341959D01*
X118494584Y-69304443D01*
G37*
G36*
X119532767Y-69251230D02*
G01*
X119595522Y-69262536D01*
X119651041Y-69282173D01*
X119705629Y-69314816D01*
X119729378Y-69335218D01*
X119768872Y-69382864D01*
X119797083Y-69438752D01*
X119814009Y-69502885D01*
X119819562Y-69565762D01*
X119819651Y-69575260D01*
X119817013Y-69623327D01*
X119290327Y-69623327D01*
X119293182Y-69683715D01*
X119303726Y-69745677D01*
X119325292Y-69805294D01*
X119361683Y-69858086D01*
X119371514Y-69867765D01*
X119425435Y-69903752D01*
X119487222Y-69925853D01*
X119551985Y-69937557D01*
X119615444Y-69941919D01*
X119638227Y-69942210D01*
X119698951Y-69940340D01*
X119757805Y-69934730D01*
X119809685Y-69926383D01*
X119816133Y-69977967D01*
X119758404Y-70004064D01*
X119699520Y-70024761D01*
X119639482Y-70040059D01*
X119578290Y-70049958D01*
X119515944Y-70054457D01*
X119494905Y-70054757D01*
X119434107Y-70052346D01*
X119366761Y-70043086D01*
X119305534Y-70026881D01*
X119250428Y-70003732D01*
X119193874Y-69967946D01*
X119179246Y-69955986D01*
X119134821Y-69908157D01*
X119101308Y-69851352D01*
X119081266Y-69795518D01*
X119069242Y-69733090D01*
X119065233Y-69664066D01*
X119069087Y-69597534D01*
X119078302Y-69548295D01*
X119293551Y-69548295D01*
X119569057Y-69548295D01*
X119569057Y-69528951D01*
X119566281Y-69466171D01*
X119555620Y-69406930D01*
X119540628Y-69370975D01*
X119496224Y-69331086D01*
X119453579Y-69323201D01*
X119394155Y-69337691D01*
X119349965Y-69377362D01*
X119341912Y-69389147D01*
X119315602Y-69442439D01*
X119299102Y-69503397D01*
X119293551Y-69548295D01*
X119078302Y-69548295D01*
X119080648Y-69535761D01*
X119099917Y-69478749D01*
X119126892Y-69426498D01*
X119161576Y-69379006D01*
X119174849Y-69364234D01*
X119218738Y-69324790D01*
X119276973Y-69289087D01*
X119332917Y-69267325D01*
X119394425Y-69253724D01*
X119461497Y-69248283D01*
X119473217Y-69248170D01*
X119532767Y-69251230D01*
G37*
G36*
X119951249Y-68854255D02*
G01*
X120013277Y-68845771D01*
X120072601Y-68837173D01*
X120140219Y-68826704D01*
X120203943Y-68816071D01*
X120263771Y-68805272D01*
X120301493Y-68797981D01*
X120310579Y-68804429D01*
X120308170Y-68869391D01*
X120306691Y-68929081D01*
X120305835Y-68990603D01*
X120305596Y-69045937D01*
X120305596Y-69805630D01*
X120305804Y-69865768D01*
X120306757Y-69925338D01*
X120307355Y-69941917D01*
X120327871Y-69969761D01*
X120431039Y-69998484D01*
X120433384Y-70036000D01*
X120372787Y-70034974D01*
X120312923Y-70034241D01*
X120253792Y-70033801D01*
X120195394Y-70033655D01*
X120136244Y-70033801D01*
X120076912Y-70034241D01*
X120017396Y-70034974D01*
X119957697Y-70036000D01*
X119953593Y-69998484D01*
X120058520Y-69969761D01*
X120079036Y-69944848D01*
X120080329Y-69883984D01*
X120080502Y-69836990D01*
X120080502Y-69123020D01*
X120080247Y-69063718D01*
X120079365Y-69001035D01*
X120077854Y-68941730D01*
X120077278Y-68924597D01*
X119956231Y-68891771D01*
X119951249Y-68854255D01*
G37*
G36*
X121161195Y-69326329D02*
G01*
X121159852Y-69392206D01*
X121158860Y-69456352D01*
X121158217Y-69518766D01*
X121157925Y-69579450D01*
X121157906Y-69599293D01*
X121157906Y-69923452D01*
X121338450Y-69923452D01*
X121341674Y-70038637D01*
X121282405Y-70037136D01*
X121219049Y-70036257D01*
X121157906Y-70036000D01*
X121157906Y-70136823D01*
X121158162Y-70202622D01*
X121158932Y-70264025D01*
X121160410Y-70327848D01*
X121162009Y-70373641D01*
X121102768Y-70379521D01*
X121039187Y-70386530D01*
X120978852Y-70393957D01*
X120940432Y-70399140D01*
X120928709Y-70393571D01*
X120929559Y-70333045D01*
X120930081Y-70273951D01*
X120930383Y-70209874D01*
X120930467Y-70149719D01*
X120930467Y-70036000D01*
X120725889Y-70036000D01*
X120664359Y-70036208D01*
X120603515Y-70036744D01*
X120536882Y-70037609D01*
X120473831Y-70038637D01*
X120467969Y-69963899D01*
X120501624Y-69923452D01*
X120610411Y-69923452D01*
X120932812Y-69923452D01*
X120932812Y-69516055D01*
X120894507Y-69561131D01*
X120855429Y-69607881D01*
X120850160Y-69614241D01*
X120810996Y-69662309D01*
X120772090Y-69710892D01*
X120766922Y-69717409D01*
X120728647Y-69766319D01*
X120690758Y-69815228D01*
X120685736Y-69821750D01*
X120649333Y-69869934D01*
X120612632Y-69920336D01*
X120610411Y-69923452D01*
X120501624Y-69923452D01*
X120505882Y-69918335D01*
X120544445Y-69871658D01*
X120583657Y-69823868D01*
X120605722Y-69796837D01*
X120645642Y-69747568D01*
X120685609Y-69698022D01*
X120725622Y-69648197D01*
X120747871Y-69620396D01*
X120787771Y-69570136D01*
X120827346Y-69519922D01*
X120866596Y-69469754D01*
X120888262Y-69441903D01*
X120926917Y-69391921D01*
X120964738Y-69342542D01*
X121001724Y-69293765D01*
X121021912Y-69266928D01*
X121162889Y-69258721D01*
X121161195Y-69326329D01*
G37*
G36*
X121835858Y-69271379D02*
G01*
X121897724Y-69284733D01*
X121954890Y-69306990D01*
X122007358Y-69338149D01*
X122055128Y-69378211D01*
X122070006Y-69393543D01*
X122109849Y-69443528D01*
X122141448Y-69498520D01*
X122164803Y-69558520D01*
X122179916Y-69623528D01*
X122186785Y-69693544D01*
X122187243Y-69717995D01*
X122184326Y-69788827D01*
X122175574Y-69856389D01*
X122160988Y-69920682D01*
X122140568Y-69981704D01*
X122114314Y-70039457D01*
X122082225Y-70093940D01*
X122044301Y-70145153D01*
X122000544Y-70193096D01*
X121951144Y-70237088D01*
X121896295Y-70276298D01*
X121835996Y-70310727D01*
X121770247Y-70340375D01*
X121699049Y-70365242D01*
X121642074Y-70380755D01*
X121582033Y-70393578D01*
X121518927Y-70403712D01*
X121452756Y-70411157D01*
X121442205Y-70336125D01*
X121521954Y-70321067D01*
X121594800Y-70300181D01*
X121660742Y-70273469D01*
X121719781Y-70240930D01*
X121771915Y-70202564D01*
X121817146Y-70158371D01*
X121855474Y-70108351D01*
X121886898Y-70052504D01*
X121911418Y-69990831D01*
X121929034Y-69923330D01*
X121936943Y-69875092D01*
X121936064Y-69874506D01*
X121892218Y-69915505D01*
X121841977Y-69946434D01*
X121785340Y-69967293D01*
X121722308Y-69978082D01*
X121683419Y-69979726D01*
X121620020Y-69974139D01*
X121561127Y-69957378D01*
X121506740Y-69929442D01*
X121456859Y-69890333D01*
X121415314Y-69841515D01*
X121385638Y-69784747D01*
X121367833Y-69720029D01*
X121361990Y-69656879D01*
X121361898Y-69647360D01*
X121365680Y-69592259D01*
X121605750Y-69592259D01*
X121608148Y-69654730D01*
X121616762Y-69718019D01*
X121633941Y-69778885D01*
X121655868Y-69823801D01*
X121693747Y-69869857D01*
X121746818Y-69899639D01*
X121783949Y-69904695D01*
X121842629Y-69892689D01*
X121889416Y-69856673D01*
X121900600Y-69841973D01*
X121926676Y-69788090D01*
X121940006Y-69726676D01*
X121943391Y-69667877D01*
X121941021Y-69601667D01*
X121933910Y-69542807D01*
X121919979Y-69484537D01*
X121896906Y-69430456D01*
X121893859Y-69425197D01*
X121855164Y-69377807D01*
X121802367Y-69348543D01*
X121755519Y-69341959D01*
X121695202Y-69356707D01*
X121652038Y-69397082D01*
X121644438Y-69409077D01*
X121620862Y-69466161D01*
X121609528Y-69524373D01*
X121605787Y-69585035D01*
X121605750Y-69592259D01*
X121365680Y-69592259D01*
X121366091Y-69586268D01*
X121381585Y-69520593D01*
X121408495Y-69460950D01*
X121446821Y-69407336D01*
X121481186Y-69372734D01*
X121527750Y-69336776D01*
X121586424Y-69304228D01*
X121649782Y-69281807D01*
X121707818Y-69270647D01*
X121769295Y-69266928D01*
X121835858Y-69271379D01*
G37*
G36*
X122753821Y-69271379D02*
G01*
X122815686Y-69284733D01*
X122872853Y-69306990D01*
X122925321Y-69338149D01*
X122973090Y-69378211D01*
X122987969Y-69393543D01*
X123027811Y-69443528D01*
X123059410Y-69498520D01*
X123082766Y-69558520D01*
X123097878Y-69623528D01*
X123104747Y-69693544D01*
X123105205Y-69717995D01*
X123102288Y-69788827D01*
X123093537Y-69856389D01*
X123078951Y-69920682D01*
X123058531Y-69981704D01*
X123032276Y-70039457D01*
X123000187Y-70093940D01*
X122962264Y-70145153D01*
X122918506Y-70193096D01*
X122869106Y-70237088D01*
X122814257Y-70276298D01*
X122753958Y-70310727D01*
X122688210Y-70340375D01*
X122617011Y-70365242D01*
X122560036Y-70380755D01*
X122499996Y-70393578D01*
X122436890Y-70403712D01*
X122370718Y-70411157D01*
X122360167Y-70336125D01*
X122439916Y-70321067D01*
X122512762Y-70300181D01*
X122578704Y-70273469D01*
X122637743Y-70240930D01*
X122689878Y-70202564D01*
X122735109Y-70158371D01*
X122773436Y-70108351D01*
X122804860Y-70052504D01*
X122829380Y-69990831D01*
X122846996Y-69923330D01*
X122854905Y-69875092D01*
X122854026Y-69874506D01*
X122810180Y-69915505D01*
X122759939Y-69946434D01*
X122703303Y-69967293D01*
X122640271Y-69978082D01*
X122601381Y-69979726D01*
X122537982Y-69974139D01*
X122479089Y-69957378D01*
X122424702Y-69929442D01*
X122374822Y-69890333D01*
X122333276Y-69841515D01*
X122303600Y-69784747D01*
X122285795Y-69720029D01*
X122279953Y-69656879D01*
X122279860Y-69647360D01*
X122283643Y-69592259D01*
X122523712Y-69592259D01*
X122526110Y-69654730D01*
X122534724Y-69718019D01*
X122551904Y-69778885D01*
X122573831Y-69823801D01*
X122611710Y-69869857D01*
X122664781Y-69899639D01*
X122701912Y-69904695D01*
X122760592Y-69892689D01*
X122807379Y-69856673D01*
X122818562Y-69841973D01*
X122844638Y-69788090D01*
X122857968Y-69726676D01*
X122861353Y-69667877D01*
X122858983Y-69601667D01*
X122851872Y-69542807D01*
X122837941Y-69484537D01*
X122814868Y-69430456D01*
X122811821Y-69425197D01*
X122773126Y-69377807D01*
X122720329Y-69348543D01*
X122673482Y-69341959D01*
X122613165Y-69356707D01*
X122570000Y-69397082D01*
X122562400Y-69409077D01*
X122538825Y-69466161D01*
X122527490Y-69524373D01*
X122523750Y-69585035D01*
X122523712Y-69592259D01*
X122283643Y-69592259D01*
X122284054Y-69586268D01*
X122299547Y-69520593D01*
X122326457Y-69460950D01*
X122364783Y-69407336D01*
X122399148Y-69372734D01*
X122445712Y-69336776D01*
X122504386Y-69304228D01*
X122567744Y-69281807D01*
X122625780Y-69270647D01*
X122687257Y-69266928D01*
X122753821Y-69271379D01*
G37*
G36*
X123223907Y-70223578D02*
G01*
X123640390Y-68854255D01*
X123755575Y-68854255D01*
X123339385Y-70223578D01*
X123223907Y-70223578D01*
G37*
G36*
X124339336Y-69251339D02*
G01*
X124400496Y-69262724D01*
X124458134Y-69285429D01*
X124499441Y-69314408D01*
X124538179Y-69361475D01*
X124562433Y-69419876D01*
X124571879Y-69482127D01*
X124572421Y-69504918D01*
X124568318Y-69847249D01*
X124568897Y-69906291D01*
X124569783Y-69914660D01*
X124585024Y-69953934D01*
X124620488Y-69973278D01*
X124680318Y-69979520D01*
X124688485Y-69979726D01*
X124693468Y-70016362D01*
X124631015Y-70034922D01*
X124573570Y-70047408D01*
X124510161Y-70054420D01*
X124494166Y-70054757D01*
X124431014Y-70046142D01*
X124379001Y-70016764D01*
X124345275Y-69966537D01*
X124291584Y-70005133D01*
X124236318Y-70032702D01*
X124179477Y-70049244D01*
X124121060Y-70054757D01*
X124059162Y-70050213D01*
X123997944Y-70034505D01*
X123944684Y-70007578D01*
X123930258Y-69997311D01*
X123887706Y-69952345D01*
X123862818Y-69896435D01*
X123855519Y-69836111D01*
X123859134Y-69807388D01*
X124080614Y-69807388D01*
X124090016Y-69866387D01*
X124123405Y-69911143D01*
X124176790Y-69936264D01*
X124225108Y-69942210D01*
X124283810Y-69935899D01*
X124341465Y-69913487D01*
X124343224Y-69660842D01*
X124277498Y-69662912D01*
X124215643Y-69670190D01*
X124157422Y-69686199D01*
X124140990Y-69693962D01*
X124097654Y-69735380D01*
X124081144Y-69792745D01*
X124080614Y-69807388D01*
X123859134Y-69807388D01*
X123863140Y-69775551D01*
X123889930Y-69717844D01*
X123936010Y-69671172D01*
X123977445Y-69646188D01*
X124036622Y-69622662D01*
X124096633Y-69607096D01*
X124165216Y-69595776D01*
X124228918Y-69589585D01*
X124298573Y-69586342D01*
X124343224Y-69585811D01*
X124344103Y-69526020D01*
X124337513Y-69464362D01*
X124311757Y-69411609D01*
X124301605Y-69400870D01*
X124250376Y-69372049D01*
X124188893Y-69361344D01*
X124166782Y-69360717D01*
X124104365Y-69362933D01*
X124040709Y-69368795D01*
X123977790Y-69377203D01*
X123963084Y-69379475D01*
X123940223Y-69320270D01*
X124005595Y-69295767D01*
X124070039Y-69276334D01*
X124133557Y-69261970D01*
X124196147Y-69252676D01*
X124257809Y-69248451D01*
X124278157Y-69248170D01*
X124339336Y-69251339D01*
G37*
G36*
X125604396Y-69251394D02*
G01*
X125602503Y-69313554D01*
X125601002Y-69379795D01*
X125599893Y-69450117D01*
X125599268Y-69511835D01*
X125598914Y-69576386D01*
X125598827Y-69630068D01*
X125598827Y-70167304D01*
X125598864Y-70228725D01*
X125599013Y-70287418D01*
X125599413Y-70335832D01*
X125619344Y-70362796D01*
X125720753Y-70392399D01*
X125723977Y-70429914D01*
X125664406Y-70428760D01*
X125605275Y-70427936D01*
X125546584Y-70427441D01*
X125488332Y-70427277D01*
X125428981Y-70427441D01*
X125369630Y-70427936D01*
X125310279Y-70428760D01*
X125250928Y-70429914D01*
X125246824Y-70392399D01*
X125350579Y-70363676D01*
X125371974Y-70338763D01*
X125372824Y-70278817D01*
X125373347Y-70218719D01*
X125373649Y-70152211D01*
X125373733Y-70088756D01*
X125373733Y-69976795D01*
X125321737Y-70007173D01*
X125261213Y-70032754D01*
X125199518Y-70048590D01*
X125136649Y-70054681D01*
X125128709Y-70054757D01*
X125061255Y-70049638D01*
X124999944Y-70034281D01*
X124944776Y-70008686D01*
X124895751Y-69972852D01*
X124870495Y-69947779D01*
X124832694Y-69898295D01*
X124804177Y-69843706D01*
X124784945Y-69784012D01*
X124774998Y-69719213D01*
X124773482Y-69679893D01*
X124775389Y-69641792D01*
X124998576Y-69641792D01*
X125002221Y-69707865D01*
X125013157Y-69766575D01*
X125034175Y-69823822D01*
X125056901Y-69861903D01*
X125098506Y-69904253D01*
X125156173Y-69932721D01*
X125219417Y-69942132D01*
X125226308Y-69942210D01*
X125288391Y-69937760D01*
X125347475Y-69924410D01*
X125373733Y-69915246D01*
X125373733Y-69336390D01*
X125314895Y-69326498D01*
X125257962Y-69323201D01*
X125196394Y-69328440D01*
X125137247Y-69346859D01*
X125084090Y-69382877D01*
X125062470Y-69407025D01*
X125031584Y-69459486D01*
X125012615Y-69515031D01*
X125001633Y-69578966D01*
X124998576Y-69641792D01*
X124775389Y-69641792D01*
X124776559Y-69618427D01*
X124788374Y-69550448D01*
X124809051Y-69488775D01*
X124838589Y-69433409D01*
X124876988Y-69384348D01*
X124899511Y-69362182D01*
X124950169Y-69323436D01*
X125007401Y-69292706D01*
X125071206Y-69269992D01*
X125129400Y-69257188D01*
X125192158Y-69249951D01*
X125245652Y-69248170D01*
X125305976Y-69250660D01*
X125368247Y-69258130D01*
X125425954Y-69269112D01*
X125445540Y-69273669D01*
X125505254Y-69263266D01*
X125563314Y-69251671D01*
X125594724Y-69244946D01*
X125604396Y-69251394D01*
G37*
G36*
X126392519Y-69965658D02*
G01*
X126338936Y-70000375D01*
X126283333Y-70026566D01*
X126225711Y-70044229D01*
X126166069Y-70053365D01*
X126131081Y-70054757D01*
X126069056Y-70050654D01*
X126008999Y-70036228D01*
X125954342Y-70008018D01*
X125931779Y-69989105D01*
X125893733Y-69937666D01*
X125872850Y-69879963D01*
X125865215Y-69819123D01*
X125864954Y-69804457D01*
X125864954Y-69630654D01*
X125864841Y-69568085D01*
X125864422Y-69503344D01*
X125863566Y-69440242D01*
X125861928Y-69377697D01*
X125861730Y-69372441D01*
X125743907Y-69341959D01*
X125738925Y-69304443D01*
X125799870Y-69295960D01*
X125858325Y-69287362D01*
X125925184Y-69276893D01*
X125988458Y-69266259D01*
X126048145Y-69255460D01*
X126085945Y-69248170D01*
X126095031Y-69254618D01*
X126092622Y-69315793D01*
X126091143Y-69376554D01*
X126090287Y-69443324D01*
X126090048Y-69506676D01*
X126090048Y-69757856D01*
X126094724Y-69818249D01*
X126114198Y-69876881D01*
X126129616Y-69898540D01*
X126181149Y-69932615D01*
X126241870Y-69942210D01*
X126300644Y-69937512D01*
X126360036Y-69921817D01*
X126390174Y-69908798D01*
X126390174Y-69559726D01*
X126389919Y-69498440D01*
X126389037Y-69437796D01*
X126387148Y-69375374D01*
X126386950Y-69370682D01*
X126275575Y-69341959D01*
X126270593Y-69304443D01*
X126329758Y-69295960D01*
X126397846Y-69285628D01*
X126462762Y-69275132D01*
X126524503Y-69264471D01*
X126583071Y-69253645D01*
X126611165Y-69248170D01*
X126621130Y-69248170D01*
X126618296Y-69311534D01*
X126616556Y-69374320D01*
X126615635Y-69434246D01*
X126615274Y-69498829D01*
X126615268Y-69508435D01*
X126615282Y-69579812D01*
X126615323Y-69643880D01*
X126615413Y-69713687D01*
X126615578Y-69782380D01*
X126615849Y-69841737D01*
X126616147Y-69874799D01*
X126620837Y-69928142D01*
X126636664Y-69959210D01*
X126670662Y-69974450D01*
X126730271Y-69979602D01*
X126735436Y-69979726D01*
X126739832Y-70014897D01*
X126682588Y-70032336D01*
X126623224Y-70045999D01*
X126563518Y-70053784D01*
X126536133Y-70054757D01*
X126475134Y-70046056D01*
X126421278Y-70012644D01*
X126392519Y-69965658D01*
G37*
G36*
X127307766Y-69251339D02*
G01*
X127368926Y-69262724D01*
X127426564Y-69285429D01*
X127467871Y-69314408D01*
X127506608Y-69361475D01*
X127530863Y-69419876D01*
X127540309Y-69482127D01*
X127540851Y-69504918D01*
X127536748Y-69847249D01*
X127537327Y-69906291D01*
X127538213Y-69914660D01*
X127553454Y-69953934D01*
X127588918Y-69973278D01*
X127648747Y-69979520D01*
X127656915Y-69979726D01*
X127661898Y-70016362D01*
X127599445Y-70034922D01*
X127542000Y-70047408D01*
X127478591Y-70054420D01*
X127462595Y-70054757D01*
X127399443Y-70046142D01*
X127347431Y-70016764D01*
X127313705Y-69966537D01*
X127260014Y-70005133D01*
X127204748Y-70032702D01*
X127147907Y-70049244D01*
X127089490Y-70054757D01*
X127027591Y-70050213D01*
X126966374Y-70034505D01*
X126913114Y-70007578D01*
X126898688Y-69997311D01*
X126856136Y-69952345D01*
X126831248Y-69896435D01*
X126823949Y-69836111D01*
X126827564Y-69807388D01*
X127049043Y-69807388D01*
X127058446Y-69866387D01*
X127091835Y-69911143D01*
X127145220Y-69936264D01*
X127193538Y-69942210D01*
X127252240Y-69935899D01*
X127309895Y-69913487D01*
X127311653Y-69660842D01*
X127245928Y-69662912D01*
X127184073Y-69670190D01*
X127125852Y-69686199D01*
X127109420Y-69693962D01*
X127066083Y-69735380D01*
X127049574Y-69792745D01*
X127049043Y-69807388D01*
X126827564Y-69807388D01*
X126831570Y-69775551D01*
X126858360Y-69717844D01*
X126904439Y-69671172D01*
X126945875Y-69646188D01*
X127005052Y-69622662D01*
X127065063Y-69607096D01*
X127133646Y-69595776D01*
X127197348Y-69589585D01*
X127267003Y-69586342D01*
X127311653Y-69585811D01*
X127312533Y-69526020D01*
X127305943Y-69464362D01*
X127280187Y-69411609D01*
X127270034Y-69400870D01*
X127218806Y-69372049D01*
X127157322Y-69361344D01*
X127135212Y-69360717D01*
X127072794Y-69362933D01*
X127009139Y-69368795D01*
X126946220Y-69377203D01*
X126931514Y-69379475D01*
X126908653Y-69320270D01*
X126974025Y-69295767D01*
X127038469Y-69276334D01*
X127101987Y-69261970D01*
X127164576Y-69252676D01*
X127226239Y-69248451D01*
X127246587Y-69248170D01*
X127307766Y-69251339D01*
G37*
G36*
X128360929Y-69253064D02*
G01*
X128425038Y-69270645D01*
X128481417Y-69301012D01*
X128530066Y-69344166D01*
X128535603Y-69350459D01*
X128569864Y-69398097D01*
X128595710Y-69451766D01*
X128613141Y-69511466D01*
X128622157Y-69577197D01*
X128623531Y-69617465D01*
X128620511Y-69679164D01*
X128608915Y-69747555D01*
X128588623Y-69809785D01*
X128559635Y-69865852D01*
X128521950Y-69915758D01*
X128499846Y-69938400D01*
X128450782Y-69977943D01*
X128396133Y-70009305D01*
X128335899Y-70032486D01*
X128270081Y-70047485D01*
X128210966Y-70053735D01*
X128173635Y-70054757D01*
X128114930Y-70051449D01*
X128060795Y-70043034D01*
X128060795Y-70217130D01*
X128061076Y-70279112D01*
X128062260Y-70331436D01*
X128084535Y-70361917D01*
X128200893Y-70392399D01*
X128203237Y-70429914D01*
X128144479Y-70428887D01*
X128079766Y-70428021D01*
X128017653Y-70427485D01*
X127958142Y-70427279D01*
X127950886Y-70427277D01*
X127891663Y-70427441D01*
X127832404Y-70427936D01*
X127773107Y-70428760D01*
X127713775Y-70429914D01*
X127709672Y-70392399D01*
X127813426Y-70363676D01*
X127834235Y-70339056D01*
X127835184Y-70279559D01*
X127835585Y-70220231D01*
X127835701Y-70156753D01*
X127835701Y-69829077D01*
X127835672Y-69764205D01*
X127835587Y-69703897D01*
X127835386Y-69630588D01*
X127835084Y-69565393D01*
X127834564Y-69495312D01*
X127833733Y-69427951D01*
X127832828Y-69387974D01*
X128060795Y-69387974D01*
X128060795Y-69967416D01*
X128121919Y-69977021D01*
X128173928Y-69979726D01*
X128237750Y-69971569D01*
X128291096Y-69947097D01*
X128333967Y-69906310D01*
X128341284Y-69896195D01*
X128368911Y-69843505D01*
X128385878Y-69787094D01*
X128395701Y-69721671D01*
X128398436Y-69657032D01*
X128395870Y-69596355D01*
X128386651Y-69535424D01*
X128368266Y-69477605D01*
X128344801Y-69435748D01*
X128302281Y-69393030D01*
X128248471Y-69368044D01*
X128189755Y-69360717D01*
X128129296Y-69365934D01*
X128071491Y-69383103D01*
X128060795Y-69387974D01*
X127832828Y-69387974D01*
X127832477Y-69372441D01*
X127714654Y-69341959D01*
X127709672Y-69304443D01*
X127778756Y-69294785D01*
X127845327Y-69284715D01*
X127909384Y-69274232D01*
X127970926Y-69263337D01*
X128029954Y-69252030D01*
X128049071Y-69248170D01*
X128060795Y-69252273D01*
X128060795Y-69329649D01*
X128114244Y-69297901D01*
X128174332Y-69271165D01*
X128233358Y-69254615D01*
X128298492Y-69248170D01*
X128360929Y-69253064D01*
G37*
G36*
X129125303Y-68971785D02*
G01*
X129112077Y-69031170D01*
X129087787Y-69063229D01*
X129035178Y-69092351D01*
X128989895Y-69098107D01*
X128930792Y-69086534D01*
X128898450Y-69065281D01*
X128866918Y-69013228D01*
X128862693Y-68979112D01*
X128874656Y-68921616D01*
X128900502Y-68887667D01*
X128953459Y-68859769D01*
X128998981Y-68854255D01*
X129057877Y-68865104D01*
X129089839Y-68885030D01*
X129121112Y-68936144D01*
X129125303Y-68971785D01*
G37*
G36*
X128755129Y-69304443D02*
G01*
X128816313Y-69295960D01*
X128874935Y-69287362D01*
X128941901Y-69276893D01*
X129005178Y-69266259D01*
X129064766Y-69255460D01*
X129102442Y-69248170D01*
X129111528Y-69254618D01*
X129109119Y-69319579D01*
X129107640Y-69379269D01*
X129106784Y-69440791D01*
X129106545Y-69496125D01*
X129106545Y-69805630D01*
X129106753Y-69865768D01*
X129107706Y-69925338D01*
X129108304Y-69941917D01*
X129128820Y-69969761D01*
X129231988Y-69998484D01*
X129234333Y-70036000D01*
X129173736Y-70034974D01*
X129113872Y-70034241D01*
X129054741Y-70033801D01*
X128996343Y-70033655D01*
X128937065Y-70033801D01*
X128877641Y-70034241D01*
X128818070Y-70034974D01*
X128758353Y-70036000D01*
X128754249Y-69998484D01*
X128859176Y-69969761D01*
X128879692Y-69944848D01*
X128881243Y-69883726D01*
X128881451Y-69836697D01*
X128881451Y-69571157D01*
X128881173Y-69511831D01*
X128880211Y-69449068D01*
X128878562Y-69389626D01*
X128877934Y-69372441D01*
X128760111Y-69341959D01*
X128755129Y-69304443D01*
G37*
D11*
X131284819Y-122233333D02*
X131999104Y-122233333D01*
X131999104Y-122233333D02*
X132141961Y-122280952D01*
X132141961Y-122280952D02*
X132237200Y-122376190D01*
X132237200Y-122376190D02*
X132284819Y-122519047D01*
X132284819Y-122519047D02*
X132284819Y-122614285D01*
X131618152Y-121328571D02*
X132284819Y-121328571D01*
X131237200Y-121566666D02*
X131951485Y-121804761D01*
X131951485Y-121804761D02*
X131951485Y-121185714D01*
X111314819Y-99216666D02*
X110838628Y-99549999D01*
X111314819Y-99788094D02*
X110314819Y-99788094D01*
X110314819Y-99788094D02*
X110314819Y-99407142D01*
X110314819Y-99407142D02*
X110362438Y-99311904D01*
X110362438Y-99311904D02*
X110410057Y-99264285D01*
X110410057Y-99264285D02*
X110505295Y-99216666D01*
X110505295Y-99216666D02*
X110648152Y-99216666D01*
X110648152Y-99216666D02*
X110743390Y-99264285D01*
X110743390Y-99264285D02*
X110791009Y-99311904D01*
X110791009Y-99311904D02*
X110838628Y-99407142D01*
X110838628Y-99407142D02*
X110838628Y-99788094D01*
X111314819Y-98264285D02*
X111314819Y-98835713D01*
X111314819Y-98549999D02*
X110314819Y-98549999D01*
X110314819Y-98549999D02*
X110457676Y-98645237D01*
X110457676Y-98645237D02*
X110552914Y-98740475D01*
X110552914Y-98740475D02*
X110600533Y-98835713D01*
X111024819Y-89066666D02*
X110548628Y-89399999D01*
X111024819Y-89638094D02*
X110024819Y-89638094D01*
X110024819Y-89638094D02*
X110024819Y-89257142D01*
X110024819Y-89257142D02*
X110072438Y-89161904D01*
X110072438Y-89161904D02*
X110120057Y-89114285D01*
X110120057Y-89114285D02*
X110215295Y-89066666D01*
X110215295Y-89066666D02*
X110358152Y-89066666D01*
X110358152Y-89066666D02*
X110453390Y-89114285D01*
X110453390Y-89114285D02*
X110501009Y-89161904D01*
X110501009Y-89161904D02*
X110548628Y-89257142D01*
X110548628Y-89257142D02*
X110548628Y-89638094D01*
X110120057Y-88685713D02*
X110072438Y-88638094D01*
X110072438Y-88638094D02*
X110024819Y-88542856D01*
X110024819Y-88542856D02*
X110024819Y-88304761D01*
X110024819Y-88304761D02*
X110072438Y-88209523D01*
X110072438Y-88209523D02*
X110120057Y-88161904D01*
X110120057Y-88161904D02*
X110215295Y-88114285D01*
X110215295Y-88114285D02*
X110310533Y-88114285D01*
X110310533Y-88114285D02*
X110453390Y-88161904D01*
X110453390Y-88161904D02*
X111024819Y-88733332D01*
X111024819Y-88733332D02*
X111024819Y-88114285D01*
X88354819Y-122253333D02*
X89069104Y-122253333D01*
X89069104Y-122253333D02*
X89211961Y-122300952D01*
X89211961Y-122300952D02*
X89307200Y-122396190D01*
X89307200Y-122396190D02*
X89354819Y-122539047D01*
X89354819Y-122539047D02*
X89354819Y-122634285D01*
X88354819Y-121872380D02*
X88354819Y-121253333D01*
X88354819Y-121253333D02*
X88735771Y-121586666D01*
X88735771Y-121586666D02*
X88735771Y-121443809D01*
X88735771Y-121443809D02*
X88783390Y-121348571D01*
X88783390Y-121348571D02*
X88831009Y-121300952D01*
X88831009Y-121300952D02*
X88926247Y-121253333D01*
X88926247Y-121253333D02*
X89164342Y-121253333D01*
X89164342Y-121253333D02*
X89259580Y-121300952D01*
X89259580Y-121300952D02*
X89307200Y-121348571D01*
X89307200Y-121348571D02*
X89354819Y-121443809D01*
X89354819Y-121443809D02*
X89354819Y-121729523D01*
X89354819Y-121729523D02*
X89307200Y-121824761D01*
X89307200Y-121824761D02*
X89259580Y-121872380D01*
X100824819Y-122253333D02*
X101539104Y-122253333D01*
X101539104Y-122253333D02*
X101681961Y-122300952D01*
X101681961Y-122300952D02*
X101777200Y-122396190D01*
X101777200Y-122396190D02*
X101824819Y-122539047D01*
X101824819Y-122539047D02*
X101824819Y-122634285D01*
X100920057Y-121824761D02*
X100872438Y-121777142D01*
X100872438Y-121777142D02*
X100824819Y-121681904D01*
X100824819Y-121681904D02*
X100824819Y-121443809D01*
X100824819Y-121443809D02*
X100872438Y-121348571D01*
X100872438Y-121348571D02*
X100920057Y-121300952D01*
X100920057Y-121300952D02*
X101015295Y-121253333D01*
X101015295Y-121253333D02*
X101110533Y-121253333D01*
X101110533Y-121253333D02*
X101253390Y-121300952D01*
X101253390Y-121300952D02*
X101824819Y-121872380D01*
X101824819Y-121872380D02*
X101824819Y-121253333D01*
X92514819Y-96686666D02*
X92038628Y-97019999D01*
X92514819Y-97258094D02*
X91514819Y-97258094D01*
X91514819Y-97258094D02*
X91514819Y-96877142D01*
X91514819Y-96877142D02*
X91562438Y-96781904D01*
X91562438Y-96781904D02*
X91610057Y-96734285D01*
X91610057Y-96734285D02*
X91705295Y-96686666D01*
X91705295Y-96686666D02*
X91848152Y-96686666D01*
X91848152Y-96686666D02*
X91943390Y-96734285D01*
X91943390Y-96734285D02*
X91991009Y-96781904D01*
X91991009Y-96781904D02*
X92038628Y-96877142D01*
X92038628Y-96877142D02*
X92038628Y-97258094D01*
X91848152Y-95829523D02*
X92514819Y-95829523D01*
X91467200Y-96067618D02*
X92181485Y-96305713D01*
X92181485Y-96305713D02*
X92181485Y-95686666D01*
X101959580Y-101766666D02*
X102007200Y-101814285D01*
X102007200Y-101814285D02*
X102054819Y-101957142D01*
X102054819Y-101957142D02*
X102054819Y-102052380D01*
X102054819Y-102052380D02*
X102007200Y-102195237D01*
X102007200Y-102195237D02*
X101911961Y-102290475D01*
X101911961Y-102290475D02*
X101816723Y-102338094D01*
X101816723Y-102338094D02*
X101626247Y-102385713D01*
X101626247Y-102385713D02*
X101483390Y-102385713D01*
X101483390Y-102385713D02*
X101292914Y-102338094D01*
X101292914Y-102338094D02*
X101197676Y-102290475D01*
X101197676Y-102290475D02*
X101102438Y-102195237D01*
X101102438Y-102195237D02*
X101054819Y-102052380D01*
X101054819Y-102052380D02*
X101054819Y-101957142D01*
X101054819Y-101957142D02*
X101102438Y-101814285D01*
X101102438Y-101814285D02*
X101150057Y-101766666D01*
X101150057Y-101385713D02*
X101102438Y-101338094D01*
X101102438Y-101338094D02*
X101054819Y-101242856D01*
X101054819Y-101242856D02*
X101054819Y-101004761D01*
X101054819Y-101004761D02*
X101102438Y-100909523D01*
X101102438Y-100909523D02*
X101150057Y-100861904D01*
X101150057Y-100861904D02*
X101245295Y-100814285D01*
X101245295Y-100814285D02*
X101340533Y-100814285D01*
X101340533Y-100814285D02*
X101483390Y-100861904D01*
X101483390Y-100861904D02*
X102054819Y-101433332D01*
X102054819Y-101433332D02*
X102054819Y-100814285D01*
X88586666Y-79204819D02*
X88586666Y-79919104D01*
X88586666Y-79919104D02*
X88539047Y-80061961D01*
X88539047Y-80061961D02*
X88443809Y-80157200D01*
X88443809Y-80157200D02*
X88300952Y-80204819D01*
X88300952Y-80204819D02*
X88205714Y-80204819D01*
X89539047Y-79204819D02*
X89062857Y-79204819D01*
X89062857Y-79204819D02*
X89015238Y-79681009D01*
X89015238Y-79681009D02*
X89062857Y-79633390D01*
X89062857Y-79633390D02*
X89158095Y-79585771D01*
X89158095Y-79585771D02*
X89396190Y-79585771D01*
X89396190Y-79585771D02*
X89491428Y-79633390D01*
X89491428Y-79633390D02*
X89539047Y-79681009D01*
X89539047Y-79681009D02*
X89586666Y-79776247D01*
X89586666Y-79776247D02*
X89586666Y-80014342D01*
X89586666Y-80014342D02*
X89539047Y-80109580D01*
X89539047Y-80109580D02*
X89491428Y-80157200D01*
X89491428Y-80157200D02*
X89396190Y-80204819D01*
X89396190Y-80204819D02*
X89158095Y-80204819D01*
X89158095Y-80204819D02*
X89062857Y-80157200D01*
X89062857Y-80157200D02*
X89015238Y-80109580D01*
X93644819Y-75263333D02*
X94359104Y-75263333D01*
X94359104Y-75263333D02*
X94501961Y-75310952D01*
X94501961Y-75310952D02*
X94597200Y-75406190D01*
X94597200Y-75406190D02*
X94644819Y-75549047D01*
X94644819Y-75549047D02*
X94644819Y-75644285D01*
X94644819Y-74263333D02*
X94644819Y-74834761D01*
X94644819Y-74549047D02*
X93644819Y-74549047D01*
X93644819Y-74549047D02*
X93787676Y-74644285D01*
X93787676Y-74644285D02*
X93882914Y-74739523D01*
X93882914Y-74739523D02*
X93930533Y-74834761D01*
X87434819Y-101766666D02*
X86958628Y-102099999D01*
X87434819Y-102338094D02*
X86434819Y-102338094D01*
X86434819Y-102338094D02*
X86434819Y-101957142D01*
X86434819Y-101957142D02*
X86482438Y-101861904D01*
X86482438Y-101861904D02*
X86530057Y-101814285D01*
X86530057Y-101814285D02*
X86625295Y-101766666D01*
X86625295Y-101766666D02*
X86768152Y-101766666D01*
X86768152Y-101766666D02*
X86863390Y-101814285D01*
X86863390Y-101814285D02*
X86911009Y-101861904D01*
X86911009Y-101861904D02*
X86958628Y-101957142D01*
X86958628Y-101957142D02*
X86958628Y-102338094D01*
X86434819Y-101433332D02*
X86434819Y-100814285D01*
X86434819Y-100814285D02*
X86815771Y-101147618D01*
X86815771Y-101147618D02*
X86815771Y-101004761D01*
X86815771Y-101004761D02*
X86863390Y-100909523D01*
X86863390Y-100909523D02*
X86911009Y-100861904D01*
X86911009Y-100861904D02*
X87006247Y-100814285D01*
X87006247Y-100814285D02*
X87244342Y-100814285D01*
X87244342Y-100814285D02*
X87339580Y-100861904D01*
X87339580Y-100861904D02*
X87387200Y-100909523D01*
X87387200Y-100909523D02*
X87434819Y-101004761D01*
X87434819Y-101004761D02*
X87434819Y-101290475D01*
X87434819Y-101290475D02*
X87387200Y-101385713D01*
X87387200Y-101385713D02*
X87339580Y-101433332D01*
X85890057Y-110585238D02*
X85842438Y-110680476D01*
X85842438Y-110680476D02*
X85747200Y-110775714D01*
X85747200Y-110775714D02*
X85604342Y-110918571D01*
X85604342Y-110918571D02*
X85556723Y-111013809D01*
X85556723Y-111013809D02*
X85556723Y-111109047D01*
X85794819Y-111061428D02*
X85747200Y-111156666D01*
X85747200Y-111156666D02*
X85651961Y-111251904D01*
X85651961Y-111251904D02*
X85461485Y-111299523D01*
X85461485Y-111299523D02*
X85128152Y-111299523D01*
X85128152Y-111299523D02*
X84937676Y-111251904D01*
X84937676Y-111251904D02*
X84842438Y-111156666D01*
X84842438Y-111156666D02*
X84794819Y-111061428D01*
X84794819Y-111061428D02*
X84794819Y-110870952D01*
X84794819Y-110870952D02*
X84842438Y-110775714D01*
X84842438Y-110775714D02*
X84937676Y-110680476D01*
X84937676Y-110680476D02*
X85128152Y-110632857D01*
X85128152Y-110632857D02*
X85461485Y-110632857D01*
X85461485Y-110632857D02*
X85651961Y-110680476D01*
X85651961Y-110680476D02*
X85747200Y-110775714D01*
X85747200Y-110775714D02*
X85794819Y-110870952D01*
X85794819Y-110870952D02*
X85794819Y-111061428D01*
X84890057Y-110251904D02*
X84842438Y-110204285D01*
X84842438Y-110204285D02*
X84794819Y-110109047D01*
X84794819Y-110109047D02*
X84794819Y-109870952D01*
X84794819Y-109870952D02*
X84842438Y-109775714D01*
X84842438Y-109775714D02*
X84890057Y-109728095D01*
X84890057Y-109728095D02*
X84985295Y-109680476D01*
X84985295Y-109680476D02*
X85080533Y-109680476D01*
X85080533Y-109680476D02*
X85223390Y-109728095D01*
X85223390Y-109728095D02*
X85794819Y-110299523D01*
X85794819Y-110299523D02*
X85794819Y-109680476D01*
X91621009Y-112347142D02*
X91668628Y-112204285D01*
X91668628Y-112204285D02*
X91716247Y-112156666D01*
X91716247Y-112156666D02*
X91811485Y-112109047D01*
X91811485Y-112109047D02*
X91954342Y-112109047D01*
X91954342Y-112109047D02*
X92049580Y-112156666D01*
X92049580Y-112156666D02*
X92097200Y-112204285D01*
X92097200Y-112204285D02*
X92144819Y-112299523D01*
X92144819Y-112299523D02*
X92144819Y-112680475D01*
X92144819Y-112680475D02*
X91144819Y-112680475D01*
X91144819Y-112680475D02*
X91144819Y-112347142D01*
X91144819Y-112347142D02*
X91192438Y-112251904D01*
X91192438Y-112251904D02*
X91240057Y-112204285D01*
X91240057Y-112204285D02*
X91335295Y-112156666D01*
X91335295Y-112156666D02*
X91430533Y-112156666D01*
X91430533Y-112156666D02*
X91525771Y-112204285D01*
X91525771Y-112204285D02*
X91573390Y-112251904D01*
X91573390Y-112251904D02*
X91621009Y-112347142D01*
X91621009Y-112347142D02*
X91621009Y-112680475D01*
X92049580Y-111109047D02*
X92097200Y-111156666D01*
X92097200Y-111156666D02*
X92144819Y-111299523D01*
X92144819Y-111299523D02*
X92144819Y-111394761D01*
X92144819Y-111394761D02*
X92097200Y-111537618D01*
X92097200Y-111537618D02*
X92001961Y-111632856D01*
X92001961Y-111632856D02*
X91906723Y-111680475D01*
X91906723Y-111680475D02*
X91716247Y-111728094D01*
X91716247Y-111728094D02*
X91573390Y-111728094D01*
X91573390Y-111728094D02*
X91382914Y-111680475D01*
X91382914Y-111680475D02*
X91287676Y-111632856D01*
X91287676Y-111632856D02*
X91192438Y-111537618D01*
X91192438Y-111537618D02*
X91144819Y-111394761D01*
X91144819Y-111394761D02*
X91144819Y-111299523D01*
X91144819Y-111299523D02*
X91192438Y-111156666D01*
X91192438Y-111156666D02*
X91240057Y-111109047D01*
X91144819Y-110204285D02*
X91144819Y-110680475D01*
X91144819Y-110680475D02*
X91621009Y-110728094D01*
X91621009Y-110728094D02*
X91573390Y-110680475D01*
X91573390Y-110680475D02*
X91525771Y-110585237D01*
X91525771Y-110585237D02*
X91525771Y-110347142D01*
X91525771Y-110347142D02*
X91573390Y-110251904D01*
X91573390Y-110251904D02*
X91621009Y-110204285D01*
X91621009Y-110204285D02*
X91716247Y-110156666D01*
X91716247Y-110156666D02*
X91954342Y-110156666D01*
X91954342Y-110156666D02*
X92049580Y-110204285D01*
X92049580Y-110204285D02*
X92097200Y-110251904D01*
X92097200Y-110251904D02*
X92144819Y-110347142D01*
X92144819Y-110347142D02*
X92144819Y-110585237D01*
X92144819Y-110585237D02*
X92097200Y-110680475D01*
X92097200Y-110680475D02*
X92049580Y-110728094D01*
X91478152Y-109299523D02*
X92144819Y-109299523D01*
X91097200Y-109537618D02*
X91811485Y-109775713D01*
X91811485Y-109775713D02*
X91811485Y-109156666D01*
X92144819Y-108728094D02*
X92144819Y-108537618D01*
X92144819Y-108537618D02*
X92097200Y-108442380D01*
X92097200Y-108442380D02*
X92049580Y-108394761D01*
X92049580Y-108394761D02*
X91906723Y-108299523D01*
X91906723Y-108299523D02*
X91716247Y-108251904D01*
X91716247Y-108251904D02*
X91335295Y-108251904D01*
X91335295Y-108251904D02*
X91240057Y-108299523D01*
X91240057Y-108299523D02*
X91192438Y-108347142D01*
X91192438Y-108347142D02*
X91144819Y-108442380D01*
X91144819Y-108442380D02*
X91144819Y-108632856D01*
X91144819Y-108632856D02*
X91192438Y-108728094D01*
X91192438Y-108728094D02*
X91240057Y-108775713D01*
X91240057Y-108775713D02*
X91335295Y-108823332D01*
X91335295Y-108823332D02*
X91573390Y-108823332D01*
X91573390Y-108823332D02*
X91668628Y-108775713D01*
X91668628Y-108775713D02*
X91716247Y-108728094D01*
X91716247Y-108728094D02*
X91763866Y-108632856D01*
X91763866Y-108632856D02*
X91763866Y-108442380D01*
X91763866Y-108442380D02*
X91716247Y-108347142D01*
X91716247Y-108347142D02*
X91668628Y-108299523D01*
X91668628Y-108299523D02*
X91573390Y-108251904D01*
X90970057Y-105505238D02*
X90922438Y-105600476D01*
X90922438Y-105600476D02*
X90827200Y-105695714D01*
X90827200Y-105695714D02*
X90684342Y-105838571D01*
X90684342Y-105838571D02*
X90636723Y-105933809D01*
X90636723Y-105933809D02*
X90636723Y-106029047D01*
X90874819Y-105981428D02*
X90827200Y-106076666D01*
X90827200Y-106076666D02*
X90731961Y-106171904D01*
X90731961Y-106171904D02*
X90541485Y-106219523D01*
X90541485Y-106219523D02*
X90208152Y-106219523D01*
X90208152Y-106219523D02*
X90017676Y-106171904D01*
X90017676Y-106171904D02*
X89922438Y-106076666D01*
X89922438Y-106076666D02*
X89874819Y-105981428D01*
X89874819Y-105981428D02*
X89874819Y-105790952D01*
X89874819Y-105790952D02*
X89922438Y-105695714D01*
X89922438Y-105695714D02*
X90017676Y-105600476D01*
X90017676Y-105600476D02*
X90208152Y-105552857D01*
X90208152Y-105552857D02*
X90541485Y-105552857D01*
X90541485Y-105552857D02*
X90731961Y-105600476D01*
X90731961Y-105600476D02*
X90827200Y-105695714D01*
X90827200Y-105695714D02*
X90874819Y-105790952D01*
X90874819Y-105790952D02*
X90874819Y-105981428D01*
X90874819Y-104600476D02*
X90874819Y-105171904D01*
X90874819Y-104886190D02*
X89874819Y-104886190D01*
X89874819Y-104886190D02*
X90017676Y-104981428D01*
X90017676Y-104981428D02*
X90112914Y-105076666D01*
X90112914Y-105076666D02*
X90160533Y-105171904D01*
X96701009Y-107267142D02*
X96748628Y-107124285D01*
X96748628Y-107124285D02*
X96796247Y-107076666D01*
X96796247Y-107076666D02*
X96891485Y-107029047D01*
X96891485Y-107029047D02*
X97034342Y-107029047D01*
X97034342Y-107029047D02*
X97129580Y-107076666D01*
X97129580Y-107076666D02*
X97177200Y-107124285D01*
X97177200Y-107124285D02*
X97224819Y-107219523D01*
X97224819Y-107219523D02*
X97224819Y-107600475D01*
X97224819Y-107600475D02*
X96224819Y-107600475D01*
X96224819Y-107600475D02*
X96224819Y-107267142D01*
X96224819Y-107267142D02*
X96272438Y-107171904D01*
X96272438Y-107171904D02*
X96320057Y-107124285D01*
X96320057Y-107124285D02*
X96415295Y-107076666D01*
X96415295Y-107076666D02*
X96510533Y-107076666D01*
X96510533Y-107076666D02*
X96605771Y-107124285D01*
X96605771Y-107124285D02*
X96653390Y-107171904D01*
X96653390Y-107171904D02*
X96701009Y-107267142D01*
X96701009Y-107267142D02*
X96701009Y-107600475D01*
X97129580Y-106029047D02*
X97177200Y-106076666D01*
X97177200Y-106076666D02*
X97224819Y-106219523D01*
X97224819Y-106219523D02*
X97224819Y-106314761D01*
X97224819Y-106314761D02*
X97177200Y-106457618D01*
X97177200Y-106457618D02*
X97081961Y-106552856D01*
X97081961Y-106552856D02*
X96986723Y-106600475D01*
X96986723Y-106600475D02*
X96796247Y-106648094D01*
X96796247Y-106648094D02*
X96653390Y-106648094D01*
X96653390Y-106648094D02*
X96462914Y-106600475D01*
X96462914Y-106600475D02*
X96367676Y-106552856D01*
X96367676Y-106552856D02*
X96272438Y-106457618D01*
X96272438Y-106457618D02*
X96224819Y-106314761D01*
X96224819Y-106314761D02*
X96224819Y-106219523D01*
X96224819Y-106219523D02*
X96272438Y-106076666D01*
X96272438Y-106076666D02*
X96320057Y-106029047D01*
X96224819Y-105124285D02*
X96224819Y-105600475D01*
X96224819Y-105600475D02*
X96701009Y-105648094D01*
X96701009Y-105648094D02*
X96653390Y-105600475D01*
X96653390Y-105600475D02*
X96605771Y-105505237D01*
X96605771Y-105505237D02*
X96605771Y-105267142D01*
X96605771Y-105267142D02*
X96653390Y-105171904D01*
X96653390Y-105171904D02*
X96701009Y-105124285D01*
X96701009Y-105124285D02*
X96796247Y-105076666D01*
X96796247Y-105076666D02*
X97034342Y-105076666D01*
X97034342Y-105076666D02*
X97129580Y-105124285D01*
X97129580Y-105124285D02*
X97177200Y-105171904D01*
X97177200Y-105171904D02*
X97224819Y-105267142D01*
X97224819Y-105267142D02*
X97224819Y-105505237D01*
X97224819Y-105505237D02*
X97177200Y-105600475D01*
X97177200Y-105600475D02*
X97129580Y-105648094D01*
X96558152Y-104219523D02*
X97224819Y-104219523D01*
X96177200Y-104457618D02*
X96891485Y-104695713D01*
X96891485Y-104695713D02*
X96891485Y-104076666D01*
X97224819Y-103648094D02*
X97224819Y-103457618D01*
X97224819Y-103457618D02*
X97177200Y-103362380D01*
X97177200Y-103362380D02*
X97129580Y-103314761D01*
X97129580Y-103314761D02*
X96986723Y-103219523D01*
X96986723Y-103219523D02*
X96796247Y-103171904D01*
X96796247Y-103171904D02*
X96415295Y-103171904D01*
X96415295Y-103171904D02*
X96320057Y-103219523D01*
X96320057Y-103219523D02*
X96272438Y-103267142D01*
X96272438Y-103267142D02*
X96224819Y-103362380D01*
X96224819Y-103362380D02*
X96224819Y-103552856D01*
X96224819Y-103552856D02*
X96272438Y-103648094D01*
X96272438Y-103648094D02*
X96320057Y-103695713D01*
X96320057Y-103695713D02*
X96415295Y-103743332D01*
X96415295Y-103743332D02*
X96653390Y-103743332D01*
X96653390Y-103743332D02*
X96748628Y-103695713D01*
X96748628Y-103695713D02*
X96796247Y-103648094D01*
X96796247Y-103648094D02*
X96843866Y-103552856D01*
X96843866Y-103552856D02*
X96843866Y-103362380D01*
X96843866Y-103362380D02*
X96796247Y-103267142D01*
X96796247Y-103267142D02*
X96748628Y-103219523D01*
X96748628Y-103219523D02*
X96653390Y-103171904D01*
X100644819Y-110361904D02*
X101454342Y-110361904D01*
X101454342Y-110361904D02*
X101549580Y-110314285D01*
X101549580Y-110314285D02*
X101597200Y-110266666D01*
X101597200Y-110266666D02*
X101644819Y-110171428D01*
X101644819Y-110171428D02*
X101644819Y-109980952D01*
X101644819Y-109980952D02*
X101597200Y-109885714D01*
X101597200Y-109885714D02*
X101549580Y-109838095D01*
X101549580Y-109838095D02*
X101454342Y-109790476D01*
X101454342Y-109790476D02*
X100644819Y-109790476D01*
X101644819Y-108790476D02*
X101644819Y-109361904D01*
X101644819Y-109076190D02*
X100644819Y-109076190D01*
X100644819Y-109076190D02*
X100787676Y-109171428D01*
X100787676Y-109171428D02*
X100882914Y-109266666D01*
X100882914Y-109266666D02*
X100930533Y-109361904D01*
X109791905Y-110944819D02*
X109791905Y-109944819D01*
X109791905Y-109944819D02*
X110125238Y-110659104D01*
X110125238Y-110659104D02*
X110458571Y-109944819D01*
X110458571Y-109944819D02*
X110458571Y-110944819D01*
X111506190Y-110849580D02*
X111458571Y-110897200D01*
X111458571Y-110897200D02*
X111315714Y-110944819D01*
X111315714Y-110944819D02*
X111220476Y-110944819D01*
X111220476Y-110944819D02*
X111077619Y-110897200D01*
X111077619Y-110897200D02*
X110982381Y-110801961D01*
X110982381Y-110801961D02*
X110934762Y-110706723D01*
X110934762Y-110706723D02*
X110887143Y-110516247D01*
X110887143Y-110516247D02*
X110887143Y-110373390D01*
X110887143Y-110373390D02*
X110934762Y-110182914D01*
X110934762Y-110182914D02*
X110982381Y-110087676D01*
X110982381Y-110087676D02*
X111077619Y-109992438D01*
X111077619Y-109992438D02*
X111220476Y-109944819D01*
X111220476Y-109944819D02*
X111315714Y-109944819D01*
X111315714Y-109944819D02*
X111458571Y-109992438D01*
X111458571Y-109992438D02*
X111506190Y-110040057D01*
X111934762Y-110944819D02*
X111934762Y-109944819D01*
X111934762Y-109944819D02*
X112315714Y-109944819D01*
X112315714Y-109944819D02*
X112410952Y-109992438D01*
X112410952Y-109992438D02*
X112458571Y-110040057D01*
X112458571Y-110040057D02*
X112506190Y-110135295D01*
X112506190Y-110135295D02*
X112506190Y-110278152D01*
X112506190Y-110278152D02*
X112458571Y-110373390D01*
X112458571Y-110373390D02*
X112410952Y-110421009D01*
X112410952Y-110421009D02*
X112315714Y-110468628D01*
X112315714Y-110468628D02*
X111934762Y-110468628D01*
X112839524Y-109944819D02*
X113458571Y-109944819D01*
X113458571Y-109944819D02*
X113125238Y-110325771D01*
X113125238Y-110325771D02*
X113268095Y-110325771D01*
X113268095Y-110325771D02*
X113363333Y-110373390D01*
X113363333Y-110373390D02*
X113410952Y-110421009D01*
X113410952Y-110421009D02*
X113458571Y-110516247D01*
X113458571Y-110516247D02*
X113458571Y-110754342D01*
X113458571Y-110754342D02*
X113410952Y-110849580D01*
X113410952Y-110849580D02*
X113363333Y-110897200D01*
X113363333Y-110897200D02*
X113268095Y-110944819D01*
X113268095Y-110944819D02*
X112982381Y-110944819D01*
X112982381Y-110944819D02*
X112887143Y-110897200D01*
X112887143Y-110897200D02*
X112839524Y-110849580D01*
X113839524Y-110040057D02*
X113887143Y-109992438D01*
X113887143Y-109992438D02*
X113982381Y-109944819D01*
X113982381Y-109944819D02*
X114220476Y-109944819D01*
X114220476Y-109944819D02*
X114315714Y-109992438D01*
X114315714Y-109992438D02*
X114363333Y-110040057D01*
X114363333Y-110040057D02*
X114410952Y-110135295D01*
X114410952Y-110135295D02*
X114410952Y-110230533D01*
X114410952Y-110230533D02*
X114363333Y-110373390D01*
X114363333Y-110373390D02*
X113791905Y-110944819D01*
X113791905Y-110944819D02*
X114410952Y-110944819D01*
X115030000Y-109944819D02*
X115125238Y-109944819D01*
X115125238Y-109944819D02*
X115220476Y-109992438D01*
X115220476Y-109992438D02*
X115268095Y-110040057D01*
X115268095Y-110040057D02*
X115315714Y-110135295D01*
X115315714Y-110135295D02*
X115363333Y-110325771D01*
X115363333Y-110325771D02*
X115363333Y-110563866D01*
X115363333Y-110563866D02*
X115315714Y-110754342D01*
X115315714Y-110754342D02*
X115268095Y-110849580D01*
X115268095Y-110849580D02*
X115220476Y-110897200D01*
X115220476Y-110897200D02*
X115125238Y-110944819D01*
X115125238Y-110944819D02*
X115030000Y-110944819D01*
X115030000Y-110944819D02*
X114934762Y-110897200D01*
X114934762Y-110897200D02*
X114887143Y-110849580D01*
X114887143Y-110849580D02*
X114839524Y-110754342D01*
X114839524Y-110754342D02*
X114791905Y-110563866D01*
X114791905Y-110563866D02*
X114791905Y-110325771D01*
X114791905Y-110325771D02*
X114839524Y-110135295D01*
X114839524Y-110135295D02*
X114887143Y-110040057D01*
X114887143Y-110040057D02*
X114934762Y-109992438D01*
X114934762Y-109992438D02*
X115030000Y-109944819D01*
X115934762Y-110373390D02*
X115839524Y-110325771D01*
X115839524Y-110325771D02*
X115791905Y-110278152D01*
X115791905Y-110278152D02*
X115744286Y-110182914D01*
X115744286Y-110182914D02*
X115744286Y-110135295D01*
X115744286Y-110135295D02*
X115791905Y-110040057D01*
X115791905Y-110040057D02*
X115839524Y-109992438D01*
X115839524Y-109992438D02*
X115934762Y-109944819D01*
X115934762Y-109944819D02*
X116125238Y-109944819D01*
X116125238Y-109944819D02*
X116220476Y-109992438D01*
X116220476Y-109992438D02*
X116268095Y-110040057D01*
X116268095Y-110040057D02*
X116315714Y-110135295D01*
X116315714Y-110135295D02*
X116315714Y-110182914D01*
X116315714Y-110182914D02*
X116268095Y-110278152D01*
X116268095Y-110278152D02*
X116220476Y-110325771D01*
X116220476Y-110325771D02*
X116125238Y-110373390D01*
X116125238Y-110373390D02*
X115934762Y-110373390D01*
X115934762Y-110373390D02*
X115839524Y-110421009D01*
X115839524Y-110421009D02*
X115791905Y-110468628D01*
X115791905Y-110468628D02*
X115744286Y-110563866D01*
X115744286Y-110563866D02*
X115744286Y-110754342D01*
X115744286Y-110754342D02*
X115791905Y-110849580D01*
X115791905Y-110849580D02*
X115839524Y-110897200D01*
X115839524Y-110897200D02*
X115934762Y-110944819D01*
X115934762Y-110944819D02*
X116125238Y-110944819D01*
X116125238Y-110944819D02*
X116220476Y-110897200D01*
X116220476Y-110897200D02*
X116268095Y-110849580D01*
X116268095Y-110849580D02*
X116315714Y-110754342D01*
X116315714Y-110754342D02*
X116315714Y-110563866D01*
X116315714Y-110563866D02*
X116268095Y-110468628D01*
X116268095Y-110468628D02*
X116220476Y-110421009D01*
X116220476Y-110421009D02*
X116125238Y-110373390D01*
X101959580Y-104306666D02*
X102007200Y-104354285D01*
X102007200Y-104354285D02*
X102054819Y-104497142D01*
X102054819Y-104497142D02*
X102054819Y-104592380D01*
X102054819Y-104592380D02*
X102007200Y-104735237D01*
X102007200Y-104735237D02*
X101911961Y-104830475D01*
X101911961Y-104830475D02*
X101816723Y-104878094D01*
X101816723Y-104878094D02*
X101626247Y-104925713D01*
X101626247Y-104925713D02*
X101483390Y-104925713D01*
X101483390Y-104925713D02*
X101292914Y-104878094D01*
X101292914Y-104878094D02*
X101197676Y-104830475D01*
X101197676Y-104830475D02*
X101102438Y-104735237D01*
X101102438Y-104735237D02*
X101054819Y-104592380D01*
X101054819Y-104592380D02*
X101054819Y-104497142D01*
X101054819Y-104497142D02*
X101102438Y-104354285D01*
X101102438Y-104354285D02*
X101150057Y-104306666D01*
X102054819Y-103354285D02*
X102054819Y-103925713D01*
X102054819Y-103639999D02*
X101054819Y-103639999D01*
X101054819Y-103639999D02*
X101197676Y-103735237D01*
X101197676Y-103735237D02*
X101292914Y-103830475D01*
X101292914Y-103830475D02*
X101340533Y-103925713D01*
D12*
%TO.C,J4*%
X133270000Y-116410000D02*
X134600000Y-116410000D01*
X133270000Y-117520000D02*
X133270000Y-116410000D01*
X133270000Y-118980000D02*
X146090000Y-118980000D01*
X133270000Y-127610000D02*
X133270000Y-118980000D01*
X133270000Y-127610000D02*
X146090000Y-127610000D01*
X133390000Y-127610000D02*
X133390000Y-118980000D01*
X133508095Y-127610000D02*
X133508095Y-118980000D01*
X133626190Y-127610000D02*
X133626190Y-118980000D01*
X133744285Y-127610000D02*
X133744285Y-118980000D01*
X133862380Y-127610000D02*
X133862380Y-118980000D01*
X133980475Y-127610000D02*
X133980475Y-118980000D01*
X134098570Y-127610000D02*
X134098570Y-118980000D01*
X134216665Y-127610000D02*
X134216665Y-118980000D01*
X134240000Y-118980000D02*
X134240000Y-118630000D01*
X134334760Y-127610000D02*
X134334760Y-118980000D01*
X134452855Y-127610000D02*
X134452855Y-118980000D01*
X134570950Y-127610000D02*
X134570950Y-118980000D01*
X134689045Y-127610000D02*
X134689045Y-118980000D01*
X134807140Y-127610000D02*
X134807140Y-118980000D01*
X134925235Y-127610000D02*
X134925235Y-118980000D01*
X134960000Y-118980000D02*
X134960000Y-118630000D01*
X135043330Y-127610000D02*
X135043330Y-118980000D01*
X135161425Y-127610000D02*
X135161425Y-118980000D01*
X135279520Y-127610000D02*
X135279520Y-118980000D01*
X135397615Y-127610000D02*
X135397615Y-118980000D01*
X135515710Y-127610000D02*
X135515710Y-118980000D01*
X135633805Y-127610000D02*
X135633805Y-118980000D01*
X135751900Y-127610000D02*
X135751900Y-118980000D01*
X135870000Y-127610000D02*
X135870000Y-118980000D01*
X136780000Y-118980000D02*
X136780000Y-118570000D01*
X137500000Y-118980000D02*
X137500000Y-118570000D01*
X138410000Y-127610000D02*
X138410000Y-118980000D01*
X139320000Y-118980000D02*
X139320000Y-118570000D01*
X140040000Y-118980000D02*
X140040000Y-118570000D01*
X140950000Y-127610000D02*
X140950000Y-118980000D01*
X141860000Y-118980000D02*
X141860000Y-118570000D01*
X142580000Y-118980000D02*
X142580000Y-118570000D01*
X143490000Y-127610000D02*
X143490000Y-118980000D01*
X144400000Y-118980000D02*
X144400000Y-118570000D01*
X145120000Y-118980000D02*
X145120000Y-118570000D01*
X146090000Y-127610000D02*
X146090000Y-118980000D01*
%TO.C,R1*%
X113380000Y-97140000D02*
X113380000Y-100980000D01*
X115220000Y-97140000D02*
X115220000Y-100980000D01*
%TO.C,R2*%
X113380000Y-86980000D02*
X113380000Y-90820000D01*
X115220000Y-86980000D02*
X115220000Y-90820000D01*
%TO.C,J3*%
X90110000Y-116410000D02*
X91440000Y-116410000D01*
X90110000Y-117520000D02*
X90110000Y-116410000D01*
X90110000Y-118980000D02*
X95310000Y-118980000D01*
X90110000Y-127610000D02*
X90110000Y-118980000D01*
X90110000Y-127610000D02*
X95310000Y-127610000D01*
X90230000Y-127610000D02*
X90230000Y-118980000D01*
X90348095Y-127610000D02*
X90348095Y-118980000D01*
X90466190Y-127610000D02*
X90466190Y-118980000D01*
X90584285Y-127610000D02*
X90584285Y-118980000D01*
X90702380Y-127610000D02*
X90702380Y-118980000D01*
X90820475Y-127610000D02*
X90820475Y-118980000D01*
X90938570Y-127610000D02*
X90938570Y-118980000D01*
X91056665Y-127610000D02*
X91056665Y-118980000D01*
X91080000Y-118980000D02*
X91080000Y-118630000D01*
X91174760Y-127610000D02*
X91174760Y-118980000D01*
X91292855Y-127610000D02*
X91292855Y-118980000D01*
X91410950Y-127610000D02*
X91410950Y-118980000D01*
X91529045Y-127610000D02*
X91529045Y-118980000D01*
X91647140Y-127610000D02*
X91647140Y-118980000D01*
X91765235Y-127610000D02*
X91765235Y-118980000D01*
X91800000Y-118980000D02*
X91800000Y-118630000D01*
X91883330Y-127610000D02*
X91883330Y-118980000D01*
X92001425Y-127610000D02*
X92001425Y-118980000D01*
X92119520Y-127610000D02*
X92119520Y-118980000D01*
X92237615Y-127610000D02*
X92237615Y-118980000D01*
X92355710Y-127610000D02*
X92355710Y-118980000D01*
X92473805Y-127610000D02*
X92473805Y-118980000D01*
X92591900Y-127610000D02*
X92591900Y-118980000D01*
X92710000Y-127610000D02*
X92710000Y-118980000D01*
X93620000Y-118980000D02*
X93620000Y-118570000D01*
X94340000Y-118980000D02*
X94340000Y-118570000D01*
X95310000Y-127610000D02*
X95310000Y-118980000D01*
%TO.C,J2*%
X102810000Y-116410000D02*
X104140000Y-116410000D01*
X102810000Y-117520000D02*
X102810000Y-116410000D01*
X102810000Y-118980000D02*
X123250000Y-118980000D01*
X102810000Y-127610000D02*
X102810000Y-118980000D01*
X102810000Y-127610000D02*
X123250000Y-127610000D01*
X102930000Y-127610000D02*
X102930000Y-118980000D01*
X103048095Y-127610000D02*
X103048095Y-118980000D01*
X103166190Y-127610000D02*
X103166190Y-118980000D01*
X103284285Y-127610000D02*
X103284285Y-118980000D01*
X103402380Y-127610000D02*
X103402380Y-118980000D01*
X103520475Y-127610000D02*
X103520475Y-118980000D01*
X103638570Y-127610000D02*
X103638570Y-118980000D01*
X103756665Y-127610000D02*
X103756665Y-118980000D01*
X103780000Y-118980000D02*
X103780000Y-118630000D01*
X103874760Y-127610000D02*
X103874760Y-118980000D01*
X103992855Y-127610000D02*
X103992855Y-118980000D01*
X104110950Y-127610000D02*
X104110950Y-118980000D01*
X104229045Y-127610000D02*
X104229045Y-118980000D01*
X104347140Y-127610000D02*
X104347140Y-118980000D01*
X104465235Y-127610000D02*
X104465235Y-118980000D01*
X104500000Y-118980000D02*
X104500000Y-118630000D01*
X104583330Y-127610000D02*
X104583330Y-118980000D01*
X104701425Y-127610000D02*
X104701425Y-118980000D01*
X104819520Y-127610000D02*
X104819520Y-118980000D01*
X104937615Y-127610000D02*
X104937615Y-118980000D01*
X105055710Y-127610000D02*
X105055710Y-118980000D01*
X105173805Y-127610000D02*
X105173805Y-118980000D01*
X105291900Y-127610000D02*
X105291900Y-118980000D01*
X105410000Y-127610000D02*
X105410000Y-118980000D01*
X106320000Y-118980000D02*
X106320000Y-118570000D01*
X107040000Y-118980000D02*
X107040000Y-118570000D01*
X107950000Y-127610000D02*
X107950000Y-118980000D01*
X108860000Y-118980000D02*
X108860000Y-118570000D01*
X109580000Y-118980000D02*
X109580000Y-118570000D01*
X110490000Y-127610000D02*
X110490000Y-118980000D01*
X111400000Y-118980000D02*
X111400000Y-118570000D01*
X112120000Y-118980000D02*
X112120000Y-118570000D01*
X113030000Y-127610000D02*
X113030000Y-118980000D01*
X113940000Y-118980000D02*
X113940000Y-118570000D01*
X114660000Y-118980000D02*
X114660000Y-118570000D01*
X115570000Y-127610000D02*
X115570000Y-118980000D01*
X116480000Y-118980000D02*
X116480000Y-118570000D01*
X117200000Y-118980000D02*
X117200000Y-118570000D01*
X118110000Y-127610000D02*
X118110000Y-118980000D01*
X119020000Y-118980000D02*
X119020000Y-118570000D01*
X119740000Y-118980000D02*
X119740000Y-118570000D01*
X120650000Y-127610000D02*
X120650000Y-118980000D01*
X121560000Y-118980000D02*
X121560000Y-118570000D01*
X122280000Y-118980000D02*
X122280000Y-118570000D01*
X123250000Y-127610000D02*
X123250000Y-118980000D01*
D13*
%TO.C,G\u002A\u002A\u002A*%
G36*
X144459727Y-70358375D02*
G01*
X144461481Y-70398424D01*
X144113847Y-70398424D01*
X143766213Y-70398424D01*
X143767967Y-70358375D01*
X143769722Y-70318326D01*
X144113847Y-70318326D01*
X144457972Y-70318326D01*
X144459727Y-70358375D01*
G37*
G36*
X144478738Y-71407067D02*
G01*
X144478738Y-71448599D01*
X144122747Y-71448599D01*
X143766755Y-71448599D01*
X143766755Y-71407067D01*
X143766755Y-71365535D01*
X144122747Y-71365535D01*
X144478738Y-71365535D01*
X144478738Y-71407067D01*
G37*
G36*
X142710647Y-70840447D02*
G01*
X142710647Y-71365535D01*
X143028073Y-71365535D01*
X143345499Y-71365535D01*
X143345499Y-71407067D01*
X143345499Y-71448599D01*
X142983574Y-71448599D01*
X142621649Y-71448599D01*
X142621649Y-70881980D01*
X142621649Y-70315360D01*
X142666148Y-70315360D01*
X142710647Y-70315360D01*
X142710647Y-70840447D01*
G37*
G36*
X144425340Y-70878963D02*
G01*
X144425340Y-70920545D01*
X144098828Y-70920545D01*
X144026629Y-70920504D01*
X143965441Y-70920364D01*
X143914410Y-70920106D01*
X143872681Y-70919709D01*
X143839400Y-70919151D01*
X143813710Y-70918411D01*
X143794759Y-70917468D01*
X143781690Y-70916301D01*
X143773650Y-70914889D01*
X143769784Y-70913212D01*
X143769199Y-70912422D01*
X143767756Y-70902175D01*
X143767450Y-70884766D01*
X143767902Y-70872372D01*
X143769722Y-70840447D01*
X144097531Y-70838914D01*
X144425340Y-70837380D01*
X144425340Y-70878963D01*
G37*
G36*
X140030327Y-70316583D02*
G01*
X140056217Y-70318599D01*
X140070629Y-70322116D01*
X140074084Y-70325743D01*
X140074255Y-70333061D01*
X140074446Y-70351003D01*
X140074650Y-70378325D01*
X140074859Y-70413783D01*
X140075067Y-70456134D01*
X140075268Y-70504136D01*
X140075453Y-70556544D01*
X140075567Y-70594220D01*
X140076309Y-70855280D01*
X140435267Y-70855280D01*
X140794225Y-70855280D01*
X140794225Y-70585320D01*
X140794225Y-70315360D01*
X140838724Y-70315360D01*
X140883223Y-70315360D01*
X140883223Y-70881980D01*
X140883223Y-71448599D01*
X140838724Y-71448599D01*
X140794225Y-71448599D01*
X140794225Y-71190506D01*
X140794225Y-70932412D01*
X140435267Y-70932412D01*
X140371218Y-70932483D01*
X140310826Y-70932689D01*
X140255112Y-70933017D01*
X140205098Y-70933453D01*
X140161806Y-70933987D01*
X140126256Y-70934604D01*
X140099470Y-70935292D01*
X140082469Y-70936039D01*
X140076275Y-70936831D01*
X140076267Y-70936862D01*
X140076253Y-70943556D01*
X140076232Y-70960873D01*
X140076204Y-70987570D01*
X140076170Y-71022402D01*
X140076132Y-71064128D01*
X140076091Y-71111502D01*
X140076048Y-71163281D01*
X140076023Y-71194955D01*
X140075821Y-71448599D01*
X140031566Y-71448599D01*
X139987311Y-71448599D01*
X139987311Y-70881720D01*
X139987311Y-70314840D01*
X140030327Y-70316583D01*
G37*
G36*
X141578226Y-69560845D02*
G01*
X141673037Y-69575485D01*
X141750385Y-69594045D01*
X141782339Y-69603279D01*
X141816983Y-69614265D01*
X141855533Y-69627451D01*
X141899206Y-69643288D01*
X141949221Y-69662224D01*
X142006792Y-69684707D01*
X142073138Y-69711187D01*
X142126951Y-69732950D01*
X142191402Y-69758732D01*
X142246703Y-69779940D01*
X142294416Y-69797106D01*
X142336100Y-69810763D01*
X142373318Y-69821446D01*
X142407630Y-69829686D01*
X142414228Y-69831076D01*
X142465498Y-69840080D01*
X142520873Y-69847163D01*
X142574712Y-69851692D01*
X142609783Y-69853022D01*
X142654282Y-69853570D01*
X142628964Y-69865205D01*
X142586595Y-69880587D01*
X142535690Y-69892410D01*
X142479116Y-69900403D01*
X142419737Y-69904296D01*
X142360419Y-69903818D01*
X142304029Y-69898699D01*
X142292584Y-69896969D01*
X142258561Y-69890737D01*
X142224062Y-69882891D01*
X142187263Y-69872873D01*
X142146340Y-69860125D01*
X142099468Y-69844088D01*
X142044823Y-69824204D01*
X142001630Y-69807949D01*
X141929651Y-69780614D01*
X141867581Y-69757199D01*
X141814238Y-69737403D01*
X141768443Y-69720924D01*
X141729014Y-69707460D01*
X141694771Y-69696708D01*
X141664533Y-69688367D01*
X141637119Y-69682133D01*
X141611348Y-69677706D01*
X141586040Y-69674783D01*
X141560014Y-69673062D01*
X141532089Y-69672241D01*
X141501085Y-69672017D01*
X141470610Y-69672074D01*
X141427949Y-69672278D01*
X141394809Y-69672736D01*
X141368843Y-69673669D01*
X141347705Y-69675300D01*
X141329049Y-69677853D01*
X141310529Y-69681549D01*
X141289799Y-69686613D01*
X141274066Y-69690732D01*
X141203285Y-69711929D01*
X141132413Y-69738363D01*
X141057955Y-69771385D01*
X141029255Y-69785316D01*
X141004250Y-69797443D01*
X140983366Y-69807080D01*
X140968726Y-69813280D01*
X140962454Y-69815099D01*
X140962403Y-69815064D01*
X140965212Y-69810070D01*
X140975318Y-69799008D01*
X140990977Y-69783494D01*
X141010443Y-69765144D01*
X141031971Y-69745576D01*
X141053816Y-69726403D01*
X141074234Y-69709244D01*
X141090477Y-69696458D01*
X141164970Y-69646811D01*
X141241420Y-69608100D01*
X141320399Y-69580236D01*
X141402479Y-69563132D01*
X141488231Y-69556697D01*
X141578226Y-69560845D01*
G37*
G36*
X141519330Y-69304038D02*
G01*
X141558527Y-69304569D01*
X141590541Y-69305616D01*
X141617711Y-69307325D01*
X141642379Y-69309841D01*
X141666884Y-69313308D01*
X141691663Y-69317527D01*
X141779668Y-69335088D01*
X141868769Y-69356502D01*
X141961035Y-69382361D01*
X142058536Y-69413257D01*
X142163340Y-69449780D01*
X142196574Y-69461945D01*
X142291983Y-69497133D01*
X142377217Y-69528340D01*
X142453179Y-69555836D01*
X142520773Y-69579893D01*
X142580902Y-69600780D01*
X142634469Y-69618769D01*
X142682378Y-69634128D01*
X142725533Y-69647130D01*
X142764837Y-69658044D01*
X142801193Y-69667141D01*
X142835505Y-69674691D01*
X142868676Y-69680965D01*
X142901610Y-69686234D01*
X142935210Y-69690767D01*
X142970380Y-69694835D01*
X142976826Y-69695526D01*
X143013258Y-69698708D01*
X143056712Y-69701444D01*
X143102348Y-69703486D01*
X143145324Y-69704585D01*
X143155636Y-69704687D01*
X143253534Y-69705261D01*
X143217935Y-69721787D01*
X143132616Y-69755248D01*
X143041293Y-69779125D01*
X142943542Y-69793500D01*
X142838936Y-69798457D01*
X142823533Y-69798402D01*
X142788873Y-69797705D01*
X142753805Y-69796376D01*
X142722419Y-69794607D01*
X142698805Y-69792586D01*
X142698780Y-69792584D01*
X142657787Y-69787268D01*
X142616475Y-69780448D01*
X142573540Y-69771771D01*
X142527681Y-69760883D01*
X142477594Y-69747429D01*
X142421978Y-69731056D01*
X142359528Y-69711411D01*
X142288944Y-69688139D01*
X142208922Y-69660887D01*
X142190608Y-69654560D01*
X142105998Y-69625407D01*
X142028596Y-69599021D01*
X141959005Y-69575602D01*
X141897826Y-69555348D01*
X141845663Y-69538457D01*
X141803118Y-69525127D01*
X141770793Y-69515558D01*
X141757809Y-69512026D01*
X141641858Y-69488084D01*
X141523361Y-69475434D01*
X141403212Y-69474009D01*
X141282305Y-69483745D01*
X141161535Y-69504575D01*
X141041796Y-69536435D01*
X140942555Y-69571716D01*
X140914399Y-69583594D01*
X140878511Y-69599745D01*
X140837405Y-69618944D01*
X140793595Y-69639965D01*
X140749595Y-69661580D01*
X140707918Y-69682565D01*
X140671078Y-69701693D01*
X140641591Y-69717737D01*
X140632546Y-69722940D01*
X140617266Y-69730936D01*
X140607031Y-69734378D01*
X140604363Y-69733316D01*
X140608502Y-69726570D01*
X140619961Y-69713227D01*
X140637302Y-69694700D01*
X140659089Y-69672400D01*
X140683884Y-69647740D01*
X140710250Y-69622130D01*
X140736750Y-69596982D01*
X140761946Y-69573709D01*
X140784401Y-69553722D01*
X140802679Y-69538432D01*
X140803125Y-69538078D01*
X140897546Y-69469998D01*
X140994300Y-69413363D01*
X141094000Y-69367879D01*
X141197260Y-69333250D01*
X141260282Y-69317752D01*
X141282243Y-69313277D01*
X141302370Y-69309869D01*
X141322803Y-69307386D01*
X141345682Y-69305688D01*
X141373149Y-69304633D01*
X141407343Y-69304080D01*
X141450405Y-69303889D01*
X141470610Y-69303881D01*
X141519330Y-69304038D01*
G37*
G36*
X141829560Y-70417481D02*
G01*
X141847535Y-70457386D01*
X141868503Y-70504011D01*
X141890615Y-70553240D01*
X141912024Y-70600961D01*
X141927610Y-70635752D01*
X141939505Y-70662313D01*
X141955647Y-70698341D01*
X141975426Y-70742477D01*
X141998232Y-70793361D01*
X142023458Y-70849634D01*
X142050492Y-70909936D01*
X142078726Y-70972907D01*
X142107550Y-71037187D01*
X142134396Y-71097051D01*
X142161358Y-71157215D01*
X142186831Y-71214145D01*
X142210408Y-71266924D01*
X142231680Y-71314635D01*
X142250240Y-71356361D01*
X142265681Y-71391185D01*
X142277594Y-71418189D01*
X142285572Y-71436457D01*
X142289206Y-71445071D01*
X142289390Y-71445626D01*
X142283926Y-71447007D01*
X142269404Y-71448047D01*
X142248633Y-71448570D01*
X142241925Y-71448599D01*
X142219883Y-71448013D01*
X142203284Y-71446455D01*
X142194936Y-71444226D01*
X142194459Y-71443505D01*
X142192128Y-71437260D01*
X142185428Y-71421182D01*
X142174802Y-71396289D01*
X142160689Y-71363597D01*
X142143531Y-71324123D01*
X142123770Y-71278882D01*
X142101845Y-71228891D01*
X142078199Y-71175167D01*
X142066357Y-71148329D01*
X142025538Y-71055892D01*
X141989123Y-70973411D01*
X141956715Y-70899990D01*
X141927918Y-70834732D01*
X141902339Y-70776741D01*
X141879581Y-70725119D01*
X141859250Y-70678971D01*
X141840950Y-70637398D01*
X141824286Y-70599506D01*
X141808862Y-70564396D01*
X141794284Y-70531173D01*
X141786809Y-70514122D01*
X141772584Y-70481948D01*
X141759783Y-70453521D01*
X141749232Y-70430635D01*
X141741759Y-70415089D01*
X141738228Y-70408713D01*
X141733988Y-70411393D01*
X141726986Y-70422742D01*
X141718697Y-70440343D01*
X141718275Y-70441345D01*
X141708970Y-70463210D01*
X141696755Y-70491444D01*
X141683567Y-70521585D01*
X141676382Y-70537854D01*
X141667932Y-70556952D01*
X141655235Y-70585709D01*
X141638821Y-70622922D01*
X141619220Y-70667388D01*
X141596962Y-70717904D01*
X141572576Y-70773267D01*
X141546592Y-70832273D01*
X141519540Y-70893719D01*
X141491949Y-70956402D01*
X141464350Y-71019119D01*
X141437273Y-71080667D01*
X141411246Y-71139843D01*
X141386801Y-71195442D01*
X141366805Y-71240938D01*
X141349218Y-71280936D01*
X141332351Y-71319249D01*
X141317060Y-71353933D01*
X141304203Y-71383045D01*
X141294637Y-71404641D01*
X141290252Y-71414484D01*
X141274964Y-71448599D01*
X141229990Y-71448599D01*
X141207203Y-71448323D01*
X141194068Y-71447125D01*
X141188376Y-71444455D01*
X141187919Y-71439763D01*
X141188361Y-71438216D01*
X141191207Y-71431466D01*
X141198585Y-71414625D01*
X141210168Y-71388425D01*
X141225629Y-71353601D01*
X141244641Y-71310887D01*
X141266877Y-71261016D01*
X141292008Y-71204722D01*
X141319708Y-71142739D01*
X141349649Y-71075801D01*
X141381504Y-71004641D01*
X141414946Y-70929994D01*
X141440459Y-70873080D01*
X141689213Y-70318326D01*
X141736257Y-70316617D01*
X141783301Y-70314908D01*
X141829560Y-70417481D01*
G37*
G36*
X145688697Y-70320054D02*
G01*
X145689124Y-70320303D01*
X145685816Y-70325400D01*
X145676335Y-70339267D01*
X145661331Y-70360964D01*
X145641460Y-70389554D01*
X145617372Y-70424101D01*
X145589722Y-70463666D01*
X145559162Y-70507313D01*
X145526344Y-70554104D01*
X145521785Y-70560597D01*
X145487784Y-70609025D01*
X145455172Y-70655476D01*
X145424723Y-70698847D01*
X145397210Y-70738037D01*
X145373408Y-70771943D01*
X145354090Y-70799462D01*
X145340031Y-70819494D01*
X145332003Y-70830934D01*
X145331923Y-70831048D01*
X145320420Y-70848124D01*
X145312298Y-70861467D01*
X145309385Y-70867965D01*
X145312730Y-70873731D01*
X145322241Y-70887994D01*
X145337136Y-70909633D01*
X145356631Y-70937526D01*
X145379943Y-70970552D01*
X145406289Y-71007590D01*
X145431995Y-71043494D01*
X145462788Y-71086389D01*
X145493393Y-71129043D01*
X145522614Y-71169790D01*
X145549256Y-71206961D01*
X145572123Y-71238890D01*
X145590021Y-71263909D01*
X145598264Y-71275453D01*
X145619885Y-71305629D01*
X145643762Y-71338732D01*
X145666542Y-71370125D01*
X145680350Y-71389020D01*
X145695898Y-71410515D01*
X145708428Y-71428428D01*
X145716498Y-71440660D01*
X145718776Y-71444986D01*
X145713299Y-71446626D01*
X145698695Y-71447877D01*
X145677699Y-71448542D01*
X145668806Y-71448599D01*
X145618835Y-71448599D01*
X145504613Y-71286920D01*
X145473239Y-71242511D01*
X145440474Y-71196132D01*
X145407885Y-71150003D01*
X145377044Y-71106347D01*
X145349518Y-71067384D01*
X145326878Y-71035336D01*
X145322164Y-71028664D01*
X145301213Y-70999515D01*
X145282437Y-70974355D01*
X145266922Y-70954563D01*
X145255757Y-70941518D01*
X145250028Y-70936597D01*
X145249640Y-70936699D01*
X145245043Y-70942788D01*
X145234262Y-70957679D01*
X145217938Y-70980469D01*
X145196713Y-71010255D01*
X145171227Y-71046130D01*
X145142121Y-71087192D01*
X145110036Y-71132536D01*
X145075614Y-71181258D01*
X145039495Y-71232454D01*
X145002320Y-71285220D01*
X144971901Y-71328452D01*
X144887415Y-71448599D01*
X144837340Y-71448599D01*
X144814637Y-71448257D01*
X144797305Y-71447342D01*
X144788077Y-71446028D01*
X144787264Y-71445465D01*
X144790540Y-71439696D01*
X144799434Y-71426399D01*
X144812549Y-71407616D01*
X144826872Y-71387617D01*
X144844906Y-71362636D01*
X144867368Y-71331415D01*
X144891802Y-71297377D01*
X144915748Y-71263944D01*
X144923712Y-71252804D01*
X144942403Y-71226676D01*
X144966494Y-71193050D01*
X144994453Y-71154060D01*
X145024748Y-71111839D01*
X145055851Y-71068523D01*
X145086228Y-71026245D01*
X145089157Y-71022170D01*
X145118726Y-70980627D01*
X145144268Y-70943914D01*
X145165184Y-70912943D01*
X145180873Y-70888620D01*
X145190735Y-70871857D01*
X145194171Y-70863561D01*
X145194108Y-70863134D01*
X145189852Y-70855967D01*
X145179760Y-70840650D01*
X145164870Y-70818705D01*
X145146218Y-70791656D01*
X145124842Y-70761025D01*
X145115136Y-70747222D01*
X145091536Y-70713706D01*
X145062858Y-70672922D01*
X145030828Y-70627328D01*
X144997169Y-70579378D01*
X144963606Y-70531530D01*
X144931865Y-70486238D01*
X144928921Y-70482035D01*
X144818416Y-70324259D01*
X144863655Y-70322440D01*
X144878740Y-70321633D01*
X144890500Y-70321327D01*
X144900202Y-70322620D01*
X144909111Y-70326614D01*
X144918493Y-70334408D01*
X144929614Y-70347100D01*
X144943738Y-70365792D01*
X144962132Y-70391583D01*
X144986062Y-70425572D01*
X144991960Y-70433926D01*
X145041232Y-70503608D01*
X145084114Y-70564168D01*
X145121033Y-70616194D01*
X145152418Y-70660275D01*
X145178696Y-70697002D01*
X145200297Y-70726962D01*
X145217648Y-70750745D01*
X145231178Y-70768940D01*
X145241315Y-70782136D01*
X145248487Y-70790922D01*
X145253122Y-70795887D01*
X145255649Y-70797620D01*
X145256260Y-70797453D01*
X145260375Y-70791864D01*
X145270686Y-70777555D01*
X145286513Y-70755478D01*
X145307177Y-70726584D01*
X145331996Y-70691824D01*
X145360292Y-70652152D01*
X145391385Y-70608516D01*
X145424594Y-70561871D01*
X145427652Y-70557573D01*
X145595168Y-70322165D01*
X145642153Y-70320246D01*
X145664060Y-70319580D01*
X145680513Y-70319517D01*
X145688697Y-70320054D01*
G37*
G36*
X141145544Y-68166328D02*
G01*
X141176255Y-68185229D01*
X141213834Y-68205105D01*
X141253716Y-68223753D01*
X141291336Y-68238971D01*
X141307447Y-68244472D01*
X141329455Y-68250334D01*
X141354926Y-68254887D01*
X141386300Y-68258446D01*
X141426019Y-68261325D01*
X141446877Y-68262463D01*
X141513141Y-68267307D01*
X141570203Y-68275012D01*
X141620518Y-68286214D01*
X141666539Y-68301550D01*
X141710721Y-68321656D01*
X141742033Y-68339007D01*
X141799231Y-68376734D01*
X141845874Y-68416389D01*
X141883252Y-68459213D01*
X141908866Y-68499326D01*
X141925616Y-68529957D01*
X141948790Y-68489912D01*
X141975099Y-68450951D01*
X142008005Y-68412101D01*
X142044164Y-68376899D01*
X142057209Y-68366766D01*
X142464868Y-68366766D01*
X142474391Y-68367707D01*
X142492736Y-68366178D01*
X142526986Y-68361938D01*
X142523839Y-68396754D01*
X142523054Y-68413378D01*
X142524358Y-68419244D01*
X142527197Y-68415167D01*
X142531018Y-68401957D01*
X142535268Y-68380427D01*
X142535368Y-68379828D01*
X142538280Y-68366646D01*
X142543584Y-68359568D01*
X142554721Y-68355907D01*
X142568620Y-68353830D01*
X142586323Y-68350523D01*
X142598650Y-68346442D01*
X142601681Y-68344247D01*
X142598602Y-68341507D01*
X142585283Y-68341392D01*
X142572570Y-68342661D01*
X142539959Y-68346735D01*
X142544946Y-68320921D01*
X142548542Y-68301648D01*
X142549831Y-68291266D01*
X142548846Y-68287033D01*
X142545619Y-68286209D01*
X142545352Y-68286207D01*
X142541605Y-68291517D01*
X142537431Y-68305162D01*
X142534969Y-68317248D01*
X142529684Y-68348289D01*
X142498945Y-68354331D01*
X142477506Y-68359388D01*
X142466027Y-68363763D01*
X142464868Y-68366766D01*
X142057209Y-68366766D01*
X142080236Y-68348879D01*
X142085042Y-68345760D01*
X142113437Y-68328758D01*
X142139513Y-68315686D01*
X142165802Y-68305851D01*
X142194834Y-68298561D01*
X142229140Y-68293124D01*
X142271250Y-68288849D01*
X142301601Y-68286533D01*
X142337781Y-68283548D01*
X142374789Y-68279740D01*
X142408589Y-68275570D01*
X142435143Y-68271500D01*
X142438064Y-68270962D01*
X142489779Y-68259236D01*
X142542322Y-68243847D01*
X142593055Y-68225801D01*
X142639341Y-68206106D01*
X142678544Y-68185768D01*
X142702835Y-68169863D01*
X142717693Y-68159392D01*
X142725136Y-68156778D01*
X142726774Y-68162175D01*
X142725069Y-68171994D01*
X142706873Y-68235919D01*
X142680733Y-68297316D01*
X142645836Y-68357544D01*
X142601367Y-68417960D01*
X142546512Y-68479921D01*
X142530497Y-68496402D01*
X142483384Y-68541836D01*
X142438351Y-68580053D01*
X142392511Y-68612987D01*
X142342976Y-68642570D01*
X142286860Y-68670735D01*
X142237250Y-68692714D01*
X142206847Y-68706058D01*
X142184718Y-68717175D01*
X142167975Y-68727874D01*
X142153734Y-68739961D01*
X142141336Y-68752791D01*
X142120664Y-68779325D01*
X142105644Y-68808345D01*
X142096082Y-68841330D01*
X142091781Y-68879758D01*
X142092547Y-68925104D01*
X142098185Y-68978847D01*
X142105378Y-69024890D01*
X142111189Y-69055607D01*
X142119338Y-69094615D01*
X142129190Y-69139218D01*
X142140110Y-69186720D01*
X142151463Y-69234426D01*
X142162614Y-69279639D01*
X142172929Y-69319662D01*
X142181771Y-69351801D01*
X142184678Y-69361599D01*
X142189640Y-69379430D01*
X142189449Y-69387475D01*
X142182785Y-69387176D01*
X142168326Y-69379980D01*
X142168016Y-69379811D01*
X142142988Y-69367898D01*
X142108552Y-69353853D01*
X142066827Y-69338365D01*
X142019930Y-69322123D01*
X141969981Y-69305816D01*
X141919098Y-69290135D01*
X141869398Y-69275767D01*
X141823001Y-69263403D01*
X141782024Y-69253731D01*
X141777631Y-69252797D01*
X141716021Y-69239869D01*
X141732109Y-69182562D01*
X141751934Y-69101912D01*
X141764730Y-69026754D01*
X141770524Y-68957739D01*
X141769349Y-68895517D01*
X141761233Y-68840740D01*
X141746206Y-68794059D01*
X141724298Y-68756125D01*
X141711879Y-68741752D01*
X141698860Y-68730343D01*
X141680671Y-68717702D01*
X141655913Y-68703004D01*
X141623183Y-68685424D01*
X141581084Y-68664137D01*
X141575705Y-68661477D01*
X141515628Y-68631207D01*
X141465050Y-68604277D01*
X141422414Y-68579722D01*
X141386161Y-68556574D01*
X141354735Y-68533868D01*
X141326577Y-68510636D01*
X141313650Y-68498907D01*
X141269003Y-68453843D01*
X141232438Y-68408863D01*
X141200881Y-68360010D01*
X141188752Y-68338083D01*
X141172734Y-68304689D01*
X141156234Y-68264837D01*
X141141019Y-68223230D01*
X141128856Y-68184571D01*
X141123957Y-68165622D01*
X141120105Y-68148867D01*
X141145544Y-68166328D01*
G37*
G36*
X138851013Y-70316608D02*
G01*
X138874655Y-70318326D01*
X139046809Y-70832456D01*
X139071955Y-70907412D01*
X139096077Y-70979033D01*
X139118906Y-71046537D01*
X139140170Y-71109138D01*
X139159603Y-71166055D01*
X139176933Y-71216501D01*
X139191891Y-71259694D01*
X139204209Y-71294850D01*
X139213616Y-71321184D01*
X139219843Y-71337913D01*
X139222621Y-71344252D01*
X139222704Y-71344282D01*
X139226792Y-71337297D01*
X139229417Y-71328540D01*
X139231839Y-71320551D01*
X139237740Y-71302389D01*
X139246766Y-71275112D01*
X139258562Y-71239775D01*
X139272774Y-71197437D01*
X139289046Y-71149153D01*
X139307026Y-71095982D01*
X139326357Y-71038980D01*
X139340398Y-70997677D01*
X139362868Y-70931600D01*
X139386179Y-70862974D01*
X139409681Y-70793721D01*
X139432720Y-70725766D01*
X139454645Y-70661034D01*
X139474804Y-70601447D01*
X139492545Y-70548930D01*
X139507216Y-70505407D01*
X139509274Y-70499289D01*
X139570141Y-70318326D01*
X139615563Y-70316593D01*
X139639809Y-70316413D01*
X139655490Y-70317906D01*
X139660986Y-70320876D01*
X139659056Y-70327683D01*
X139653493Y-70344691D01*
X139644639Y-70370921D01*
X139632835Y-70405392D01*
X139618421Y-70447124D01*
X139601739Y-70495138D01*
X139583130Y-70548453D01*
X139562934Y-70606090D01*
X139541494Y-70667068D01*
X139519149Y-70730408D01*
X139496240Y-70795129D01*
X139481207Y-70837481D01*
X139472223Y-70862847D01*
X139459919Y-70897720D01*
X139444889Y-70940402D01*
X139427731Y-70989200D01*
X139409040Y-71042417D01*
X139389412Y-71098358D01*
X139369442Y-71155328D01*
X139358161Y-71187539D01*
X139339631Y-71240250D01*
X139322185Y-71289470D01*
X139306232Y-71334075D01*
X139292180Y-71372944D01*
X139280436Y-71404952D01*
X139271410Y-71428978D01*
X139265509Y-71443898D01*
X139263232Y-71448599D01*
X139255431Y-71449994D01*
X139239142Y-71450899D01*
X139217740Y-71451134D01*
X139215534Y-71451115D01*
X139172400Y-71450664D01*
X139151979Y-71391783D01*
X139137169Y-71348709D01*
X139119437Y-71296523D01*
X139099370Y-71236995D01*
X139077552Y-71171894D01*
X139054571Y-71102988D01*
X139031011Y-71032046D01*
X139007459Y-70960839D01*
X138984500Y-70891134D01*
X138962719Y-70824701D01*
X138942703Y-70763309D01*
X138925037Y-70708727D01*
X138910307Y-70662724D01*
X138904203Y-70643421D01*
X138890880Y-70601296D01*
X138878672Y-70563185D01*
X138868031Y-70530463D01*
X138859411Y-70504503D01*
X138853264Y-70486681D01*
X138850043Y-70478371D01*
X138849703Y-70477947D01*
X138847504Y-70483862D01*
X138842198Y-70499687D01*
X138834239Y-70524010D01*
X138824087Y-70555423D01*
X138812197Y-70592515D01*
X138799027Y-70633878D01*
X138794463Y-70648274D01*
X138782281Y-70686415D01*
X138767883Y-70730957D01*
X138751627Y-70780834D01*
X138733869Y-70834979D01*
X138714966Y-70892326D01*
X138695277Y-70951808D01*
X138675158Y-71012359D01*
X138654966Y-71072911D01*
X138635059Y-71132400D01*
X138615795Y-71189757D01*
X138597529Y-71243918D01*
X138580620Y-71293814D01*
X138565425Y-71338380D01*
X138552301Y-71376548D01*
X138541606Y-71407254D01*
X138533696Y-71429429D01*
X138528928Y-71442008D01*
X138527752Y-71444478D01*
X138519572Y-71447379D01*
X138503473Y-71449319D01*
X138483182Y-71450250D01*
X138462429Y-71450127D01*
X138444944Y-71448905D01*
X138434456Y-71446538D01*
X138433258Y-71445633D01*
X138430528Y-71439064D01*
X138424289Y-71422313D01*
X138414909Y-71396412D01*
X138402753Y-71362395D01*
X138388188Y-71321294D01*
X138371581Y-71274143D01*
X138353298Y-71221975D01*
X138333707Y-71165823D01*
X138320628Y-71128207D01*
X138299747Y-71068089D01*
X138279460Y-71009717D01*
X138260207Y-70954357D01*
X138242429Y-70903271D01*
X138226567Y-70857725D01*
X138213059Y-70818983D01*
X138202347Y-70788308D01*
X138194871Y-70766967D01*
X138192540Y-70760349D01*
X138175260Y-70711331D01*
X138157407Y-70660430D01*
X138139409Y-70608890D01*
X138121696Y-70557958D01*
X138104698Y-70508878D01*
X138088841Y-70462897D01*
X138074557Y-70421258D01*
X138062272Y-70385209D01*
X138052417Y-70355993D01*
X138045421Y-70334857D01*
X138041712Y-70323045D01*
X138041224Y-70321021D01*
X138046667Y-70318293D01*
X138061047Y-70316286D01*
X138081438Y-70315378D01*
X138084930Y-70315360D01*
X138128636Y-70315360D01*
X138254208Y-70687667D01*
X138287982Y-70787788D01*
X138318176Y-70877250D01*
X138344996Y-70956641D01*
X138368646Y-71026547D01*
X138389332Y-71087558D01*
X138407260Y-71140261D01*
X138422634Y-71185243D01*
X138435660Y-71223091D01*
X138446544Y-71254395D01*
X138455489Y-71279740D01*
X138462703Y-71299715D01*
X138468389Y-71314907D01*
X138472754Y-71325904D01*
X138476003Y-71333294D01*
X138478340Y-71337664D01*
X138479972Y-71339602D01*
X138481103Y-71339695D01*
X138481734Y-71338931D01*
X138484335Y-71332087D01*
X138490372Y-71314944D01*
X138499518Y-71288457D01*
X138511449Y-71253582D01*
X138525840Y-71211274D01*
X138542367Y-71162490D01*
X138560705Y-71108185D01*
X138580528Y-71049315D01*
X138601512Y-70986835D01*
X138610116Y-70961174D01*
X138633022Y-70892834D01*
X138656075Y-70824090D01*
X138678785Y-70756395D01*
X138700664Y-70691203D01*
X138721226Y-70629965D01*
X138739983Y-70574136D01*
X138756445Y-70525168D01*
X138770126Y-70484515D01*
X138780537Y-70453629D01*
X138780725Y-70453072D01*
X138827372Y-70314890D01*
X138851013Y-70316608D01*
G37*
D12*
%TO.C,R4*%
X93060000Y-98440000D02*
X93060000Y-94600000D01*
X94900000Y-98440000D02*
X94900000Y-94600000D01*
%TO.C,C2*%
X106059000Y-100680000D02*
X104801000Y-100680000D01*
X106059000Y-102520000D02*
X104801000Y-102520000D01*
%TO.C,J5*%
X83210000Y-81190000D02*
X83210000Y-86390000D01*
X83210000Y-81190000D02*
X91840000Y-81190000D01*
X83210000Y-81310000D02*
X91840000Y-81310000D01*
X83210000Y-81428095D02*
X91840000Y-81428095D01*
X83210000Y-81546190D02*
X91840000Y-81546190D01*
X83210000Y-81664285D02*
X91840000Y-81664285D01*
X83210000Y-81782380D02*
X91840000Y-81782380D01*
X83210000Y-81900475D02*
X91840000Y-81900475D01*
X83210000Y-82018570D02*
X91840000Y-82018570D01*
X83210000Y-82136665D02*
X91840000Y-82136665D01*
X83210000Y-82254760D02*
X91840000Y-82254760D01*
X83210000Y-82372855D02*
X91840000Y-82372855D01*
X83210000Y-82490950D02*
X91840000Y-82490950D01*
X83210000Y-82609045D02*
X91840000Y-82609045D01*
X83210000Y-82727140D02*
X91840000Y-82727140D01*
X83210000Y-82845235D02*
X91840000Y-82845235D01*
X83210000Y-82963330D02*
X91840000Y-82963330D01*
X83210000Y-83081425D02*
X91840000Y-83081425D01*
X83210000Y-83199520D02*
X91840000Y-83199520D01*
X83210000Y-83317615D02*
X91840000Y-83317615D01*
X83210000Y-83435710D02*
X91840000Y-83435710D01*
X83210000Y-83553805D02*
X91840000Y-83553805D01*
X83210000Y-83671900D02*
X91840000Y-83671900D01*
X83210000Y-83790000D02*
X91840000Y-83790000D01*
X83210000Y-86390000D02*
X91840000Y-86390000D01*
X91840000Y-81190000D02*
X91840000Y-86390000D01*
X91840000Y-82160000D02*
X92190000Y-82160000D01*
X91840000Y-82880000D02*
X92190000Y-82880000D01*
X91840000Y-84700000D02*
X92250000Y-84700000D01*
X91840000Y-85420000D02*
X92250000Y-85420000D01*
X93300000Y-81190000D02*
X94410000Y-81190000D01*
X94410000Y-81190000D02*
X94410000Y-82520000D01*
%TO.C,J1*%
X95190000Y-72330000D02*
X146110000Y-72330000D01*
X95190000Y-74930000D02*
X95190000Y-72330000D01*
X95190000Y-77530000D02*
X95190000Y-76200000D01*
X96520000Y-77530000D02*
X95190000Y-77530000D01*
X97790000Y-74930000D02*
X95190000Y-74930000D01*
X97790000Y-77530000D02*
X97790000Y-74930000D01*
X97790000Y-77530000D02*
X146110000Y-77530000D01*
X146110000Y-77530000D02*
X146110000Y-72330000D01*
%TO.C,R3*%
X87980000Y-103520000D02*
X87980000Y-99680000D01*
X89820000Y-103520000D02*
X89820000Y-99680000D01*
%TO.C,Q2*%
X90750000Y-112290000D02*
X90750000Y-108690000D01*
X86300000Y-110490000D02*
G75*
G02*
X90738478Y-108651522I2600000J0D01*
G01*
X90738478Y-112328478D02*
G75*
G02*
X86299999Y-110490000I-1838478J1838478D01*
G01*
%TO.C,Q1*%
X95830000Y-107210000D02*
X95830000Y-103610000D01*
X91380000Y-105410000D02*
G75*
G02*
X95818478Y-103571522I2600000J0D01*
G01*
X95818478Y-107248478D02*
G75*
G02*
X91379999Y-105410000I-1838478J1838478D01*
G01*
D14*
%TO.C,U1*%
X102108000Y-107569000D02*
X102108000Y-113411000D01*
X102108000Y-113411000D02*
X103070450Y-113411000D01*
X103501146Y-107569000D02*
X102108000Y-107569000D01*
X105209550Y-113411000D02*
X106041146Y-113411000D01*
X106041146Y-107569000D02*
X104778854Y-107569000D01*
X107318854Y-113411000D02*
X108581146Y-113411000D01*
X108581146Y-107569000D02*
X107318854Y-107569000D01*
X109858854Y-113411000D02*
X111121146Y-113411000D01*
X111121146Y-107569000D02*
X109858854Y-107569000D01*
X112398854Y-113411000D02*
X113661146Y-113411000D01*
X113661146Y-107569000D02*
X112398854Y-107569000D01*
X114938854Y-113411000D02*
X116201146Y-113411000D01*
X116201146Y-107569000D02*
X114938854Y-107569000D01*
X117478854Y-113411000D02*
X118741146Y-113411000D01*
X118741146Y-107569000D02*
X117478854Y-107569000D01*
X120018854Y-113411000D02*
X121281146Y-113411000D01*
X121281146Y-107569000D02*
X120018854Y-107569000D01*
X122558854Y-113411000D02*
X123952000Y-113411000D01*
X123952000Y-107569000D02*
X122558854Y-107569000D01*
X123952000Y-113411000D02*
X123952000Y-107569000D01*
D12*
%TO.C,C1*%
X106059000Y-103220000D02*
X104801000Y-103220000D01*
X106059000Y-105060000D02*
X104801000Y-105060000D01*
%TD*%
M02*
