%TF.GenerationSoftware,KiCad,Pcbnew,8.0.6*%
%TF.CreationDate,2024-11-08T15:32:17+11:00*%
%TF.ProjectId,aqua-pi-shield,61717561-2d70-4692-9d73-6869656c642e,rev?*%
%TF.SameCoordinates,Original*%
%TF.FileFunction,Drillmap*%
%TF.FilePolarity,Positive*%
%FSLAX45Y45*%
G04 Gerber Fmt 4.5, Leading zero omitted, Abs format (unit mm)*
G04 Created by KiCad (PCBNEW 8.0.6) date 2024-11-08 15:32:17*
%MOMM*%
%LPD*%
G01*
G04 APERTURE LIST*
%ADD10C,0.050000*%
%ADD11C,0.200000*%
G04 APERTURE END LIST*
D10*
X8400000Y-6750000D02*
X14900000Y-6750000D01*
X14900000Y-12750000D01*
X8400000Y-12750000D01*
X8400000Y-6750000D01*
D11*
X8658277Y-13063984D02*
X8658277Y-12863984D01*
X8658277Y-12863984D02*
X8705896Y-12863984D01*
X8705896Y-12863984D02*
X8734467Y-12873508D01*
X8734467Y-12873508D02*
X8753515Y-12892555D01*
X8753515Y-12892555D02*
X8763039Y-12911603D01*
X8763039Y-12911603D02*
X8772563Y-12949698D01*
X8772563Y-12949698D02*
X8772563Y-12978269D01*
X8772563Y-12978269D02*
X8763039Y-13016365D01*
X8763039Y-13016365D02*
X8753515Y-13035412D01*
X8753515Y-13035412D02*
X8734467Y-13054460D01*
X8734467Y-13054460D02*
X8705896Y-13063984D01*
X8705896Y-13063984D02*
X8658277Y-13063984D01*
X8858277Y-13063984D02*
X8858277Y-12930650D01*
X8858277Y-12968746D02*
X8867801Y-12949698D01*
X8867801Y-12949698D02*
X8877324Y-12940174D01*
X8877324Y-12940174D02*
X8896372Y-12930650D01*
X8896372Y-12930650D02*
X8915420Y-12930650D01*
X8982086Y-13063984D02*
X8982086Y-12930650D01*
X8982086Y-12863984D02*
X8972563Y-12873508D01*
X8972563Y-12873508D02*
X8982086Y-12883031D01*
X8982086Y-12883031D02*
X8991610Y-12873508D01*
X8991610Y-12873508D02*
X8982086Y-12863984D01*
X8982086Y-12863984D02*
X8982086Y-12883031D01*
X9105896Y-13063984D02*
X9086848Y-13054460D01*
X9086848Y-13054460D02*
X9077324Y-13035412D01*
X9077324Y-13035412D02*
X9077324Y-12863984D01*
X9210658Y-13063984D02*
X9191610Y-13054460D01*
X9191610Y-13054460D02*
X9182086Y-13035412D01*
X9182086Y-13035412D02*
X9182086Y-12863984D01*
X9439229Y-13063984D02*
X9439229Y-12863984D01*
X9439229Y-12863984D02*
X9505896Y-13006841D01*
X9505896Y-13006841D02*
X9572563Y-12863984D01*
X9572563Y-12863984D02*
X9572563Y-13063984D01*
X9753515Y-13063984D02*
X9753515Y-12959222D01*
X9753515Y-12959222D02*
X9743991Y-12940174D01*
X9743991Y-12940174D02*
X9724944Y-12930650D01*
X9724944Y-12930650D02*
X9686848Y-12930650D01*
X9686848Y-12930650D02*
X9667801Y-12940174D01*
X9753515Y-13054460D02*
X9734467Y-13063984D01*
X9734467Y-13063984D02*
X9686848Y-13063984D01*
X9686848Y-13063984D02*
X9667801Y-13054460D01*
X9667801Y-13054460D02*
X9658277Y-13035412D01*
X9658277Y-13035412D02*
X9658277Y-13016365D01*
X9658277Y-13016365D02*
X9667801Y-12997317D01*
X9667801Y-12997317D02*
X9686848Y-12987793D01*
X9686848Y-12987793D02*
X9734467Y-12987793D01*
X9734467Y-12987793D02*
X9753515Y-12978269D01*
X9848753Y-12930650D02*
X9848753Y-13130650D01*
X9848753Y-12940174D02*
X9867801Y-12930650D01*
X9867801Y-12930650D02*
X9905896Y-12930650D01*
X9905896Y-12930650D02*
X9924944Y-12940174D01*
X9924944Y-12940174D02*
X9934467Y-12949698D01*
X9934467Y-12949698D02*
X9943991Y-12968746D01*
X9943991Y-12968746D02*
X9943991Y-13025888D01*
X9943991Y-13025888D02*
X9934467Y-13044936D01*
X9934467Y-13044936D02*
X9924944Y-13054460D01*
X9924944Y-13054460D02*
X9905896Y-13063984D01*
X9905896Y-13063984D02*
X9867801Y-13063984D01*
X9867801Y-13063984D02*
X9848753Y-13054460D01*
X10029705Y-13044936D02*
X10039229Y-13054460D01*
X10039229Y-13054460D02*
X10029705Y-13063984D01*
X10029705Y-13063984D02*
X10020182Y-13054460D01*
X10020182Y-13054460D02*
X10029705Y-13044936D01*
X10029705Y-13044936D02*
X10029705Y-13063984D01*
X10029705Y-12940174D02*
X10039229Y-12949698D01*
X10039229Y-12949698D02*
X10029705Y-12959222D01*
X10029705Y-12959222D02*
X10020182Y-12949698D01*
X10020182Y-12949698D02*
X10029705Y-12940174D01*
X10029705Y-12940174D02*
X10029705Y-12959222D01*
M02*
