%TF.GenerationSoftware,KiCad,Pcbnew,8.0.6*%
%TF.CreationDate,2024-11-09T21:25:44+11:00*%
%TF.ProjectId,aqua-pi-shield,61717561-2d70-4692-9d73-6869656c642e,rev?*%
%TF.SameCoordinates,Original*%
%TF.FileFunction,Copper,L2,Bot*%
%TF.FilePolarity,Positive*%
%FSLAX46Y46*%
G04 Gerber Fmt 4.6, Leading zero omitted, Abs format (unit mm)*
G04 Created by KiCad (PCBNEW 8.0.6) date 2024-11-09 21:25:44*
%MOMM*%
%LPD*%
G01*
G04 APERTURE LIST*
%TA.AperFunction,ComponentPad*%
%ADD10R,1.700000X1.700000*%
%TD*%
%TA.AperFunction,ComponentPad*%
%ADD11O,1.700000X1.700000*%
%TD*%
%TA.AperFunction,ComponentPad*%
%ADD12C,1.400000*%
%TD*%
%TA.AperFunction,ComponentPad*%
%ADD13O,1.400000X1.400000*%
%TD*%
%TA.AperFunction,ComponentPad*%
%ADD14C,1.600000*%
%TD*%
%TA.AperFunction,ComponentPad*%
%ADD15R,1.500000X1.050000*%
%TD*%
%TA.AperFunction,ComponentPad*%
%ADD16O,1.500000X1.050000*%
%TD*%
%TA.AperFunction,ComponentPad*%
%ADD17R,1.524000X1.524000*%
%TD*%
%TA.AperFunction,ComponentPad*%
%ADD18C,1.524000*%
%TD*%
G04 APERTURE END LIST*
D10*
%TO.P,J4,1,Pin_1*%
%TO.N,Net-(J1-Pin_31)*%
X134600000Y-117520000D03*
D11*
%TO.P,J4,2,Pin_2*%
%TO.N,Net-(J1-Pin_33)*%
X137140000Y-117520000D03*
%TO.P,J4,3,Pin_3*%
%TO.N,Net-(J1-Pin_35)*%
X139680000Y-117520000D03*
%TO.P,J4,4,Pin_4*%
%TO.N,Net-(J1-Pin_37)*%
X142220000Y-117520000D03*
%TO.P,J4,5,Pin_5*%
%TO.N,GND*%
X144760000Y-117520000D03*
%TD*%
D12*
%TO.P,R1,1*%
%TO.N,Net-(J1-Pin_21)*%
X114300000Y-96520000D03*
D13*
%TO.P,R1,2*%
%TO.N,Net-(U1-Dout)*%
X114300000Y-101600000D03*
%TD*%
D12*
%TO.P,R2,1*%
%TO.N,GND*%
X114300000Y-86360000D03*
D13*
%TO.P,R2,2*%
%TO.N,Net-(J1-Pin_21)*%
X114300000Y-91440000D03*
%TD*%
D10*
%TO.P,J3,1,Pin_1*%
%TO.N,Net-(J3-Pin_1)*%
X91440000Y-117520000D03*
D11*
%TO.P,J3,2,Pin_2*%
%TO.N,Net-(J3-Pin_2)*%
X93980000Y-117520000D03*
%TD*%
D10*
%TO.P,J2,1,Pin_1*%
%TO.N,Net-(J2-Pin_1)*%
X104140000Y-117520000D03*
D11*
%TO.P,J2,2,Pin_2*%
%TO.N,Net-(J2-Pin_2)*%
X106680000Y-117520000D03*
%TO.P,J2,3,Pin_3*%
%TO.N,Net-(J2-Pin_3)*%
X109220000Y-117520000D03*
%TO.P,J2,4,Pin_4*%
%TO.N,Net-(J2-Pin_4)*%
X111760000Y-117520000D03*
%TO.P,J2,5,Pin_5*%
%TO.N,Net-(J2-Pin_5)*%
X114300000Y-117520000D03*
%TO.P,J2,6,Pin_6*%
%TO.N,Net-(J2-Pin_6)*%
X116840000Y-117520000D03*
%TO.P,J2,7,Pin_7*%
%TO.N,Net-(J2-Pin_7)*%
X119380000Y-117520000D03*
%TO.P,J2,8,Pin_8*%
%TO.N,Net-(J2-Pin_8)*%
X121920000Y-117520000D03*
%TD*%
D12*
%TO.P,R4,1*%
%TO.N,Net-(Q1-B)*%
X93980000Y-99060000D03*
D13*
%TO.P,R4,2*%
%TO.N,Net-(J1-Pin_15)*%
X93980000Y-93980000D03*
%TD*%
D14*
%TO.P,C2,1*%
%TO.N,GND*%
X106680000Y-101600000D03*
%TO.P,C2,2*%
%TO.N,Net-(J1-Pin_2)*%
X104180000Y-101600000D03*
%TD*%
D10*
%TO.P,J5,1,Pin_1*%
%TO.N,Net-(J1-Pin_16)*%
X93300000Y-82520000D03*
D11*
%TO.P,J5,2,Pin_2*%
%TO.N,Net-(J1-Pin_18)*%
X93300000Y-85060000D03*
%TD*%
D10*
%TO.P,J1,1,Pin_1*%
%TO.N,unconnected-(J1-Pin_1-Pad1)*%
X96520000Y-76200000D03*
D11*
%TO.P,J1,2,Pin_2*%
%TO.N,Net-(J1-Pin_2)*%
X96520000Y-73660000D03*
%TO.P,J1,3,Pin_3*%
%TO.N,unconnected-(J1-Pin_3-Pad3)*%
X99060000Y-76200000D03*
%TO.P,J1,4,Pin_4*%
%TO.N,unconnected-(J1-Pin_4-Pad4)*%
X99060000Y-73660000D03*
%TO.P,J1,5,Pin_5*%
%TO.N,unconnected-(J1-Pin_5-Pad5)*%
X101600000Y-76200000D03*
%TO.P,J1,6,Pin_6*%
%TO.N,unconnected-(J1-Pin_6-Pad6)*%
X101600000Y-73660000D03*
%TO.P,J1,7,Pin_7*%
%TO.N,unconnected-(J1-Pin_7-Pad7)*%
X104140000Y-76200000D03*
%TO.P,J1,8,Pin_8*%
%TO.N,unconnected-(J1-Pin_8-Pad8)*%
X104140000Y-73660000D03*
%TO.P,J1,9,Pin_9*%
%TO.N,GND*%
X106680000Y-76200000D03*
%TO.P,J1,10,Pin_10*%
%TO.N,unconnected-(J1-Pin_10-Pad10)*%
X106680000Y-73660000D03*
%TO.P,J1,11,Pin_11*%
%TO.N,unconnected-(J1-Pin_11-Pad11)*%
X109220000Y-76200000D03*
%TO.P,J1,12,Pin_12*%
%TO.N,unconnected-(J1-Pin_12-Pad12)*%
X109220000Y-73660000D03*
%TO.P,J1,13,Pin_13*%
%TO.N,Net-(J1-Pin_13)*%
X111760000Y-76200000D03*
%TO.P,J1,14,Pin_14*%
%TO.N,unconnected-(J1-Pin_14-Pad14)*%
X111760000Y-73660000D03*
%TO.P,J1,15,Pin_15*%
%TO.N,Net-(J1-Pin_15)*%
X114300000Y-76200000D03*
%TO.P,J1,16,Pin_16*%
%TO.N,Net-(J1-Pin_16)*%
X114300000Y-73660000D03*
%TO.P,J1,17,Pin_17*%
%TO.N,unconnected-(J1-Pin_17-Pad17)*%
X116840000Y-76200000D03*
%TO.P,J1,18,Pin_18*%
%TO.N,Net-(J1-Pin_18)*%
X116840000Y-73660000D03*
%TO.P,J1,19,Pin_19*%
%TO.N,Net-(J1-Pin_19)*%
X119380000Y-76200000D03*
%TO.P,J1,20,Pin_20*%
%TO.N,unconnected-(J1-Pin_20-Pad20)*%
X119380000Y-73660000D03*
%TO.P,J1,21,Pin_21*%
%TO.N,Net-(J1-Pin_21)*%
X121920000Y-76200000D03*
%TO.P,J1,22,Pin_22*%
%TO.N,unconnected-(J1-Pin_22-Pad22)*%
X121920000Y-73660000D03*
%TO.P,J1,23,Pin_23*%
%TO.N,Net-(J1-Pin_23)*%
X124460000Y-76200000D03*
%TO.P,J1,24,Pin_24*%
%TO.N,Net-(J1-Pin_24)*%
X124460000Y-73660000D03*
%TO.P,J1,25,Pin_25*%
%TO.N,GND*%
X127000000Y-76200000D03*
%TO.P,J1,26,Pin_26*%
%TO.N,unconnected-(J1-Pin_26-Pad26)*%
X127000000Y-73660000D03*
%TO.P,J1,27,Pin_27*%
%TO.N,unconnected-(J1-Pin_27-Pad27)*%
X129540000Y-76200000D03*
%TO.P,J1,28,Pin_28*%
%TO.N,unconnected-(J1-Pin_28-Pad28)*%
X129540000Y-73660000D03*
%TO.P,J1,29,Pin_29*%
%TO.N,unconnected-(J1-Pin_29-Pad29)*%
X132080000Y-76200000D03*
%TO.P,J1,30,Pin_30*%
%TO.N,unconnected-(J1-Pin_30-Pad30)*%
X132080000Y-73660000D03*
%TO.P,J1,31,Pin_31*%
%TO.N,Net-(J1-Pin_31)*%
X134620000Y-76200000D03*
%TO.P,J1,32,Pin_32*%
%TO.N,unconnected-(J1-Pin_32-Pad32)*%
X134620000Y-73660000D03*
%TO.P,J1,33,Pin_33*%
%TO.N,Net-(J1-Pin_33)*%
X137160000Y-76200000D03*
%TO.P,J1,34,Pin_34*%
%TO.N,unconnected-(J1-Pin_34-Pad34)*%
X137160000Y-73660000D03*
%TO.P,J1,35,Pin_35*%
%TO.N,Net-(J1-Pin_35)*%
X139700000Y-76200000D03*
%TO.P,J1,36,Pin_36*%
%TO.N,unconnected-(J1-Pin_36-Pad36)*%
X139700000Y-73660000D03*
%TO.P,J1,37,Pin_37*%
%TO.N,Net-(J1-Pin_37)*%
X142240000Y-76200000D03*
%TO.P,J1,38,Pin_38*%
%TO.N,unconnected-(J1-Pin_38-Pad38)*%
X142240000Y-73660000D03*
%TO.P,J1,39,Pin_39*%
%TO.N,GND*%
X144780000Y-76200000D03*
%TO.P,J1,40,Pin_40*%
%TO.N,unconnected-(J1-Pin_40-Pad40)*%
X144780000Y-73660000D03*
%TD*%
D12*
%TO.P,R3,1*%
%TO.N,Net-(Q2-B)*%
X88900000Y-104140000D03*
D13*
%TO.P,R3,2*%
%TO.N,Net-(J1-Pin_13)*%
X88900000Y-99060000D03*
%TD*%
D15*
%TO.P,Q2,1,C*%
%TO.N,Net-(J3-Pin_1)*%
X88900000Y-111760000D03*
D16*
%TO.P,Q2,2,B*%
%TO.N,Net-(Q2-B)*%
X88900000Y-110490000D03*
%TO.P,Q2,3,E*%
%TO.N,GND*%
X88900000Y-109220000D03*
%TD*%
D15*
%TO.P,Q1,1,C*%
%TO.N,Net-(J3-Pin_2)*%
X93980000Y-106680000D03*
D16*
%TO.P,Q1,2,B*%
%TO.N,Net-(Q1-B)*%
X93980000Y-105410000D03*
%TO.P,Q1,3,E*%
%TO.N,GND*%
X93980000Y-104140000D03*
%TD*%
D17*
%TO.P,U1,1,CH0*%
%TO.N,Net-(J2-Pin_1)*%
X104140000Y-114300000D03*
D18*
%TO.P,U1,2,CH1*%
%TO.N,Net-(J2-Pin_2)*%
X106680000Y-114300000D03*
%TO.P,U1,3,CH2*%
%TO.N,Net-(J2-Pin_3)*%
X109220000Y-114300000D03*
%TO.P,U1,4,CH3*%
%TO.N,Net-(J2-Pin_4)*%
X111760000Y-114300000D03*
%TO.P,U1,5,CH4*%
%TO.N,Net-(J2-Pin_5)*%
X114300000Y-114300000D03*
%TO.P,U1,6,CH5*%
%TO.N,Net-(J2-Pin_6)*%
X116840000Y-114300000D03*
%TO.P,U1,7,CH6*%
%TO.N,Net-(J2-Pin_7)*%
X119380000Y-114300000D03*
%TO.P,U1,8,CH7*%
%TO.N,Net-(J2-Pin_8)*%
X121920000Y-114300000D03*
%TO.P,U1,9,DGND*%
%TO.N,GND*%
X121920000Y-106680000D03*
%TO.P,U1,10,~{CS}/SHDN*%
%TO.N,Net-(J1-Pin_24)*%
X119380000Y-106680000D03*
%TO.P,U1,11,Din*%
%TO.N,Net-(J1-Pin_19)*%
X116840000Y-106680000D03*
%TO.P,U1,12,Dout*%
%TO.N,Net-(U1-Dout)*%
X114300000Y-106680000D03*
%TO.P,U1,13,CLK*%
%TO.N,Net-(J1-Pin_23)*%
X111760000Y-106680000D03*
%TO.P,U1,14,AGND*%
%TO.N,GND*%
X109220000Y-106680000D03*
%TO.P,U1,15,Vref*%
%TO.N,Net-(J1-Pin_2)*%
X106680000Y-106680000D03*
%TO.P,U1,16,Vdd*%
X104140000Y-106680000D03*
%TD*%
D14*
%TO.P,C1,1*%
%TO.N,GND*%
X106680000Y-104140000D03*
%TO.P,C1,2*%
%TO.N,Net-(J1-Pin_2)*%
X104180000Y-104140000D03*
%TD*%
%TA.AperFunction,Conductor*%
%TO.N,GND*%
G36*
X106280000Y-104192661D02*
G01*
X106307259Y-104294394D01*
X106359920Y-104385606D01*
X106434394Y-104460080D01*
X106525606Y-104512741D01*
X106627339Y-104540000D01*
X106633553Y-104540000D01*
X105954526Y-105219025D01*
X106027513Y-105270132D01*
X106027521Y-105270136D01*
X106130822Y-105318306D01*
X106183262Y-105364478D01*
X106202414Y-105431671D01*
X106182199Y-105498552D01*
X106130823Y-105543070D01*
X106046340Y-105582465D01*
X106046338Y-105582466D01*
X105865377Y-105709175D01*
X105709175Y-105865377D01*
X105582466Y-106046338D01*
X105582465Y-106046340D01*
X105522382Y-106175189D01*
X105476209Y-106227628D01*
X105409016Y-106246780D01*
X105342135Y-106226564D01*
X105297618Y-106175189D01*
X105238083Y-106047517D01*
X105237534Y-106046339D01*
X105143935Y-105912665D01*
X105110827Y-105865381D01*
X105035244Y-105789798D01*
X104954620Y-105709174D01*
X104954616Y-105709171D01*
X104954615Y-105709170D01*
X104773666Y-105582468D01*
X104773662Y-105582466D01*
X104709768Y-105552672D01*
X104657329Y-105506500D01*
X104638177Y-105439306D01*
X104658393Y-105372425D01*
X104709767Y-105327908D01*
X104832734Y-105270568D01*
X105019139Y-105140047D01*
X105180047Y-104979139D01*
X105310568Y-104792734D01*
X105317893Y-104777024D01*
X105364064Y-104724586D01*
X105431257Y-104705433D01*
X105498138Y-104725648D01*
X105542657Y-104777024D01*
X105549864Y-104792480D01*
X105600974Y-104865472D01*
X106280000Y-104186446D01*
X106280000Y-104192661D01*
G37*
%TD.AperFunction*%
%TA.AperFunction,Conductor*%
G36*
X106280000Y-101652661D02*
G01*
X106307259Y-101754394D01*
X106359920Y-101845606D01*
X106434394Y-101920080D01*
X106525606Y-101972741D01*
X106627339Y-102000000D01*
X106633553Y-102000000D01*
X105954526Y-102679025D01*
X106027513Y-102730132D01*
X106027517Y-102730134D01*
X106086456Y-102757618D01*
X106138895Y-102803790D01*
X106158047Y-102870984D01*
X106137831Y-102937865D01*
X106086457Y-102982382D01*
X106027512Y-103009868D01*
X105954526Y-103060973D01*
X105954526Y-103060974D01*
X106633553Y-103740000D01*
X106627339Y-103740000D01*
X106525606Y-103767259D01*
X106434394Y-103819920D01*
X106359920Y-103894394D01*
X106307259Y-103985606D01*
X106280000Y-104087339D01*
X106280000Y-104093552D01*
X105600974Y-103414526D01*
X105600973Y-103414526D01*
X105549868Y-103487512D01*
X105549867Y-103487514D01*
X105542656Y-103502979D01*
X105496482Y-103555417D01*
X105429288Y-103574567D01*
X105362407Y-103554350D01*
X105317893Y-103502976D01*
X105310568Y-103487266D01*
X105180047Y-103300861D01*
X105180045Y-103300858D01*
X105019141Y-103139954D01*
X104832734Y-103009432D01*
X104832728Y-103009429D01*
X104774725Y-102982382D01*
X104722285Y-102936210D01*
X104703133Y-102869017D01*
X104723348Y-102802135D01*
X104774725Y-102757618D01*
X104832734Y-102730568D01*
X105019139Y-102600047D01*
X105180047Y-102439139D01*
X105310568Y-102252734D01*
X105317893Y-102237024D01*
X105364064Y-102184586D01*
X105431257Y-102165433D01*
X105498138Y-102185648D01*
X105542657Y-102237024D01*
X105549864Y-102252480D01*
X105600974Y-102325472D01*
X106280000Y-101646446D01*
X106280000Y-101652661D01*
G37*
%TD.AperFunction*%
%TA.AperFunction,Conductor*%
G36*
X148442539Y-68020185D02*
G01*
X148488294Y-68072989D01*
X148499500Y-68124500D01*
X148499500Y-126875500D01*
X148479815Y-126942539D01*
X148427011Y-126988294D01*
X148375500Y-126999500D01*
X84624500Y-126999500D01*
X84557461Y-126979815D01*
X84511706Y-126927011D01*
X84500500Y-126875500D01*
X84500500Y-116622135D01*
X90089500Y-116622135D01*
X90089500Y-118417870D01*
X90089501Y-118417876D01*
X90095908Y-118477483D01*
X90146202Y-118612328D01*
X90146206Y-118612335D01*
X90232452Y-118727544D01*
X90232455Y-118727547D01*
X90347664Y-118813793D01*
X90347671Y-118813797D01*
X90482517Y-118864091D01*
X90482516Y-118864091D01*
X90489444Y-118864835D01*
X90542127Y-118870500D01*
X92337872Y-118870499D01*
X92397483Y-118864091D01*
X92532331Y-118813796D01*
X92647546Y-118727546D01*
X92733796Y-118612331D01*
X92782810Y-118480916D01*
X92824681Y-118424984D01*
X92890145Y-118400566D01*
X92958418Y-118415417D01*
X92986673Y-118436569D01*
X93108599Y-118558495D01*
X93205384Y-118626265D01*
X93302165Y-118694032D01*
X93302167Y-118694033D01*
X93302170Y-118694035D01*
X93516337Y-118793903D01*
X93744592Y-118855063D01*
X93921034Y-118870500D01*
X93979999Y-118875659D01*
X93980000Y-118875659D01*
X93980001Y-118875659D01*
X94038966Y-118870500D01*
X94215408Y-118855063D01*
X94443663Y-118793903D01*
X94657830Y-118694035D01*
X94851401Y-118558495D01*
X95018495Y-118391401D01*
X95154035Y-118197830D01*
X95253903Y-117983663D01*
X95315063Y-117755408D01*
X95335659Y-117520000D01*
X95315063Y-117284592D01*
X95253903Y-117056337D01*
X95154035Y-116842171D01*
X95148731Y-116834595D01*
X95018494Y-116648597D01*
X94992032Y-116622135D01*
X102789500Y-116622135D01*
X102789500Y-118417870D01*
X102789501Y-118417876D01*
X102795908Y-118477483D01*
X102846202Y-118612328D01*
X102846206Y-118612335D01*
X102932452Y-118727544D01*
X102932455Y-118727547D01*
X103047664Y-118813793D01*
X103047671Y-118813797D01*
X103182517Y-118864091D01*
X103182516Y-118864091D01*
X103189444Y-118864835D01*
X103242127Y-118870500D01*
X105037872Y-118870499D01*
X105097483Y-118864091D01*
X105232331Y-118813796D01*
X105347546Y-118727546D01*
X105433796Y-118612331D01*
X105482810Y-118480916D01*
X105524681Y-118424984D01*
X105590145Y-118400566D01*
X105658418Y-118415417D01*
X105686673Y-118436569D01*
X105808599Y-118558495D01*
X105905384Y-118626265D01*
X106002165Y-118694032D01*
X106002167Y-118694033D01*
X106002170Y-118694035D01*
X106216337Y-118793903D01*
X106444592Y-118855063D01*
X106621034Y-118870500D01*
X106679999Y-118875659D01*
X106680000Y-118875659D01*
X106680001Y-118875659D01*
X106738966Y-118870500D01*
X106915408Y-118855063D01*
X107143663Y-118793903D01*
X107357830Y-118694035D01*
X107551401Y-118558495D01*
X107718495Y-118391401D01*
X107848425Y-118205842D01*
X107903002Y-118162217D01*
X107972500Y-118155023D01*
X108034855Y-118186546D01*
X108051575Y-118205842D01*
X108181500Y-118391395D01*
X108181505Y-118391401D01*
X108348599Y-118558495D01*
X108445384Y-118626265D01*
X108542165Y-118694032D01*
X108542167Y-118694033D01*
X108542170Y-118694035D01*
X108756337Y-118793903D01*
X108984592Y-118855063D01*
X109161034Y-118870500D01*
X109219999Y-118875659D01*
X109220000Y-118875659D01*
X109220001Y-118875659D01*
X109278966Y-118870500D01*
X109455408Y-118855063D01*
X109683663Y-118793903D01*
X109897830Y-118694035D01*
X110091401Y-118558495D01*
X110258495Y-118391401D01*
X110388425Y-118205842D01*
X110443002Y-118162217D01*
X110512500Y-118155023D01*
X110574855Y-118186546D01*
X110591575Y-118205842D01*
X110721500Y-118391395D01*
X110721505Y-118391401D01*
X110888599Y-118558495D01*
X110985384Y-118626265D01*
X111082165Y-118694032D01*
X111082167Y-118694033D01*
X111082170Y-118694035D01*
X111296337Y-118793903D01*
X111524592Y-118855063D01*
X111701034Y-118870500D01*
X111759999Y-118875659D01*
X111760000Y-118875659D01*
X111760001Y-118875659D01*
X111818966Y-118870500D01*
X111995408Y-118855063D01*
X112223663Y-118793903D01*
X112437830Y-118694035D01*
X112631401Y-118558495D01*
X112798495Y-118391401D01*
X112928425Y-118205842D01*
X112983002Y-118162217D01*
X113052500Y-118155023D01*
X113114855Y-118186546D01*
X113131575Y-118205842D01*
X113261500Y-118391395D01*
X113261505Y-118391401D01*
X113428599Y-118558495D01*
X113525384Y-118626265D01*
X113622165Y-118694032D01*
X113622167Y-118694033D01*
X113622170Y-118694035D01*
X113836337Y-118793903D01*
X114064592Y-118855063D01*
X114241034Y-118870500D01*
X114299999Y-118875659D01*
X114300000Y-118875659D01*
X114300001Y-118875659D01*
X114358966Y-118870500D01*
X114535408Y-118855063D01*
X114763663Y-118793903D01*
X114977830Y-118694035D01*
X115171401Y-118558495D01*
X115338495Y-118391401D01*
X115468425Y-118205842D01*
X115523002Y-118162217D01*
X115592500Y-118155023D01*
X115654855Y-118186546D01*
X115671575Y-118205842D01*
X115801500Y-118391395D01*
X115801505Y-118391401D01*
X115968599Y-118558495D01*
X116065384Y-118626265D01*
X116162165Y-118694032D01*
X116162167Y-118694033D01*
X116162170Y-118694035D01*
X116376337Y-118793903D01*
X116604592Y-118855063D01*
X116781034Y-118870500D01*
X116839999Y-118875659D01*
X116840000Y-118875659D01*
X116840001Y-118875659D01*
X116898966Y-118870500D01*
X117075408Y-118855063D01*
X117303663Y-118793903D01*
X117517830Y-118694035D01*
X117711401Y-118558495D01*
X117878495Y-118391401D01*
X118008425Y-118205842D01*
X118063002Y-118162217D01*
X118132500Y-118155023D01*
X118194855Y-118186546D01*
X118211575Y-118205842D01*
X118341500Y-118391395D01*
X118341505Y-118391401D01*
X118508599Y-118558495D01*
X118605384Y-118626265D01*
X118702165Y-118694032D01*
X118702167Y-118694033D01*
X118702170Y-118694035D01*
X118916337Y-118793903D01*
X119144592Y-118855063D01*
X119321034Y-118870500D01*
X119379999Y-118875659D01*
X119380000Y-118875659D01*
X119380001Y-118875659D01*
X119438966Y-118870500D01*
X119615408Y-118855063D01*
X119843663Y-118793903D01*
X120057830Y-118694035D01*
X120251401Y-118558495D01*
X120418495Y-118391401D01*
X120548425Y-118205842D01*
X120603002Y-118162217D01*
X120672500Y-118155023D01*
X120734855Y-118186546D01*
X120751575Y-118205842D01*
X120881500Y-118391395D01*
X120881505Y-118391401D01*
X121048599Y-118558495D01*
X121145384Y-118626265D01*
X121242165Y-118694032D01*
X121242167Y-118694033D01*
X121242170Y-118694035D01*
X121456337Y-118793903D01*
X121684592Y-118855063D01*
X121861034Y-118870500D01*
X121919999Y-118875659D01*
X121920000Y-118875659D01*
X121920001Y-118875659D01*
X121978966Y-118870500D01*
X122155408Y-118855063D01*
X122383663Y-118793903D01*
X122597830Y-118694035D01*
X122791401Y-118558495D01*
X122958495Y-118391401D01*
X123094035Y-118197830D01*
X123193903Y-117983663D01*
X123255063Y-117755408D01*
X123275659Y-117520000D01*
X123255063Y-117284592D01*
X123193903Y-117056337D01*
X123094035Y-116842171D01*
X123088731Y-116834595D01*
X122958494Y-116648597D01*
X122932032Y-116622135D01*
X133249500Y-116622135D01*
X133249500Y-118417870D01*
X133249501Y-118417876D01*
X133255908Y-118477483D01*
X133306202Y-118612328D01*
X133306206Y-118612335D01*
X133392452Y-118727544D01*
X133392455Y-118727547D01*
X133507664Y-118813793D01*
X133507671Y-118813797D01*
X133642517Y-118864091D01*
X133642516Y-118864091D01*
X133649444Y-118864835D01*
X133702127Y-118870500D01*
X135497872Y-118870499D01*
X135557483Y-118864091D01*
X135692331Y-118813796D01*
X135807546Y-118727546D01*
X135893796Y-118612331D01*
X135942810Y-118480916D01*
X135984681Y-118424984D01*
X136050145Y-118400566D01*
X136118418Y-118415417D01*
X136146673Y-118436569D01*
X136268599Y-118558495D01*
X136365384Y-118626265D01*
X136462165Y-118694032D01*
X136462167Y-118694033D01*
X136462170Y-118694035D01*
X136676337Y-118793903D01*
X136904592Y-118855063D01*
X137081034Y-118870500D01*
X137139999Y-118875659D01*
X137140000Y-118875659D01*
X137140001Y-118875659D01*
X137198966Y-118870500D01*
X137375408Y-118855063D01*
X137603663Y-118793903D01*
X137817830Y-118694035D01*
X138011401Y-118558495D01*
X138178495Y-118391401D01*
X138308425Y-118205842D01*
X138363002Y-118162217D01*
X138432500Y-118155023D01*
X138494855Y-118186546D01*
X138511575Y-118205842D01*
X138641500Y-118391395D01*
X138641505Y-118391401D01*
X138808599Y-118558495D01*
X138905384Y-118626265D01*
X139002165Y-118694032D01*
X139002167Y-118694033D01*
X139002170Y-118694035D01*
X139216337Y-118793903D01*
X139444592Y-118855063D01*
X139621034Y-118870500D01*
X139679999Y-118875659D01*
X139680000Y-118875659D01*
X139680001Y-118875659D01*
X139738966Y-118870500D01*
X139915408Y-118855063D01*
X140143663Y-118793903D01*
X140357830Y-118694035D01*
X140551401Y-118558495D01*
X140718495Y-118391401D01*
X140848425Y-118205842D01*
X140903002Y-118162217D01*
X140972500Y-118155023D01*
X141034855Y-118186546D01*
X141051575Y-118205842D01*
X141181500Y-118391395D01*
X141181505Y-118391401D01*
X141348599Y-118558495D01*
X141445384Y-118626265D01*
X141542165Y-118694032D01*
X141542167Y-118694033D01*
X141542170Y-118694035D01*
X141756337Y-118793903D01*
X141984592Y-118855063D01*
X142161034Y-118870500D01*
X142219999Y-118875659D01*
X142220000Y-118875659D01*
X142220001Y-118875659D01*
X142278966Y-118870500D01*
X142455408Y-118855063D01*
X142683663Y-118793903D01*
X142897830Y-118694035D01*
X143091401Y-118558495D01*
X143258495Y-118391401D01*
X143388730Y-118205405D01*
X143443307Y-118161781D01*
X143512805Y-118154587D01*
X143575160Y-118186110D01*
X143591879Y-118205405D01*
X143721890Y-118391078D01*
X143888917Y-118558105D01*
X144082421Y-118693600D01*
X144296507Y-118793429D01*
X144296516Y-118793433D01*
X144510000Y-118850634D01*
X144510000Y-117953012D01*
X144567007Y-117985925D01*
X144694174Y-118020000D01*
X144825826Y-118020000D01*
X144952993Y-117985925D01*
X145010000Y-117953012D01*
X145010000Y-118850633D01*
X145223483Y-118793433D01*
X145223492Y-118793429D01*
X145437578Y-118693600D01*
X145631082Y-118558105D01*
X145798105Y-118391082D01*
X145933600Y-118197578D01*
X146033429Y-117983492D01*
X146033432Y-117983486D01*
X146090636Y-117770000D01*
X145193012Y-117770000D01*
X145225925Y-117712993D01*
X145260000Y-117585826D01*
X145260000Y-117454174D01*
X145225925Y-117327007D01*
X145193012Y-117270000D01*
X146090636Y-117270000D01*
X146090635Y-117269999D01*
X146033432Y-117056513D01*
X146033429Y-117056507D01*
X145933600Y-116842422D01*
X145933599Y-116842420D01*
X145798113Y-116648926D01*
X145798108Y-116648920D01*
X145631082Y-116481894D01*
X145437578Y-116346399D01*
X145223492Y-116246570D01*
X145223486Y-116246567D01*
X145010000Y-116189364D01*
X145010000Y-117086988D01*
X144952993Y-117054075D01*
X144825826Y-117020000D01*
X144694174Y-117020000D01*
X144567007Y-117054075D01*
X144510000Y-117086988D01*
X144510000Y-116189364D01*
X144509999Y-116189364D01*
X144296513Y-116246567D01*
X144296507Y-116246570D01*
X144082422Y-116346399D01*
X144082420Y-116346400D01*
X143888926Y-116481886D01*
X143888920Y-116481891D01*
X143721891Y-116648920D01*
X143721890Y-116648922D01*
X143591880Y-116834595D01*
X143537303Y-116878219D01*
X143467804Y-116885412D01*
X143405450Y-116853890D01*
X143388730Y-116834594D01*
X143258494Y-116648597D01*
X143091402Y-116481506D01*
X143091395Y-116481501D01*
X142897834Y-116345967D01*
X142897830Y-116345965D01*
X142897828Y-116345964D01*
X142683663Y-116246097D01*
X142683659Y-116246096D01*
X142683655Y-116246094D01*
X142455413Y-116184938D01*
X142455403Y-116184936D01*
X142220001Y-116164341D01*
X142219999Y-116164341D01*
X141984596Y-116184936D01*
X141984586Y-116184938D01*
X141756344Y-116246094D01*
X141756335Y-116246098D01*
X141542171Y-116345964D01*
X141542169Y-116345965D01*
X141348597Y-116481505D01*
X141181505Y-116648597D01*
X141051575Y-116834158D01*
X140996998Y-116877783D01*
X140927500Y-116884977D01*
X140865145Y-116853454D01*
X140848425Y-116834158D01*
X140718494Y-116648597D01*
X140551402Y-116481506D01*
X140551395Y-116481501D01*
X140357834Y-116345967D01*
X140357830Y-116345965D01*
X140357828Y-116345964D01*
X140143663Y-116246097D01*
X140143659Y-116246096D01*
X140143655Y-116246094D01*
X139915413Y-116184938D01*
X139915403Y-116184936D01*
X139680001Y-116164341D01*
X139679999Y-116164341D01*
X139444596Y-116184936D01*
X139444586Y-116184938D01*
X139216344Y-116246094D01*
X139216335Y-116246098D01*
X139002171Y-116345964D01*
X139002169Y-116345965D01*
X138808597Y-116481505D01*
X138641505Y-116648597D01*
X138511575Y-116834158D01*
X138456998Y-116877783D01*
X138387500Y-116884977D01*
X138325145Y-116853454D01*
X138308425Y-116834158D01*
X138178494Y-116648597D01*
X138011402Y-116481506D01*
X138011395Y-116481501D01*
X137817834Y-116345967D01*
X137817830Y-116345965D01*
X137817828Y-116345964D01*
X137603663Y-116246097D01*
X137603659Y-116246096D01*
X137603655Y-116246094D01*
X137375413Y-116184938D01*
X137375403Y-116184936D01*
X137140001Y-116164341D01*
X137139999Y-116164341D01*
X136904596Y-116184936D01*
X136904586Y-116184938D01*
X136676344Y-116246094D01*
X136676335Y-116246098D01*
X136462171Y-116345964D01*
X136462169Y-116345965D01*
X136268600Y-116481503D01*
X136146673Y-116603430D01*
X136085350Y-116636914D01*
X136015658Y-116631930D01*
X135959725Y-116590058D01*
X135942810Y-116559081D01*
X135893797Y-116427671D01*
X135893793Y-116427664D01*
X135807547Y-116312455D01*
X135807544Y-116312452D01*
X135692335Y-116226206D01*
X135692328Y-116226202D01*
X135557482Y-116175908D01*
X135557483Y-116175908D01*
X135497883Y-116169501D01*
X135497881Y-116169500D01*
X135497873Y-116169500D01*
X135497864Y-116169500D01*
X133702129Y-116169500D01*
X133702123Y-116169501D01*
X133642516Y-116175908D01*
X133507671Y-116226202D01*
X133507664Y-116226206D01*
X133392455Y-116312452D01*
X133392452Y-116312455D01*
X133306206Y-116427664D01*
X133306202Y-116427671D01*
X133255908Y-116562517D01*
X133249501Y-116622116D01*
X133249500Y-116622135D01*
X122932032Y-116622135D01*
X122791402Y-116481506D01*
X122791395Y-116481501D01*
X122597834Y-116345967D01*
X122597830Y-116345965D01*
X122597828Y-116345964D01*
X122383663Y-116246097D01*
X122383659Y-116246096D01*
X122383655Y-116246094D01*
X122155413Y-116184938D01*
X122155403Y-116184936D01*
X121920001Y-116164341D01*
X121919999Y-116164341D01*
X121684596Y-116184936D01*
X121684586Y-116184938D01*
X121456344Y-116246094D01*
X121456335Y-116246098D01*
X121242171Y-116345964D01*
X121242169Y-116345965D01*
X121048597Y-116481505D01*
X120881505Y-116648597D01*
X120751575Y-116834158D01*
X120696998Y-116877783D01*
X120627500Y-116884977D01*
X120565145Y-116853454D01*
X120548425Y-116834158D01*
X120418494Y-116648597D01*
X120251402Y-116481506D01*
X120251395Y-116481501D01*
X120057834Y-116345967D01*
X120057830Y-116345965D01*
X120057828Y-116345964D01*
X119843663Y-116246097D01*
X119843659Y-116246096D01*
X119843655Y-116246094D01*
X119615413Y-116184938D01*
X119615403Y-116184936D01*
X119380001Y-116164341D01*
X119379999Y-116164341D01*
X119144596Y-116184936D01*
X119144586Y-116184938D01*
X118916344Y-116246094D01*
X118916335Y-116246098D01*
X118702171Y-116345964D01*
X118702169Y-116345965D01*
X118508597Y-116481505D01*
X118341505Y-116648597D01*
X118211575Y-116834158D01*
X118156998Y-116877783D01*
X118087500Y-116884977D01*
X118025145Y-116853454D01*
X118008425Y-116834158D01*
X117878494Y-116648597D01*
X117711402Y-116481506D01*
X117711395Y-116481501D01*
X117517834Y-116345967D01*
X117517830Y-116345965D01*
X117517828Y-116345964D01*
X117303663Y-116246097D01*
X117303659Y-116246096D01*
X117303655Y-116246094D01*
X117075413Y-116184938D01*
X117075403Y-116184936D01*
X116840001Y-116164341D01*
X116839999Y-116164341D01*
X116604596Y-116184936D01*
X116604586Y-116184938D01*
X116376344Y-116246094D01*
X116376335Y-116246098D01*
X116162171Y-116345964D01*
X116162169Y-116345965D01*
X115968597Y-116481505D01*
X115801505Y-116648597D01*
X115671575Y-116834158D01*
X115616998Y-116877783D01*
X115547500Y-116884977D01*
X115485145Y-116853454D01*
X115468425Y-116834158D01*
X115338494Y-116648597D01*
X115171402Y-116481506D01*
X115171395Y-116481501D01*
X114977834Y-116345967D01*
X114977830Y-116345965D01*
X114977828Y-116345964D01*
X114763663Y-116246097D01*
X114763659Y-116246096D01*
X114763655Y-116246094D01*
X114535413Y-116184938D01*
X114535403Y-116184936D01*
X114300001Y-116164341D01*
X114299999Y-116164341D01*
X114064596Y-116184936D01*
X114064586Y-116184938D01*
X113836344Y-116246094D01*
X113836335Y-116246098D01*
X113622171Y-116345964D01*
X113622169Y-116345965D01*
X113428597Y-116481505D01*
X113261505Y-116648597D01*
X113131575Y-116834158D01*
X113076998Y-116877783D01*
X113007500Y-116884977D01*
X112945145Y-116853454D01*
X112928425Y-116834158D01*
X112798494Y-116648597D01*
X112631402Y-116481506D01*
X112631395Y-116481501D01*
X112437834Y-116345967D01*
X112437830Y-116345965D01*
X112437828Y-116345964D01*
X112223663Y-116246097D01*
X112223659Y-116246096D01*
X112223655Y-116246094D01*
X111995413Y-116184938D01*
X111995403Y-116184936D01*
X111760001Y-116164341D01*
X111759999Y-116164341D01*
X111524596Y-116184936D01*
X111524586Y-116184938D01*
X111296344Y-116246094D01*
X111296335Y-116246098D01*
X111082171Y-116345964D01*
X111082169Y-116345965D01*
X110888597Y-116481505D01*
X110721505Y-116648597D01*
X110591575Y-116834158D01*
X110536998Y-116877783D01*
X110467500Y-116884977D01*
X110405145Y-116853454D01*
X110388425Y-116834158D01*
X110258494Y-116648597D01*
X110091402Y-116481506D01*
X110091395Y-116481501D01*
X109897834Y-116345967D01*
X109897830Y-116345965D01*
X109897828Y-116345964D01*
X109683663Y-116246097D01*
X109683659Y-116246096D01*
X109683655Y-116246094D01*
X109455413Y-116184938D01*
X109455403Y-116184936D01*
X109220001Y-116164341D01*
X109219999Y-116164341D01*
X108984596Y-116184936D01*
X108984586Y-116184938D01*
X108756344Y-116246094D01*
X108756335Y-116246098D01*
X108542171Y-116345964D01*
X108542169Y-116345965D01*
X108348597Y-116481505D01*
X108181505Y-116648597D01*
X108051575Y-116834158D01*
X107996998Y-116877783D01*
X107927500Y-116884977D01*
X107865145Y-116853454D01*
X107848425Y-116834158D01*
X107718494Y-116648597D01*
X107551402Y-116481506D01*
X107551395Y-116481501D01*
X107357834Y-116345967D01*
X107357830Y-116345965D01*
X107357828Y-116345964D01*
X107143663Y-116246097D01*
X107143659Y-116246096D01*
X107143655Y-116246094D01*
X106915413Y-116184938D01*
X106915403Y-116184936D01*
X106680001Y-116164341D01*
X106679999Y-116164341D01*
X106444596Y-116184936D01*
X106444586Y-116184938D01*
X106216344Y-116246094D01*
X106216335Y-116246098D01*
X106002171Y-116345964D01*
X106002169Y-116345965D01*
X105808600Y-116481503D01*
X105686673Y-116603430D01*
X105625350Y-116636914D01*
X105555658Y-116631930D01*
X105499725Y-116590058D01*
X105482810Y-116559081D01*
X105433797Y-116427671D01*
X105433793Y-116427664D01*
X105347547Y-116312455D01*
X105347544Y-116312452D01*
X105232335Y-116226206D01*
X105232328Y-116226202D01*
X105097482Y-116175908D01*
X105097483Y-116175908D01*
X105037883Y-116169501D01*
X105037881Y-116169500D01*
X105037873Y-116169500D01*
X105037864Y-116169500D01*
X103242129Y-116169500D01*
X103242123Y-116169501D01*
X103182516Y-116175908D01*
X103047671Y-116226202D01*
X103047664Y-116226206D01*
X102932455Y-116312452D01*
X102932452Y-116312455D01*
X102846206Y-116427664D01*
X102846202Y-116427671D01*
X102795908Y-116562517D01*
X102789501Y-116622116D01*
X102789500Y-116622135D01*
X94992032Y-116622135D01*
X94851402Y-116481506D01*
X94851395Y-116481501D01*
X94657834Y-116345967D01*
X94657830Y-116345965D01*
X94657828Y-116345964D01*
X94443663Y-116246097D01*
X94443659Y-116246096D01*
X94443655Y-116246094D01*
X94215413Y-116184938D01*
X94215403Y-116184936D01*
X93980001Y-116164341D01*
X93979999Y-116164341D01*
X93744596Y-116184936D01*
X93744586Y-116184938D01*
X93516344Y-116246094D01*
X93516335Y-116246098D01*
X93302171Y-116345964D01*
X93302169Y-116345965D01*
X93108600Y-116481503D01*
X92986673Y-116603430D01*
X92925350Y-116636914D01*
X92855658Y-116631930D01*
X92799725Y-116590058D01*
X92782810Y-116559081D01*
X92733797Y-116427671D01*
X92733793Y-116427664D01*
X92647547Y-116312455D01*
X92647544Y-116312452D01*
X92532335Y-116226206D01*
X92532328Y-116226202D01*
X92397482Y-116175908D01*
X92397483Y-116175908D01*
X92337883Y-116169501D01*
X92337881Y-116169500D01*
X92337873Y-116169500D01*
X92337864Y-116169500D01*
X90542129Y-116169500D01*
X90542123Y-116169501D01*
X90482516Y-116175908D01*
X90347671Y-116226202D01*
X90347664Y-116226206D01*
X90232455Y-116312452D01*
X90232452Y-116312455D01*
X90146206Y-116427664D01*
X90146202Y-116427671D01*
X90095908Y-116562517D01*
X90089501Y-116622116D01*
X90089500Y-116622135D01*
X84500500Y-116622135D01*
X84500500Y-113490135D01*
X102877500Y-113490135D01*
X102877500Y-115109870D01*
X102877501Y-115109876D01*
X102883908Y-115169483D01*
X102934202Y-115304328D01*
X102934206Y-115304335D01*
X103020452Y-115419544D01*
X103020455Y-115419547D01*
X103135664Y-115505793D01*
X103135671Y-115505797D01*
X103270517Y-115556091D01*
X103270516Y-115556091D01*
X103277444Y-115556835D01*
X103330127Y-115562500D01*
X104949872Y-115562499D01*
X105009483Y-115556091D01*
X105144331Y-115505796D01*
X105259546Y-115419546D01*
X105345796Y-115304331D01*
X105396091Y-115169483D01*
X105402500Y-115109873D01*
X105402499Y-115069920D01*
X105422182Y-115002884D01*
X105474985Y-114957128D01*
X105544143Y-114947183D01*
X105607700Y-114976206D01*
X105628073Y-114998796D01*
X105709174Y-115114620D01*
X105709175Y-115114621D01*
X105865378Y-115270824D01*
X105865384Y-115270829D01*
X106046333Y-115397531D01*
X106046335Y-115397532D01*
X106046338Y-115397534D01*
X106246550Y-115490894D01*
X106459932Y-115548070D01*
X106617123Y-115561822D01*
X106679998Y-115567323D01*
X106680000Y-115567323D01*
X106680002Y-115567323D01*
X106735151Y-115562498D01*
X106900068Y-115548070D01*
X107113450Y-115490894D01*
X107313662Y-115397534D01*
X107494620Y-115270826D01*
X107650826Y-115114620D01*
X107777534Y-114933662D01*
X107837618Y-114804811D01*
X107883790Y-114752371D01*
X107950983Y-114733219D01*
X108017865Y-114753435D01*
X108062382Y-114804811D01*
X108122464Y-114933658D01*
X108122468Y-114933666D01*
X108249170Y-115114615D01*
X108249175Y-115114621D01*
X108405378Y-115270824D01*
X108405384Y-115270829D01*
X108586333Y-115397531D01*
X108586335Y-115397532D01*
X108586338Y-115397534D01*
X108786550Y-115490894D01*
X108999932Y-115548070D01*
X109157123Y-115561822D01*
X109219998Y-115567323D01*
X109220000Y-115567323D01*
X109220002Y-115567323D01*
X109275151Y-115562498D01*
X109440068Y-115548070D01*
X109653450Y-115490894D01*
X109853662Y-115397534D01*
X110034620Y-115270826D01*
X110190826Y-115114620D01*
X110317534Y-114933662D01*
X110377618Y-114804811D01*
X110423790Y-114752371D01*
X110490983Y-114733219D01*
X110557865Y-114753435D01*
X110602382Y-114804811D01*
X110662464Y-114933658D01*
X110662468Y-114933666D01*
X110789170Y-115114615D01*
X110789175Y-115114621D01*
X110945378Y-115270824D01*
X110945384Y-115270829D01*
X111126333Y-115397531D01*
X111126335Y-115397532D01*
X111126338Y-115397534D01*
X111326550Y-115490894D01*
X111539932Y-115548070D01*
X111697123Y-115561822D01*
X111759998Y-115567323D01*
X111760000Y-115567323D01*
X111760002Y-115567323D01*
X111815151Y-115562498D01*
X111980068Y-115548070D01*
X112193450Y-115490894D01*
X112393662Y-115397534D01*
X112574620Y-115270826D01*
X112730826Y-115114620D01*
X112857534Y-114933662D01*
X112917618Y-114804811D01*
X112963790Y-114752371D01*
X113030983Y-114733219D01*
X113097865Y-114753435D01*
X113142382Y-114804811D01*
X113202464Y-114933658D01*
X113202468Y-114933666D01*
X113329170Y-115114615D01*
X113329175Y-115114621D01*
X113485378Y-115270824D01*
X113485384Y-115270829D01*
X113666333Y-115397531D01*
X113666335Y-115397532D01*
X113666338Y-115397534D01*
X113866550Y-115490894D01*
X114079932Y-115548070D01*
X114237123Y-115561822D01*
X114299998Y-115567323D01*
X114300000Y-115567323D01*
X114300002Y-115567323D01*
X114355151Y-115562498D01*
X114520068Y-115548070D01*
X114733450Y-115490894D01*
X114933662Y-115397534D01*
X115114620Y-115270826D01*
X115270826Y-115114620D01*
X115397534Y-114933662D01*
X115457618Y-114804811D01*
X115503790Y-114752371D01*
X115570983Y-114733219D01*
X115637865Y-114753435D01*
X115682382Y-114804811D01*
X115742464Y-114933658D01*
X115742468Y-114933666D01*
X115869170Y-115114615D01*
X115869175Y-115114621D01*
X116025378Y-115270824D01*
X116025384Y-115270829D01*
X116206333Y-115397531D01*
X116206335Y-115397532D01*
X116206338Y-115397534D01*
X116406550Y-115490894D01*
X116619932Y-115548070D01*
X116777123Y-115561822D01*
X116839998Y-115567323D01*
X116840000Y-115567323D01*
X116840002Y-115567323D01*
X116895151Y-115562498D01*
X117060068Y-115548070D01*
X117273450Y-115490894D01*
X117473662Y-115397534D01*
X117654620Y-115270826D01*
X117810826Y-115114620D01*
X117937534Y-114933662D01*
X117997618Y-114804811D01*
X118043790Y-114752371D01*
X118110983Y-114733219D01*
X118177865Y-114753435D01*
X118222382Y-114804811D01*
X118282464Y-114933658D01*
X118282468Y-114933666D01*
X118409170Y-115114615D01*
X118409175Y-115114621D01*
X118565378Y-115270824D01*
X118565384Y-115270829D01*
X118746333Y-115397531D01*
X118746335Y-115397532D01*
X118746338Y-115397534D01*
X118946550Y-115490894D01*
X119159932Y-115548070D01*
X119317123Y-115561822D01*
X119379998Y-115567323D01*
X119380000Y-115567323D01*
X119380002Y-115567323D01*
X119435151Y-115562498D01*
X119600068Y-115548070D01*
X119813450Y-115490894D01*
X120013662Y-115397534D01*
X120194620Y-115270826D01*
X120350826Y-115114620D01*
X120477534Y-114933662D01*
X120537618Y-114804811D01*
X120583790Y-114752371D01*
X120650983Y-114733219D01*
X120717865Y-114753435D01*
X120762382Y-114804811D01*
X120822464Y-114933658D01*
X120822468Y-114933666D01*
X120949170Y-115114615D01*
X120949175Y-115114621D01*
X121105378Y-115270824D01*
X121105384Y-115270829D01*
X121286333Y-115397531D01*
X121286335Y-115397532D01*
X121286338Y-115397534D01*
X121486550Y-115490894D01*
X121699932Y-115548070D01*
X121857123Y-115561822D01*
X121919998Y-115567323D01*
X121920000Y-115567323D01*
X121920002Y-115567323D01*
X121975151Y-115562498D01*
X122140068Y-115548070D01*
X122353450Y-115490894D01*
X122553662Y-115397534D01*
X122734620Y-115270826D01*
X122890826Y-115114620D01*
X123017534Y-114933662D01*
X123110894Y-114733450D01*
X123168070Y-114520068D01*
X123187323Y-114300000D01*
X123168070Y-114079932D01*
X123110894Y-113866550D01*
X123017534Y-113666339D01*
X122922125Y-113530080D01*
X122890827Y-113485381D01*
X122835962Y-113430516D01*
X122734620Y-113329174D01*
X122734616Y-113329171D01*
X122734615Y-113329170D01*
X122553666Y-113202468D01*
X122553662Y-113202466D01*
X122506457Y-113180454D01*
X122353450Y-113109106D01*
X122353447Y-113109105D01*
X122353445Y-113109104D01*
X122140070Y-113051930D01*
X122140062Y-113051929D01*
X121920002Y-113032677D01*
X121919998Y-113032677D01*
X121699937Y-113051929D01*
X121699929Y-113051930D01*
X121486554Y-113109104D01*
X121486548Y-113109107D01*
X121286340Y-113202465D01*
X121286338Y-113202466D01*
X121105377Y-113329175D01*
X120949175Y-113485377D01*
X120822466Y-113666338D01*
X120822465Y-113666340D01*
X120762382Y-113795189D01*
X120716209Y-113847628D01*
X120649016Y-113866780D01*
X120582135Y-113846564D01*
X120537618Y-113795189D01*
X120477534Y-113666340D01*
X120477533Y-113666338D01*
X120350827Y-113485381D01*
X120295962Y-113430516D01*
X120194620Y-113329174D01*
X120194616Y-113329171D01*
X120194615Y-113329170D01*
X120013666Y-113202468D01*
X120013662Y-113202466D01*
X119966457Y-113180454D01*
X119813450Y-113109106D01*
X119813447Y-113109105D01*
X119813445Y-113109104D01*
X119600070Y-113051930D01*
X119600062Y-113051929D01*
X119380002Y-113032677D01*
X119379998Y-113032677D01*
X119159937Y-113051929D01*
X119159929Y-113051930D01*
X118946554Y-113109104D01*
X118946548Y-113109107D01*
X118746340Y-113202465D01*
X118746338Y-113202466D01*
X118565377Y-113329175D01*
X118409175Y-113485377D01*
X118282466Y-113666338D01*
X118282465Y-113666340D01*
X118222382Y-113795189D01*
X118176209Y-113847628D01*
X118109016Y-113866780D01*
X118042135Y-113846564D01*
X117997618Y-113795189D01*
X117937534Y-113666340D01*
X117937533Y-113666338D01*
X117810827Y-113485381D01*
X117755962Y-113430516D01*
X117654620Y-113329174D01*
X117654616Y-113329171D01*
X117654615Y-113329170D01*
X117473666Y-113202468D01*
X117473662Y-113202466D01*
X117426457Y-113180454D01*
X117273450Y-113109106D01*
X117273447Y-113109105D01*
X117273445Y-113109104D01*
X117060070Y-113051930D01*
X117060062Y-113051929D01*
X116840002Y-113032677D01*
X116839998Y-113032677D01*
X116619937Y-113051929D01*
X116619929Y-113051930D01*
X116406554Y-113109104D01*
X116406548Y-113109107D01*
X116206340Y-113202465D01*
X116206338Y-113202466D01*
X116025377Y-113329175D01*
X115869175Y-113485377D01*
X115742466Y-113666338D01*
X115742465Y-113666340D01*
X115682382Y-113795189D01*
X115636209Y-113847628D01*
X115569016Y-113866780D01*
X115502135Y-113846564D01*
X115457618Y-113795189D01*
X115397534Y-113666340D01*
X115397533Y-113666338D01*
X115270827Y-113485381D01*
X115215962Y-113430516D01*
X115114620Y-113329174D01*
X115114616Y-113329171D01*
X115114615Y-113329170D01*
X114933666Y-113202468D01*
X114933662Y-113202466D01*
X114886457Y-113180454D01*
X114733450Y-113109106D01*
X114733447Y-113109105D01*
X114733445Y-113109104D01*
X114520070Y-113051930D01*
X114520062Y-113051929D01*
X114300002Y-113032677D01*
X114299998Y-113032677D01*
X114079937Y-113051929D01*
X114079929Y-113051930D01*
X113866554Y-113109104D01*
X113866548Y-113109107D01*
X113666340Y-113202465D01*
X113666338Y-113202466D01*
X113485377Y-113329175D01*
X113329175Y-113485377D01*
X113202466Y-113666338D01*
X113202465Y-113666340D01*
X113142382Y-113795189D01*
X113096209Y-113847628D01*
X113029016Y-113866780D01*
X112962135Y-113846564D01*
X112917618Y-113795189D01*
X112857534Y-113666340D01*
X112857533Y-113666338D01*
X112730827Y-113485381D01*
X112675962Y-113430516D01*
X112574620Y-113329174D01*
X112574616Y-113329171D01*
X112574615Y-113329170D01*
X112393666Y-113202468D01*
X112393662Y-113202466D01*
X112346457Y-113180454D01*
X112193450Y-113109106D01*
X112193447Y-113109105D01*
X112193445Y-113109104D01*
X111980070Y-113051930D01*
X111980062Y-113051929D01*
X111760002Y-113032677D01*
X111759998Y-113032677D01*
X111539937Y-113051929D01*
X111539929Y-113051930D01*
X111326554Y-113109104D01*
X111326548Y-113109107D01*
X111126340Y-113202465D01*
X111126338Y-113202466D01*
X110945377Y-113329175D01*
X110789175Y-113485377D01*
X110662466Y-113666338D01*
X110662465Y-113666340D01*
X110602382Y-113795189D01*
X110556209Y-113847628D01*
X110489016Y-113866780D01*
X110422135Y-113846564D01*
X110377618Y-113795189D01*
X110317534Y-113666340D01*
X110317533Y-113666338D01*
X110190827Y-113485381D01*
X110135962Y-113430516D01*
X110034620Y-113329174D01*
X110034616Y-113329171D01*
X110034615Y-113329170D01*
X109853666Y-113202468D01*
X109853662Y-113202466D01*
X109806457Y-113180454D01*
X109653450Y-113109106D01*
X109653447Y-113109105D01*
X109653445Y-113109104D01*
X109440070Y-113051930D01*
X109440062Y-113051929D01*
X109220002Y-113032677D01*
X109219998Y-113032677D01*
X108999937Y-113051929D01*
X108999929Y-113051930D01*
X108786554Y-113109104D01*
X108786548Y-113109107D01*
X108586340Y-113202465D01*
X108586338Y-113202466D01*
X108405377Y-113329175D01*
X108249175Y-113485377D01*
X108122466Y-113666338D01*
X108122465Y-113666340D01*
X108062382Y-113795189D01*
X108016209Y-113847628D01*
X107949016Y-113866780D01*
X107882135Y-113846564D01*
X107837618Y-113795189D01*
X107777534Y-113666340D01*
X107777533Y-113666338D01*
X107650827Y-113485381D01*
X107595962Y-113430516D01*
X107494620Y-113329174D01*
X107494616Y-113329171D01*
X107494615Y-113329170D01*
X107313666Y-113202468D01*
X107313662Y-113202466D01*
X107266457Y-113180454D01*
X107113450Y-113109106D01*
X107113447Y-113109105D01*
X107113445Y-113109104D01*
X106900070Y-113051930D01*
X106900062Y-113051929D01*
X106680002Y-113032677D01*
X106679998Y-113032677D01*
X106459937Y-113051929D01*
X106459929Y-113051930D01*
X106246554Y-113109104D01*
X106246548Y-113109107D01*
X106046340Y-113202465D01*
X106046338Y-113202466D01*
X105865377Y-113329175D01*
X105709175Y-113485377D01*
X105628074Y-113601203D01*
X105573497Y-113644828D01*
X105503999Y-113652022D01*
X105441644Y-113620499D01*
X105406230Y-113560270D01*
X105402499Y-113530080D01*
X105402499Y-113490129D01*
X105402498Y-113490123D01*
X105402497Y-113490116D01*
X105396091Y-113430517D01*
X105345796Y-113295669D01*
X105345795Y-113295668D01*
X105345793Y-113295664D01*
X105259547Y-113180455D01*
X105259544Y-113180452D01*
X105144335Y-113094206D01*
X105144328Y-113094202D01*
X105009482Y-113043908D01*
X105009483Y-113043908D01*
X104949883Y-113037501D01*
X104949881Y-113037500D01*
X104949873Y-113037500D01*
X104949864Y-113037500D01*
X103330129Y-113037500D01*
X103330123Y-113037501D01*
X103270516Y-113043908D01*
X103135671Y-113094202D01*
X103135664Y-113094206D01*
X103020455Y-113180452D01*
X103020452Y-113180455D01*
X102934206Y-113295664D01*
X102934202Y-113295671D01*
X102883908Y-113430517D01*
X102878010Y-113485380D01*
X102877501Y-113490123D01*
X102877500Y-113490135D01*
X84500500Y-113490135D01*
X84500500Y-110388992D01*
X87649500Y-110388992D01*
X87649500Y-110591007D01*
X87688907Y-110789119D01*
X87688909Y-110789127D01*
X87722325Y-110869800D01*
X87729794Y-110939270D01*
X87710038Y-110984660D01*
X87710454Y-110984887D01*
X87707919Y-110989528D01*
X87707037Y-110991556D01*
X87706206Y-110992665D01*
X87706202Y-110992672D01*
X87655908Y-111127517D01*
X87649501Y-111187116D01*
X87649501Y-111187123D01*
X87649500Y-111187135D01*
X87649500Y-112332870D01*
X87649501Y-112332876D01*
X87655908Y-112392483D01*
X87706202Y-112527328D01*
X87706206Y-112527335D01*
X87792452Y-112642544D01*
X87792455Y-112642547D01*
X87907664Y-112728793D01*
X87907671Y-112728797D01*
X88042517Y-112779091D01*
X88042516Y-112779091D01*
X88049444Y-112779835D01*
X88102127Y-112785500D01*
X89697872Y-112785499D01*
X89757483Y-112779091D01*
X89892331Y-112728796D01*
X90007546Y-112642546D01*
X90093796Y-112527331D01*
X90144091Y-112392483D01*
X90150500Y-112332873D01*
X90150499Y-111187128D01*
X90144091Y-111127517D01*
X90093796Y-110992669D01*
X90092967Y-110991562D01*
X90092485Y-110990268D01*
X90089546Y-110984886D01*
X90090319Y-110984463D01*
X90068551Y-110926099D01*
X90077675Y-110869798D01*
X90111089Y-110789132D01*
X90111089Y-110789131D01*
X90111091Y-110789127D01*
X90150500Y-110591003D01*
X90150500Y-110388997D01*
X90111091Y-110190873D01*
X90033786Y-110004244D01*
X89979794Y-109923439D01*
X89958917Y-109856764D01*
X89977401Y-109789384D01*
X89979796Y-109785658D01*
X90033344Y-109705518D01*
X90033346Y-109705515D01*
X90110609Y-109518983D01*
X90110612Y-109518974D01*
X90120353Y-109470000D01*
X89265866Y-109470000D01*
X89241674Y-109467617D01*
X89226004Y-109464500D01*
X89226003Y-109464500D01*
X89185830Y-109464500D01*
X89200075Y-109450255D01*
X89249444Y-109364745D01*
X89275000Y-109269370D01*
X89275000Y-109170630D01*
X89249444Y-109075255D01*
X89200075Y-108989745D01*
X89180330Y-108970000D01*
X90120353Y-108970000D01*
X90110612Y-108921025D01*
X90110609Y-108921016D01*
X90033347Y-108734486D01*
X90033340Y-108734473D01*
X89921170Y-108566600D01*
X89921167Y-108566596D01*
X89778403Y-108423832D01*
X89778399Y-108423829D01*
X89610526Y-108311659D01*
X89610513Y-108311652D01*
X89423983Y-108234390D01*
X89423974Y-108234387D01*
X89225958Y-108195000D01*
X89150000Y-108195000D01*
X89150000Y-108939670D01*
X89130255Y-108919925D01*
X89044745Y-108870556D01*
X88949370Y-108845000D01*
X88850630Y-108845000D01*
X88755255Y-108870556D01*
X88669745Y-108919925D01*
X88650000Y-108939670D01*
X88650000Y-108195000D01*
X88574041Y-108195000D01*
X88376025Y-108234387D01*
X88376016Y-108234390D01*
X88189486Y-108311652D01*
X88189473Y-108311659D01*
X88021600Y-108423829D01*
X88021596Y-108423832D01*
X87878832Y-108566596D01*
X87878829Y-108566600D01*
X87766659Y-108734473D01*
X87766652Y-108734486D01*
X87689390Y-108921016D01*
X87689387Y-108921025D01*
X87679647Y-108970000D01*
X88619670Y-108970000D01*
X88599925Y-108989745D01*
X88550556Y-109075255D01*
X88525000Y-109170630D01*
X88525000Y-109269370D01*
X88550556Y-109364745D01*
X88599925Y-109450255D01*
X88614170Y-109464500D01*
X88573997Y-109464500D01*
X88573996Y-109464500D01*
X88558326Y-109467617D01*
X88534134Y-109470000D01*
X87679647Y-109470000D01*
X87689387Y-109518974D01*
X87689390Y-109518983D01*
X87766652Y-109705513D01*
X87766659Y-109705526D01*
X87820203Y-109785659D01*
X87841081Y-109852336D01*
X87822597Y-109919716D01*
X87820204Y-109923439D01*
X87766214Y-110004243D01*
X87688909Y-110190872D01*
X87688907Y-110190880D01*
X87649500Y-110388992D01*
X84500500Y-110388992D01*
X84500500Y-104139999D01*
X87694357Y-104139999D01*
X87694357Y-104140000D01*
X87714884Y-104361535D01*
X87714885Y-104361537D01*
X87775769Y-104575523D01*
X87775775Y-104575538D01*
X87874938Y-104774683D01*
X87874943Y-104774691D01*
X88009020Y-104952238D01*
X88173437Y-105102123D01*
X88173439Y-105102125D01*
X88362595Y-105219245D01*
X88362596Y-105219245D01*
X88362599Y-105219247D01*
X88570060Y-105299618D01*
X88788757Y-105340500D01*
X88788759Y-105340500D01*
X89011241Y-105340500D01*
X89011243Y-105340500D01*
X89179794Y-105308992D01*
X92729500Y-105308992D01*
X92729500Y-105511007D01*
X92768907Y-105709119D01*
X92768909Y-105709127D01*
X92802325Y-105789800D01*
X92809794Y-105859270D01*
X92790038Y-105904660D01*
X92790454Y-105904887D01*
X92787919Y-105909528D01*
X92787037Y-105911556D01*
X92786206Y-105912665D01*
X92786202Y-105912672D01*
X92735908Y-106047517D01*
X92729501Y-106107116D01*
X92729501Y-106107123D01*
X92729500Y-106107135D01*
X92729500Y-107252870D01*
X92729501Y-107252876D01*
X92735908Y-107312483D01*
X92786202Y-107447328D01*
X92786206Y-107447335D01*
X92872452Y-107562544D01*
X92872455Y-107562547D01*
X92987664Y-107648793D01*
X92987671Y-107648797D01*
X93122517Y-107699091D01*
X93122516Y-107699091D01*
X93129444Y-107699835D01*
X93182127Y-107705500D01*
X94777872Y-107705499D01*
X94837483Y-107699091D01*
X94972331Y-107648796D01*
X95087546Y-107562546D01*
X95173796Y-107447331D01*
X95224091Y-107312483D01*
X95230500Y-107252873D01*
X95230499Y-106679997D01*
X102872677Y-106679997D01*
X102872677Y-106680002D01*
X102891929Y-106900062D01*
X102891930Y-106900070D01*
X102949104Y-107113445D01*
X102949105Y-107113447D01*
X102949106Y-107113450D01*
X103041916Y-107312482D01*
X103042466Y-107313662D01*
X103042468Y-107313666D01*
X103169170Y-107494615D01*
X103169175Y-107494621D01*
X103325378Y-107650824D01*
X103325384Y-107650829D01*
X103506333Y-107777531D01*
X103506335Y-107777532D01*
X103506338Y-107777534D01*
X103706550Y-107870894D01*
X103919932Y-107928070D01*
X104077123Y-107941822D01*
X104139998Y-107947323D01*
X104140000Y-107947323D01*
X104140002Y-107947323D01*
X104195017Y-107942509D01*
X104360068Y-107928070D01*
X104573450Y-107870894D01*
X104773662Y-107777534D01*
X104954620Y-107650826D01*
X105110826Y-107494620D01*
X105237534Y-107313662D01*
X105297618Y-107184811D01*
X105343790Y-107132371D01*
X105410983Y-107113219D01*
X105477865Y-107133435D01*
X105522382Y-107184811D01*
X105582464Y-107313658D01*
X105582468Y-107313666D01*
X105709170Y-107494615D01*
X105709175Y-107494621D01*
X105865378Y-107650824D01*
X105865384Y-107650829D01*
X106046333Y-107777531D01*
X106046335Y-107777532D01*
X106046338Y-107777534D01*
X106246550Y-107870894D01*
X106459932Y-107928070D01*
X106617123Y-107941822D01*
X106679998Y-107947323D01*
X106680000Y-107947323D01*
X106680002Y-107947323D01*
X106735017Y-107942509D01*
X106900068Y-107928070D01*
X107113450Y-107870894D01*
X107313662Y-107777534D01*
X107494620Y-107650826D01*
X107650826Y-107494620D01*
X107777534Y-107313662D01*
X107837894Y-107184218D01*
X107884066Y-107131779D01*
X107951259Y-107112627D01*
X108018141Y-107132843D01*
X108062658Y-107184219D01*
X108122898Y-107313405D01*
X108122901Y-107313411D01*
X108168258Y-107378187D01*
X108168259Y-107378188D01*
X108813600Y-106732847D01*
X108813600Y-106733504D01*
X108841295Y-106836865D01*
X108894799Y-106929536D01*
X108970464Y-107005201D01*
X109063135Y-107058705D01*
X109166496Y-107086400D01*
X109167153Y-107086400D01*
X108521810Y-107731740D01*
X108586590Y-107777099D01*
X108586592Y-107777100D01*
X108786715Y-107870419D01*
X108786729Y-107870424D01*
X109000013Y-107927573D01*
X109000023Y-107927575D01*
X109219999Y-107946821D01*
X109220001Y-107946821D01*
X109439976Y-107927575D01*
X109439986Y-107927573D01*
X109653270Y-107870424D01*
X109653284Y-107870419D01*
X109853407Y-107777100D01*
X109853417Y-107777094D01*
X109918188Y-107731741D01*
X109272848Y-107086400D01*
X109273504Y-107086400D01*
X109376865Y-107058705D01*
X109469536Y-107005201D01*
X109545201Y-106929536D01*
X109598705Y-106836865D01*
X109626400Y-106733504D01*
X109626400Y-106732847D01*
X110271741Y-107378188D01*
X110317094Y-107313417D01*
X110317095Y-107313416D01*
X110377340Y-107184219D01*
X110423512Y-107131780D01*
X110490706Y-107112627D01*
X110557587Y-107132842D01*
X110602105Y-107184218D01*
X110662466Y-107313662D01*
X110662468Y-107313666D01*
X110789170Y-107494615D01*
X110789175Y-107494621D01*
X110945378Y-107650824D01*
X110945384Y-107650829D01*
X111126333Y-107777531D01*
X111126335Y-107777532D01*
X111126338Y-107777534D01*
X111326550Y-107870894D01*
X111539932Y-107928070D01*
X111697123Y-107941822D01*
X111759998Y-107947323D01*
X111760000Y-107947323D01*
X111760002Y-107947323D01*
X111815017Y-107942509D01*
X111980068Y-107928070D01*
X112193450Y-107870894D01*
X112393662Y-107777534D01*
X112574620Y-107650826D01*
X112730826Y-107494620D01*
X112857534Y-107313662D01*
X112917618Y-107184811D01*
X112963790Y-107132371D01*
X113030983Y-107113219D01*
X113097865Y-107133435D01*
X113142382Y-107184811D01*
X113202464Y-107313658D01*
X113202468Y-107313666D01*
X113329170Y-107494615D01*
X113329175Y-107494621D01*
X113485378Y-107650824D01*
X113485384Y-107650829D01*
X113666333Y-107777531D01*
X113666335Y-107777532D01*
X113666338Y-107777534D01*
X113866550Y-107870894D01*
X114079932Y-107928070D01*
X114237123Y-107941822D01*
X114299998Y-107947323D01*
X114300000Y-107947323D01*
X114300002Y-107947323D01*
X114355017Y-107942509D01*
X114520068Y-107928070D01*
X114733450Y-107870894D01*
X114933662Y-107777534D01*
X115114620Y-107650826D01*
X115270826Y-107494620D01*
X115397534Y-107313662D01*
X115457618Y-107184811D01*
X115503790Y-107132371D01*
X115570983Y-107113219D01*
X115637865Y-107133435D01*
X115682382Y-107184811D01*
X115742464Y-107313658D01*
X115742468Y-107313666D01*
X115869170Y-107494615D01*
X115869175Y-107494621D01*
X116025378Y-107650824D01*
X116025384Y-107650829D01*
X116206333Y-107777531D01*
X116206335Y-107777532D01*
X116206338Y-107777534D01*
X116406550Y-107870894D01*
X116619932Y-107928070D01*
X116777123Y-107941822D01*
X116839998Y-107947323D01*
X116840000Y-107947323D01*
X116840002Y-107947323D01*
X116895017Y-107942509D01*
X117060068Y-107928070D01*
X117273450Y-107870894D01*
X117473662Y-107777534D01*
X117654620Y-107650826D01*
X117810826Y-107494620D01*
X117937534Y-107313662D01*
X117997618Y-107184811D01*
X118043790Y-107132371D01*
X118110983Y-107113219D01*
X118177865Y-107133435D01*
X118222382Y-107184811D01*
X118282464Y-107313658D01*
X118282468Y-107313666D01*
X118409170Y-107494615D01*
X118409175Y-107494621D01*
X118565378Y-107650824D01*
X118565384Y-107650829D01*
X118746333Y-107777531D01*
X118746335Y-107777532D01*
X118746338Y-107777534D01*
X118946550Y-107870894D01*
X119159932Y-107928070D01*
X119317123Y-107941822D01*
X119379998Y-107947323D01*
X119380000Y-107947323D01*
X119380002Y-107947323D01*
X119435017Y-107942509D01*
X119600068Y-107928070D01*
X119813450Y-107870894D01*
X120013662Y-107777534D01*
X120194620Y-107650826D01*
X120350826Y-107494620D01*
X120477534Y-107313662D01*
X120537894Y-107184218D01*
X120584066Y-107131779D01*
X120651259Y-107112627D01*
X120718141Y-107132843D01*
X120762658Y-107184219D01*
X120822898Y-107313405D01*
X120822901Y-107313411D01*
X120868258Y-107378187D01*
X120868259Y-107378188D01*
X121513600Y-106732847D01*
X121513600Y-106733504D01*
X121541295Y-106836865D01*
X121594799Y-106929536D01*
X121670464Y-107005201D01*
X121763135Y-107058705D01*
X121866496Y-107086400D01*
X121867153Y-107086400D01*
X121221810Y-107731740D01*
X121286590Y-107777099D01*
X121286592Y-107777100D01*
X121486715Y-107870419D01*
X121486729Y-107870424D01*
X121700013Y-107927573D01*
X121700023Y-107927575D01*
X121919999Y-107946821D01*
X121920001Y-107946821D01*
X122139976Y-107927575D01*
X122139986Y-107927573D01*
X122353270Y-107870424D01*
X122353284Y-107870419D01*
X122553407Y-107777100D01*
X122553417Y-107777094D01*
X122618188Y-107731741D01*
X121972848Y-107086400D01*
X121973504Y-107086400D01*
X122076865Y-107058705D01*
X122169536Y-107005201D01*
X122245201Y-106929536D01*
X122298705Y-106836865D01*
X122326400Y-106733504D01*
X122326400Y-106732847D01*
X122971741Y-107378188D01*
X123017094Y-107313417D01*
X123017100Y-107313407D01*
X123110419Y-107113284D01*
X123110424Y-107113270D01*
X123167573Y-106899986D01*
X123167575Y-106899976D01*
X123186821Y-106680000D01*
X123186821Y-106679999D01*
X123167575Y-106460023D01*
X123167573Y-106460013D01*
X123110424Y-106246729D01*
X123110420Y-106246720D01*
X123017096Y-106046586D01*
X122971741Y-105981811D01*
X122971740Y-105981810D01*
X122326400Y-106627151D01*
X122326400Y-106626496D01*
X122298705Y-106523135D01*
X122245201Y-106430464D01*
X122169536Y-106354799D01*
X122076865Y-106301295D01*
X121973504Y-106273600D01*
X121972848Y-106273600D01*
X122618188Y-105628259D01*
X122618187Y-105628258D01*
X122553411Y-105582901D01*
X122553405Y-105582898D01*
X122353284Y-105489580D01*
X122353270Y-105489575D01*
X122139986Y-105432426D01*
X122139976Y-105432424D01*
X121920001Y-105413179D01*
X121919999Y-105413179D01*
X121700023Y-105432424D01*
X121700013Y-105432426D01*
X121486729Y-105489575D01*
X121486720Y-105489579D01*
X121286590Y-105582901D01*
X121221811Y-105628258D01*
X121867153Y-106273600D01*
X121866496Y-106273600D01*
X121763135Y-106301295D01*
X121670464Y-106354799D01*
X121594799Y-106430464D01*
X121541295Y-106523135D01*
X121513600Y-106626496D01*
X121513600Y-106627153D01*
X120868258Y-105981811D01*
X120822901Y-106046590D01*
X120762658Y-106175781D01*
X120716485Y-106228220D01*
X120649292Y-106247372D01*
X120582411Y-106227156D01*
X120537894Y-106175781D01*
X120522906Y-106143639D01*
X120477534Y-106046339D01*
X120383935Y-105912665D01*
X120350827Y-105865381D01*
X120275244Y-105789798D01*
X120194620Y-105709174D01*
X120194616Y-105709171D01*
X120194615Y-105709170D01*
X120013666Y-105582468D01*
X120013662Y-105582466D01*
X119949768Y-105552672D01*
X119813450Y-105489106D01*
X119813447Y-105489105D01*
X119813445Y-105489104D01*
X119600070Y-105431930D01*
X119600062Y-105431929D01*
X119380002Y-105412677D01*
X119379998Y-105412677D01*
X119159937Y-105431929D01*
X119159929Y-105431930D01*
X118946554Y-105489104D01*
X118946548Y-105489107D01*
X118746340Y-105582465D01*
X118746338Y-105582466D01*
X118565377Y-105709175D01*
X118409175Y-105865377D01*
X118282466Y-106046338D01*
X118282465Y-106046340D01*
X118222382Y-106175189D01*
X118176209Y-106227628D01*
X118109016Y-106246780D01*
X118042135Y-106226564D01*
X117997618Y-106175189D01*
X117938083Y-106047517D01*
X117937534Y-106046339D01*
X117843935Y-105912665D01*
X117810827Y-105865381D01*
X117735244Y-105789798D01*
X117654620Y-105709174D01*
X117654616Y-105709171D01*
X117654615Y-105709170D01*
X117473666Y-105582468D01*
X117473662Y-105582466D01*
X117409768Y-105552672D01*
X117273450Y-105489106D01*
X117273447Y-105489105D01*
X117273445Y-105489104D01*
X117060070Y-105431930D01*
X117060062Y-105431929D01*
X116840002Y-105412677D01*
X116839998Y-105412677D01*
X116619937Y-105431929D01*
X116619929Y-105431930D01*
X116406554Y-105489104D01*
X116406548Y-105489107D01*
X116206340Y-105582465D01*
X116206338Y-105582466D01*
X116025377Y-105709175D01*
X115869175Y-105865377D01*
X115742466Y-106046338D01*
X115742465Y-106046340D01*
X115682382Y-106175189D01*
X115636209Y-106227628D01*
X115569016Y-106246780D01*
X115502135Y-106226564D01*
X115457618Y-106175189D01*
X115398083Y-106047517D01*
X115397534Y-106046339D01*
X115303935Y-105912665D01*
X115270827Y-105865381D01*
X115195244Y-105789798D01*
X115114620Y-105709174D01*
X115114616Y-105709171D01*
X115114615Y-105709170D01*
X114933666Y-105582468D01*
X114933662Y-105582466D01*
X114869768Y-105552672D01*
X114733450Y-105489106D01*
X114733447Y-105489105D01*
X114733445Y-105489104D01*
X114520070Y-105431930D01*
X114520062Y-105431929D01*
X114300002Y-105412677D01*
X114299998Y-105412677D01*
X114079937Y-105431929D01*
X114079929Y-105431930D01*
X113866554Y-105489104D01*
X113866548Y-105489107D01*
X113666340Y-105582465D01*
X113666338Y-105582466D01*
X113485377Y-105709175D01*
X113329175Y-105865377D01*
X113202466Y-106046338D01*
X113202465Y-106046340D01*
X113142382Y-106175189D01*
X113096209Y-106227628D01*
X113029016Y-106246780D01*
X112962135Y-106226564D01*
X112917618Y-106175189D01*
X112858083Y-106047517D01*
X112857534Y-106046339D01*
X112763935Y-105912665D01*
X112730827Y-105865381D01*
X112655244Y-105789798D01*
X112574620Y-105709174D01*
X112574616Y-105709171D01*
X112574615Y-105709170D01*
X112393666Y-105582468D01*
X112393662Y-105582466D01*
X112329768Y-105552672D01*
X112193450Y-105489106D01*
X112193447Y-105489105D01*
X112193445Y-105489104D01*
X111980070Y-105431930D01*
X111980062Y-105431929D01*
X111760002Y-105412677D01*
X111759998Y-105412677D01*
X111539937Y-105431929D01*
X111539929Y-105431930D01*
X111326554Y-105489104D01*
X111326548Y-105489107D01*
X111126340Y-105582465D01*
X111126338Y-105582466D01*
X110945377Y-105709175D01*
X110789175Y-105865377D01*
X110662467Y-106046337D01*
X110602105Y-106175782D01*
X110555932Y-106228221D01*
X110488738Y-106247372D01*
X110421857Y-106227156D01*
X110377341Y-106175780D01*
X110317098Y-106046589D01*
X110317097Y-106046587D01*
X110271741Y-105981811D01*
X110271740Y-105981810D01*
X109626400Y-106627151D01*
X109626400Y-106626496D01*
X109598705Y-106523135D01*
X109545201Y-106430464D01*
X109469536Y-106354799D01*
X109376865Y-106301295D01*
X109273504Y-106273600D01*
X109272848Y-106273600D01*
X109918188Y-105628259D01*
X109918187Y-105628258D01*
X109853411Y-105582901D01*
X109853405Y-105582898D01*
X109653284Y-105489580D01*
X109653270Y-105489575D01*
X109439986Y-105432426D01*
X109439976Y-105432424D01*
X109220001Y-105413179D01*
X109219999Y-105413179D01*
X109000023Y-105432424D01*
X109000013Y-105432426D01*
X108786729Y-105489575D01*
X108786720Y-105489579D01*
X108586590Y-105582901D01*
X108521811Y-105628258D01*
X109167153Y-106273600D01*
X109166496Y-106273600D01*
X109063135Y-106301295D01*
X108970464Y-106354799D01*
X108894799Y-106430464D01*
X108841295Y-106523135D01*
X108813600Y-106626496D01*
X108813600Y-106627153D01*
X108168258Y-105981811D01*
X108122901Y-106046590D01*
X108062658Y-106175781D01*
X108016485Y-106228220D01*
X107949292Y-106247372D01*
X107882411Y-106227156D01*
X107837894Y-106175781D01*
X107822906Y-106143639D01*
X107777534Y-106046339D01*
X107683935Y-105912665D01*
X107650827Y-105865381D01*
X107575244Y-105789798D01*
X107494620Y-105709174D01*
X107494616Y-105709171D01*
X107494615Y-105709170D01*
X107313666Y-105582468D01*
X107313658Y-105582464D01*
X107229177Y-105543070D01*
X107176737Y-105496898D01*
X107157585Y-105429704D01*
X107177801Y-105362823D01*
X107229177Y-105318305D01*
X107332482Y-105270133D01*
X107405471Y-105219024D01*
X106726447Y-104540000D01*
X106732661Y-104540000D01*
X106834394Y-104512741D01*
X106925606Y-104460080D01*
X107000080Y-104385606D01*
X107052741Y-104294394D01*
X107080000Y-104192661D01*
X107080000Y-104186447D01*
X107759024Y-104865471D01*
X107810136Y-104792478D01*
X107906264Y-104586331D01*
X107906269Y-104586317D01*
X107965139Y-104366610D01*
X107965141Y-104366599D01*
X107984966Y-104140002D01*
X107984966Y-104139997D01*
X107965141Y-103913400D01*
X107965139Y-103913389D01*
X107906269Y-103693682D01*
X107906264Y-103693668D01*
X107810136Y-103487521D01*
X107810132Y-103487513D01*
X107759025Y-103414526D01*
X107080000Y-104093551D01*
X107080000Y-104087339D01*
X107052741Y-103985606D01*
X107000080Y-103894394D01*
X106925606Y-103819920D01*
X106834394Y-103767259D01*
X106732661Y-103740000D01*
X106726448Y-103740000D01*
X107405472Y-103060974D01*
X107332478Y-103009863D01*
X107273544Y-102982382D01*
X107221104Y-102936210D01*
X107201952Y-102869017D01*
X107222167Y-102802136D01*
X107273544Y-102757618D01*
X107332478Y-102730136D01*
X107405471Y-102679024D01*
X106726447Y-102000000D01*
X106732661Y-102000000D01*
X106834394Y-101972741D01*
X106925606Y-101920080D01*
X107000080Y-101845606D01*
X107052741Y-101754394D01*
X107080000Y-101652661D01*
X107080000Y-101646447D01*
X107759024Y-102325471D01*
X107810136Y-102252478D01*
X107906264Y-102046331D01*
X107906269Y-102046317D01*
X107965139Y-101826610D01*
X107965141Y-101826599D01*
X107984966Y-101600002D01*
X107984966Y-101599999D01*
X113094357Y-101599999D01*
X113094357Y-101600000D01*
X113114884Y-101821535D01*
X113114885Y-101821537D01*
X113175769Y-102035523D01*
X113175775Y-102035538D01*
X113274938Y-102234683D01*
X113274943Y-102234691D01*
X113409020Y-102412238D01*
X113573437Y-102562123D01*
X113573439Y-102562125D01*
X113762595Y-102679245D01*
X113762596Y-102679245D01*
X113762599Y-102679247D01*
X113970060Y-102759618D01*
X114188757Y-102800500D01*
X114188759Y-102800500D01*
X114411241Y-102800500D01*
X114411243Y-102800500D01*
X114629940Y-102759618D01*
X114837401Y-102679247D01*
X115026562Y-102562124D01*
X115190981Y-102412236D01*
X115325058Y-102234689D01*
X115424229Y-102035528D01*
X115485115Y-101821536D01*
X115505643Y-101600000D01*
X115485115Y-101378464D01*
X115424229Y-101164472D01*
X115424224Y-101164461D01*
X115325061Y-100965316D01*
X115325056Y-100965308D01*
X115190979Y-100787761D01*
X115026562Y-100637876D01*
X115026560Y-100637874D01*
X114837404Y-100520754D01*
X114837398Y-100520752D01*
X114629940Y-100440382D01*
X114411243Y-100399500D01*
X114188757Y-100399500D01*
X113970060Y-100440382D01*
X113893948Y-100469868D01*
X113762601Y-100520752D01*
X113762595Y-100520754D01*
X113573439Y-100637874D01*
X113573437Y-100637876D01*
X113409020Y-100787761D01*
X113274943Y-100965308D01*
X113274938Y-100965316D01*
X113175775Y-101164461D01*
X113175769Y-101164476D01*
X113114885Y-101378462D01*
X113114884Y-101378464D01*
X113094357Y-101599999D01*
X107984966Y-101599999D01*
X107984966Y-101599997D01*
X107965141Y-101373400D01*
X107965139Y-101373389D01*
X107906269Y-101153682D01*
X107906264Y-101153668D01*
X107810136Y-100947521D01*
X107810132Y-100947513D01*
X107759025Y-100874526D01*
X107080000Y-101553551D01*
X107080000Y-101547339D01*
X107052741Y-101445606D01*
X107000080Y-101354394D01*
X106925606Y-101279920D01*
X106834394Y-101227259D01*
X106732661Y-101200000D01*
X106726448Y-101200000D01*
X107405472Y-100520974D01*
X107332478Y-100469863D01*
X107126331Y-100373735D01*
X107126317Y-100373730D01*
X106906610Y-100314860D01*
X106906599Y-100314858D01*
X106680002Y-100295034D01*
X106679998Y-100295034D01*
X106453400Y-100314858D01*
X106453389Y-100314860D01*
X106233682Y-100373730D01*
X106233673Y-100373734D01*
X106027516Y-100469866D01*
X106027512Y-100469868D01*
X105954526Y-100520973D01*
X105954526Y-100520974D01*
X106633553Y-101200000D01*
X106627339Y-101200000D01*
X106525606Y-101227259D01*
X106434394Y-101279920D01*
X106359920Y-101354394D01*
X106307259Y-101445606D01*
X106280000Y-101547339D01*
X106280000Y-101553552D01*
X105600974Y-100874526D01*
X105600973Y-100874526D01*
X105549868Y-100947512D01*
X105549867Y-100947514D01*
X105542656Y-100962979D01*
X105496482Y-101015417D01*
X105429288Y-101034567D01*
X105362407Y-101014350D01*
X105317893Y-100962976D01*
X105310568Y-100947266D01*
X105180047Y-100760861D01*
X105180045Y-100760858D01*
X105019141Y-100599954D01*
X104832734Y-100469432D01*
X104832732Y-100469431D01*
X104626497Y-100373261D01*
X104626488Y-100373258D01*
X104406697Y-100314366D01*
X104406693Y-100314365D01*
X104406692Y-100314365D01*
X104406691Y-100314364D01*
X104406686Y-100314364D01*
X104180002Y-100294532D01*
X104179998Y-100294532D01*
X103953313Y-100314364D01*
X103953302Y-100314366D01*
X103733511Y-100373258D01*
X103733502Y-100373261D01*
X103527267Y-100469431D01*
X103527265Y-100469432D01*
X103340858Y-100599954D01*
X103179954Y-100760858D01*
X103049432Y-100947265D01*
X103049431Y-100947267D01*
X102953261Y-101153502D01*
X102953258Y-101153511D01*
X102894366Y-101373302D01*
X102894364Y-101373313D01*
X102874532Y-101599998D01*
X102874532Y-101600001D01*
X102894364Y-101826686D01*
X102894366Y-101826697D01*
X102953258Y-102046488D01*
X102953261Y-102046497D01*
X103049431Y-102252732D01*
X103049432Y-102252734D01*
X103179954Y-102439141D01*
X103340858Y-102600045D01*
X103340861Y-102600047D01*
X103527266Y-102730568D01*
X103585275Y-102757618D01*
X103637714Y-102803791D01*
X103656866Y-102870984D01*
X103636650Y-102937865D01*
X103585275Y-102982382D01*
X103527267Y-103009431D01*
X103527265Y-103009432D01*
X103340858Y-103139954D01*
X103179954Y-103300858D01*
X103049432Y-103487265D01*
X103049431Y-103487267D01*
X102953261Y-103693502D01*
X102953258Y-103693511D01*
X102894366Y-103913302D01*
X102894364Y-103913313D01*
X102874532Y-104139998D01*
X102874532Y-104140001D01*
X102894364Y-104366686D01*
X102894366Y-104366697D01*
X102953258Y-104586488D01*
X102953261Y-104586497D01*
X103049431Y-104792732D01*
X103049432Y-104792734D01*
X103179954Y-104979141D01*
X103340858Y-105140045D01*
X103340861Y-105140047D01*
X103527266Y-105270568D01*
X103610232Y-105309256D01*
X103662671Y-105355427D01*
X103681823Y-105422620D01*
X103661608Y-105489502D01*
X103610233Y-105534019D01*
X103506337Y-105582467D01*
X103325377Y-105709175D01*
X103169175Y-105865377D01*
X103042466Y-106046338D01*
X103042465Y-106046340D01*
X102949107Y-106246548D01*
X102949104Y-106246554D01*
X102891930Y-106459929D01*
X102891929Y-106459937D01*
X102872677Y-106679997D01*
X95230499Y-106679997D01*
X95230499Y-106107128D01*
X95224091Y-106047517D01*
X95223745Y-106046590D01*
X95173797Y-105912671D01*
X95173796Y-105912670D01*
X95173796Y-105912669D01*
X95172967Y-105911562D01*
X95172485Y-105910268D01*
X95169546Y-105904886D01*
X95170319Y-105904463D01*
X95148551Y-105846099D01*
X95157675Y-105789798D01*
X95191089Y-105709132D01*
X95191089Y-105709131D01*
X95191091Y-105709127D01*
X95230500Y-105511003D01*
X95230500Y-105308997D01*
X95191091Y-105110873D01*
X95113786Y-104924244D01*
X95059794Y-104843439D01*
X95038917Y-104776764D01*
X95057401Y-104709384D01*
X95059796Y-104705658D01*
X95113344Y-104625518D01*
X95113346Y-104625515D01*
X95190609Y-104438983D01*
X95190612Y-104438974D01*
X95200353Y-104390000D01*
X94345866Y-104390000D01*
X94321674Y-104387617D01*
X94306004Y-104384500D01*
X94306003Y-104384500D01*
X94265830Y-104384500D01*
X94280075Y-104370255D01*
X94329444Y-104284745D01*
X94355000Y-104189370D01*
X94355000Y-104090630D01*
X94329444Y-103995255D01*
X94280075Y-103909745D01*
X94260330Y-103890000D01*
X95200353Y-103890000D01*
X95190612Y-103841025D01*
X95190609Y-103841016D01*
X95113347Y-103654486D01*
X95113340Y-103654473D01*
X95001170Y-103486600D01*
X95001167Y-103486596D01*
X94858403Y-103343832D01*
X94858399Y-103343829D01*
X94690526Y-103231659D01*
X94690513Y-103231652D01*
X94503983Y-103154390D01*
X94503974Y-103154387D01*
X94305958Y-103115000D01*
X94230000Y-103115000D01*
X94230000Y-103859670D01*
X94210255Y-103839925D01*
X94124745Y-103790556D01*
X94029370Y-103765000D01*
X93930630Y-103765000D01*
X93835255Y-103790556D01*
X93749745Y-103839925D01*
X93730000Y-103859670D01*
X93730000Y-103115000D01*
X93654041Y-103115000D01*
X93456025Y-103154387D01*
X93456016Y-103154390D01*
X93269486Y-103231652D01*
X93269473Y-103231659D01*
X93101600Y-103343829D01*
X93101596Y-103343832D01*
X92958832Y-103486596D01*
X92958829Y-103486600D01*
X92846659Y-103654473D01*
X92846652Y-103654486D01*
X92769390Y-103841016D01*
X92769387Y-103841025D01*
X92759647Y-103890000D01*
X93699670Y-103890000D01*
X93679925Y-103909745D01*
X93630556Y-103995255D01*
X93605000Y-104090630D01*
X93605000Y-104189370D01*
X93630556Y-104284745D01*
X93679925Y-104370255D01*
X93694170Y-104384500D01*
X93653997Y-104384500D01*
X93653996Y-104384500D01*
X93638326Y-104387617D01*
X93614134Y-104390000D01*
X92759647Y-104390000D01*
X92769387Y-104438974D01*
X92769390Y-104438983D01*
X92846652Y-104625513D01*
X92846659Y-104625526D01*
X92900203Y-104705659D01*
X92921081Y-104772336D01*
X92902597Y-104839716D01*
X92900204Y-104843439D01*
X92846214Y-104924243D01*
X92768909Y-105110872D01*
X92768907Y-105110880D01*
X92729500Y-105308992D01*
X89179794Y-105308992D01*
X89229940Y-105299618D01*
X89437401Y-105219247D01*
X89626562Y-105102124D01*
X89790981Y-104952236D01*
X89925058Y-104774689D01*
X90024229Y-104575528D01*
X90085115Y-104361536D01*
X90105643Y-104140000D01*
X90085115Y-103918464D01*
X90024229Y-103704472D01*
X90024224Y-103704461D01*
X89925061Y-103505316D01*
X89925056Y-103505308D01*
X89790979Y-103327761D01*
X89626562Y-103177876D01*
X89626560Y-103177874D01*
X89437404Y-103060754D01*
X89437398Y-103060752D01*
X89229940Y-102980382D01*
X89011243Y-102939500D01*
X88788757Y-102939500D01*
X88570060Y-102980382D01*
X88493961Y-103009863D01*
X88362601Y-103060752D01*
X88362595Y-103060754D01*
X88173439Y-103177874D01*
X88173437Y-103177876D01*
X88009020Y-103327761D01*
X87874943Y-103505308D01*
X87874938Y-103505316D01*
X87775775Y-103704461D01*
X87775769Y-103704476D01*
X87714885Y-103918462D01*
X87714884Y-103918464D01*
X87694357Y-104139999D01*
X84500500Y-104139999D01*
X84500500Y-99059999D01*
X87694357Y-99059999D01*
X87694357Y-99060000D01*
X87714884Y-99281535D01*
X87714885Y-99281537D01*
X87775769Y-99495523D01*
X87775775Y-99495538D01*
X87874938Y-99694683D01*
X87874943Y-99694691D01*
X88009020Y-99872238D01*
X88173437Y-100022123D01*
X88173439Y-100022125D01*
X88362595Y-100139245D01*
X88362596Y-100139245D01*
X88362599Y-100139247D01*
X88570060Y-100219618D01*
X88788757Y-100260500D01*
X88788759Y-100260500D01*
X89011241Y-100260500D01*
X89011243Y-100260500D01*
X89229940Y-100219618D01*
X89437401Y-100139247D01*
X89626562Y-100022124D01*
X89790981Y-99872236D01*
X89925058Y-99694689D01*
X90024229Y-99495528D01*
X90085115Y-99281536D01*
X90105643Y-99060000D01*
X90105643Y-99059999D01*
X92774357Y-99059999D01*
X92774357Y-99060000D01*
X92794884Y-99281535D01*
X92794885Y-99281537D01*
X92855769Y-99495523D01*
X92855775Y-99495538D01*
X92954938Y-99694683D01*
X92954943Y-99694691D01*
X93089020Y-99872238D01*
X93253437Y-100022123D01*
X93253439Y-100022125D01*
X93442595Y-100139245D01*
X93442596Y-100139245D01*
X93442599Y-100139247D01*
X93650060Y-100219618D01*
X93868757Y-100260500D01*
X93868759Y-100260500D01*
X94091241Y-100260500D01*
X94091243Y-100260500D01*
X94309940Y-100219618D01*
X94517401Y-100139247D01*
X94706562Y-100022124D01*
X94870981Y-99872236D01*
X95005058Y-99694689D01*
X95104229Y-99495528D01*
X95165115Y-99281536D01*
X95185643Y-99060000D01*
X95165115Y-98838464D01*
X95104229Y-98624472D01*
X95104224Y-98624461D01*
X95005061Y-98425316D01*
X95005056Y-98425308D01*
X94870979Y-98247761D01*
X94706562Y-98097876D01*
X94706560Y-98097874D01*
X94517404Y-97980754D01*
X94517398Y-97980752D01*
X94309940Y-97900382D01*
X94091243Y-97859500D01*
X93868757Y-97859500D01*
X93650060Y-97900382D01*
X93518864Y-97951207D01*
X93442601Y-97980752D01*
X93442595Y-97980754D01*
X93253439Y-98097874D01*
X93253437Y-98097876D01*
X93089020Y-98247761D01*
X92954943Y-98425308D01*
X92954938Y-98425316D01*
X92855775Y-98624461D01*
X92855769Y-98624476D01*
X92794885Y-98838462D01*
X92794884Y-98838464D01*
X92774357Y-99059999D01*
X90105643Y-99059999D01*
X90085115Y-98838464D01*
X90024229Y-98624472D01*
X90024224Y-98624461D01*
X89925061Y-98425316D01*
X89925056Y-98425308D01*
X89790979Y-98247761D01*
X89626562Y-98097876D01*
X89626560Y-98097874D01*
X89437404Y-97980754D01*
X89437398Y-97980752D01*
X89229940Y-97900382D01*
X89011243Y-97859500D01*
X88788757Y-97859500D01*
X88570060Y-97900382D01*
X88438864Y-97951207D01*
X88362601Y-97980752D01*
X88362595Y-97980754D01*
X88173439Y-98097874D01*
X88173437Y-98097876D01*
X88009020Y-98247761D01*
X87874943Y-98425308D01*
X87874938Y-98425316D01*
X87775775Y-98624461D01*
X87775769Y-98624476D01*
X87714885Y-98838462D01*
X87714884Y-98838464D01*
X87694357Y-99059999D01*
X84500500Y-99059999D01*
X84500500Y-96519999D01*
X113094357Y-96519999D01*
X113094357Y-96520000D01*
X113114884Y-96741535D01*
X113114885Y-96741537D01*
X113175769Y-96955523D01*
X113175775Y-96955538D01*
X113274938Y-97154683D01*
X113274943Y-97154691D01*
X113409020Y-97332238D01*
X113573437Y-97482123D01*
X113573439Y-97482125D01*
X113762595Y-97599245D01*
X113762596Y-97599245D01*
X113762599Y-97599247D01*
X113970060Y-97679618D01*
X114188757Y-97720500D01*
X114188759Y-97720500D01*
X114411241Y-97720500D01*
X114411243Y-97720500D01*
X114629940Y-97679618D01*
X114837401Y-97599247D01*
X115026562Y-97482124D01*
X115190981Y-97332236D01*
X115325058Y-97154689D01*
X115424229Y-96955528D01*
X115485115Y-96741536D01*
X115505643Y-96520000D01*
X115485115Y-96298464D01*
X115424229Y-96084472D01*
X115424224Y-96084461D01*
X115325061Y-95885316D01*
X115325056Y-95885308D01*
X115190979Y-95707761D01*
X115026562Y-95557876D01*
X115026560Y-95557874D01*
X114837404Y-95440754D01*
X114837398Y-95440752D01*
X114629940Y-95360382D01*
X114411243Y-95319500D01*
X114188757Y-95319500D01*
X113970060Y-95360382D01*
X113838864Y-95411207D01*
X113762601Y-95440752D01*
X113762595Y-95440754D01*
X113573439Y-95557874D01*
X113573437Y-95557876D01*
X113409020Y-95707761D01*
X113274943Y-95885308D01*
X113274938Y-95885316D01*
X113175775Y-96084461D01*
X113175769Y-96084476D01*
X113114885Y-96298462D01*
X113114884Y-96298464D01*
X113094357Y-96519999D01*
X84500500Y-96519999D01*
X84500500Y-93979999D01*
X92774357Y-93979999D01*
X92774357Y-93980000D01*
X92794884Y-94201535D01*
X92794885Y-94201537D01*
X92855769Y-94415523D01*
X92855775Y-94415538D01*
X92954938Y-94614683D01*
X92954943Y-94614691D01*
X93089020Y-94792238D01*
X93253437Y-94942123D01*
X93253439Y-94942125D01*
X93442595Y-95059245D01*
X93442596Y-95059245D01*
X93442599Y-95059247D01*
X93650060Y-95139618D01*
X93868757Y-95180500D01*
X93868759Y-95180500D01*
X94091241Y-95180500D01*
X94091243Y-95180500D01*
X94309940Y-95139618D01*
X94517401Y-95059247D01*
X94706562Y-94942124D01*
X94870981Y-94792236D01*
X95005058Y-94614689D01*
X95104229Y-94415528D01*
X95165115Y-94201536D01*
X95185643Y-93980000D01*
X95165115Y-93758464D01*
X95104229Y-93544472D01*
X95104224Y-93544461D01*
X95005061Y-93345316D01*
X95005056Y-93345308D01*
X94870979Y-93167761D01*
X94706562Y-93017876D01*
X94706560Y-93017874D01*
X94517404Y-92900754D01*
X94517398Y-92900752D01*
X94309940Y-92820382D01*
X94091243Y-92779500D01*
X93868757Y-92779500D01*
X93650060Y-92820382D01*
X93518864Y-92871207D01*
X93442601Y-92900752D01*
X93442595Y-92900754D01*
X93253439Y-93017874D01*
X93253437Y-93017876D01*
X93089020Y-93167761D01*
X92954943Y-93345308D01*
X92954938Y-93345316D01*
X92855775Y-93544461D01*
X92855769Y-93544476D01*
X92794885Y-93758462D01*
X92794884Y-93758464D01*
X92774357Y-93979999D01*
X84500500Y-93979999D01*
X84500500Y-91439999D01*
X113094357Y-91439999D01*
X113094357Y-91440000D01*
X113114884Y-91661535D01*
X113114885Y-91661537D01*
X113175769Y-91875523D01*
X113175775Y-91875538D01*
X113274938Y-92074683D01*
X113274943Y-92074691D01*
X113409020Y-92252238D01*
X113573437Y-92402123D01*
X113573439Y-92402125D01*
X113762595Y-92519245D01*
X113762596Y-92519245D01*
X113762599Y-92519247D01*
X113970060Y-92599618D01*
X114188757Y-92640500D01*
X114188759Y-92640500D01*
X114411241Y-92640500D01*
X114411243Y-92640500D01*
X114629940Y-92599618D01*
X114837401Y-92519247D01*
X115026562Y-92402124D01*
X115190981Y-92252236D01*
X115325058Y-92074689D01*
X115424229Y-91875528D01*
X115485115Y-91661536D01*
X115505643Y-91440000D01*
X115485115Y-91218464D01*
X115424229Y-91004472D01*
X115424224Y-91004461D01*
X115325061Y-90805316D01*
X115325056Y-90805308D01*
X115190979Y-90627761D01*
X115026562Y-90477876D01*
X115026560Y-90477874D01*
X114837404Y-90360754D01*
X114837398Y-90360752D01*
X114629940Y-90280382D01*
X114411243Y-90239500D01*
X114188757Y-90239500D01*
X113970060Y-90280382D01*
X113838864Y-90331207D01*
X113762601Y-90360752D01*
X113762595Y-90360754D01*
X113573439Y-90477874D01*
X113573437Y-90477876D01*
X113409020Y-90627761D01*
X113274943Y-90805308D01*
X113274938Y-90805316D01*
X113175775Y-91004461D01*
X113175769Y-91004476D01*
X113114885Y-91218462D01*
X113114884Y-91218464D01*
X113094357Y-91439999D01*
X84500500Y-91439999D01*
X84500500Y-87366879D01*
X113646672Y-87366879D01*
X113646672Y-87366880D01*
X113762821Y-87438797D01*
X113762822Y-87438798D01*
X113970195Y-87519134D01*
X114188807Y-87560000D01*
X114411193Y-87560000D01*
X114629809Y-87519133D01*
X114837168Y-87438801D01*
X114837181Y-87438795D01*
X114953326Y-87366879D01*
X114300001Y-86713553D01*
X114300000Y-86713553D01*
X113646672Y-87366879D01*
X84500500Y-87366879D01*
X84500500Y-85059999D01*
X91944341Y-85059999D01*
X91944341Y-85060000D01*
X91964936Y-85295403D01*
X91964938Y-85295413D01*
X92026094Y-85523655D01*
X92026096Y-85523659D01*
X92026097Y-85523663D01*
X92110512Y-85704690D01*
X92125965Y-85737830D01*
X92125967Y-85737834D01*
X92234281Y-85892521D01*
X92261505Y-85931401D01*
X92428599Y-86098495D01*
X92485818Y-86138560D01*
X92622165Y-86234032D01*
X92622167Y-86234033D01*
X92622170Y-86234035D01*
X92836337Y-86333903D01*
X93064592Y-86395063D01*
X93252918Y-86411539D01*
X93299999Y-86415659D01*
X93300000Y-86415659D01*
X93300001Y-86415659D01*
X93339234Y-86412226D01*
X93535408Y-86395063D01*
X93666270Y-86359999D01*
X113094859Y-86359999D01*
X113094859Y-86360000D01*
X113115378Y-86581439D01*
X113176240Y-86795350D01*
X113275369Y-86994428D01*
X113291137Y-87015308D01*
X113291138Y-87015308D01*
X113946447Y-86360000D01*
X113900369Y-86313922D01*
X113950000Y-86313922D01*
X113950000Y-86406078D01*
X113973852Y-86495095D01*
X114019930Y-86574905D01*
X114085095Y-86640070D01*
X114164905Y-86686148D01*
X114253922Y-86710000D01*
X114346078Y-86710000D01*
X114435095Y-86686148D01*
X114514905Y-86640070D01*
X114580070Y-86574905D01*
X114626148Y-86495095D01*
X114650000Y-86406078D01*
X114650000Y-86359999D01*
X114653553Y-86359999D01*
X114653553Y-86360000D01*
X115308861Y-87015308D01*
X115324631Y-86994425D01*
X115324633Y-86994422D01*
X115423759Y-86795350D01*
X115484621Y-86581439D01*
X115505141Y-86360000D01*
X115505141Y-86359999D01*
X115484621Y-86138560D01*
X115423759Y-85924649D01*
X115324635Y-85725580D01*
X115324630Y-85725572D01*
X115308860Y-85704690D01*
X114653553Y-86359999D01*
X114650000Y-86359999D01*
X114650000Y-86313922D01*
X114626148Y-86224905D01*
X114580070Y-86145095D01*
X114514905Y-86079930D01*
X114435095Y-86033852D01*
X114346078Y-86010000D01*
X114253922Y-86010000D01*
X114164905Y-86033852D01*
X114085095Y-86079930D01*
X114019930Y-86145095D01*
X113973852Y-86224905D01*
X113950000Y-86313922D01*
X113900369Y-86313922D01*
X113291138Y-85704691D01*
X113291137Y-85704691D01*
X113275368Y-85725574D01*
X113176240Y-85924649D01*
X113115378Y-86138560D01*
X113094859Y-86359999D01*
X93666270Y-86359999D01*
X93763663Y-86333903D01*
X93977830Y-86234035D01*
X94171401Y-86098495D01*
X94338495Y-85931401D01*
X94474035Y-85737830D01*
X94573903Y-85523663D01*
X94619600Y-85353119D01*
X113646671Y-85353119D01*
X114300000Y-86006447D01*
X114300001Y-86006447D01*
X114953327Y-85353119D01*
X114837178Y-85281202D01*
X114837177Y-85281201D01*
X114629804Y-85200865D01*
X114411193Y-85160000D01*
X114188807Y-85160000D01*
X113970195Y-85200865D01*
X113762824Y-85281200D01*
X113762823Y-85281201D01*
X113646671Y-85353119D01*
X94619600Y-85353119D01*
X94635063Y-85295408D01*
X94655659Y-85060000D01*
X94635063Y-84824592D01*
X94573903Y-84596337D01*
X94474035Y-84382171D01*
X94338495Y-84188599D01*
X94216567Y-84066671D01*
X94183084Y-84005351D01*
X94188068Y-83935659D01*
X94229939Y-83879725D01*
X94260915Y-83862810D01*
X94392331Y-83813796D01*
X94507546Y-83727546D01*
X94593796Y-83612331D01*
X94644091Y-83477483D01*
X94650500Y-83417873D01*
X94650499Y-81622128D01*
X94644091Y-81562517D01*
X94593796Y-81427669D01*
X94593795Y-81427668D01*
X94593793Y-81427664D01*
X94507547Y-81312455D01*
X94507544Y-81312452D01*
X94392335Y-81226206D01*
X94392328Y-81226202D01*
X94257482Y-81175908D01*
X94257483Y-81175908D01*
X94197883Y-81169501D01*
X94197881Y-81169500D01*
X94197873Y-81169500D01*
X94197864Y-81169500D01*
X92402129Y-81169500D01*
X92402123Y-81169501D01*
X92342516Y-81175908D01*
X92207671Y-81226202D01*
X92207664Y-81226206D01*
X92092455Y-81312452D01*
X92092452Y-81312455D01*
X92006206Y-81427664D01*
X92006202Y-81427671D01*
X91955908Y-81562517D01*
X91949501Y-81622116D01*
X91949501Y-81622123D01*
X91949500Y-81622135D01*
X91949500Y-83417870D01*
X91949501Y-83417876D01*
X91955908Y-83477483D01*
X92006202Y-83612328D01*
X92006206Y-83612335D01*
X92092452Y-83727544D01*
X92092455Y-83727547D01*
X92207664Y-83813793D01*
X92207671Y-83813797D01*
X92339081Y-83862810D01*
X92395015Y-83904681D01*
X92419432Y-83970145D01*
X92404580Y-84038418D01*
X92383430Y-84066673D01*
X92261503Y-84188600D01*
X92125965Y-84382169D01*
X92125964Y-84382171D01*
X92026098Y-84596335D01*
X92026094Y-84596344D01*
X91964938Y-84824586D01*
X91964936Y-84824596D01*
X91944341Y-85059999D01*
X84500500Y-85059999D01*
X84500500Y-73659999D01*
X95164341Y-73659999D01*
X95164341Y-73660000D01*
X95184936Y-73895403D01*
X95184938Y-73895413D01*
X95246094Y-74123655D01*
X95246096Y-74123659D01*
X95246097Y-74123663D01*
X95250000Y-74132032D01*
X95345965Y-74337830D01*
X95345967Y-74337834D01*
X95454281Y-74492521D01*
X95481501Y-74531396D01*
X95481506Y-74531402D01*
X95603430Y-74653326D01*
X95636915Y-74714649D01*
X95631931Y-74784341D01*
X95590059Y-74840274D01*
X95559083Y-74857189D01*
X95427669Y-74906203D01*
X95427664Y-74906206D01*
X95312455Y-74992452D01*
X95312452Y-74992455D01*
X95226206Y-75107664D01*
X95226202Y-75107671D01*
X95175908Y-75242517D01*
X95169501Y-75302116D01*
X95169500Y-75302135D01*
X95169500Y-77097870D01*
X95169501Y-77097876D01*
X95175908Y-77157483D01*
X95226202Y-77292328D01*
X95226206Y-77292335D01*
X95312452Y-77407544D01*
X95312455Y-77407547D01*
X95427664Y-77493793D01*
X95427671Y-77493797D01*
X95562517Y-77544091D01*
X95562516Y-77544091D01*
X95569444Y-77544835D01*
X95622127Y-77550500D01*
X97417872Y-77550499D01*
X97477483Y-77544091D01*
X97612331Y-77493796D01*
X97727546Y-77407546D01*
X97813796Y-77292331D01*
X97862810Y-77160916D01*
X97904681Y-77104984D01*
X97970145Y-77080566D01*
X98038418Y-77095417D01*
X98066673Y-77116569D01*
X98188599Y-77238495D01*
X98285384Y-77306265D01*
X98382165Y-77374032D01*
X98382167Y-77374033D01*
X98382170Y-77374035D01*
X98596337Y-77473903D01*
X98824592Y-77535063D01*
X99001034Y-77550500D01*
X99059999Y-77555659D01*
X99060000Y-77555659D01*
X99060001Y-77555659D01*
X99118966Y-77550500D01*
X99295408Y-77535063D01*
X99523663Y-77473903D01*
X99737830Y-77374035D01*
X99931401Y-77238495D01*
X100098495Y-77071401D01*
X100228425Y-76885842D01*
X100283002Y-76842217D01*
X100352500Y-76835023D01*
X100414855Y-76866546D01*
X100431575Y-76885842D01*
X100561281Y-77071082D01*
X100561505Y-77071401D01*
X100728599Y-77238495D01*
X100825384Y-77306265D01*
X100922165Y-77374032D01*
X100922167Y-77374033D01*
X100922170Y-77374035D01*
X101136337Y-77473903D01*
X101364592Y-77535063D01*
X101541034Y-77550500D01*
X101599999Y-77555659D01*
X101600000Y-77555659D01*
X101600001Y-77555659D01*
X101658966Y-77550500D01*
X101835408Y-77535063D01*
X102063663Y-77473903D01*
X102277830Y-77374035D01*
X102471401Y-77238495D01*
X102638495Y-77071401D01*
X102768425Y-76885842D01*
X102823002Y-76842217D01*
X102892500Y-76835023D01*
X102954855Y-76866546D01*
X102971575Y-76885842D01*
X103101281Y-77071082D01*
X103101505Y-77071401D01*
X103268599Y-77238495D01*
X103365384Y-77306265D01*
X103462165Y-77374032D01*
X103462167Y-77374033D01*
X103462170Y-77374035D01*
X103676337Y-77473903D01*
X103904592Y-77535063D01*
X104081034Y-77550500D01*
X104139999Y-77555659D01*
X104140000Y-77555659D01*
X104140001Y-77555659D01*
X104198966Y-77550500D01*
X104375408Y-77535063D01*
X104603663Y-77473903D01*
X104817830Y-77374035D01*
X105011401Y-77238495D01*
X105178495Y-77071401D01*
X105308730Y-76885405D01*
X105363307Y-76841781D01*
X105432805Y-76834587D01*
X105495160Y-76866110D01*
X105511879Y-76885405D01*
X105641890Y-77071078D01*
X105808917Y-77238105D01*
X106002421Y-77373600D01*
X106216507Y-77473429D01*
X106216516Y-77473433D01*
X106430000Y-77530634D01*
X106430000Y-76633012D01*
X106487007Y-76665925D01*
X106614174Y-76700000D01*
X106745826Y-76700000D01*
X106872993Y-76665925D01*
X106930000Y-76633012D01*
X106930000Y-77530633D01*
X107143483Y-77473433D01*
X107143492Y-77473429D01*
X107357578Y-77373600D01*
X107551082Y-77238105D01*
X107718105Y-77071082D01*
X107848119Y-76885405D01*
X107902696Y-76841781D01*
X107972195Y-76834588D01*
X108034549Y-76866110D01*
X108051269Y-76885405D01*
X108181505Y-77071401D01*
X108348599Y-77238495D01*
X108445384Y-77306265D01*
X108542165Y-77374032D01*
X108542167Y-77374033D01*
X108542170Y-77374035D01*
X108756337Y-77473903D01*
X108984592Y-77535063D01*
X109161034Y-77550500D01*
X109219999Y-77555659D01*
X109220000Y-77555659D01*
X109220001Y-77555659D01*
X109278966Y-77550500D01*
X109455408Y-77535063D01*
X109683663Y-77473903D01*
X109897830Y-77374035D01*
X110091401Y-77238495D01*
X110258495Y-77071401D01*
X110388425Y-76885842D01*
X110443002Y-76842217D01*
X110512500Y-76835023D01*
X110574855Y-76866546D01*
X110591575Y-76885842D01*
X110721281Y-77071082D01*
X110721505Y-77071401D01*
X110888599Y-77238495D01*
X110985384Y-77306265D01*
X111082165Y-77374032D01*
X111082167Y-77374033D01*
X111082170Y-77374035D01*
X111296337Y-77473903D01*
X111524592Y-77535063D01*
X111701034Y-77550500D01*
X111759999Y-77555659D01*
X111760000Y-77555659D01*
X111760001Y-77555659D01*
X111818966Y-77550500D01*
X111995408Y-77535063D01*
X112223663Y-77473903D01*
X112437830Y-77374035D01*
X112631401Y-77238495D01*
X112798495Y-77071401D01*
X112928425Y-76885842D01*
X112983002Y-76842217D01*
X113052500Y-76835023D01*
X113114855Y-76866546D01*
X113131575Y-76885842D01*
X113261281Y-77071082D01*
X113261505Y-77071401D01*
X113428599Y-77238495D01*
X113525384Y-77306265D01*
X113622165Y-77374032D01*
X113622167Y-77374033D01*
X113622170Y-77374035D01*
X113836337Y-77473903D01*
X114064592Y-77535063D01*
X114241034Y-77550500D01*
X114299999Y-77555659D01*
X114300000Y-77555659D01*
X114300001Y-77555659D01*
X114358966Y-77550500D01*
X114535408Y-77535063D01*
X114763663Y-77473903D01*
X114977830Y-77374035D01*
X115171401Y-77238495D01*
X115338495Y-77071401D01*
X115468425Y-76885842D01*
X115523002Y-76842217D01*
X115592500Y-76835023D01*
X115654855Y-76866546D01*
X115671575Y-76885842D01*
X115801281Y-77071082D01*
X115801505Y-77071401D01*
X115968599Y-77238495D01*
X116065384Y-77306265D01*
X116162165Y-77374032D01*
X116162167Y-77374033D01*
X116162170Y-77374035D01*
X116376337Y-77473903D01*
X116604592Y-77535063D01*
X116781034Y-77550500D01*
X116839999Y-77555659D01*
X116840000Y-77555659D01*
X116840001Y-77555659D01*
X116898966Y-77550500D01*
X117075408Y-77535063D01*
X117303663Y-77473903D01*
X117517830Y-77374035D01*
X117711401Y-77238495D01*
X117878495Y-77071401D01*
X118008425Y-76885842D01*
X118063002Y-76842217D01*
X118132500Y-76835023D01*
X118194855Y-76866546D01*
X118211575Y-76885842D01*
X118341281Y-77071082D01*
X118341505Y-77071401D01*
X118508599Y-77238495D01*
X118605384Y-77306265D01*
X118702165Y-77374032D01*
X118702167Y-77374033D01*
X118702170Y-77374035D01*
X118916337Y-77473903D01*
X119144592Y-77535063D01*
X119321034Y-77550500D01*
X119379999Y-77555659D01*
X119380000Y-77555659D01*
X119380001Y-77555659D01*
X119438966Y-77550500D01*
X119615408Y-77535063D01*
X119843663Y-77473903D01*
X120057830Y-77374035D01*
X120251401Y-77238495D01*
X120418495Y-77071401D01*
X120548425Y-76885842D01*
X120603002Y-76842217D01*
X120672500Y-76835023D01*
X120734855Y-76866546D01*
X120751575Y-76885842D01*
X120881281Y-77071082D01*
X120881505Y-77071401D01*
X121048599Y-77238495D01*
X121145384Y-77306265D01*
X121242165Y-77374032D01*
X121242167Y-77374033D01*
X121242170Y-77374035D01*
X121456337Y-77473903D01*
X121684592Y-77535063D01*
X121861034Y-77550500D01*
X121919999Y-77555659D01*
X121920000Y-77555659D01*
X121920001Y-77555659D01*
X121978966Y-77550500D01*
X122155408Y-77535063D01*
X122383663Y-77473903D01*
X122597830Y-77374035D01*
X122791401Y-77238495D01*
X122958495Y-77071401D01*
X123088425Y-76885842D01*
X123143002Y-76842217D01*
X123212500Y-76835023D01*
X123274855Y-76866546D01*
X123291575Y-76885842D01*
X123421281Y-77071082D01*
X123421505Y-77071401D01*
X123588599Y-77238495D01*
X123685384Y-77306265D01*
X123782165Y-77374032D01*
X123782167Y-77374033D01*
X123782170Y-77374035D01*
X123996337Y-77473903D01*
X124224592Y-77535063D01*
X124401034Y-77550500D01*
X124459999Y-77555659D01*
X124460000Y-77555659D01*
X124460001Y-77555659D01*
X124518966Y-77550500D01*
X124695408Y-77535063D01*
X124923663Y-77473903D01*
X125137830Y-77374035D01*
X125331401Y-77238495D01*
X125498495Y-77071401D01*
X125628730Y-76885405D01*
X125683307Y-76841781D01*
X125752805Y-76834587D01*
X125815160Y-76866110D01*
X125831879Y-76885405D01*
X125961890Y-77071078D01*
X126128917Y-77238105D01*
X126322421Y-77373600D01*
X126536507Y-77473429D01*
X126536516Y-77473433D01*
X126750000Y-77530634D01*
X126750000Y-76633012D01*
X126807007Y-76665925D01*
X126934174Y-76700000D01*
X127065826Y-76700000D01*
X127192993Y-76665925D01*
X127250000Y-76633012D01*
X127250000Y-77530633D01*
X127463483Y-77473433D01*
X127463492Y-77473429D01*
X127677578Y-77373600D01*
X127871082Y-77238105D01*
X128038105Y-77071082D01*
X128168119Y-76885405D01*
X128222696Y-76841781D01*
X128292195Y-76834588D01*
X128354549Y-76866110D01*
X128371269Y-76885405D01*
X128501505Y-77071401D01*
X128668599Y-77238495D01*
X128765384Y-77306265D01*
X128862165Y-77374032D01*
X128862167Y-77374033D01*
X128862170Y-77374035D01*
X129076337Y-77473903D01*
X129304592Y-77535063D01*
X129481034Y-77550500D01*
X129539999Y-77555659D01*
X129540000Y-77555659D01*
X129540001Y-77555659D01*
X129598966Y-77550500D01*
X129775408Y-77535063D01*
X130003663Y-77473903D01*
X130217830Y-77374035D01*
X130411401Y-77238495D01*
X130578495Y-77071401D01*
X130708425Y-76885842D01*
X130763002Y-76842217D01*
X130832500Y-76835023D01*
X130894855Y-76866546D01*
X130911575Y-76885842D01*
X131041281Y-77071082D01*
X131041505Y-77071401D01*
X131208599Y-77238495D01*
X131305384Y-77306265D01*
X131402165Y-77374032D01*
X131402167Y-77374033D01*
X131402170Y-77374035D01*
X131616337Y-77473903D01*
X131844592Y-77535063D01*
X132021034Y-77550500D01*
X132079999Y-77555659D01*
X132080000Y-77555659D01*
X132080001Y-77555659D01*
X132138966Y-77550500D01*
X132315408Y-77535063D01*
X132543663Y-77473903D01*
X132757830Y-77374035D01*
X132951401Y-77238495D01*
X133118495Y-77071401D01*
X133248425Y-76885842D01*
X133303002Y-76842217D01*
X133372500Y-76835023D01*
X133434855Y-76866546D01*
X133451575Y-76885842D01*
X133581281Y-77071082D01*
X133581505Y-77071401D01*
X133748599Y-77238495D01*
X133845384Y-77306265D01*
X133942165Y-77374032D01*
X133942167Y-77374033D01*
X133942170Y-77374035D01*
X134156337Y-77473903D01*
X134384592Y-77535063D01*
X134561034Y-77550500D01*
X134619999Y-77555659D01*
X134620000Y-77555659D01*
X134620001Y-77555659D01*
X134678966Y-77550500D01*
X134855408Y-77535063D01*
X135083663Y-77473903D01*
X135297830Y-77374035D01*
X135491401Y-77238495D01*
X135658495Y-77071401D01*
X135788425Y-76885842D01*
X135843002Y-76842217D01*
X135912500Y-76835023D01*
X135974855Y-76866546D01*
X135991575Y-76885842D01*
X136121281Y-77071082D01*
X136121505Y-77071401D01*
X136288599Y-77238495D01*
X136385384Y-77306265D01*
X136482165Y-77374032D01*
X136482167Y-77374033D01*
X136482170Y-77374035D01*
X136696337Y-77473903D01*
X136924592Y-77535063D01*
X137101034Y-77550500D01*
X137159999Y-77555659D01*
X137160000Y-77555659D01*
X137160001Y-77555659D01*
X137218966Y-77550500D01*
X137395408Y-77535063D01*
X137623663Y-77473903D01*
X137837830Y-77374035D01*
X138031401Y-77238495D01*
X138198495Y-77071401D01*
X138328425Y-76885842D01*
X138383002Y-76842217D01*
X138452500Y-76835023D01*
X138514855Y-76866546D01*
X138531575Y-76885842D01*
X138661281Y-77071082D01*
X138661505Y-77071401D01*
X138828599Y-77238495D01*
X138925384Y-77306265D01*
X139022165Y-77374032D01*
X139022167Y-77374033D01*
X139022170Y-77374035D01*
X139236337Y-77473903D01*
X139464592Y-77535063D01*
X139641034Y-77550500D01*
X139699999Y-77555659D01*
X139700000Y-77555659D01*
X139700001Y-77555659D01*
X139758966Y-77550500D01*
X139935408Y-77535063D01*
X140163663Y-77473903D01*
X140377830Y-77374035D01*
X140571401Y-77238495D01*
X140738495Y-77071401D01*
X140868425Y-76885842D01*
X140923002Y-76842217D01*
X140992500Y-76835023D01*
X141054855Y-76866546D01*
X141071575Y-76885842D01*
X141201281Y-77071082D01*
X141201505Y-77071401D01*
X141368599Y-77238495D01*
X141465384Y-77306265D01*
X141562165Y-77374032D01*
X141562167Y-77374033D01*
X141562170Y-77374035D01*
X141776337Y-77473903D01*
X142004592Y-77535063D01*
X142181034Y-77550500D01*
X142239999Y-77555659D01*
X142240000Y-77555659D01*
X142240001Y-77555659D01*
X142298966Y-77550500D01*
X142475408Y-77535063D01*
X142703663Y-77473903D01*
X142917830Y-77374035D01*
X143111401Y-77238495D01*
X143278495Y-77071401D01*
X143408730Y-76885405D01*
X143463307Y-76841781D01*
X143532805Y-76834587D01*
X143595160Y-76866110D01*
X143611879Y-76885405D01*
X143741890Y-77071078D01*
X143908917Y-77238105D01*
X144102421Y-77373600D01*
X144316507Y-77473429D01*
X144316516Y-77473433D01*
X144530000Y-77530634D01*
X144530000Y-76633012D01*
X144587007Y-76665925D01*
X144714174Y-76700000D01*
X144845826Y-76700000D01*
X144972993Y-76665925D01*
X145030000Y-76633012D01*
X145030000Y-77530633D01*
X145243483Y-77473433D01*
X145243492Y-77473429D01*
X145457578Y-77373600D01*
X145651082Y-77238105D01*
X145818105Y-77071082D01*
X145953600Y-76877578D01*
X146053429Y-76663492D01*
X146053432Y-76663486D01*
X146110636Y-76450000D01*
X145213012Y-76450000D01*
X145245925Y-76392993D01*
X145280000Y-76265826D01*
X145280000Y-76134174D01*
X145245925Y-76007007D01*
X145213012Y-75950000D01*
X146110636Y-75950000D01*
X146110635Y-75949999D01*
X146053432Y-75736513D01*
X146053429Y-75736507D01*
X145953600Y-75522422D01*
X145953599Y-75522420D01*
X145818113Y-75328926D01*
X145818108Y-75328920D01*
X145651078Y-75161890D01*
X145465405Y-75031879D01*
X145421780Y-74977302D01*
X145414588Y-74907804D01*
X145446110Y-74845449D01*
X145465406Y-74828730D01*
X145465842Y-74828425D01*
X145651401Y-74698495D01*
X145818495Y-74531401D01*
X145954035Y-74337830D01*
X146053903Y-74123663D01*
X146115063Y-73895408D01*
X146135659Y-73660000D01*
X146115063Y-73424592D01*
X146053903Y-73196337D01*
X145954035Y-72982171D01*
X145948425Y-72974158D01*
X145818494Y-72788597D01*
X145651402Y-72621506D01*
X145651395Y-72621501D01*
X145457834Y-72485967D01*
X145457830Y-72485965D01*
X145457828Y-72485964D01*
X145243663Y-72386097D01*
X145243659Y-72386096D01*
X145243655Y-72386094D01*
X145015413Y-72324938D01*
X145015403Y-72324936D01*
X144780001Y-72304341D01*
X144779999Y-72304341D01*
X144544596Y-72324936D01*
X144544586Y-72324938D01*
X144316344Y-72386094D01*
X144316335Y-72386098D01*
X144102171Y-72485964D01*
X144102169Y-72485965D01*
X143908597Y-72621505D01*
X143741505Y-72788597D01*
X143611575Y-72974158D01*
X143556998Y-73017783D01*
X143487500Y-73024977D01*
X143425145Y-72993454D01*
X143408425Y-72974158D01*
X143278494Y-72788597D01*
X143111402Y-72621506D01*
X143111395Y-72621501D01*
X142917834Y-72485967D01*
X142917830Y-72485965D01*
X142917828Y-72485964D01*
X142703663Y-72386097D01*
X142703659Y-72386096D01*
X142703655Y-72386094D01*
X142475413Y-72324938D01*
X142475403Y-72324936D01*
X142240001Y-72304341D01*
X142239999Y-72304341D01*
X142004596Y-72324936D01*
X142004586Y-72324938D01*
X141776344Y-72386094D01*
X141776335Y-72386098D01*
X141562171Y-72485964D01*
X141562169Y-72485965D01*
X141368597Y-72621505D01*
X141201505Y-72788597D01*
X141071575Y-72974158D01*
X141016998Y-73017783D01*
X140947500Y-73024977D01*
X140885145Y-72993454D01*
X140868425Y-72974158D01*
X140738494Y-72788597D01*
X140571402Y-72621506D01*
X140571395Y-72621501D01*
X140377834Y-72485967D01*
X140377830Y-72485965D01*
X140377828Y-72485964D01*
X140163663Y-72386097D01*
X140163659Y-72386096D01*
X140163655Y-72386094D01*
X139935413Y-72324938D01*
X139935403Y-72324936D01*
X139700001Y-72304341D01*
X139699999Y-72304341D01*
X139464596Y-72324936D01*
X139464586Y-72324938D01*
X139236344Y-72386094D01*
X139236335Y-72386098D01*
X139022171Y-72485964D01*
X139022169Y-72485965D01*
X138828597Y-72621505D01*
X138661505Y-72788597D01*
X138531575Y-72974158D01*
X138476998Y-73017783D01*
X138407500Y-73024977D01*
X138345145Y-72993454D01*
X138328425Y-72974158D01*
X138198494Y-72788597D01*
X138031402Y-72621506D01*
X138031395Y-72621501D01*
X137837834Y-72485967D01*
X137837830Y-72485965D01*
X137837828Y-72485964D01*
X137623663Y-72386097D01*
X137623659Y-72386096D01*
X137623655Y-72386094D01*
X137395413Y-72324938D01*
X137395403Y-72324936D01*
X137160001Y-72304341D01*
X137159999Y-72304341D01*
X136924596Y-72324936D01*
X136924586Y-72324938D01*
X136696344Y-72386094D01*
X136696335Y-72386098D01*
X136482171Y-72485964D01*
X136482169Y-72485965D01*
X136288597Y-72621505D01*
X136121505Y-72788597D01*
X135991575Y-72974158D01*
X135936998Y-73017783D01*
X135867500Y-73024977D01*
X135805145Y-72993454D01*
X135788425Y-72974158D01*
X135658494Y-72788597D01*
X135491402Y-72621506D01*
X135491395Y-72621501D01*
X135297834Y-72485967D01*
X135297830Y-72485965D01*
X135297828Y-72485964D01*
X135083663Y-72386097D01*
X135083659Y-72386096D01*
X135083655Y-72386094D01*
X134855413Y-72324938D01*
X134855403Y-72324936D01*
X134620001Y-72304341D01*
X134619999Y-72304341D01*
X134384596Y-72324936D01*
X134384586Y-72324938D01*
X134156344Y-72386094D01*
X134156335Y-72386098D01*
X133942171Y-72485964D01*
X133942169Y-72485965D01*
X133748597Y-72621505D01*
X133581505Y-72788597D01*
X133451575Y-72974158D01*
X133396998Y-73017783D01*
X133327500Y-73024977D01*
X133265145Y-72993454D01*
X133248425Y-72974158D01*
X133118494Y-72788597D01*
X132951402Y-72621506D01*
X132951395Y-72621501D01*
X132757834Y-72485967D01*
X132757830Y-72485965D01*
X132757828Y-72485964D01*
X132543663Y-72386097D01*
X132543659Y-72386096D01*
X132543655Y-72386094D01*
X132315413Y-72324938D01*
X132315403Y-72324936D01*
X132080001Y-72304341D01*
X132079999Y-72304341D01*
X131844596Y-72324936D01*
X131844586Y-72324938D01*
X131616344Y-72386094D01*
X131616335Y-72386098D01*
X131402171Y-72485964D01*
X131402169Y-72485965D01*
X131208597Y-72621505D01*
X131041505Y-72788597D01*
X130911575Y-72974158D01*
X130856998Y-73017783D01*
X130787500Y-73024977D01*
X130725145Y-72993454D01*
X130708425Y-72974158D01*
X130578494Y-72788597D01*
X130411402Y-72621506D01*
X130411395Y-72621501D01*
X130217834Y-72485967D01*
X130217830Y-72485965D01*
X130217828Y-72485964D01*
X130003663Y-72386097D01*
X130003659Y-72386096D01*
X130003655Y-72386094D01*
X129775413Y-72324938D01*
X129775403Y-72324936D01*
X129540001Y-72304341D01*
X129539999Y-72304341D01*
X129304596Y-72324936D01*
X129304586Y-72324938D01*
X129076344Y-72386094D01*
X129076335Y-72386098D01*
X128862171Y-72485964D01*
X128862169Y-72485965D01*
X128668597Y-72621505D01*
X128501505Y-72788597D01*
X128371575Y-72974158D01*
X128316998Y-73017783D01*
X128247500Y-73024977D01*
X128185145Y-72993454D01*
X128168425Y-72974158D01*
X128038494Y-72788597D01*
X127871402Y-72621506D01*
X127871395Y-72621501D01*
X127677834Y-72485967D01*
X127677830Y-72485965D01*
X127677828Y-72485964D01*
X127463663Y-72386097D01*
X127463659Y-72386096D01*
X127463655Y-72386094D01*
X127235413Y-72324938D01*
X127235403Y-72324936D01*
X127000001Y-72304341D01*
X126999999Y-72304341D01*
X126764596Y-72324936D01*
X126764586Y-72324938D01*
X126536344Y-72386094D01*
X126536335Y-72386098D01*
X126322171Y-72485964D01*
X126322169Y-72485965D01*
X126128597Y-72621505D01*
X125961505Y-72788597D01*
X125831575Y-72974158D01*
X125776998Y-73017783D01*
X125707500Y-73024977D01*
X125645145Y-72993454D01*
X125628425Y-72974158D01*
X125498494Y-72788597D01*
X125331402Y-72621506D01*
X125331395Y-72621501D01*
X125137834Y-72485967D01*
X125137830Y-72485965D01*
X125137828Y-72485964D01*
X124923663Y-72386097D01*
X124923659Y-72386096D01*
X124923655Y-72386094D01*
X124695413Y-72324938D01*
X124695403Y-72324936D01*
X124460001Y-72304341D01*
X124459999Y-72304341D01*
X124224596Y-72324936D01*
X124224586Y-72324938D01*
X123996344Y-72386094D01*
X123996335Y-72386098D01*
X123782171Y-72485964D01*
X123782169Y-72485965D01*
X123588597Y-72621505D01*
X123421505Y-72788597D01*
X123291575Y-72974158D01*
X123236998Y-73017783D01*
X123167500Y-73024977D01*
X123105145Y-72993454D01*
X123088425Y-72974158D01*
X122958494Y-72788597D01*
X122791402Y-72621506D01*
X122791395Y-72621501D01*
X122597834Y-72485967D01*
X122597830Y-72485965D01*
X122597828Y-72485964D01*
X122383663Y-72386097D01*
X122383659Y-72386096D01*
X122383655Y-72386094D01*
X122155413Y-72324938D01*
X122155403Y-72324936D01*
X121920001Y-72304341D01*
X121919999Y-72304341D01*
X121684596Y-72324936D01*
X121684586Y-72324938D01*
X121456344Y-72386094D01*
X121456335Y-72386098D01*
X121242171Y-72485964D01*
X121242169Y-72485965D01*
X121048597Y-72621505D01*
X120881505Y-72788597D01*
X120751575Y-72974158D01*
X120696998Y-73017783D01*
X120627500Y-73024977D01*
X120565145Y-72993454D01*
X120548425Y-72974158D01*
X120418494Y-72788597D01*
X120251402Y-72621506D01*
X120251395Y-72621501D01*
X120057834Y-72485967D01*
X120057830Y-72485965D01*
X120057828Y-72485964D01*
X119843663Y-72386097D01*
X119843659Y-72386096D01*
X119843655Y-72386094D01*
X119615413Y-72324938D01*
X119615403Y-72324936D01*
X119380001Y-72304341D01*
X119379999Y-72304341D01*
X119144596Y-72324936D01*
X119144586Y-72324938D01*
X118916344Y-72386094D01*
X118916335Y-72386098D01*
X118702171Y-72485964D01*
X118702169Y-72485965D01*
X118508597Y-72621505D01*
X118341505Y-72788597D01*
X118211575Y-72974158D01*
X118156998Y-73017783D01*
X118087500Y-73024977D01*
X118025145Y-72993454D01*
X118008425Y-72974158D01*
X117878494Y-72788597D01*
X117711402Y-72621506D01*
X117711395Y-72621501D01*
X117517834Y-72485967D01*
X117517830Y-72485965D01*
X117517828Y-72485964D01*
X117303663Y-72386097D01*
X117303659Y-72386096D01*
X117303655Y-72386094D01*
X117075413Y-72324938D01*
X117075403Y-72324936D01*
X116840001Y-72304341D01*
X116839999Y-72304341D01*
X116604596Y-72324936D01*
X116604586Y-72324938D01*
X116376344Y-72386094D01*
X116376335Y-72386098D01*
X116162171Y-72485964D01*
X116162169Y-72485965D01*
X115968597Y-72621505D01*
X115801505Y-72788597D01*
X115671575Y-72974158D01*
X115616998Y-73017783D01*
X115547500Y-73024977D01*
X115485145Y-72993454D01*
X115468425Y-72974158D01*
X115338494Y-72788597D01*
X115171402Y-72621506D01*
X115171395Y-72621501D01*
X114977834Y-72485967D01*
X114977830Y-72485965D01*
X114977828Y-72485964D01*
X114763663Y-72386097D01*
X114763659Y-72386096D01*
X114763655Y-72386094D01*
X114535413Y-72324938D01*
X114535403Y-72324936D01*
X114300001Y-72304341D01*
X114299999Y-72304341D01*
X114064596Y-72324936D01*
X114064586Y-72324938D01*
X113836344Y-72386094D01*
X113836335Y-72386098D01*
X113622171Y-72485964D01*
X113622169Y-72485965D01*
X113428597Y-72621505D01*
X113261505Y-72788597D01*
X113131575Y-72974158D01*
X113076998Y-73017783D01*
X113007500Y-73024977D01*
X112945145Y-72993454D01*
X112928425Y-72974158D01*
X112798494Y-72788597D01*
X112631402Y-72621506D01*
X112631395Y-72621501D01*
X112437834Y-72485967D01*
X112437830Y-72485965D01*
X112437828Y-72485964D01*
X112223663Y-72386097D01*
X112223659Y-72386096D01*
X112223655Y-72386094D01*
X111995413Y-72324938D01*
X111995403Y-72324936D01*
X111760001Y-72304341D01*
X111759999Y-72304341D01*
X111524596Y-72324936D01*
X111524586Y-72324938D01*
X111296344Y-72386094D01*
X111296335Y-72386098D01*
X111082171Y-72485964D01*
X111082169Y-72485965D01*
X110888597Y-72621505D01*
X110721505Y-72788597D01*
X110591575Y-72974158D01*
X110536998Y-73017783D01*
X110467500Y-73024977D01*
X110405145Y-72993454D01*
X110388425Y-72974158D01*
X110258494Y-72788597D01*
X110091402Y-72621506D01*
X110091395Y-72621501D01*
X109897834Y-72485967D01*
X109897830Y-72485965D01*
X109897828Y-72485964D01*
X109683663Y-72386097D01*
X109683659Y-72386096D01*
X109683655Y-72386094D01*
X109455413Y-72324938D01*
X109455403Y-72324936D01*
X109220001Y-72304341D01*
X109219999Y-72304341D01*
X108984596Y-72324936D01*
X108984586Y-72324938D01*
X108756344Y-72386094D01*
X108756335Y-72386098D01*
X108542171Y-72485964D01*
X108542169Y-72485965D01*
X108348597Y-72621505D01*
X108181505Y-72788597D01*
X108051575Y-72974158D01*
X107996998Y-73017783D01*
X107927500Y-73024977D01*
X107865145Y-72993454D01*
X107848425Y-72974158D01*
X107718494Y-72788597D01*
X107551402Y-72621506D01*
X107551395Y-72621501D01*
X107357834Y-72485967D01*
X107357830Y-72485965D01*
X107357828Y-72485964D01*
X107143663Y-72386097D01*
X107143659Y-72386096D01*
X107143655Y-72386094D01*
X106915413Y-72324938D01*
X106915403Y-72324936D01*
X106680001Y-72304341D01*
X106679999Y-72304341D01*
X106444596Y-72324936D01*
X106444586Y-72324938D01*
X106216344Y-72386094D01*
X106216335Y-72386098D01*
X106002171Y-72485964D01*
X106002169Y-72485965D01*
X105808597Y-72621505D01*
X105641505Y-72788597D01*
X105511575Y-72974158D01*
X105456998Y-73017783D01*
X105387500Y-73024977D01*
X105325145Y-72993454D01*
X105308425Y-72974158D01*
X105178494Y-72788597D01*
X105011402Y-72621506D01*
X105011395Y-72621501D01*
X104817834Y-72485967D01*
X104817830Y-72485965D01*
X104817828Y-72485964D01*
X104603663Y-72386097D01*
X104603659Y-72386096D01*
X104603655Y-72386094D01*
X104375413Y-72324938D01*
X104375403Y-72324936D01*
X104140001Y-72304341D01*
X104139999Y-72304341D01*
X103904596Y-72324936D01*
X103904586Y-72324938D01*
X103676344Y-72386094D01*
X103676335Y-72386098D01*
X103462171Y-72485964D01*
X103462169Y-72485965D01*
X103268597Y-72621505D01*
X103101505Y-72788597D01*
X102971575Y-72974158D01*
X102916998Y-73017783D01*
X102847500Y-73024977D01*
X102785145Y-72993454D01*
X102768425Y-72974158D01*
X102638494Y-72788597D01*
X102471402Y-72621506D01*
X102471395Y-72621501D01*
X102277834Y-72485967D01*
X102277830Y-72485965D01*
X102277828Y-72485964D01*
X102063663Y-72386097D01*
X102063659Y-72386096D01*
X102063655Y-72386094D01*
X101835413Y-72324938D01*
X101835403Y-72324936D01*
X101600001Y-72304341D01*
X101599999Y-72304341D01*
X101364596Y-72324936D01*
X101364586Y-72324938D01*
X101136344Y-72386094D01*
X101136335Y-72386098D01*
X100922171Y-72485964D01*
X100922169Y-72485965D01*
X100728597Y-72621505D01*
X100561505Y-72788597D01*
X100431575Y-72974158D01*
X100376998Y-73017783D01*
X100307500Y-73024977D01*
X100245145Y-72993454D01*
X100228425Y-72974158D01*
X100098494Y-72788597D01*
X99931402Y-72621506D01*
X99931395Y-72621501D01*
X99737834Y-72485967D01*
X99737830Y-72485965D01*
X99737828Y-72485964D01*
X99523663Y-72386097D01*
X99523659Y-72386096D01*
X99523655Y-72386094D01*
X99295413Y-72324938D01*
X99295403Y-72324936D01*
X99060001Y-72304341D01*
X99059999Y-72304341D01*
X98824596Y-72324936D01*
X98824586Y-72324938D01*
X98596344Y-72386094D01*
X98596335Y-72386098D01*
X98382171Y-72485964D01*
X98382169Y-72485965D01*
X98188597Y-72621505D01*
X98021505Y-72788597D01*
X97891575Y-72974158D01*
X97836998Y-73017783D01*
X97767500Y-73024977D01*
X97705145Y-72993454D01*
X97688425Y-72974158D01*
X97558494Y-72788597D01*
X97391402Y-72621506D01*
X97391395Y-72621501D01*
X97197834Y-72485967D01*
X97197830Y-72485965D01*
X97197828Y-72485964D01*
X96983663Y-72386097D01*
X96983659Y-72386096D01*
X96983655Y-72386094D01*
X96755413Y-72324938D01*
X96755403Y-72324936D01*
X96520001Y-72304341D01*
X96519999Y-72304341D01*
X96284596Y-72324936D01*
X96284586Y-72324938D01*
X96056344Y-72386094D01*
X96056335Y-72386098D01*
X95842171Y-72485964D01*
X95842169Y-72485965D01*
X95648597Y-72621505D01*
X95481505Y-72788597D01*
X95345965Y-72982169D01*
X95345964Y-72982171D01*
X95246098Y-73196335D01*
X95246094Y-73196344D01*
X95184938Y-73424586D01*
X95184936Y-73424596D01*
X95164341Y-73659999D01*
X84500500Y-73659999D01*
X84500500Y-68124500D01*
X84520185Y-68057461D01*
X84572989Y-68011706D01*
X84624500Y-68000500D01*
X148375500Y-68000500D01*
X148442539Y-68020185D01*
G37*
%TD.AperFunction*%
%TD*%
M02*
