M48
; DRILL file {KiCad 8.0.6} date 2024-11-09T21:25:51+1100
; FORMAT={-:-/ absolute / metric / decimal}
; #@! TF.CreationDate,2024-11-09T21:25:51+11:00
; #@! TF.GenerationSoftware,Kicad,Pcbnew,8.0.6
; #@! TF.FileFunction,Plated,1,2,PTH
FMAT,2
METRIC
; #@! TA.AperFunction,Plated,PTH,ComponentDrill
T1C0.700
; #@! TA.AperFunction,Plated,PTH,ComponentDrill
T2C0.750
; #@! TA.AperFunction,Plated,PTH,ComponentDrill
T3C0.800
; #@! TA.AperFunction,Plated,PTH,ComponentDrill
T4C0.813
; #@! TA.AperFunction,Plated,PTH,ComponentDrill
T5C1.000
%
G90
G05
T1
X88.9Y-99.06
X88.9Y-104.14
X93.98Y-93.98
X93.98Y-99.06
X114.3Y-86.36
X114.3Y-91.44
X114.3Y-96.52
X114.3Y-101.6
T2
X88.9Y-109.22
X88.9Y-110.49
X88.9Y-111.76
X93.98Y-104.14
X93.98Y-105.41
X93.98Y-106.68
T3
X104.18Y-101.6
X104.18Y-104.14
X106.68Y-101.6
X106.68Y-104.14
T4
X104.14Y-106.68
X104.14Y-114.3
X106.68Y-106.68
X106.68Y-114.3
X109.22Y-106.68
X109.22Y-114.3
X111.76Y-106.68
X111.76Y-114.3
X114.3Y-106.68
X114.3Y-114.3
X116.84Y-106.68
X116.84Y-114.3
X119.38Y-106.68
X119.38Y-114.3
X121.92Y-106.68
X121.92Y-114.3
T5
X91.44Y-117.52
X93.3Y-82.52
X93.3Y-85.06
X93.98Y-117.52
X96.52Y-73.66
X96.52Y-76.2
X99.06Y-73.66
X99.06Y-76.2
X101.6Y-73.66
X101.6Y-76.2
X104.14Y-73.66
X104.14Y-76.2
X104.14Y-117.52
X106.68Y-73.66
X106.68Y-76.2
X106.68Y-117.52
X109.22Y-73.66
X109.22Y-76.2
X109.22Y-117.52
X111.76Y-73.66
X111.76Y-76.2
X111.76Y-117.52
X114.3Y-73.66
X114.3Y-76.2
X114.3Y-117.52
X116.84Y-73.66
X116.84Y-76.2
X116.84Y-117.52
X119.38Y-73.66
X119.38Y-76.2
X119.38Y-117.52
X121.92Y-73.66
X121.92Y-76.2
X121.92Y-117.52
X124.46Y-73.66
X124.46Y-76.2
X127.0Y-73.66
X127.0Y-76.2
X129.54Y-73.66
X129.54Y-76.2
X132.08Y-73.66
X132.08Y-76.2
X134.6Y-117.52
X134.62Y-73.66
X134.62Y-76.2
X137.14Y-117.52
X137.16Y-73.66
X137.16Y-76.2
X139.68Y-117.52
X139.7Y-73.66
X139.7Y-76.2
X142.22Y-117.52
X142.24Y-73.66
X142.24Y-76.2
X144.76Y-117.52
X144.78Y-73.66
X144.78Y-76.2
M30
